<svg xmlns="http://www.w3.org/2000/svg" viewBox="0 0 256 256"><title>aww</title><g id="Layer_2" data-name="Layer 2"><path d="M112.6,9.61C213.07,9.61,266,108.7,254.44,199.26,251,226.11,205,240,172.65,243.84,82.09,254.7,0,229.11,0,199.26c0-19.86,13.44-11.48,13.78-32.67.14-8.43-8.71-17.8-11.25-42C-6.54,38.31,62.44,9.61,112.6,9.61Z" style="fill:#fbc11a"/><circle cx="179.67" cy="71.37" r="32.74" style="fill:#231f20"/><circle cx="69.41" cy="112.54" r="32.74" style="fill:#231f20"/><path d="M239.9,212.58c-12.26-4.66-61.67-13-43.25-48.46,9.95-19.18,45.37-.53,55.39,3.93" style="fill:none;stroke:#231f20;stroke-linecap:round;stroke-miterlimit:10;stroke-width:2.64692273916196px"/><path d="M94.93,236.11c2.74-20.52,7.33-67.39,45.19-54.51,23.17,7.88,10.6,40,4.72,59.81" style="fill:none;stroke:#231f20;stroke-linecap:round;stroke-miterlimit:10;stroke-width:2.64692273916196px"/><path d="M156.23,166.47c-5.32,0-10.07-2.2-14.1-6.54-8.8-9.46-11.81-27-11.52-31,.52-7.15,28.67-11.95,34.44-11.95a6.26,6.26,0,0,1,2.19.28c1,.42,5.87,4.71,8.65,12.93,4.22,12.54,3.71,29.17-11.64,34.79A23.6,23.6,0,0,1,156.23,166.47Z" style="fill:#cf2c1d"/><path d="M165.05,118.26a5.24,5.24,0,0,1,1.7.19c.68.27,5.24,4.31,7.88,12.12,3.74,11.1,4.19,27.63-10.84,33.12a22,22,0,0,1-7.56,1.45c-19.39,0-24.64-31.54-24.3-36.15.39-5.36,25.75-10.73,33.12-10.73m0-2.65h0c-4.19,0-12.73,1.49-19.88,3.45s-15.53,4.88-15.88,9.73c-.31,4.31,2.66,22.13,11.87,32,4.29,4.62,9.36,7,15.07,7a24.69,24.69,0,0,0,8.47-1.61,21.34,21.34,0,0,0,14.14-16.4c1.69-8.06-.34-16-1.7-20.05a33.18,33.18,0,0,0-5.09-9.66c-1.26-1.64-3.06-3.58-4.32-4.08a7.23,7.23,0,0,0-2.67-.38Z" style="fill:#231f20"/><path d="M176.3,149a18.69,18.69,0,0,1-12.5,14.73c-20.53,7.51-28.87-16-31.17-28.28C144.84,133.7,170.4,132.29,176.3,149Z" style="fill:#e75625"/><path d="M182.69,44.56c1-.05,11.15-.43,16.75,7.39.87,1.21,4.76,6.64,2.75,12.11-2.45,6.71-11.66,7.71-13.29,7.88-6,.65-13.44-1.37-17.74-7.29-.85-1.17-5-6.84-2.85-12.41C171,45.17,181.32,44.63,182.69,44.56Z" style="fill:#fff"/><path d="M70.85,87.09c1,0,11.24-.42,16.88,7.45.87,1.23,4.8,6.7,2.78,12.21-2.48,6.76-11.76,7.77-13.41,8-6,.65-13.54-1.38-17.87-7.35-.86-1.19-5-6.9-2.88-12.51C59.06,87.72,69.47,87.17,70.85,87.09Z" style="fill:#fff"/><path d="M157.78,80.55a4.91,4.91,0,0,1,4-2.36c1.31-.1,2.36.39,4.26,1.51,3.21,1.91,4.59,3.22,5.93,4,5.61,3.19,9,.58,12.13,3.65,2,2,3.12,5.48,1.85,7.85-1.54,2.89-6,2.94-7.68,3-7.14.08-12.25-5-14.67-7.4C161.56,88.75,156.32,83.73,157.78,80.55Z" style="fill:#fff"/><path d="M46.87,124.06a4.89,4.89,0,0,1,3.8-2.64c1.3-.19,2.38.22,4.35,1.21,3.34,1.68,4.8,2.89,6.2,3.56,5.82,2.79,9,0,12.36,2.79,2.17,1.82,3.49,5.26,2.39,7.71-1.33,3-5.81,3.35-7.45,3.48-7.12.58-12.58-4.12-15.16-6.35C51.21,132,45.64,127.33,46.87,124.06Z" style="fill:#fff"/></g></svg>