<svg xmlns="http://www.w3.org/2000/svg" viewBox="0 0 256 256"><title>chibi</title><g id="Layer_5" data-name="Layer 5"><path d="M176.91,161.3c-4.8-.94-1.43,27.44,5.4,30.83s54.13-2.09,67.15-60.42C255.35,105.33,261.13,42.4,228,23.28c5.14-4.11,8-12.6,3.54-16.47s-15,1.7-16.84,5c-2.59-3.31-8.36-9.23-13.84-4.76s.87,13.12,2.89,14.85c-2.17.72-6.2,10.38-2.17,14.13s13.84-.72,17.74-4c19.26,13.93,24.74,63,12.48,99.23C222.61,158.38,194.81,164.77,176.91,161.3Z" style="fill:#558a3a;stroke:#000;stroke-miterlimit:10;stroke-width:2.43988358673589px"/><path d="M39.08,164.77c-5.87,9.27-30.53,53.76-27,65.81s53.89,22.86,122.48,21,87.32-4.47,90.28-25.53c2.92-20.81-4.08-27.6-14.41-36.57a100.89,100.89,0,0,0,8.79-7.82c-3.83-3.34-11.16-13.95-17-14.66S39.08,164.77,39.08,164.77Z" style="fill:#262626;stroke:#000;stroke-miterlimit:10;stroke-width:2.2714599575565px"/><path d="M61.15,248.23c-28.71-3.9-47-10.56-49.08-17.64-3.52-12.06,21.14-56.55,27-65.82,0,0,19.6.18,45.22.45C80.7,172.55,64.51,191,58,211.39,53.74,224.57,56.65,238.08,61.15,248.23Z" style="stroke:#000;stroke-miterlimit:10;stroke-width:2.2714599575565px;opacity:0.200000002980232;isolation:isolate"/><path d="M140.75,188.57c-27.59,1.39-48.57.54-65.19-2.34-30.89-5.32-46.75-17.52-62.12-34.77C-10.2,124.92,18.08,47.38,56,41.86l3.22-.43c1-.15,2.08-.25,3.1-.37s2-.22,3-.29,1.93-.17,2.88-.22C96,38.72,107.62,46.77,112.75,50,120,41.25,133.93,30.64,163,30.64c25.47,0,37.38,22.25,41.38,40.8s11.64,72,13.1,80S219.68,184.57,140.75,188.57Z" style="fill:#558a3a;stroke:#000;stroke-miterlimit:10;stroke-width:2.43988358673589px"/><path d="M39,100.58a32.57,32.57,0,0,0,15.7-4.24c9.2-5.64,30.67-30.64,55.66-26.81" style="fill:none;stroke:#000;stroke-miterlimit:10;stroke-width:2.43988358673589px"/><path d="M217.87,133.07c1.25.94,11,10.59-4.09,17.77-18.28,8.69-68.84,9.46-121,9s-84.35-38.5-9.26-32.07c41.8,3.58,77.48,7.56,102.17,1.74a59.57,59.57,0,0,0,38.16-28.17C238,76.8,228.16,48.91,200.17,48s-51.63,17.4-57.5,22.32" style="fill:#558a3a;stroke:#000;stroke-miterlimit:10;stroke-width:2.43988358673589px"/><path d="M41.89,71.09C51.1,60.6,82.24,42.81,108,60.6" style="fill:none;stroke:#000;stroke-miterlimit:10;stroke-width:2.43988358673589px"/><path d="M212,100.61c-10,1.79-30.51,8.77-40.11,9.45-11.23.8-17.76-1.46-23.61-4-10.86-4.63-9.2-10.64-9.2-12.07,0-2.23,3.66-3.69,7.49-5.1S170.13,68,189.89,63.56s44.34.8,44.34,17.34C234.23,88.22,234.91,96.51,212,100.61Z" style="fill:#fff;stroke:#000;stroke-miterlimit:10;stroke-width:2.43988358673589px"/><path d="M212,100.35c-2.29.27-8.9,1.05-11.61,1.71a108.45,108.45,0,0,0-16.13,4.66C175.79,96.15,166.54,78,190,68.31,199,64.63,218.78,72,212,100.35Z" style="stroke:#000;stroke-miterlimit:10;stroke-width:2.43988358673589px"/><circle cx="198.46" cy="84.85" r="5.88" style="fill:#fff"/><circle cx="188.51" cy="77.35" r="3.11" style="fill:#fff"/><circle cx="186.13" cy="87.08" r="2.2" style="fill:#fff"/><circle cx="189.05" cy="93.39" r="1.26" style="fill:#fff"/><path d="M127,60.28C133.72,53,161.36,45,178.2,51.38" style="fill:none;stroke:#000;stroke-miterlimit:10;stroke-width:2.43988358673589px"/><path d="M151.69,92.91c0,7-6.86,17.27-21.72,23.61A74.19,74.19,0,0,1,105.35,122c-1.61.1-3.31.13-5.12.08-10.73-.37-24-3.32-29-5.47C60.36,112,56.56,107.45,56.56,106c0-2.22,4.59-1.85,8.27-3.62C74.71,97.64,87.59,80,107.35,75.56S151.69,76.37,151.69,92.91Z" style="fill:#fff;stroke:#000;stroke-miterlimit:10;stroke-width:2.43988358673589px"/><path d="M130.27,115.3c-.1.42-.2.83-.3,1.22A74.19,74.19,0,0,1,105.35,122c-1.61.1-3.31.13-5.12.08-8.61-10.4-19.13-29.38,5.08-39.28C114.28,79.12,137,87,130.27,115.3Z" style="stroke:#000;stroke-miterlimit:10;stroke-width:2.43988358673589px"/><path d="M219.25,134.44l-.66.42c-.34.22,4.8,4.09,3.06,9-.78,2.16-2.83,4.47-7.13,6.65l-.15.07-.29.15-.3.14c-18.28,8.69-68.84,9.46-121,9-30.33-.26-55-9.57-53.58-22.76h0c0-.37.09-.72.14-1.06,1.89-12.17,13.44-10.87,43.63-8.28l.55,0c56.26,4.82,97,4.16,119.89-6.81a44.19,44.19,0,0,0,10.37-6.74,33.5,33.5,0,0,0,4.5-4.87c.77-.94,1.5-1.88,2.19-2.83C227.73,114,232.38,125.74,219.25,134.44Z" style="fill:#a85b2d;stroke:#000;stroke-linecap:round;stroke-linejoin:round;stroke-width:2.43988358673589px"/><path d="M63.93,140.06c6.86,1.73,42.28,6.18,78.07,6.27,37.44.1,54.48-4.44,76.59-11.47" style="fill:none;stroke:#000;stroke-miterlimit:10;stroke-width:2.43988358673589px"/><circle cx="118.65" cy="100.22" r="5.88" style="fill:#fff"/><circle cx="104.12" cy="92.72" r="4.09" style="fill:#fff"/><circle cx="104.4" cy="102.57" r="2.82" style="fill:#fff"/><circle cx="109.8" cy="110.27" r="2.47" style="fill:#fff"/><path d="M75.56,186.23c-30.89-5.32-46.75-17.52-62.12-34.77C-10.2,124.92,18.08,47.38,56,41.86l3.22-.43c1-.15,2.08-.25,3.1-.37s2-.22,3-.29,1.93-.17,2.88-.22C32.79,51.6,9.64,122.18,30.52,149,42.43,164.34,59.6,176.74,75.56,186.23Z" style="stroke:#000;stroke-miterlimit:10;stroke-width:2.43988358673589px;opacity:0.150000005960464;isolation:isolate"/><path d="M46.5,185.29c4.69,1.43,1.44,27.44-5.39,30.83S9.2,195.38,3.85,135.85C-1.87,72.1,4.67,35.07,37.81,22c-3.26-5.16-5.44-11.92-1-15.78s12.39,1,14.27,4.32C53.7,7.25,59.47,1.34,65,5.81s-.87,13.12-2.89,14.85c2.17.72,6.2,10.38,2.17,14.13s-13.84-.72-17.74-4c-20.35,7.13-28.16,43.65-23,97.68C26.2,156.94,33.42,181.31,46.5,185.29Z" style="fill:#558a3a;stroke:#000;stroke-miterlimit:10;stroke-width:2.43988358673589px"/><path d="M48.43,7.73A6.85,6.85,0,0,0,42,8.83c-4.47,3.86-2.29,10.62,1,15.78C9.83,37.65,6,74,11.73,137.7c4.08,45.4,23.39,65.1,33.58,72.81-2.2,5.92-5.85,5.75-7.63,5.23C26.53,212.5,8,182.52,3.85,135.85-1.87,72.1,4.67,35.07,37.81,22c-3.26-5.16-5.44-11.92-1-15.78C40.09,3.43,45.18,5.25,48.43,7.73Z" style="opacity:0.200000002980232;isolation:isolate"/><path d="M249.46,131.71c-5.68,25.45-17.88,40.84-30.4,49.82a37.32,37.32,0,0,1-2.76-2.86c11.17-9.27,21.59-24,26.71-47,5.89-26.38,14.78-87.31-18.36-106.43,5.14-4.11,4.9-14.6.43-18.47A4.52,4.52,0,0,0,223.87,6c2.89-.82,5.8-.85,7.66.77,4.47,3.86,1.6,12.36-3.54,16.47C261.13,42.4,255.35,105.33,249.46,131.71Z" style="stroke:#000;stroke-miterlimit:10;stroke-width:2.2714599575565px;opacity:0.150000005960464;isolation:isolate"/><g id="left"><path d="M164.64,232.59c-1.19,0-2.42.12-3.65.1a28.65,28.65,0,0,1-5.76-.59,23.26,23.26,0,0,1-10.94-5.69,28.6,28.6,0,0,1-4.74-5.61,5.27,5.27,0,0,1-.76-1.65,1.6,1.6,0,0,1,.56-1.7,4.38,4.38,0,0,1,1.68-.78,11.81,11.81,0,0,1,1.87-.33,9.74,9.74,0,0,1,2,0,20.74,20.74,0,0,1,5.86,1.46c2.1.79,4.24,1.53,6.27,2.5a26.12,26.12,0,0,1,2.67,1.41,2.84,2.84,0,0,0,1.92.45,3.29,3.29,0,0,0,1.24-.47,27.85,27.85,0,0,0,3.69-2.81,25.34,25.34,0,0,0,5.35-6.79,9.32,9.32,0,0,1,5.59-4.59A9.57,9.57,0,0,1,181,207a2.06,2.06,0,0,1,2,1.41,3,3,0,0,1,.11,1.23,26.29,26.29,0,0,1-6.71,16.66,19.74,19.74,0,0,1-5.17,4.24,15.81,15.81,0,0,1-4.09,1.6C166.28,232.34,165.46,232.48,164.64,232.59Z" style="fill:#fbdd11;stroke:#000;stroke-miterlimit:10;stroke-width:1.2906022206386px"/><path d="M121.76,225.48l-.09-1a16.81,16.81,0,0,1,.25-3.09A27.15,27.15,0,0,1,126.71,210a21.94,21.94,0,0,1,6-5.79,17.34,17.34,0,0,1,4.66-2.11,23,23,0,0,1,4.67-.64,28.4,28.4,0,0,1,9.74,1.19,22.51,22.51,0,0,1,6.43,3.25,28.25,28.25,0,0,1,5.37,5.22,19.79,19.79,0,0,1,1.9,2.81,4.3,4.3,0,0,1,.49,1.29,1.46,1.46,0,0,1-.49,1.49,4.14,4.14,0,0,1-1.6.72,18.86,18.86,0,0,1-4.1.51,7.22,7.22,0,0,1-2.68-.48c-2.86-1-5.69-2-8.47-3.14-1.12-.47-2.19-1.06-3.26-1.64a4.61,4.61,0,0,0-1.63-.65,3,3,0,0,0-1.8.43,19.27,19.27,0,0,0-2.92,2.15,25.87,25.87,0,0,0-3.87,4,27.74,27.74,0,0,0-2.36,3.62,9.39,9.39,0,0,1-5.16,4.42,10.08,10.08,0,0,1-3.81.6A2,2,0,0,1,121.76,225.48Z" style="fill:#fbdd11;stroke:#000;stroke-miterlimit:10;stroke-width:1.2906022206386px"/></g></g></svg>