<svg xmlns="http://www.w3.org/2000/svg" xmlns:xlink="http://www.w3.org/1999/xlink" viewBox="0 0 4000 4000"><style><![CDATA[.B{stroke-miterlimit:10}.C{stroke:#333}.D{stroke-width:5}.E{stroke:#000}.F{stroke-linejoin:round}.G{fill:#35353d}.H{opacity:.15}.I{fill:#b32645}.J{fill:#231f20}.K{stroke:#231f20}]]></style><rect x="1634.44" y="2758.43" width="59.49" height="398.75" rx="9.67" transform="matrix(-.640646 .767836 -.767836 -.640646 5001.48 3574.72)" fill="#1a1924"/><g fill="#2b2b3a"><use xlink:href="#B"/><use xlink:href="#B" x="14.14" y="11.794"/><use xlink:href="#B" x="28.27" y="23.592"/><use xlink:href="#B" x="42.42" y="35.386"/><use xlink:href="#B" x="56.556" y="47.156"/><use xlink:href="#B" x="70.694" y="58.97"/><use xlink:href="#B" x="84.825" y="70.756"/><use xlink:href="#B" x="98.973" y="82.561"/><use xlink:href="#B" x="113.104" y="94.349"/><use xlink:href="#B" x="127.243" y="106.153"/><use xlink:href="#B" x="141.39" y="117.933"/><use xlink:href="#B" x="155.528" y="129.736"/><use xlink:href="#B" x="169.66" y="141.524"/><use xlink:href="#B" x="183.798" y="153.328"/><use xlink:href="#B" x="197.94" y="165.116"/><use xlink:href="#B" x="212.07" y="176.913"/><use xlink:href="#B" x="226.208" y="188.706"/><use xlink:href="#B" x="240.345" y="200.496"/><use xlink:href="#B" x="254.493" y="212.291"/><use xlink:href="#B" x="268.624" y="224.089"/><use xlink:href="#B" x="282.763" y="235.883"/></g><rect x="2326.4" y="2748.43" width="59.49" height="398.75" rx="9.67" transform="matrix(.640646 .767836 -.767836 .640646 3110.31 -749.79)" fill="#1a1924"/><g fill="#2b2b3a"><use xlink:href="#C"/><use xlink:href="#C" x="-14.143" y="11.795"/><use xlink:href="#C" x="-28.282" y="23.588"/><use xlink:href="#C" x="-42.413" y="35.384"/><use xlink:href="#C" x="-56.563" y="47.186"/><use xlink:href="#C" x="-70.688" y="58.98"/><use xlink:href="#C" x="-84.837" y="70.782"/><use xlink:href="#C" x="-98.97" y="82.568"/><use xlink:href="#C" x="-113.108" y="94.37"/><use xlink:href="#C" x="-127.25" y="106.156"/><use xlink:href="#C" x="-141.388" y="117.96"/><use xlink:href="#C" x="-155.524" y="129.753"/><use xlink:href="#C" x="-169.663" y="141.555"/><path d="M2297.175 2958.47l28.598 34.276-5.175 4.318L2292 2962.79z"/><use xlink:href="#C" x="-197.944" y="165.143"/><use xlink:href="#C" x="-212.083" y="176.946"/><use xlink:href="#C" x="-226.224" y="188.732"/><use xlink:href="#C" x="-240.363" y="200.534"/><use xlink:href="#C" x="-254.5" y="212.328"/><use xlink:href="#C" x="-268.638" y="224.13"/><use xlink:href="#C" x="-282.77" y="235.916"/></g><path d="M2304.67 3292.92a204.73 204.73 0 0 1-29.56-2.28c-50.77-7.42-115.16-32.27-196.86-76a25 25 0 0 1 23.59-44.09c75.45 40.37 136.18 64.12 180.5 70.6 28.93 4.23 49.75 1 61.88-9.64 13.6-11.92 12.4-33 8.83-72.4-4.17-46.12-9.36-103.53 19.78-169.5 22.06-50 60.82-97.58 106.32-130.66 24.68-17.94 50.48-31.1 76.7-39.12 29.15-8.92 58.1-11.24 86.08-6.92 34.55 5.35 69.2 20.88 97.6 43.73 32.6 26.24 54.08 59.73 62.13 96.86 6.6 30.4 4.83 66.52-4.7 96.6-12.26 38.65-36.7 66.3-68.82 77.83a102.94 102.94 0 0 1-35 6c-49.4 0-90.4-33.45-95.84-38.08a25 25 0 1 1 32.42-38.06c.43.36 43.66 36.65 81.5 23.06 21.92-7.87 32.8-29.3 38.06-45.9 6.9-21.8 8.25-49 3.5-70.9-7.07-32.63-28.16-55.26-44.6-68.5-21.34-17.18-48.27-29.3-73.9-33.27-28.1-4.34-72.73-1.44-125.72 37.07-38.58 28.05-71.38 68.3-90 110.42-23.9 54.16-19.56 102.32-15.72 144.8 4 43.84 7.7 85.25-25.67 114.5-18.03 15.9-42.34 23.82-72.46 23.82z" class="B C D I"/><path d="M2282.34 3241.17c-44.32-6.48-105.05-30.23-180.5-70.6a25 25 0 0 0-36.21 16.61 25 25 0 0 1 26.21-1.61c75.45 40.36 136.67 57.34 180.5 66.6 25 5.28 67.86 6.65 91.13-15.56 4.05-3.87-22.25 1.67-20.5-4-12.28 9.76-32.67 12.65-60.62 8.56zm428.88-160.27c-37.83 13.6-81.06-22.7-81.5-23.06a25 25 0 0 0-40.61 13.6 25 25 0 0 1 30.61 1.4c.43.36 43.66 36.65 81.5 23.06 15.32-5.5 25.24-17.6 31.62-30.07a51.73 51.73 0 0 1-21.62 15.07zm90.43-127.37c-8.05-37.13-29.53-70.63-62.12-96.87-28.4-22.85-63.06-38.38-97.6-43.73-28-4.32-56.93-2-86.08 6.92-26.2 8-52 21.2-76.68 39.12a337.72 337.72 0 0 0-85.91 92.38 337 337 0 0 1 75.91-77.38c24.67-17.93 50.47-31.1 76.68-39.12 29.15-8.92 58.1-11.24 86.08-6.92 34.55 5.35 69.22 20.88 97.6 43.73 32.6 26.24 54.07 59.74 62.12 96.87 6.6 30.4 4.83 66.5-4.7 96.6a146.81 146.81 0 0 1-12.39 28.56 138.55 138.55 0 0 0 22.39-43.56c9.54-30.12 11.3-66.18 4.7-96.6z" class="B D E H"/><g class="D"><path d="M2022.34 3177.8c-5.56 19.23-12.23 37.88-19.3 57.62-17.87 50-38 106.26-43 186.24q-.42 6.57-.7 13.36a95 95 0 0 1-94.86 91.21c-1.28 0-2.56 0-3.85-.08a95 95 0 0 1-91.14-98.71q.75-18.76 2.3-36.3c8.47-97 33.5-167 52.34-219.7 6.3-17.6 11.73-32.82 15.65-46.38a95 95 0 0 1 182.54 52.74z" class="B C I"/><path d="M1959.87 3424.63l-.5 10.4a95 95 0 0 1-94.86 91.21c-1.28 0-2.56 0-3.85-.08a95 95 0 0 1-91.14-98.71c.5-12.5.7-17.83 1.72-29.53 47.64-10.47 170 3.7 188.64 26.7z" class="E F H"/><g class="B C"><path d="M1910 3556.6a67.37 67.37 0 0 1-21.26-3.45c-27.72-9.2-93.83-15.48-147.7.23a67.5 67.5 0 1 1-37.78-129.61c46.2-13.47 92.28-15.5 122.8-14.82 39.22.86 76.58 6.57 105.2 16.06a67.51 67.51 0 0 1-21.24 131.59z" class="G"/><path d="M2135.37 3528.07a95 95 0 0 1-94.76-89.56c-5-87.08-27.4-146.43-47.17-198.8-7.4-19.6-14.4-38.14-20.28-57.27a95 95 0 0 1 181.59-55.91c4.15 13.5 9.85 28.6 16.46 46.1 22.12 58.62 52.42 138.9 59.1 255a95 95 0 0 1-89.4 100.29c-1.85.1-3.7.16-5.53.16z" class="I"/></g><path d="M2039.77 3424.63c.28 4.38.33 5.87.5 10.4a95 95 0 0 0 94.86 91.21c1.28 0 2.56 0 3.85-.08a95 95 0 0 0 91.14-98.71c-.5-12.5-1.1-17.83-2.1-29.53-47.64-10.47-169.6 3.7-188.25 26.7z" class="E F H"/><g class="B C"><path d="M2090 3556.6a67.51 67.51 0 0 1-21.25-131.61c28.62-9.5 66-15.2 105.2-16.06 30.5-.67 76.6 1.35 122.8 14.82a67.5 67.5 0 1 1-37.74 129.63c-53.88-15.7-120-9.43-147.7-.23a67.41 67.41 0 0 1-21.29 3.45z" class="G"/><path d="M2473.53 3081.17a62.5 62.5 0 1 1-124.37-12.59c4.82-47.58-13.67-107.14-51.1-166.3 8.36 40.55 13.3 74.57 16.1 105 1.23 13.3 2 25.93 2.58 38.13.62 14.08.84 27.6.84 40.93 0 69.8-29 139.15-77.55 194.2-58.26 66.12-144.6 111.6-242.43 112.44-62 .53-120-18.4-169.1-49.9a335.86 335.86 0 0 1-33.87-24.85 340.2 340.2 0 0 1-35.78-34.59c-49.9-55.77-80.27-126.63-80.27-197.3 0-14 .46-27.9 1.57-42.34 1.3-17.06 3.48-34.83 6.83-54.2 4.54-26.28 11.24-55.47 20.8-89.75l1.2-4.32c-32.3 47.47-66.72 116.7-66.43 195.95a62.49 62.49 0 0 1-62.27 62.73h-.23a62.5 62.5 0 0 1-62.5-62.27c-.16-43.33 6.84-87.14 20.67-130.46 16.58-52 43-103.32 78.64-152.2a618 618 0 0 1 72.16-82.31c36.78-35.18 77.2-65.18 118.2-87.4 22.12-38.75 42.28-62.83 59.46-80.86 37.53-39.37 90-94.47 158.87-90.24 55.32 3.4 93.4 43.63 127.17 80.3 22 23.88 44.42 53.7 66.72 99.95a539.75 539.75 0 0 1 67.42 50.36q15.48 13.53 30.36 28.4a639.88 639.88 0 0 1 67.69 79.75c36.24 50.7 62.06 103 76.5 153.9 11.75 41.43 15.96 81.9 12.12 119.8z" class="I"/></g><path d="M2379.4 3128.6v-124.23a62.38 62.38 0 0 0-59-62.3c22.25 45.53 32.54 89.62 28.8 126.52a62.49 62.49 0 0 0 30.2 60.01zm-764.74 15.4a62.42 62.42 0 0 0 27.9-52.27c-.2-56.42 17.17-107.74 38.86-149.76h-4.37a62.39 62.39 0 0 0-62.39 62.39z" class="B C H J"/><path d="M2117.15 2990.9c-14.13 25.26-136.62 239.45-288.64 352.2a335.86 335.86 0 0 1-33.87-24.85c58.77-41.23 120.3-104.38 183.1-187.94 58-77.15 97.2-145.94 104.5-158.95z" class="B C G"/><path d="M2117.15 2990.9c-14.13 25.26-136.62 239.45-288.64 352.2q-5.6-3.6-11-7.4c138.23-106 261.43-302.4 289.8-350.34z" class="E F H"/><g class="C G"><path d="M2317.6 3086.38c0 69.8-29 139.15-77.55 194.2l-60.68-142A31.64 31.64 0 0 1 2196 3097l120.73-51.58c.64 14.1.86 27.63.86 40.96zm-496.73 52.18l-62 145.12c-49.9-55.77-80.27-126.63-80.27-197.3 0-14 .46-27.9 1.57-42.34l124 53a31.65 31.65 0 0 1 16.7 41.52z" class="B"/><path d="M1862.3 3019l-9.17 21.48a18.71 18.71 0 0 1-24.56 9.85L1687 2989.85c4.54-26.28 11.24-55.47 20.8-89.75l144.67 94.36a18.7 18.7 0 0 1 9.84 24.54zm451.87-11.68l-127.63 52a18.7 18.7 0 0 1-24.55-9.85l-9.18-21.48a18.71 18.71 0 0 1 9.86-24.55l135.4-101.18c8.36 40.57 13.3 74.6 16.1 105.06z" class="F"/></g><g class="B"><path d="M2317.6 3086.37c0 69.8-29 139.15-77.55 194.2q-9.52 10.8-20 20.85a337 337 0 0 1-47.48 37.82c-50 32.95-109.92 53.2-174.93 53.77-62 .53-120-18.4-169.1-49.9q-3-1.9-5.9-3.88a332.11 332.11 0 0 1-28-21q-12-10-23-21c-4.4-4.4-8.66-8.93-12.8-13.54-49.9-55.77-80.27-126.64-80.27-197.3 0-13.94.46-27.9 1.57-42.34 1.3-17.06 3.48-34.83 6.83-54.2 2.53-14.65 5.73-30.2 9.73-47 4.4-17.8 7-31.53 12.26-47-.77 4.17-42.37 281.54 111.4 401.4 23.18 18.08 50.8 32.57 83.66 42 27.37 7.86 58.38 12.22 93.5 12.22 36.94 0 69.54-4.36 98.3-12.22 34.55-9.44 63.56-23.94 87.86-42 151.88-112.9 120.5-365.2 114.37-394.95 4.83 16.47 5 25.53 8.24 44.32 3.62 22 6.14 42 7.86 60.72 1.23 13.3 2 25.93 2.58 38.13.63 14.04.85 27.52.85 40.9z" opacity=".2" class="J K"/><g class="C G"><rect x="2099.3" y="2800.31" width="101.76" height="194.91" rx="30.63" transform="matrix(.866025 .5 -.5 .866025 1736.95 -686.86)"/><path d="M1672.18 2906.16c-33.63 55-98.07 58.1-134 55.57 16.58-52 43-103.32 78.64-152.2a618 618 0 0 1 72.16-82.31c7.6 0 12.12 1 12.6 3.4 3.94 19.25 20.6 93.76-29.4 175.53z"/></g></g><path d="M2227.66 2865.33l-66.83 115.75a30.63 30.63 0 0 1-41.84 11.21l-35.07-20.3a30.64 30.64 0 0 1-14.75-32.44 30.34 30.34 0 0 0 10.75 10.44l35.07 20.25a30.63 30.63 0 0 0 41.84-11.21l66.83-115.75a30.49 30.49 0 0 0 3.54-9.4 30.6 30.6 0 0 1 .46 31.44z" class="E F H"/><g class="B C"><path d="M2461.4 2961.4c-37.34 2.87-111.4-11.6-140.38-65.24-41-75.83-31.34-146.28-27.45-165.53.68-3.35 9.5-4 23.64-2.88a639.88 639.88 0 0 1 67.69 79.75c36.24 50.7 62.1 103 76.5 153.9z" class="G"/><path d="M923.8 1836.78c-109.3 103.92-60.9 310.4 16.55 426.94 110.37 166.07 358.2 267.53 482.6 176 129.94-95.63 107.64-388.85-48.6-538.55-116.65-111.8-337.5-171.86-450.54-64.4z" class="I"/></g><path d="M1331.05 2473c-130.2 13-303.42-77.93-390.7-209.26-77.45-116.54-125.85-323-16.55-426.94 47.57-45.24 114.2-60.8 184.2-55.3-50.35 4.23-96.62 21.46-132.2 55.3-109.3 103.92-60.9 310.4 16.55 426.94 76.08 114.46 217.46 198.28 338.7 209.28z" opacity=".1" class="B E"/><path d="M3073.2 1832.12c111.1 102 66.32 309.3-9.1 427.16-107.46 168-353.47 273.75-479.46 184.37-131.58-93.35-114.4-386.92 39.2-539.32 114.68-113.78 334.45-177.7 449.35-72.2z" class="B C I"/><path d="M3064.1 2259.28c-84.76 132.5-255.72 226.3-386 216.14 123.46-8.92 269.67-96.84 346-216.14 75.4-117.87 120.2-325.17 9.1-427.16-36.23-33.26-82.88-49.68-133.4-53 65.57-4.07 127.75 11.1 173.4 53 111.1 102 66.32 309.3-9.1 427.16z" opacity=".1" class="B E"/><path d="M2473.53 3081.17a62.51 62.51 0 0 1-100.37 43.19 59.94 59.94 0 0 0 11.07 2.19 59.23 59.23 0 0 0 65-53c3.64-36-.35-74.4-11.5-113.67-13.7-48.3-38.2-97.94-72.6-146.06a607.53 607.53 0 0 0-64.24-75.69q-14.1-14.1-28.8-27a513.23 513.23 0 0 0-64-47.8c-21.16-43.9-42.46-72.2-63.32-94.86-32-34.8-68.2-73-120.7-76.22-65.33-4-115.16 48.28-150.78 85.65-16.3 17.1-35.44 40-56.43 76.74-38.9 21.1-77.27 49.57-112.17 83a586.75 586.75 0 0 0-68.49 78.11c-33.82 46.4-58.9 95.07-74.63 144.44-13.13 41.12-19.77 82.7-19.62 123.82a59.33 59.33 0 0 0 59.32 59.1h.22a59 59 0 0 0 18.51-3 62.23 62.23 0 0 1-39.7 14.41h-.23a62.5 62.5 0 0 1-62.5-62.27c-.16-43.33 6.84-87.14 20.67-130.46 16.58-52 43-103.32 78.64-152.2a618 618 0 0 1 72.16-82.31c36.78-35.18 77.2-65.18 118.2-87.4 22.12-38.75 42.28-62.83 59.46-80.86 37.53-39.37 90-94.47 158.87-90.24 55.32 3.4 93.4 43.63 127.17 80.3 22 23.88 44.42 53.7 66.72 99.95a539.75 539.75 0 0 1 67.42 50.36q15.48 13.53 30.36 28.4a639.88 639.88 0 0 1 67.69 79.75c36.24 50.7 62.06 103 76.5 153.9 11.75 41.33 15.96 81.8 12.12 119.7z" opacity=".2" class="B J K"/><path d="M2964.5 1847.06C2965.92 1340 2665.9 818.5 2000.73 818.5s-964.73 540.12-966.1 1028.56c-.36 132.77 40.33 287.73 116.6 435.32-16.6 32.67-27.1 72.55-27.1 121.5 0 178 449 511.08 910.3 497.74 420.5-12.16 840.86-314.9 840.86-524.16 0-43-8.12-78.06-21.35-106.82 72.42-145.06 110.18-295.83 110.54-423.58z" class="B C I"/></g><path d="M1402.05 1016c47 51.24 90 78.4 96.22 124.27 6.23 65.77 131 1067.57 131 1177.7-32.08 160.12-76.83 282.33-190.2 425.86M2603.6 1016c-47 51.24-90 78.4-96.22 124.27-6.23 65.77-131 1067.57-131 1177.7 32.08 160.12 85.92 278.9 187.62 425.56" fill="none" stroke="#871a37" stroke-width="31" class="B"/><path d="M1629.28 2353c-15.43 0-54.35-4.88-102.36-23.14-62.05-23.6-116.86-60.46-162.92-109.58-51.63-55.06-90.63-124.4-115.9-206.1-29.82-96.4-40.7-211.1-32.35-340.9 5.56-86.4 87.4-263.63 112.33-315.9 27.88-58.4 57.18-114.14 82.52-157 39.65-67 57.8-83.35 70.3-90.5 7.93-4.53 17.17-6.74 28.25-6.74 44.17 0 129.76 39.3 164.5 56.2 34.4 16.73 117.23 59.18 143.18 92.06 4 5 16.13 20.42 44.68 93.25 18 45.76 37.3 101.57 54.53 157.13 25.87 83.47 68.72 237 65.1 327.48-1.7 42.35-17.17 95.38-46 157.62-24.32 52.53-57.42 109.93-95.73 166-35.8 52.38-74.16 100.5-108 135.45-18 18.58-34.54 33.28-49.16 43.7-20.1 14.3-36.94 21-52.98 21z" fill="#871a37"/><path d="M1498.27 1140.27c32.55-18.6 257.32 90 291.1 132.8s162.62 409.77 156.8 554.78c-6.43 160.55-249.62 490.12-316.9 490.12-37.26 0-416.6-51.67-378.6-642.5 7.82-121.54 200.3-508.2 247.58-535.2z" fill="#212126"/><path d="M1627.94 2282.93c-8.42-.38-38-4-76.14-18.52a363.3 363.3 0 0 1-136.74-92c-44.3-47.25-78-107.45-100.08-178.9-27.28-88.23-37.16-194.46-29.36-315.73 3-47.3 43.27-158.6 102.5-283.6 26.3-55.48 54.17-109.06 78.5-150.88 26.33-45.24 40.6-63.23 46.6-69.83 19.73 2.26 68.27 18.95 129.82 48.88 69 33.54 111 62.57 118.84 72.47 9.88 12.5 47.5 99.3 87.3 227.73 41.75 134.74 64.36 245.53 62 304-2.47 61.7-49.88 168.34-123.74 278.33-32.28 48.1-67.23 93-98.4 126.47-39.4 42.26-57.65 50.35-61.12 51.6z" class="G"/><path d="M1433.48 1554.75c-39.9 2.36-75 207.06-64.53 251.1s145.56 146.85 247.6 146.85 261.1-66.08 261.1-157.13-394.65-243.77-444.17-240.83z" fill="#24242b"/><path d="M1451.57 1773.15c-22.42 48.2 113.86 95.54 151.3 102 61 10.47 236.15-12.84 240.62-62.67 3.2-35.48-299.5-237.95-391.93-39.33z" fill="#f1eff0"/><path d="M2376.78 2353c-16 0-32.88-6.66-53-21-14.62-10.4-31.16-25.1-49.16-43.7-33.87-35-72.24-83.07-108-135.45-38.3-56.06-71.4-113.46-95.72-166-28.8-62.24-44.28-115.27-46-157.62-3.62-90.46 39.23-244 65.1-327.48 17.22-55.56 36.58-111.37 54.53-157.13 28.55-72.83 40.7-88.2 44.68-93.25 26-32.88 108.77-75.33 143.18-92.06 34.74-16.9 120.33-56.2 164.5-56.2 11.08 0 20.32 2.2 28.25 6.74 12.5 7.15 30.65 23.5 70.3 90.5 25.35 42.83 54.65 98.58 82.53 157 24.94 52.26 106.77 229.5 112.33 315.9 8.35 129.8-2.54 244.5-32.35 340.9-25.26 81.7-64.26 151-115.9 206.1-46.06 49.12-100.88 86-162.92 109.58-48 18.24-86.92 23.15-102.35 23.15z" fill="#871a37"/><path d="M2507.78 1140.27c-32.54-18.6-257.3 90-291.1 132.8s-162.62 409.77-156.8 554.78c6.43 160.55 249.62 490.12 316.9 490.12 37.26 0 416.6-51.67 378.6-642.5-7.82-121.54-200.3-508.2-247.6-535.2z" fill="#212126"/><path d="M2378.12 2282.93c8.42-.38 38-4 76.14-18.52a363.19 363.19 0 0 0 136.73-92c44.3-47.25 78-107.45 100.1-178.9 27.28-88.23 37.16-194.46 29.36-315.73-3-47.3-43.27-158.6-102.5-283.6-26.3-55.48-54.17-109.06-78.5-150.88-26.33-45.24-40.6-63.23-46.6-69.83-19.73 2.26-68.27 18.95-129.82 48.88-69 33.54-111 62.57-118.84 72.47-9.88 12.5-47.5 99.3-87.3 227.73-41.75 134.74-64.36 245.53-62 304 2.48 61.7 49.9 168.34 123.74 278.33 32.3 48.1 67.24 93 98.4 126.47 39.4 42.26 57.64 50.35 61.1 51.6z" class="G"/><path d="M2572.58 1554.75c39.88 2.36 75 207.06 64.53 251.1s-145.56 146.85-247.6 146.85-261.1-66.08-261.1-157.13 394.65-243.77 444.17-240.83z" fill="#24242b"/><path d="M2554.5 1773.15c22.42 48.2-113.86 95.54-151.3 102-61 10.47-236.15-12.84-240.63-62.67-3.18-35.48 299.53-237.95 391.94-39.33z" fill="#f1eff0"/><path d="M1825.42 2086c0 62.5 81.85 138.4 179.1 137.54 89.63-.78 177-75.77 177-137.36 0-49.56-103.1-93.14-177-92.5-68.62.6-179.1 33.68-179.1 92.3z" class="I"/><path d="M2181.54 2086.18c0 61.6-87.4 136.58-177 137.36-97.25.84-179.1-75-179.1-137.54a45.82 45.82 0 0 1 .65-7.73c35 43.32 102.43 79.43 178 78.84 70.66-.55 140.08-37.6 176-81.27a37.66 37.66 0 0 1 1.45 10.34z" opacity=".2"/><path d="M2342.66 3507.47a67.44 67.44 0 0 1-83.69 45.92c-53.9-15.7-120-9.43-147.72-.23a67.53 67.53 0 0 1-88.39-71.09 67.08 67.08 0 0 0 3.08 14.27c9.4 28.33 35.75 38.27 64 38.27a67.37 67.37 0 0 0 21.26-3.45c27.72-9.2 93.83-15.48 147.72.23a67.39 67.39 0 0 0 18.92 2.71c29.23 0 56.17-11.15 64.77-40.63a68 68 0 0 0 2.34-11.85 67.11 67.11 0 0 1-2.29 25.85zm-368.6 2.87a67.43 67.43 0 0 1-85.32 42.82c-27.7-9.2-93.83-15.48-147.7.23a67.55 67.55 0 0 1-86-71.85 67.11 67.11 0 0 0 2.35 11.93c10.43 35.8 47.9 47.35 83.7 36.92 53.88-15.7 120-9.43 147.7-.23a67.41 67.41 0 0 0 21.26 3.45c28.3 0 54.66-8.94 64.06-37.27a67.08 67.08 0 0 0 3.08-14.27 67.16 67.16 0 0 1-3.12 28.27z" opacity=".3" class="D E F"/><path d="M2875.3 2377.46c0 209.26-420.37 512-840.86 524.16-461.3 13.34-910.3-319.74-910.3-497.74q0-7.14.3-14c38.6 182.8 468.4 486 909.44 473.26 406.2-11.75 812.27-294.1 841-502.25q.43 8.1.43 16.57z" class="H"/><path d="M2417.7 2858.7c-24.3 10.06-48.93 19.32-73.66 27.7-104.54 35.4-208.68 54.8-309.5 57.73l-26.8.4c-97.36 0-198.93-15.12-300-44.4l-1.4-.4a1237.78 1237.78 0 0 1-121.06-42.21q9.5-16.1 20.28-31.95c134 51.9 271.82 79 402.14 79 9 0 17.9-.13 26.8-.4 100.83-2.92 205-22.34 309.5-57.73q27.13-9.2 54-19.77 10.58 15.96 19.7 32.06z" opacity=".1"/><g class="D"><path d="M2012.85 3243.6q-6.37 0-12.8-.07c-99.73-1.13-197.64-15.8-268.62-40.23l13-37.83c67.1 23.1 160.43 37 256 38.06 98.37 1.1 187.57-10.9 251.18-33.82l13.56 37.63c-65.1 23.48-154.32 36.26-252.32 36.26z" fill="#3d3d44" class="B C"/><path d="M2265.24 3207.33c-65.16 23.48-154.38 36.26-252.4 36.26q-6.37 0-12.8-.07c-99.73-1.13-197.64-15.8-268.62-40.23l4.63-13.44c70.57 23.5 166.4 37.56 264 38.67q6.42.08 12.8.07c95.63 0 182.9-12.17 247.6-34.57z" class="E F H"/><g class="B C"><g fill="#814739"><rect x="1701.55" y="3145.09" width="76.72" height="117.79" rx="24.47" transform="matrix(.910612 -.413263 .413263 .910612 -1168.41 1005.24)"/><rect x="2217.88" y="3146.73" width="76.72" height="117.79" rx="24.47" transform="matrix(-.910612 -.413263 .413263 -.910612 2986.31 7057.07)"/></g><rect x="1937.19" y="3187.01" width="125.62" height="72.88" rx="18.07" fill="#34343a"/></g><path d="M2062.8 3205.07v36.75a18.06 18.06 0 0 1-18.06 18.07h-89.5a18.07 18.07 0 0 1-17.44-13.33 17.68 17.68 0 0 0 3.44.33h89.5a18.06 18.06 0 0 0 18.06-18.07v-36.75a18 18 0 0 0-.63-4.73 18.05 18.05 0 0 1 14.63 17.73zm242.6-14.94l-28.4 62.7a24.47 24.47 0 0 1-32.4 12.17l-25.3-11.48a24.45 24.45 0 0 1-14.35-22.55 23.75 23.75 0 0 0 4.35 2.55l25.3 11.48a24.47 24.47 0 0 0 32.4-12.17l28.44-62.7a24.37 24.37 0 0 0 2.19-9.85 24.46 24.46 0 0 1 7.77 29.85zm-514.15 39.2a24.44 24.44 0 0 1-14.36 22.55l-25.3 11.48a24.47 24.47 0 0 1-32.4-12.17l-28.45-62.7a24.48 24.48 0 0 1 7.82-29.85 24.19 24.19 0 0 0 2.18 9.85l28.45 62.7a24.47 24.47 0 0 0 32.4 12.17l25.3-11.48a24.42 24.42 0 0 0 4.36-2.55z" class="H E F"/></g><g class="C"><rect x="1642.94" y="2941.25" width="708.18" height="382.71" rx="57.78" fill="#643ba2" stroke-width="5.272" class="B"/><path d="M2055.3 3045.73v55.47a17.86 17.86 0 0 0 29.71 13.38l10.36-9.18h1.32a101.09 101.09 0 0 1 6.4 29.29c7-.37 13.6 1.3 18.5 5.8 12.1 11.1 7.27 33.67-1 46.62a55.17 55.17 0 0 1-29.16 21.89c-9.45 21.56-49.4 46.87-89.4 48-45.7 1.32-90.3-28.64-97.9-48.64-10.6-3.53-21.25-11.16-27.65-20.8-8.42-12.73-13.7-35.17-1.8-46.48 4.92-4.68 11.7-6.43 18.9-6.1 4.1-50.8 43.92-92.9 86.14-100.26s-28.8-18 3.1-18.4c27.2-.32 52.27 11.68 72.5 29.4zm34.37 43.76l-15.06 13.34a2.18 2.18 0 0 1-3.08-.18 2.21 2.21 0 0 1-.54-1.45v-73.54a21.77 21.77 0 0 1 21.77-21.77h105.5a21.77 21.77 0 0 1 21.77 21.77v40.28a21.77 21.77 0 0 1-21.77 21.77h-105.5a21 21 0 0 1-3.09-.22z" fill="#3df291" class="D F"/></g><g class="B D"><path d="M2294.2 2941.25h-594.37c-31.43 0-56.9 26.26-56.9 58.66v265.38c0 32.4 25.47 58.66 56.9 58.66h594.37c31.43 0 56.9-26.26 56.9-58.66V2999.9c0-32.4-25.47-58.66-56.9-58.66zm39.25 324.1c0 22.37-17.6 40.5-39.3 40.5H1699.9c-21.7 0-39.3-18.14-39.3-40.5v-265.48c0-22.37 17.6-40.5 39.3-40.5h594.27c21.7 0 39.3 18.14 39.3 40.5z" opacity=".2" class="J K"/><path d="M1606.24,3246.22c-43.3-6.94-72-48.38-83.47-81.76a115.46,115.46,0,0,1-6.52-43.35c1.14-22.68,9.66-43.14,24.64-59.16a72.5,72.5,0,0,1,124.92,58.42,72.5,72.5,0,0,1-59.57,125.85Z" class="C G"/></g><path d="M1522.77 3164.47c11.44 33.38 40.16 74.8 83.48 81.75a72.43 72.43 0 0 0 82.31-56.2c-18.23 25.92-75.5 23.1-110.23-6.3-32.62-27.63-54.48-93-53-99a95.19 95.19 0 0 0-9.08 36.41 115.76 115.76 0 0 0 6.52 43.34z" opacity=".3" class="D E F"/><path d="M2367.5 3246.35a72.53 72.53 0 0 1-36.4-124.08 72.51 72.51 0 0 1 123.12-62.15c15.44 15.57 24.57 35.76 26.4 58.4a115.49 115.49 0 0 1-5.22 43.53c-10.43 33.7-37.9 76-81 84.22a72.54 72.54 0 0 1-26.9.08z" class="B C D G"/><path d="M2480.6 3118.52a95 95 0 0 0-10.16-36.12c1.65 5.95-10.46 89-54.9 116.47s-94.64 12.66-105.1-6.3a72.43 72.43 0 0 0 84 53.7c43.08-8.23 70.55-50.5 81-84.22a115.49 115.49 0 0 0 5.17-43.53z" opacity=".3" class="D E F"/><defs ><path id="B" d="M1544.75 2819.244l-28.598 34.276-5.175-4.318 28.598-34.276z"/><path id="C" d="M2480.98 2805.12l28.598 34.276-5.175 4.318-28.598-34.276z"/></defs></svg>