<?xml version="1.0" encoding="UTF-8"?>
<svg width="523px" height="331px" viewBox="0 0 523 331" version="1.1" xmlns="http://www.w3.org/2000/svg" xmlns:xlink="http://www.w3.org/1999/xlink">
    <!-- Generator: Sketch 52.1 (67048) - http://www.bohemiancoding.com/sketch -->
    <title>deadpool-404</title>
    <desc>Created with Sketch.</desc>
    <g id="Page-1" stroke="none" stroke-width="1" fill="none" fill-rule="evenodd">
        <g id="Desktop-HD-Copy-6" transform="translate(-485.000000, -109.000000)">
            <g id="deadpool-404" transform="translate(486.000000, 110.000000)">
                <g id="Vanity-ban_1monkeyt1x77a1rp9bwtthajb8odapbmnzpyt8357ac8a1bcron34i3r9y66">
                    <path d="M94.1915059,233.057254 L99.0166289,233.057451 C99.6574761,233.05747 100.17698,233.576975 100.176996,234.217823 L100.178251,279.795029 C100.178267,280.435901 99.6587514,280.955442 99.0178802,280.955458 C99.0178597,280.955458 99.0178392,280.955458 99.0178187,280.955458 L94.1926956,280.955199 C93.5518484,280.955181 93.0323443,280.435675 93.0323284,279.794828 L93.0310731,234.217621 C93.0310572,233.57675 93.5505731,233.057208 94.1914443,233.057192 C94.1914648,233.057192 94.1914853,233.057192 94.1915059,233.057192 Z" id="Rectangle" fill="#1A1924" transform="translate(96.604662, 257.006325) rotate(129.840000) translate(-96.604662, -257.006325) "></path>
                    <polygon id="Rectangle" fill="#2B2B3A" transform="translate(80.225662, 242.182344) rotate(129.840000) translate(-80.225662, -242.182344) " points="77.5445899 241.777473 82.9067137 241.777603 82.9067334 242.587214 77.5446095 242.587084"></polygon>
                    <polygon id="Rectangle" fill="#2B2B3A" transform="translate(81.924014, 243.599001) rotate(129.840000) translate(-81.924014, -243.599001) " points="79.2429425 243.19413 84.6050663 243.19426 84.6050859 244.003871 79.2429621 244.003741"></polygon>
                    <polygon id="Rectangle" fill="#2B2B3A" transform="translate(83.621444, 245.016089) rotate(129.840000) translate(-83.621444, -245.016089) " points="80.9403727 244.611219 86.3024965 244.611349 86.3025161 245.42096 80.9403923 245.42083"></polygon>
                    <polygon id="Rectangle" fill="#2B2B3A" transform="translate(85.320998, 246.432746) rotate(129.840000) translate(-85.320998, -246.432746) " points="82.6399264 246.027876 88.0020503 246.028006 88.0020699 246.837617 82.6399461 246.837487"></polygon>
                    <polygon id="Rectangle" fill="#2B2B3A" transform="translate(87.019198, 247.847712) rotate(129.840000) translate(-87.019198, -247.847712) " points="84.3381262 247.442841 89.70025 247.442971 89.7002697 248.252582 84.3381458 248.252452"></polygon>
                    <polygon id="Rectangle" fill="#2B2B3A" transform="translate(88.717550, 249.265570) rotate(129.840000) translate(-88.717550, -249.265570) " points="86.0364788 248.860699 91.3986026 248.860829 91.3986222 249.67044 86.0364984 249.67031"></polygon>
                    <polygon id="Rectangle" fill="#2B2B3A" transform="translate(90.414981, 250.681457) rotate(129.840000) translate(-90.414981, -250.681457) " points="87.733909 250.276587 93.0960328 250.276717 93.0960524 251.086328 87.7339286 251.086198"></polygon>
                    <polygon id="Rectangle" fill="#2B2B3A" transform="translate(92.114534, 252.099315) rotate(129.840000) translate(-92.114534, -252.099315) " points="89.4334627 251.694445 94.7955866 251.694575 94.7956062 252.504186 89.4334824 252.504056"></polygon>
                    <polygon id="Rectangle" fill="#2B2B3A" transform="translate(93.811965, 253.515203) rotate(129.840000) translate(-93.811965, -253.515203) " points="91.1308929 253.110332 96.4930168 253.110462 96.4930364 253.920073 91.1309126 253.919943"></polygon>
                    <polygon id="Rectangle" fill="#2B2B3A" transform="translate(95.510317, 254.933061) rotate(129.840000) translate(-95.510317, -254.933061) " points="92.8292455 254.52819 98.1913693 254.52832 98.191389 255.337931 92.8292651 255.337801"></polygon>
                    <polygon id="Rectangle" fill="#2B2B3A" transform="translate(97.209718, 256.348026) rotate(129.840000) translate(-97.209718, -256.348026) " points="94.5286465 255.943155 99.8907703 255.943286 99.89079 256.752896 94.5286661 256.752766"></polygon>
                    <polygon id="Rectangle" fill="#2B2B3A" transform="translate(98.908071, 257.765884) rotate(129.840000) translate(-98.908071, -257.765884) " points="96.226999 257.361014 101.589123 257.361144 101.589143 258.170755 96.2270187 258.170625"></polygon>
                    <polygon id="Rectangle" fill="#2B2B3A" transform="translate(100.605501, 259.181772) rotate(129.840000) translate(-100.605501, -259.181772) " points="97.9244292 258.776901 103.286553 258.777031 103.286573 259.586642 97.9244489 259.586512"></polygon>
                    <polygon id="Rectangle" fill="#2B2B3A" transform="translate(102.303854, 260.599630) rotate(129.840000) translate(-102.303854, -260.599630) " points="99.6227818 260.194759 104.984906 260.194889 104.984925 261.0045 99.6228014 261.00437"></polygon>
                    <polygon id="Rectangle" fill="#2B2B3A" transform="translate(104.002485, 262.015517) rotate(129.840000) translate(-104.002485, -262.015517) " points="101.321413 261.610647 106.683537 261.610777 106.683557 262.420388 101.321433 262.420258"></polygon>
                    <polygon id="Rectangle" fill="#2B2B3A" transform="translate(105.699915, 263.432606) rotate(129.840000) translate(-105.699915, -263.432606) " points="103.018843 263.027735 108.380967 263.027865 108.380987 263.837476 103.018863 263.837346"></polygon>
                    <polygon id="Rectangle" fill="#2B2B3A" transform="translate(107.398268, 264.849263) rotate(129.840000) translate(-107.398268, -264.849263) " points="104.717196 264.444392 110.07932 264.444522 110.079339 265.254133 104.717216 265.254003"></polygon>
                    <polygon id="Rectangle" fill="#2B2B3A" transform="translate(109.096467, 266.265429) rotate(129.840000) translate(-109.096467, -266.265429) " points="106.415396 265.860559 111.77752 265.860689 111.777539 266.6703 106.415415 266.67017"></polygon>
                    <polygon id="Rectangle" fill="#2B2B3A" transform="translate(110.796021, 267.682086) rotate(129.840000) translate(-110.796021, -267.682086) " points="108.11495 267.277216 113.477073 267.277346 113.477093 268.086957 108.114969 268.086826"></polygon>
                    <polygon id="Rectangle" fill="#2B2B3A" transform="translate(112.493451, 269.099175) rotate(129.840000) translate(-112.493451, -269.099175) " points="109.81238 268.694304 115.174504 268.694434 115.174523 269.504045 109.812399 269.503915"></polygon>
                    <polygon id="Rectangle" fill="#2B2B3A" transform="translate(114.191804, 270.515832) rotate(129.840000) translate(-114.191804, -270.515832) " points="111.510732 270.110961 116.872856 270.111091 116.872876 270.920702 111.510752 270.920572"></polygon>
                    <path d="M177.331614,231.881084 L182.156737,231.880887 C182.797608,231.880868 183.317151,232.400383 183.317169,233.041254 C183.317169,233.041274 183.317169,233.041295 183.317169,233.041315 L183.315914,278.618522 C183.315898,279.259369 182.796394,279.778875 182.155547,279.778893 L177.330424,279.779152 C176.689553,279.77917 176.170009,279.259656 176.169991,278.618785 C176.169991,278.618765 176.169991,278.618744 176.169991,278.618724 L176.171246,233.041517 C176.171262,232.40067 176.690767,231.881164 177.331614,231.881146 Z" id="Rectangle" fill="#1A1924" transform="translate(179.743580, 255.830019) rotate(50.160000) translate(-179.743580, -255.830019) "></path>
                    <polygon id="Rectangle" fill="#2B2B3A" transform="translate(196.123256, 241.004362) rotate(50.160000) translate(-196.123256, -241.004362) " points="193.442204 240.599622 198.804328 240.599492 198.804308 241.409103 193.442184 241.409233"></polygon>
                    <polygon id="Rectangle" fill="#2B2B3A" transform="translate(194.424537, 242.421261) rotate(50.160000) translate(-194.424537, -242.421261) " points="191.743485 242.016521 197.105609 242.016391 197.105589 242.826002 191.743465 242.826132"></polygon>
                    <polygon id="Rectangle" fill="#2B2B3A" transform="translate(192.726097, 243.837729) rotate(50.160000) translate(-192.726097, -243.837729) " points="190.045045 243.432988 195.407169 243.432858 195.407149 244.242469 190.045025 244.242599"></polygon>
                    <polygon id="Rectangle" fill="#2B2B3A" transform="translate(191.028579, 245.254628) rotate(50.160000) translate(-191.028579, -245.254628) " points="188.347527 244.849888 193.709651 244.849757 193.709631 245.659368 188.347507 245.659498"></polygon>
                    <polygon id="Rectangle" fill="#2B2B3A" transform="translate(189.328938, 246.672297) rotate(50.160000) translate(-189.328938, -246.672297) " points="186.647886 246.267556 192.01001 246.267426 192.00999 247.077037 186.647866 247.077167"></polygon>
                    <polygon id="Rectangle" fill="#2B2B3A" transform="translate(187.632190, 248.088917) rotate(50.160000) translate(-187.632190, -248.088917) " points="184.951138 247.684176 190.313262 247.684046 190.313242 248.493657 184.951118 248.493787"></polygon>
                    <polygon id="Rectangle" fill="#2B2B3A" transform="translate(185.932549, 249.506585) rotate(50.160000) translate(-185.932549, -249.506585) " points="183.251496 249.101845 188.61362 249.101715 188.613601 249.911326 183.251477 249.911456"></polygon>
                    <polygon id="Rectangle" fill="#2B2B3A" transform="translate(184.235031, 250.922283) rotate(50.160000) translate(-184.235031, -250.922283) " points="181.553979 250.517543 186.916103 250.517413 186.916083 251.327024 181.553959 251.327154"></polygon>
                    <polygon id="Rectangle" fill="#2B2B3A" transform="translate(182.536591, 252.339952) rotate(50.160000) translate(-182.536591, -252.339952) " points="179.855539 251.935211 185.217663 251.935081 185.217643 252.744692 179.855519 252.744822"></polygon>
                    <polygon id="Rectangle" fill="#2B2B3A" transform="translate(180.837872, 253.755650) rotate(50.160000) translate(-180.837872, -253.755650) " points="178.15682 253.350909 183.518944 253.350779 183.518924 254.16039 178.1568 254.16052"></polygon>
                    <polygon id="Rectangle" fill="#2B2B3A" transform="translate(179.139432, 255.173318) rotate(50.160000) translate(-179.139432, -255.173318) " points="176.45838 254.768578 181.820504 254.768448 181.820484 255.578059 176.45836 255.578189"></polygon>
                    <polygon id="Rectangle" fill="#2B2B3A" transform="translate(177.441483, 256.589939) rotate(50.160000) translate(-177.441483, -256.589939) " points="174.76043 256.185198 180.122554 256.185068 180.122535 256.994679 174.760411 256.994809"></polygon>
                    <polygon id="Rectangle" fill="#2B2B3A" transform="translate(175.743043, 258.007607) rotate(50.160000) translate(-175.743043, -258.007607) " points="173.06199 257.602867 178.424114 257.602737 178.424095 258.412348 173.061971 258.412478"></polygon>
                    <polygon id="Rectangle" fill="#2B2B3A" transform="translate(174.044324, 259.424506) rotate(50.160000) translate(-174.044324, -259.424506) " points="171.363271 259.019766 176.725395 259.019636 176.725376 259.829247 171.363252 259.829377"></polygon>
                    <polygon id="Rectangle" fill="#2B2B3A" transform="translate(172.345884, 260.840974) rotate(50.160000) translate(-172.345884, -260.840974) " points="169.664831 260.436233 175.026955 260.436103 175.026936 261.245714 169.664812 261.245844"></polygon>
                    <polygon id="Rectangle" fill="#2B2B3A" transform="translate(170.647444, 262.258642) rotate(50.160000) translate(-170.647444, -262.258642) " points="167.966391 261.853902 173.328515 261.853772 173.328496 262.663383 167.966372 262.663513"></polygon>
                    <polygon id="Rectangle" fill="#2B2B3A" transform="translate(168.948725, 263.674340) rotate(50.160000) translate(-168.948725, -263.674340) " points="166.267673 263.2696 171.629796 263.26947 171.629777 264.079081 166.267653 264.079211"></polygon>
                    <polygon id="Rectangle" fill="#2B2B3A" transform="translate(167.250285, 265.092009) rotate(50.160000) translate(-167.250285, -265.092009) " points="164.569233 264.687268 169.931356 264.687138 169.931337 265.496749 164.569213 265.496879"></polygon>
                    <polygon id="Rectangle" fill="#2B2B3A" transform="translate(165.552335, 266.508629) rotate(50.160000) translate(-165.552335, -266.508629) " points="162.871283 266.103888 168.233407 266.103758 168.233387 266.913369 162.871264 266.913499"></polygon>
                    <polygon id="Rectangle" fill="#2B2B3A" transform="translate(163.853895, 267.926298) rotate(50.160000) translate(-163.853895, -267.926298) " points="161.172843 267.521557 166.534967 267.521427 166.534947 268.331038 161.172823 268.331168"></polygon>
                    <polygon id="Rectangle" fill="#2B2B3A" transform="translate(162.156378, 269.341995) rotate(50.160000) translate(-162.156378, -269.341995) " points="159.475325 268.937255 164.837449 268.937125 164.83743 269.746736 159.475306 269.746866"></polygon>
                    <path d="M173.537738,297.279547 C172.349065,297.274189 171.162344,297.18266 169.986909,297.005681 C163.888277,296.114414 156.153573,293.129511 146.339544,287.876802 C145.393467,287.370636 144.789305,286.398218 144.754641,285.325848 C144.719977,284.253479 145.260076,283.244076 146.171489,282.677873 C147.082902,282.111669 148.227163,282.074685 149.17324,282.580851 C158.236502,287.429967 165.531556,290.282742 170.855397,291.061099 C174.330548,291.569193 176.831504,291.181216 178.288593,289.903173 C179.923463,288.47138 179.776914,285.939317 179.349277,281.207915 C178.848365,275.668127 178.224928,268.77222 181.725305,260.846911 C184.375213,254.84107 189.031171,249.125911 194.496756,245.152446 C197.461385,242.99755 200.560552,241.416813 203.70897,240.453476 C207.210548,239.382034 210.689303,239.103363 214.049136,239.622267 C218.199377,240.264892 222.362832,242.130307 225.773117,244.874976 C229.689119,248.026842 232.269356,252.049555 233.236344,256.509493 C234.027953,260.162245 233.816537,264.499664 232.670566,268.112778 C231.197861,272.755294 228.26206,276.075323 224.403718,277.461471 C223.054618,277.943426 221.632023,278.187287 220.199421,278.182172 C214.265357,278.182172 209.340324,274.164264 208.686857,273.608123 C207.854806,272.916925 207.458798,271.831676 207.650155,270.767073 C207.841512,269.702469 208.590661,268.823036 209.611338,268.464823 C210.632015,268.106609 211.766482,268.324974 212.581236,269.036477 C212.632889,269.079719 217.825796,273.438759 222.370039,271.806371 C225.00313,270.861051 226.310066,268.286948 226.941911,266.29421 C227.77196,263.676864 227.932924,260.408485 227.362341,257.779127 C226.513073,253.859715 223.979684,251.141471 222.003665,249.551124 C219.440246,247.487517 216.20534,246.031701 213.126594,245.554838 C209.749943,245.03353 204.390066,245.381869 198.024761,250.007568 C193.390425,253.376846 189.450399,258.210347 187.213713,263.270869 C184.341578,269.776396 184.864112,275.561223 185.325384,280.664987 C185.805875,285.930909 186.25153,290.904947 182.241833,294.418364 C180.076019,296.328222 177.155835,297.279547 173.537738,297.279547 Z" id="Path" stroke="#333333" stroke-width="0.6" fill="#B32645"></path>
                    <g id="Group" opacity="0.15" transform="translate(144.747918, 239.272727)" fill="#000000" stroke="#000000" stroke-width="0.6">
                        <path d="M26.1074792,51.790774 C20.7836388,51.0124169 13.488584,48.1596422 4.42532223,43.3117269 C3.59713987,42.8680529 2.60903103,42.8375328 1.75504309,43.2292489 C0.901055153,43.620965 0.279623432,44.389766 0.0756773345,45.3068675 C1.00407958,44.6520813 2.22252776,44.5772395 3.2240947,45.1134794 C12.2873564,49.9613947 19.6412714,52.0009785 24.9062516,53.1120591 C27.9093205,53.746276 33.0577817,53.9108361 35.8530381,51.2430413 C36.3395353,50.7781891 33.1803069,51.4436364 33.3893205,50.7625739 C31.9142131,51.9349142 29.4649101,52.2820518 26.1074792,51.790774 Z" id="Path"></path>
                        <path d="M77.6257256,32.5384483 C73.0814818,34.1708361 67.8885752,29.8117963 67.8369224,29.7685542 C67.0352879,29.085995 65.9347269,28.8730835 64.9363477,29.2074171 C63.9379685,29.5417507 63.1876066,30.3744925 62.9587374,31.4021431 C64.0791367,30.612517 65.5920557,30.6817095 66.6356949,31.5703067 C66.6873477,31.6135487 71.8802543,35.9725885 76.424498,34.3402008 C78.2647786,33.6795582 79.4563963,32.2249434 80.2227795,30.7282877 C79.5278957,31.5457549 78.6331761,32.1693793 77.6257256,32.5384483 Z" id="Path"></path>
                        <path d="M88.4884261,17.2403687 C87.521438,12.7804308 84.9412012,8.75651698 81.0264007,5.60465133 C77.6161157,2.85998175 73.4514599,0.99456736 69.3012188,0.351942315 C65.9377817,-0.166962395 62.4626304,0.111708653 58.9610522,1.18315078 C55.8126348,2.14408543 52.714669,3.72842643 49.7500395,5.88212121 C45.6436613,8.89993709 42.1426778,12.6643989 39.4302937,16.9785141 C41.9483216,13.4085852 45.0276533,10.2697769 48.5488119,7.68387368 C51.5122402,5.5301789 54.6114073,3.94824023 57.7598246,2.98490325 C61.2614029,1.91346112 64.7401578,1.63479007 68.0999912,2.15369478 C72.2502324,2.79631982 76.4148882,4.66173421 79.8251732,7.4064038 C83.7399737,10.5582694 86.3202104,14.5821833 87.2871986,19.0421212 C88.0788075,22.694874 87.8673915,27.0310916 86.7214204,30.6442059 C86.3483079,31.8372331 85.8493965,32.9872093 85.2330995,34.0747426 C86.4332324,32.5041934 87.3439755,30.7324198 87.922648,28.8424535 C89.068619,25.2245345 89.2800351,20.8931216 88.4884261,17.2403687 Z" id="Path"></path>
                    </g>
                    <path d="M139.623481,283.452899 C138.955598,285.762746 138.15438,288.002924 137.306313,290.374031 C135.159719,296.379872 132.741648,303.137645 132.141035,312.744589 C132.1074,313.270701 132.079772,313.805621 132.05815,314.34935 C131.813901,320.466554 126.785684,325.301058 120.663306,325.305206 C120.509548,325.305206 120.355791,325.305206 120.200833,325.295597 C117.176657,325.175032 114.324241,323.858108 112.271093,321.634536 C110.217944,319.410964 109.132247,316.462891 109.252845,313.438865 C109.312907,311.936603 109.405001,310.482789 109.529128,309.077422 C110.546567,297.42609 113.554441,289.017912 115.816352,282.688956 C116.571925,280.573698 117.225392,278.746721 117.696274,277.117937 C119.445711,271.063205 125.772483,267.573004 131.827514,269.322355 C137.882545,271.071707 141.372918,277.398166 139.623481,283.452899 Z" id="Path" stroke="#333333" stroke-width="0.6" fill="#B32645"></path>
                    <path d="M132.119413,313.100135 C132.085778,313.626247 132.079772,313.805221 132.05815,314.34935 C131.813901,320.466554 126.785684,325.301058 120.663306,325.305206 C120.509548,325.305206 120.355791,325.305206 120.200833,325.295597 C117.176657,325.175032 114.324241,323.858108 112.271093,321.634536 C110.217944,319.410964 109.132247,316.462891 109.252845,313.438865 C109.312907,311.936203 109.336931,311.297181 109.459456,309.891815 C115.182104,308.634191 129.879123,310.335046 132.119413,313.100135 Z" id="Path" stroke="#000000" stroke-width="0.6" fill="#000000" opacity="0.15" stroke-linecap="round" stroke-linejoin="round"></path>
                    <path d="M126.128891,328.953154 C125.260905,328.952863 124.398618,328.812941 123.575081,328.538751 C120.245278,327.433677 112.303963,326.679343 105.831749,328.566378 C103.050596,329.377017 100.048212,328.642422 97.9555671,326.63931 C95.8629224,324.636199 94.9979392,321.668889 95.6864483,318.855139 C96.3749574,316.041389 98.5123578,313.808674 101.293512,312.998036 C106.843183,311.380062 112.378439,311.137426 116.043384,311.217904 C120.754599,311.321205 125.242385,312.007072 128.680298,313.146981 C132.457807,314.399314 134.768306,318.207572 134.134148,322.136234 C133.499989,326.064896 130.108598,328.952855 126.128891,328.953154 Z" id="Path" stroke="#333333" stroke-width="0.6" fill="#35353D"></path>
                    <path d="M153.200956,325.52502 C147.156216,325.519668 142.164262,320.801883 141.818124,314.767357 C141.21751,304.307583 138.52676,297.178649 136.151933,290.88693 C135.263025,288.531438 134.423367,286.305674 133.715844,284.007839 C131.861255,277.984617 135.24084,271.598464 141.264358,269.743966 C147.287876,267.889468 153.674345,271.268885 155.528935,277.292107 C156.027444,278.912483 156.712144,280.727448 157.506155,282.829493 C160.16327,289.870741 163.80299,299.514922 164.604209,313.459284 C164.777716,316.480767 163.743759,319.447418 161.729803,321.706586 C159.715847,323.965755 156.886871,325.332377 153.865235,325.505801 C153.643007,325.516612 153.42078,325.52502 153.200956,325.52502 Z" id="Path" stroke="#333333" stroke-width="0.6" fill="#B32645"></path>
                    <path d="M141.717221,313.100135 C141.750855,313.626247 141.756861,313.805221 141.778483,314.34935 C142.022732,320.466554 147.05095,325.301058 153.173327,325.305206 C153.327085,325.305206 153.480842,325.305206 153.6358,325.295597 C156.659976,325.175032 159.512392,323.858108 161.56554,321.634536 C163.618689,319.410964 164.704386,316.462891 164.583788,313.438865 C164.523726,311.936203 164.452854,311.297181 164.330329,309.891815 C158.607681,308.634191 143.95751,310.335046 141.717221,313.100135 Z" id="Path" stroke="#000000" stroke-width="0.6" fill="#000000" opacity="0.15" stroke-linecap="round" stroke-linejoin="round"></path>
                    <path d="M147.750986,328.953154 C143.768229,328.957014 140.372166,326.068283 139.737324,322.136639 C139.102482,318.204996 141.41679,314.394303 145.198378,313.144578 C148.636291,312.00467 153.12648,311.318802 157.835292,311.215502 C161.500237,311.135024 167.035493,311.37766 172.585164,312.995633 C175.366747,313.805413 177.505002,316.037564 178.194469,318.851257 C178.883936,321.664949 178.019868,324.632717 175.927753,326.636629 C173.835637,328.640542 170.833314,329.376158 168.051732,328.566378 C161.579518,326.679343 153.637001,327.433677 150.3084,328.538751 C149.483696,328.813241 148.620175,328.953166 147.750986,328.953154 Z" id="Path" stroke="#333333" stroke-width="0.6" fill="#35353D"></path>
                    <path d="M193.821666,271.844808 C193.404043,275.97008 189.721135,278.97574 185.59566,278.558138 C181.470185,278.140536 178.464376,274.457809 178.881999,270.332537 C179.460991,264.617379 177.239921,257.46322 172.744928,250.357108 C173.749154,255.227846 174.341359,259.314221 174.678904,262.969376 C174.826655,264.56693 174.919149,266.084005 174.988821,267.54943 C175.063297,269.240675 175.089724,270.864655 175.089724,272.465812 C175.089724,280.849967 171.606164,289.180069 165.774204,295.7913 C158.775853,303.733425 148.405655,309.196338 136.652845,309.297236 C129.205235,309.360898 122.238115,307.087087 116.340088,303.304608 C114.922943,302.395507 113.5641,301.39859 112.27153,300.319704 C110.739348,299.041539 109.302841,297.652877 107.973538,296.164863 C101.979413,289.465947 98.3312845,280.954469 98.3312845,272.465812 C98.3312845,270.784177 98.386541,269.115754 98.5198772,267.380066 C98.6760368,265.330873 98.9379044,263.196396 99.3403157,260.870935 C99.885673,257.714264 100.690495,254.208054 101.837668,250.090449 C101.885717,249.918682 101.933766,249.745714 101.983016,249.571544 C98.1018501,255.27349 93.9684261,263.587977 94.0032617,273.108437 C94.0109217,275.099598 93.2270719,277.012213 91.8242198,278.425359 C90.4213677,279.838504 88.5144794,280.636371 86.5232179,280.643366 L86.4955897,280.643366 C82.3599824,280.643394 79.0031366,277.299066 78.9879176,273.163691 C78.9686979,267.959029 79.8095572,262.69671 81.4708549,257.493249 C83.4624901,251.247174 86.6361333,245.082778 90.9173082,239.212669 C93.5085195,235.667174 96.4092476,232.358593 99.5853661,229.325853 C104.003481,225.100142 108.857641,221.496637 113.782674,218.82644 C116.43979,214.171913 118.861464,211.2795 120.925173,209.113793 C125.43338,204.384794 131.736221,197.766356 140.009075,198.274451 C146.654266,198.684049 151.229741,203.515148 155.285085,207.921033 C157.927786,210.789423 160.620938,214.371307 163.299676,219.92671 C166.152553,221.729245 168.860339,223.751752 171.398352,225.975794 C172.638018,227.059248 173.853661,228.196754 175.045278,229.388313 C178.012552,232.354169 180.732006,235.557978 183.176388,238.967631 C187.529636,245.057554 190.631206,251.339664 192.365778,257.453611 C193.777221,262.430051 194.282937,267.289978 193.821666,271.844808 Z" id="Path" stroke="#333333" stroke-width="0.6" fill="#B32645"></path>
                    <g id="Group" opacity="0.15" transform="translate(90.572556, 255.008032)" fill="#231F20" stroke="#333333" stroke-width="0.6">
                        <path d="M91.9407542,22.5327163 L91.9407541,7.61060241 C91.9414968,3.62960737 88.8288545,0.343030143 84.8535116,0.127323841 C87.5262429,5.59624315 88.762306,10.8921942 88.3130469,15.3245053 C88.0179918,18.2281505 89.4329031,21.0395625 91.9407542,22.5327163 Z" id="Path"></path>
                        <path d="M0.0792810171,24.3837167 C2.18185773,22.988192 3.44136344,20.6286537 3.43070583,18.1052099 C3.40548005,11.3282183 5.4932135,5.16382256 8.09867602,0.116513326 L7.57373959,0.116513326 C5.58608559,0.116513326 3.67984073,0.906066873 2.27435711,2.3114812 C0.868873492,3.71689553 0.0792810171,5.62304641 0.0792810171,7.61060241 L0.0792810171,24.3837167 Z" id="Path"></path>
                    </g>
                    <path d="M151.012319,261.003063 C149.314985,264.037214 134.601149,289.765038 116.340088,303.309412 C114.922943,302.400312 113.5641,301.403395 112.27153,300.324509 C119.331144,295.372092 126.722297,287.786714 134.267207,277.749752 C141.234327,268.482738 145.94434,260.219901 146.818834,258.657181 L151.012319,261.003063 Z" id="Path" stroke="#333333" stroke-width="0.6" fill="#35353D"></path>
                    <g id="Group" opacity="0.15" transform="translate(114.957475, 260.293173)" fill="#000000" stroke="#000000" stroke-linecap="round" stroke-linejoin="round" stroke-width="0.6">
                        <path d="M36.0548444,0.709890471 C34.3575099,3.74404162 19.6436738,29.4718656 1.38261289,43.0162395 C0.933353792,42.7279591 0.492903697,42.4312705 0.0612626041,42.1261738 C16.6658308,29.3937897 31.464954,5.80404527 34.8716352,0.0444432275 L36.0548444,0.709890471 Z" id="Path"></path>
                    </g>
                    <path d="M175.089724,272.470617 C175.089724,280.854772 171.606164,289.184874 165.774204,295.796104 L158.485156,278.739514 C158.087312,277.812396 158.074439,276.765143 158.449375,275.828527 C158.82431,274.89191 159.556283,274.142796 160.483998,273.746258 L174.986418,267.550632 C175.063297,269.24548 175.089724,270.86946 175.089724,272.470617 Z" id="Path" stroke="#333333" stroke-width="0.6" fill="#35353D"></path>
                    <path d="M115.42235,278.738313 L107.974739,296.169668 C101.980614,289.470752 98.3324858,280.959273 98.3324858,272.470617 C98.3324858,270.788981 98.3877422,269.120559 98.5210785,267.38487 L113.4163,273.751062 C115.347253,274.574581 116.245288,276.80719 115.42235,278.738313 Z" id="Path" stroke="#333333" stroke-width="0.6" fill="#35353D"></path>
                    <path d="M120.399036,264.377145 L119.29751,266.957254 C119.06322,267.505379 118.620758,267.937975 118.067475,268.159863 C117.514192,268.381752 116.895417,268.374752 116.347295,268.140405 L99.3415169,260.875739 C99.8868742,257.719069 100.691697,254.212859 101.838869,250.095254 L119.217028,261.429478 C120.357211,261.917297 120.88632,263.236779 120.399036,264.377145 Z" id="Path" stroke="#333333" stroke-width="0.6" fill="#35353D" stroke-linecap="round" stroke-linejoin="round"></path>
                    <path d="M174.678904,262.97418 L159.347637,269.220256 C158.799687,269.454557 158.181083,269.461524 157.627994,269.239624 C157.074905,269.017723 156.632666,268.585144 156.398623,268.037105 L155.295897,265.456995 C154.808813,264.315636 155.339035,262.995523 156.480307,262.508127 L172.744928,250.354706 C173.749154,255.227846 174.341359,259.314221 174.678904,262.97418 Z" id="Path" stroke="#333333" stroke-width="0.6" fill="#35353D" stroke-linecap="round" stroke-linejoin="round"></path>
                    <path d="M175.089724,272.469416 C175.089724,280.854772 171.606164,289.183673 165.774204,295.794903 C165.011825,296.659744 164.211007,297.494556 163.371749,298.299339 C161.61114,299.98209 159.702256,301.502529 157.668321,302.842158 C151.662183,306.800007 144.464428,309.233574 136.655248,309.30084 C129.207637,309.364502 122.240517,307.09069 116.34249,303.308211 C116.102245,303.155262 115.866404,302.999911 115.634967,302.842158 C114.470262,302.061039 113.347558,301.219053 112.27153,300.319704 C111.310548,299.518925 110.389607,298.678108 109.508707,297.797251 C108.980167,297.268737 108.468444,296.724608 107.972337,296.170869 C101.978211,289.471953 98.3300833,280.959273 98.3300833,272.470617 C98.3300833,270.796188 98.3853398,269.120559 98.518676,267.38487 C98.6748356,265.335677 98.9367032,263.201201 99.3391144,260.875739 C99.643025,259.116028 100.027418,257.24701 100.507909,255.230248 C101.035248,253.092169 101.348768,251.442965 101.980614,249.584757 C101.888119,250.085644 96.8910127,283.40245 115.362288,297.800854 C118.146734,299.972567 121.464524,301.71306 125.411758,302.845761 C128.699518,303.78988 132.424524,304.313589 136.643235,304.313589 C141.08057,304.313589 144.996572,303.78988 148.451302,302.845761 C152.601543,301.711858 156.086304,299.970164 159.005287,297.800854 C177.249531,284.239664 173.480079,253.934188 172.743726,250.360712 C173.323919,252.339036 173.34434,253.427295 173.733538,255.68429 C174.168382,258.32686 174.471092,260.729197 174.677703,262.977784 C174.825454,264.575338 174.917948,266.092413 174.987619,267.557839 C175.063297,269.244279 175.089724,270.863454 175.089724,272.469416 Z" id="Path" stroke="#231F20" stroke-width="0.6" fill="#231F20" opacity="0.2"></path>
                    <path d="M152.543813,238.109052 L157.416233,238.108724 C159.44621,238.108668 161.091878,239.754244 161.091935,241.784222 C161.091935,241.784286 161.091935,241.784351 161.091935,241.784415 L161.091152,257.845553 C161.091102,259.875456 159.445557,261.521006 157.415654,261.521063 L152.543235,261.521584 C150.513257,261.52164 148.867589,259.876063 148.867533,257.846086 C148.867533,257.846021 148.867533,257.845957 148.867533,257.845893 L148.868315,241.784754 C148.868366,239.754852 150.513911,238.109301 152.543813,238.109245 Z" id="Rectangle" stroke="#333333" stroke-width="0.6" fill="#35353D" transform="translate(154.979734, 249.815154) rotate(30.000000) translate(-154.979734, -249.815154) "></path>
                    <path d="M97.5612977,250.823162 C93.5215695,257.429587 85.7808593,257.803151 81.4648488,257.498054 C83.456484,251.251979 86.6301271,245.087583 90.9113021,239.217474 C93.5025134,235.671978 96.4032415,232.363398 99.5793599,229.330657 C100.491092,229.330657 101.035248,229.450774 101.092907,229.739054 C101.56619,232.051303 103.568637,241.001208 97.5612977,250.823162 Z" id="Path" stroke="#333333" stroke-width="0.6" fill="#35353D"></path>
                    <path d="M164.287085,245.918792 L156.259281,259.822315 C155.243202,261.581882 152.993077,262.184718 151.233345,261.168824 L147.02064,258.731654 C145.657737,257.94509 144.945678,256.379122 145.248829,254.835064 C145.567641,255.354461 146.011622,255.785618 146.540149,256.089084 L150.752854,258.521449 C152.512586,259.537343 154.762711,258.934507 155.77879,257.17494 L163.806594,243.271417 C164.009787,242.921146 164.153482,242.539604 164.231828,242.142318 C164.945091,243.294692 164.966327,244.746045 164.287085,245.918792 Z" id="Path" stroke="#000000" stroke-width="0.6" fill="#000000" opacity="0.15" stroke-linecap="round" stroke-linejoin="round"></path>
                    <path d="M192.365778,257.458415 C187.880395,257.803151 178.985305,256.063859 175.502946,249.621993 C170.577913,240.513534 171.738299,232.051303 172.205577,229.739054 C172.28726,229.336663 173.347944,229.258587 175.045278,229.393118 C178.012552,232.358974 180.732006,235.562782 183.176388,238.972435 C187.529636,245.062359 190.634809,251.344469 192.365778,257.458415 Z" id="Path" stroke="#333333" stroke-width="0.6" fill="#35353D"></path>
                    <path d="M7.66383165,122.372625 C-5.46558527,134.855166 0.347154757,159.656889 9.65186322,173.655305 C22.9098115,193.603107 52.6786322,205.790161 67.6219027,194.795867 C83.2306532,183.309095 80.5519158,148.088437 61.7839369,130.106948 C47.7716177,116.677886 21.2425077,109.463669 7.66383165,122.372625 Z" id="Path" stroke="#333333" stroke-width="0.6" fill="#B32645"></path>
                    <path d="M56.5838229,198.793355 C40.9450416,200.354874 20.1361771,189.432651 9.65186322,173.657707 C0.348355984,159.659292 -5.46558527,134.859971 7.66383165,122.375027 C13.378071,116.940942 21.3818501,115.071924 29.7904428,115.731365 C23.7422622,116.23946 18.1841824,118.309073 13.9090136,122.372625 C0.779596668,134.855166 6.59353792,159.656889 15.8970452,173.655305 C25.0359842,187.403877 42.0189391,197.47207 56.5838229,198.793355 Z" id="Path" stroke="#000000" stroke-width="0.6" fill="#000000" opacity="0.1"></path>
                    <path d="M265.854476,121.812881 C279.200114,134.064797 273.821017,158.963815 264.76256,173.121986 C251.854169,193.301614 222.302771,206.003969 207.168505,195.267926 C191.362753,184.05502 193.426462,148.792322 211.877317,130.486517 C225.652994,116.819624 252.052372,109.142957 265.854476,121.812881 Z" id="Path" stroke="#333333" stroke-width="0.6" fill="#B32645"></path>
                    <path d="M264.76256,173.121986 C254.580956,189.036265 234.04477,200.303224 218.395178,199.084038 C233.225533,198.012596 250.78868,187.451924 259.95765,173.121986 C269.016107,158.963815 274.395204,134.063596 261.049566,121.812881 C256.697519,117.817795 251.093792,115.845476 245.026392,115.446689 C252.902841,114.957813 260.372074,116.779985 265.854476,121.812881 C279.200114,134.063596 273.821017,158.963815 264.76256,173.121986 Z" id="Path" stroke="#000000" stroke-width="0.6" fill="#000000" opacity="0.1"></path>
                    <path d="M193.821666,271.844808 C193.546647,274.556899 191.823239,276.906895 189.319106,277.98439 C186.814972,279.061886 183.923529,278.697598 181.764945,277.032654 C182.198939,277.16196 182.644165,277.250035 183.094704,277.29571 C184.97484,277.489286 186.854737,276.926843 188.319581,275.732491 C189.784425,274.538138 190.713819,272.810042 190.902683,270.929518 C191.33993,266.605312 190.86064,261.994027 189.521271,257.275838 C187.874388,251.472994 184.931381,245.511595 180.799158,239.731574 C178.479274,236.495596 175.898431,233.454899 173.082473,230.639931 C171.95412,229.511633 170.800541,228.430582 169.621736,227.396776 C167.212181,225.286103 164.641779,223.366428 161.93388,221.655192 C159.392082,216.383264 156.833468,212.983958 154.327707,210.260909 C150.483779,206.079642 146.136537,201.49238 139.830092,201.105604 C131.982473,200.625137 125.996756,206.904845 121.717983,211.393611 C119.758781,213.44881 117.460833,216.198284 114.939456,220.611376 C110.26548,223.145842 105.657571,226.565568 101.465287,230.581073 C98.4508618,233.459126 95.6976713,236.59887 93.2380798,239.963399 C89.1755283,245.535619 86.1628496,251.382906 84.2733187,257.313074 C82.696107,262.252278 81.8984919,267.245535 81.9165103,272.18594 C81.9317254,276.110553 85.1173563,279.284213 89.042192,279.284845 L89.068619,279.284845 C89.8242482,279.284022 90.5748838,279.162369 91.2920912,278.924494 C89.9528525,280.039704 88.2660215,280.651947 86.5232179,280.655378 L86.4955897,280.655378 C82.3599824,280.655406 79.0031366,277.311078 78.9879176,273.175703 C78.9686979,267.971041 79.8095572,262.708722 81.4708549,257.505261 C83.4624901,251.259186 86.6361333,245.09479 90.9173082,239.224681 C93.5085195,235.679185 96.4092476,232.370605 99.5853661,229.337864 C104.003481,225.112154 108.857641,221.508649 113.782674,218.838452 C116.43979,214.183925 118.861464,211.291512 120.925173,209.125805 C125.43338,204.396805 131.736221,197.778368 140.009075,198.286462 C146.654266,198.696061 151.229741,203.52716 155.285085,207.933045 C157.927786,210.801435 160.620938,214.383319 163.299676,219.938722 C166.152553,221.741257 168.860339,223.763764 171.398352,225.987806 C172.638018,227.07126 173.853661,228.208766 175.045278,229.400325 C178.012552,232.366181 180.732006,235.569989 183.176388,238.979642 C187.529636,245.069566 190.631206,251.351676 192.365778,257.465622 C193.777221,262.430051 194.282937,267.289978 193.821666,271.844808 Z" id="Path" stroke="#231F20" stroke-width="0.6" fill="#231F20" opacity="0.2"></path>
                    <path d="M252.798334,123.607426 C252.968908,62.7009858 216.928479,0.0600584155 137.027628,0.0600584155 C57.1267777,0.0600584155 21.1416046,64.9375612 20.9782376,123.607426 C20.9349934,139.555338 25.8227883,158.168642 34.9845506,175.896685 C32.9917142,179.820902 31.729224,184.611161 31.729224,190.49088 C31.729224,211.871676 85.6643402,251.88019 141.078167,250.277831 C191.588584,248.817211 242.084586,212.45184 242.084586,187.317393 C242.084586,182.152369 241.109189,177.941073 239.519965,174.486513 C248.219255,157.062366 252.75509,138.952351 252.798334,123.607426 Z" id="Path" stroke="#333333" stroke-width="0.6" fill="#B32645"></path>
                    <path d="M65.1125384,23.7831325 C70.7583078,29.9379189 75.9235861,33.1990909 76.6707497,38.7100511 C77.4191144,46.6101351 92.4068303,166.943176 92.4068303,180.171643 C88.5532924,199.40475 83.1777992,214.084228 69.5606839,231.324597" id="Path" stroke="#871A37" stroke-width="3.72"></path>
                    <path d="M209.446032,23.7831325 C203.800263,29.9379189 198.634985,33.1990909 197.887821,38.7100511 C197.139456,46.6101351 182.15174,166.943176 182.15174,180.171643 C186.005278,199.40475 192.472687,213.672227 204.689171,231.288562" id="Path" stroke="#871A37" stroke-width="3.72"></path>
                    <path d="M92.4080316,184.379336 C90.5545375,184.379336 85.8793599,183.793165 80.1122665,181.599832 C72.6586497,178.766276 66.0747216,174.337568 60.5418676,168.43743 C54.3399299,161.823797 49.6551425,153.493695 46.6208417,143.68015 C43.0387812,132.100887 41.7318457,118.323487 42.7348707,102.732322 C43.4027532,92.3542278 53.2323981,71.0659219 56.2282595,64.7886163 C59.5772819,57.7749945 63.0968786,51.0784812 66.1407891,45.9302738 C70.9036563,37.8824461 73.082683,35.918536 74.5854187,35.0597006 C75.5379921,34.5155714 76.6479263,34.2501132 77.9788865,34.2501132 C83.2847085,34.2501132 93.5660149,38.9707046 97.7390794,40.9994779 C101.872503,43.0090325 111.82107,48.107992 114.938255,52.0574334 C115.418746,52.6580175 116.875835,54.5102191 120.30534,63.2583279 C122.467549,68.754874 124.78712,75.4585944 126.855633,82.1322855 C129.963209,92.1584374 135.110469,110.599974 134.675625,121.468145 C134.471416,126.555093 132.613117,132.924889 129.149978,140.40096 C126.228593,146.710697 122.25253,153.605403 117.650627,160.340354 C113.351434,166.632074 108.742324,172.410894 104.67737,176.610179 C102.51516,178.84195 100.52833,180.607667 98.772135,181.858083 C96.3564665,183.575754 94.3348005,184.379336 92.4080316,184.379336 Z" id="Path" fill="#871A37"></path>
                    <path d="M76.6707497,38.7100511 C80.5807453,36.4758781 107.580737,49.5205659 111.638483,54.6615663 C115.69623,59.8025666 131.172845,103.88184 130.474932,121.299982 C129.702543,140.584739 100.48989,180.171643 92.4080316,180.171643 C87.9322578,180.171643 42.3648926,173.965206 46.9307584,102.99778 C47.8701184,88.3987806 70.9925471,41.9556079 76.6707497,38.7100511 Z" id="Path" fill="#212126"></path>
                    <path d="M92.2470671,175.962749 C91.2356335,175.917105 87.6824025,175.482282 83.1009206,173.738185 C76.8514301,171.361468 71.2316472,167.58061 66.6753354,162.687437 C61.3538974,157.011917 57.3057606,149.780884 54.6534502,141.197335 C51.3765015,130.599427 50.1896887,117.839416 51.1266462,103.272848 C51.4870145,97.5925228 56.3243577,84.2211172 63.4392284,69.2065133 C66.5972556,62.5424315 69.9462779,56.1065717 72.8700658,51.0832859 C76.0328979,45.6492004 77.7458483,43.4882986 78.4689873,42.6955276 C80.8390092,42.9669916 86.6697676,44.9717415 94.0633231,48.5668383 C102.351793,52.5955568 107.396949,56.0825484 108.338711,57.271705 C109.525524,58.7743666 114.043341,69.2005075 118.824226,84.6259109 C123.839351,100.810453 126.555327,114.118196 126.271837,121.141428 C125.975134,128.551435 120.280114,141.361895 111.407847,154.573545 C107.530285,160.349963 103.331995,165.74441 99.5889698,169.764721 C94.854932,174.840858 92.663893,175.812603 92.2470671,175.962749 Z" id="Path" fill="#35353D"></path>
                    <path d="M68.8879965,88.4960752 C64.0962999,88.7795509 59.87879,113.367466 61.1364752,118.658613 C62.3941605,123.949759 78.6215432,136.297769 90.8788689,136.297769 C103.136195,136.297769 122.24292,128.360449 122.24292,117.423812 C122.24292,106.487174 74.8364752,88.1429317 68.8879965,88.4960752 Z" id="Path" fill="#24242B"></path>
                    <path d="M71.0610171,114.729591 C68.367865,120.519222 84.7381938,126.205553 89.2367909,126.981508 C96.5642788,128.239131 117.603779,125.439208 118.140728,119.453786 C118.523919,115.192041 82.1639632,90.8719861 71.0610171,114.729591 Z" id="Path" fill="#F1EFF0"></path>
                    <path d="M182.19979,184.379336 C180.277826,184.379336 178.250153,183.579357 175.833284,181.856882 C174.077089,180.606466 172.090259,178.840748 169.928049,176.608978 C165.859491,172.404889 161.250381,166.630873 156.954792,160.339153 C152.35409,153.605403 148.378027,146.710697 145.456642,140.399759 C141.995905,132.923687 140.137606,126.553892 139.930995,121.466944 C139.496151,110.601176 144.643411,92.1584374 147.750986,82.1310843 C149.8195,75.4573932 152.145077,68.7536729 154.30128,63.2571267 C157.730785,54.5090179 159.189075,52.6628222 159.668365,52.0562322 C162.791556,48.1067908 172.734117,43.0078313 176.867541,40.9982767 C181.040605,38.9695035 191.321911,34.248912 196.627733,34.248912 C197.958694,34.248912 199.068628,34.5143702 200.021201,35.0584995 C201.523937,35.9173348 203.702964,37.8800438 208.46463,45.9290727 C211.509741,51.0736765 215.029338,57.7701899 218.37836,64.7874151 C221.374222,71.0647207 231.203867,92.3530267 231.871749,102.731121 C232.874774,118.322286 231.566637,132.099686 227.985778,143.678949 C224.951477,153.492494 220.26669,161.81659 214.064752,168.436229 C208.531898,174.336367 201.946769,178.766276 194.494353,181.598631 C188.728461,183.789562 184.053284,184.379336 182.19979,184.379336 Z" id="Path" fill="#871A37"></path>
                    <path d="M197.93587,38.7100511 C194.027076,36.4758781 167.027085,49.5205659 162.969338,54.6615663 C158.911591,59.8025666 143.434976,103.88184 144.132889,121.299982 C144.905278,140.584739 174.117931,180.171643 182.19979,180.171643 C186.675563,180.171643 232.241727,173.965206 227.677063,102.99778 C226.737703,88.3987806 203.617676,41.9556079 197.93587,38.7100511 Z" id="Path" fill="#212126"></path>
                    <path d="M182.360754,175.962749 C183.372188,175.917105 186.925419,175.482282 191.5069,173.738185 C197.756178,171.361727 203.375625,167.580819 207.931285,162.687437 C213.253924,157.011917 217.300859,149.780884 219.954371,141.197335 C223.23132,130.599427 224.418132,117.839416 223.481175,103.272848 C223.120807,97.5925228 218.283463,84.2211172 211.168593,69.2065133 C208.010566,62.5424315 204.661543,56.1065717 201.737755,51.0832859 C198.574923,45.6492004 196.861973,43.4882986 196.138834,42.6955276 C193.768812,42.9669916 187.938053,44.9717415 180.544498,48.5668383 C172.256028,52.5955568 167.210872,56.0825484 166.26911,57.271705 C165.082297,58.7743666 160.56448,69.2005075 155.783595,84.6259109 C150.76847,100.810453 148.052495,114.118196 148.335984,121.141428 C148.633889,128.551435 154.328908,141.361895 163.199974,154.573545 C167.078737,160.349963 171.277028,165.74441 175.020053,169.764721 C179.752889,174.840858 181.943928,175.812603 182.360754,175.962749 Z" id="Path" fill="#35353D"></path>
                    <path d="M205.719825,88.4960752 C210.51032,88.7795509 214.729031,113.367466 213.471346,118.658613 C212.213661,123.949759 195.986278,136.297769 183.728952,136.297769 C171.471626,136.297769 152.364901,128.360449 152.364901,117.423812 C152.364901,106.487174 199.771346,88.1429317 205.719825,88.4960752 Z" id="Path" fill="#24242B"></path>
                    <path d="M203.546804,114.729591 C206.239956,120.519222 189.869627,126.205553 185.37103,126.981508 C178.043542,128.239131 157.004042,125.439208 156.465892,119.453786 C156.083902,115.192041 192.44626,90.8719861 203.546804,114.729591 Z" id="Path" fill="#F1EFF0"></path>
                    <path d="M115.968908,152.308142 C115.968908,159.816645 125.800956,168.93111 137.482893,168.829011 C148.249496,168.735319 158.744621,159.727758 158.744621,152.329763 C158.744621,146.376773 146.358764,141.142081 137.482893,141.220157 C129.24007,141.291026 115.968908,145.265692 115.968908,152.308142 Z" id="Path" fill="#B32645"></path>
                    <path d="M158.747023,152.329763 C158.747023,159.727758 148.248295,168.735319 137.485296,168.829011 C125.803358,168.929909 115.971311,159.820248 115.971311,152.308142 C115.971043,151.99699 115.997163,151.686376 116.049391,151.379639 C120.253687,156.5831 128.353564,160.920518 137.431241,160.84965 C145.919114,160.783585 154.258036,156.332055 158.572845,151.087755 C158.688295,151.491662 158.746918,151.909681 158.747023,152.329763 Z" id="Path" fill="#000000" opacity="0.2"></path>
                    <path d="M178.101201,323.050613 C177.501244,325.116214 176.104363,326.858408 174.218526,327.8931 C172.332689,328.927792 170.112748,329.170019 168.048128,328.566378 C161.574713,326.679343 153.633398,327.433677 150.303595,328.538751 C147.689923,329.403908 144.815816,328.884395 142.670447,327.159011 C140.525079,325.433626 139.401325,322.737912 139.685945,319.999646 C139.746543,320.582759 139.870604,321.157518 140.055923,321.713713 C141.183875,325.116623 144.350311,326.310584 147.743779,326.310584 C148.611765,326.310292 149.474052,326.17037 150.297589,325.896181 C153.627391,324.791106 161.568707,324.036773 168.042122,325.923808 C168.780383,326.139734 169.545652,326.249342 170.314844,326.249325 C173.826032,326.249325 177.062139,324.910022 178.095195,321.368978 C178.23093,320.903793 178.324997,320.427453 178.376282,319.945593 C178.487495,320.988639 178.394055,322.043362 178.101201,323.050613 Z" id="Path" stroke="#000000" stroke-width="0.6" fill="#000000" opacity="0.3" stroke-linecap="round" stroke-linejoin="round"></path>
                    <path d="M133.825156,323.395349 C133.150123,325.437817 131.690283,327.127875 129.767616,328.092767 C127.844949,329.057658 125.617403,329.218117 123.576282,328.538751 C120.247681,327.433677 112.305164,326.679343 105.83295,328.566378 C103.239914,329.318167 100.44277,328.731076 98.370877,327.000167 C96.2989841,325.269258 95.2237386,322.621262 95.5023937,319.935984 C95.5529321,320.421206 95.647416,320.900839 95.7846822,321.368978 C97.0375625,325.667959 101.538562,327.05651 105.837755,325.803691 C112.309969,323.916656 120.252486,324.670989 123.581087,325.776064 C124.404644,326.050172 125.266918,326.190092 126.134897,326.190467 C129.534371,326.190467 132.700807,325.116623 133.829961,321.713713 C134.01528,321.157518 134.13934,320.582759 134.199939,319.999646 C134.318879,321.145322 134.191086,322.303183 133.825156,323.395349 Z" id="Path" stroke="#000000" stroke-width="0.6" fill="#000000" opacity="0.3" stroke-linecap="round" stroke-linejoin="round"></path>
                    <path d="M242.084586,187.317393 C242.084586,212.453041 191.588584,248.817211 141.078167,250.277831 C85.6643402,251.88019 31.729224,211.871676 31.729224,190.49088 C31.729224,189.919124 31.7412363,189.358579 31.7652609,188.809244 C36.4007979,210.766601 88.0307584,247.186024 141.009698,245.655736 C189.802359,244.244363 238.581806,210.330577 242.032933,185.327057 C242.067368,185.976489 242.084586,186.639934 242.084586,187.317393 Z" id="Path" fill="#000000" opacity="0.15"></path>
                    <path d="M187.114011,245.122417 C184.193827,246.330792 181.236405,247.443074 178.265769,248.448452 C165.708137,252.699387 153.198553,255.032055 141.086576,255.382797 C140.019886,255.414027 138.944787,255.429642 137.868488,255.429642 C126.173336,255.429642 113.972468,253.613476 101.831662,250.095254 L101.662288,250.046006 C96.7306003,248.608294 91.8767374,246.915981 87.120228,244.975874 C87.8810054,243.68582 88.6930352,242.406575 89.5563174,241.138142 C105.652766,247.372205 122.208084,250.627371 137.862481,250.627371 C138.943586,250.627371 140.01388,250.611756 141.08057,250.580526 C153.192547,250.229785 165.705734,247.897116 178.259763,243.646181 C180.432383,242.910265 182.594593,242.118695 184.746392,241.271471 C185.593658,242.549514 186.382864,243.833163 187.114011,245.122417 Z" id="Path" fill="#000000" opacity="0.1"></path>
                    <path d="M138.483516,291.354184 C137.973395,291.354184 137.460871,291.351381 136.945945,291.345776 C124.966103,291.210044 113.204884,289.449131 104.678571,286.513476 L106.240167,281.969456 C114.300403,284.745356 125.51146,286.413779 136.991591,286.541103 C148.808067,286.674432 159.523016,285.231829 167.164025,282.478751 L168.792889,286.998748 C160.974099,289.819091 150.255546,291.354184 138.483516,291.354184 Z" id="Path" stroke="#333333" stroke-width="0.6" fill="#3D3D44"></path>
                    <g id="Group" opacity="0.15" transform="translate(104.626918, 284.797006)" fill="#000000" stroke="#000000" stroke-linecap="round" stroke-linejoin="round" stroke-width="0.6">
                        <path d="M64.1743797,2.20174151 C56.3471811,5.0220847 45.629829,6.5571778 33.856598,6.5571778 C33.3464767,6.5571778 32.8339529,6.55437508 32.3190267,6.54876962 C20.3391846,6.4130376 8.5779658,4.65212486 0.0516527839,1.71646951 L0.607821131,0.102099306 C9.08488382,2.926046 20.5974485,4.61368748 32.320228,4.74701716 C32.8343534,4.75342339 33.3468771,4.75622612 33.8577992,4.75542534 C45.3451381,4.75542534 55.8270495,3.2936035 63.5989917,0.602986491 L64.1743797,2.20174151 Z" id="Path"></path>
                    </g>
                    <path d="M104.043787,279.498485 L107.386781,279.498705 C109.008456,279.498745 110.323073,280.813364 110.323109,282.435039 L110.32357,290.710974 C110.323606,292.332703 109.008965,293.647404 107.387236,293.64744 C107.38719,293.64744 107.387144,293.64744 107.387098,293.64744 L104.044104,293.647083 C102.422429,293.647043 101.107812,292.332424 101.107776,290.710749 L101.107315,282.434814 C101.107279,280.813085 102.42192,279.498384 104.043649,279.498348 C104.043695,279.498348 104.043741,279.498348 104.043787,279.498348 Z" id="Rectangle" stroke="#333333" stroke-width="0.6" fill="#814739" transform="translate(105.715442, 286.572894) rotate(-24.410000) translate(-105.715442, -286.572894) "></path>
                    <path d="M166.082391,279.712958 L169.425385,279.712738 C171.047114,279.712699 172.361818,281.027338 172.361857,282.649067 C172.361857,282.649112 172.361857,282.649158 172.361857,282.649204 L172.361397,290.925139 C172.36136,292.546814 171.046744,293.861434 169.425068,293.861473 L166.082074,293.861831 C164.460345,293.86187 163.145642,292.547231 163.145602,290.925502 C163.145602,290.925456 163.145602,290.925411 163.145602,290.925365 L163.146063,282.64943 C163.146099,281.027754 164.460716,279.713135 166.082391,279.713095 Z" id="Rectangle" stroke="#333333" stroke-width="0.6" fill="#814739" transform="translate(167.753730, 286.787284) rotate(-155.590000) translate(-167.753730, -286.787284) "></path>
                    <rect id="Rectangle" stroke="#333333" stroke-width="0.6" fill="#34343A" x="129.395028" y="284.557974" width="15.0898203" height="8.75411464" rx="2.1684"></rect>
                    <path d="M144.484849,286.727284 L144.484849,291.141577 C144.485167,291.717122 144.256745,292.269203 143.849866,292.676288 C143.442987,293.083372 142.891005,293.312088 142.315432,293.312088 L131.565647,293.312088 C130.586009,293.312238 129.727678,292.656218 129.470706,291.710931 C129.606822,291.737605 129.745223,291.750882 129.883928,291.75057 L140.633713,291.75057 C141.209287,291.75057 141.761268,291.521853 142.168148,291.114769 C142.575027,290.707684 142.803449,290.155603 142.80313,289.580058 L142.80313,285.165765 C142.803231,284.973862 142.777782,284.782799 142.727453,284.597612 C143.748009,284.794538 144.48525,285.687952 144.484849,286.727284 Z" id="Path" stroke="#000000" stroke-width="0.6" fill="#000000" opacity="0.15" stroke-linecap="round" stroke-linejoin="round"></path>
                    <path d="M173.625427,284.932738 L170.213941,292.462862 C169.891771,293.172864 169.300692,293.725779 168.570776,293.999935 C167.84086,294.27409 167.031918,294.247021 166.321964,293.924684 L163.282858,292.545743 C162.221907,292.064615 161.54562,291.00193 161.559097,289.837108 C161.721912,289.95746 161.897077,290.060137 162.081631,290.143406 L165.120737,291.522348 C165.830691,291.844684 166.639632,291.871753 167.369548,291.597598 C168.099464,291.323442 168.690543,290.770527 169.012714,290.060526 L172.429005,282.530402 C172.598281,282.158689 172.687891,281.755668 172.692074,281.347251 C173.812553,282.170935 174.202081,283.667309 173.625427,284.932738 Z" id="Path" stroke="#000000" stroke-width="0.6" fill="#000000" opacity="0.15" stroke-linecap="round" stroke-linejoin="round"></path>
                    <path d="M111.864314,289.640117 C111.877892,290.80531 111.200985,291.868227 110.139351,292.348751 L107.101447,293.727693 C106.391493,294.050029 105.582551,294.077099 104.852635,293.802943 C104.122719,293.528787 103.53164,292.975872 103.20947,292.265871 L99.7919772,284.735747 C99.2175609,283.468855 99.6095122,281.972797 100.731337,281.150259 C100.7345,281.558663 100.823729,281.961813 100.993205,282.33341 L104.410697,289.863534 C104.732868,290.573536 105.323947,291.126451 106.053863,291.400606 C106.783779,291.674762 107.59272,291.647693 108.302674,291.325356 L111.340579,289.946415 C111.525276,289.862692 111.700793,289.760044 111.864314,289.640117 Z" id="Path" stroke="#000000" stroke-width="0.6" fill="#000000" opacity="0.15" stroke-linecap="round" stroke-linejoin="round"></path>
                    <rect id="Rectangle" stroke="#333333" stroke-width="0.632681982" fill="#643BA2" x="94.0489084" y="255.038061" width="85.0685313" height="45.9699124" rx="6.9336"></rect>
                    <path d="M172.281254,255.038061 L100.883893,255.038061 C97.1084349,255.038061 94.0489084,258.192329 94.0489084,262.084115 L94.0489084,293.960719 C94.0489084,297.852505 97.1084349,301.006773 100.883893,301.006773 L172.281254,301.006773 C176.056712,301.006773 179.116238,297.852505 179.116238,293.960719 L179.116238,262.084115 C179.116238,258.192329 176.056712,255.038061 172.281254,255.038061 Z M176.996072,293.966725 C176.996072,296.653739 174.883113,298.832658 172.275248,298.832658 L100.889899,298.832658 C98.2832354,298.832658 96.169075,296.653739 96.169075,293.966725 L96.169075,262.078109 C96.169075,259.391095 98.2832354,257.212176 100.889899,257.212176 L172.275248,257.212176 C174.883113,257.212176 176.996072,259.391095 176.996072,262.078109 L176.996072,293.966725 Z" id="Shape" stroke="#231F20" stroke-width="0.6" fill="#231F20" fill-rule="nonzero" opacity="0.2"></path>
                    <path d="M89.6404033,291.670091 C84.4390881,290.83648 80.9915651,285.858839 79.6137571,281.849339 C79.0225451,280.17959 78.7566873,278.412049 78.8305568,276.642275 C78.9674967,273.918025 79.9909426,271.460434 81.7903814,269.536163 C84.3665418,266.77957 88.4248604,265.99532 91.8426632,267.593608 C95.2604661,269.191897 97.2602795,272.809149 96.7961157,276.553388 C99.6954814,279.121899 100.549848,283.296573 98.892624,286.797518 C97.2354003,290.298464 93.4649477,292.284128 89.6404033,291.670091 Z" id="Path" stroke="#333333" stroke-width="0.6" fill="#35353D"></path>
                    <path d="M79.6137571,281.85054 C80.9879614,285.86004 84.4378869,290.83648 89.6416046,291.670091 C94.2078435,292.405436 98.5513653,289.439892 99.5289084,284.919525 C97.3390706,288.032954 90.4584393,287.693023 86.2877773,284.162789 C82.3693731,280.843961 79.7434897,272.991924 79.9212714,272.271223 C79.2710954,273.642231 78.9003207,275.128932 78.8305568,276.644677 C78.7577314,278.414003 79.0235617,280.180953 79.6137571,281.85054 Z" id="Path" stroke="#000000" stroke-width="0.6" fill="#000000" opacity="0.3" stroke-linecap="round" stroke-linejoin="round"></path>
                    <path d="M181.083849,291.685706 C177.860713,291.082624 175.249177,288.721004 174.326129,285.574679 C173.40308,282.428355 174.324866,279.030254 176.711381,276.78161 C176.135592,273.052901 178.026138,269.377462 181.394408,267.67727 C184.762677,265.977078 188.842684,266.638777 191.500894,269.316349 C193.35559,271.186568 194.45231,273.611727 194.672135,276.331172 C194.798905,278.098114 194.586057,279.872984 194.045094,281.559858 C192.792214,285.607795 189.492442,290.688737 184.315151,291.676097 C183.24807,291.88072 182.152129,291.883979 181.083849,291.685706 Z" id="Path" stroke="#333333" stroke-width="0.6" fill="#35353D"></path>
                    <path d="M194.672135,276.331172 C194.55782,274.818213 194.142913,273.343242 193.451688,271.992552 C193.64989,272.707247 192.195204,282.68295 186.856949,285.982559 C181.518694,289.282169 175.488531,287.503238 174.230846,285.225823 C175.343902,289.716834 179.777543,292.551058 184.321157,291.676097 C189.496046,290.687536 192.795818,285.608996 194.0511,281.559858 C194.590034,279.872591 194.800842,278.09773 194.672135,276.331172 Z" id="Path" stroke="#000000" stroke-width="0.6" fill="#000000" opacity="0.3" stroke-linecap="round" stroke-linejoin="round"></path>
                </g>
                <path d="M123.946,279.174 C125.17,279.174 126.122,280.16 126.122,281.35 C126.122,282.54 125.17,283.492 123.946,283.492 L122.858,283.492 L122.858,286.926 C122.858,288.218 121.838,289.238 120.512,289.238 C119.152,289.238 118.166,288.218 118.166,286.926 L118.166,283.492 L110.754,283.492 C109.394,283.492 108.34,282.472 108.34,281.18 C108.34,280.364 108.612,279.752 109.156,278.97 L117.452,267.002 C118.064,266.118 118.812,265.506 120.036,265.506 C121.6,265.506 122.858,266.764 122.858,268.328 L122.858,279.174 L123.946,279.174 Z M113.712,279.208 L118.166,279.174 L118.166,272.68 L113.712,279.208 Z M137.0192,289.34 C132.2932,289.34 128.4852,285.464 128.4852,277.542 C128.4852,269.62 132.2932,265.54 137.0192,265.54 C141.7452,265.54 145.5532,269.484 145.5532,277.542 C145.5532,285.464 141.7452,289.34 137.0192,289.34 Z M137.0192,284.682 C138.9232,284.682 140.1812,282.404 140.1812,277.44 C140.1812,272.442 138.9572,270.232 137.0192,270.232 C135.1152,270.232 133.8232,272.442 133.8232,277.44 C133.8232,282.404 135.1152,284.682 137.0192,284.682 Z M162.9784,279.174 C164.2024,279.174 165.1544,280.16 165.1544,281.35 C165.1544,282.54 164.2024,283.492 162.9784,283.492 L161.8904,283.492 L161.8904,286.926 C161.8904,288.218 160.8704,289.238 159.5444,289.238 C158.1844,289.238 157.1984,288.218 157.1984,286.926 L157.1984,283.492 L149.7864,283.492 C148.4264,283.492 147.3724,282.472 147.3724,281.18 C147.3724,280.364 147.6444,279.752 148.1884,278.97 L156.4844,267.002 C157.0964,266.118 157.8444,265.506 159.0684,265.506 C160.6324,265.506 161.8904,266.764 161.8904,268.328 L161.8904,279.174 L162.9784,279.174 Z M152.7444,279.208 L157.1984,279.174 L157.1984,272.68 L152.7444,279.208 Z" id="404" fill="#3DF291"></path>
                <path d="M241,194 L193.577217,194 L241,161.294632 L241,127 C241,117.611159 248.611159,110 258,110 L503,110 C512.388841,110 520,117.611159 520,127 L520,224 C520,233.388841 512.388841,241 503,241 L258,241 C248.611159,241 241,233.388841 241,224 L241,194 Z" id="Rectangle-2" stroke="#2A1052" stroke-width="4" fill="#3DF291" stroke-linejoin="round"></path>
                <path d="M278.602,152.406 C274.29,152.406 270.814,149.26 270.814,144.706 C270.814,140.174 274.29,137.006 278.602,137.006 C282.892,137.006 286.368,140.174 286.368,144.706 C286.368,149.26 282.892,152.406 278.602,152.406 Z M278.602,149.37 C280.89,149.37 282.848,147.632 282.848,144.706 C282.848,141.78 280.89,140.042 278.602,140.042 C276.314,140.042 274.334,141.78 274.334,144.706 C274.334,147.632 276.314,149.37 278.602,149.37 Z M294.376,142.022 C297.06,142.022 298.886,144.376 298.886,147.214 C298.886,149.832 297.126,152.406 294.222,152.406 C292.968,152.406 292.176,151.922 291.714,151.394 L291.714,156.08 C291.714,156.96 290.988,157.73 290.086,157.73 C289.184,157.73 288.458,156.982 288.458,156.08 L288.458,143.738 C288.458,142.814 289.14,142.132 290.02,142.132 C290.856,142.132 291.494,142.726 291.582,143.54 C292.22,142.638 293.1,142.022 294.376,142.022 Z M293.496,149.568 C294.706,149.568 295.586,148.512 295.586,147.214 C295.586,145.894 294.706,144.86 293.518,144.86 C292.814,144.86 292.11,145.3 291.714,146.07 L291.714,148.446 C292.066,149.15 292.77,149.568 293.496,149.568 Z M304.694,152.406 C303.286,152.406 302.01,152.054 301.284,151.702 C300.734,151.438 300.316,151.02 300.316,150.382 C300.316,149.568 300.932,149.15 301.504,149.15 C301.966,149.15 302.384,149.348 302.89,149.524 C303.44,149.722 304.1,149.832 304.65,149.832 C305.552,149.832 305.904,149.634 305.904,149.304 C305.904,148.842 305.134,148.688 303.858,148.314 C301.856,147.72 300.514,147.06 300.514,145.212 C300.514,143.386 301.922,142.022 304.65,142.022 C305.86,142.022 307.026,142.308 307.598,142.528 C308.126,142.726 308.632,143.1 308.632,143.826 C308.632,144.662 308.082,145.124 307.466,145.124 C307.092,145.124 306.696,144.97 306.278,144.86 C305.728,144.706 305.156,144.618 304.65,144.618 C303.88,144.618 303.528,144.794 303.528,145.124 C303.528,145.542 304.056,145.674 305.706,146.158 C307.466,146.664 308.918,147.28 308.918,149.172 C308.918,151.086 307.422,152.406 304.694,152.406 Z M312.394,152.362 C311.36,152.362 310.502,151.482 310.502,150.47 C310.502,149.414 311.36,148.534 312.394,148.534 C313.45,148.534 314.308,149.414 314.308,150.47 C314.308,151.482 313.45,152.362 312.394,152.362 Z M317.52,152.362 C316.486,152.362 315.628,151.482 315.628,150.47 C315.628,149.414 316.486,148.534 317.52,148.534 C318.576,148.534 319.434,149.414 319.434,150.47 C319.434,151.482 318.576,152.362 317.52,152.362 Z M322.646,152.362 C321.612,152.362 320.754,151.482 320.754,150.47 C320.754,149.414 321.612,148.534 322.646,148.534 C323.702,148.534 324.56,149.414 324.56,150.47 C324.56,151.482 323.702,152.362 322.646,152.362 Z M340.796,137.226 C341.61,137.226 342.248,137.864 342.248,138.722 C342.248,139.58 341.61,140.218 340.796,140.218 L337.496,140.218 L337.496,150.602 C337.496,151.548 336.748,152.296 335.802,152.296 C334.834,152.296 334.108,151.548 334.108,150.602 L334.108,140.218 L330.83,140.218 C329.994,140.218 329.356,139.58 329.356,138.722 C329.356,137.864 329.994,137.226 330.83,137.226 L340.796,137.226 Z M349.926,142.022 C351.686,142.022 353.27,143.188 353.27,145.63 L353.27,150.646 C353.27,151.548 352.522,152.296 351.642,152.296 C350.762,152.296 350.014,151.548 350.014,150.646 L350.014,146.378 C350.014,145.476 349.662,144.794 348.672,144.794 C347.968,144.794 347.374,145.212 346.978,146.004 L346.978,150.646 C346.978,151.548 346.23,152.296 345.35,152.296 C344.448,152.296 343.722,151.548 343.722,150.646 L343.722,138.15 C343.722,137.248 344.448,136.5 345.35,136.5 C346.23,136.5 346.978,137.248 346.978,138.15 L346.978,143.474 C347.726,142.594 348.716,142.022 349.926,142.022 Z M360.42,142.022 C363.412,142.022 365.018,144.222 365.018,146.444 C365.018,146.928 364.908,147.28 364.666,147.544 C364.38,147.874 363.918,147.962 363.28,147.962 L358.396,147.962 C358.704,149.018 359.606,149.612 361.058,149.612 C361.476,149.612 361.872,149.568 362.268,149.48 C362.708,149.392 362.906,149.348 363.17,149.348 C363.94,149.348 364.424,149.964 364.424,150.624 C364.424,151.196 364.094,151.702 363.5,151.944 C362.752,152.23 361.784,152.406 360.728,152.406 C357.582,152.406 355.162,150.382 355.162,147.236 C355.162,144.178 357.34,142.022 360.42,142.022 Z M358.352,146.092 L362.224,146.092 C362.158,145.146 361.542,144.42 360.354,144.42 C359.32,144.42 358.594,144.992 358.352,146.092 Z M377.602,142.022 C380.286,142.022 382.112,144.376 382.112,147.214 C382.112,149.832 380.352,152.406 377.448,152.406 C376.194,152.406 375.402,151.922 374.94,151.394 L374.94,156.08 C374.94,156.96 374.214,157.73 373.312,157.73 C372.41,157.73 371.684,156.982 371.684,156.08 L371.684,143.738 C371.684,142.814 372.366,142.132 373.246,142.132 C374.082,142.132 374.72,142.726 374.808,143.54 C375.446,142.638 376.326,142.022 377.602,142.022 Z M376.722,149.568 C377.932,149.568 378.812,148.512 378.812,147.214 C378.812,145.894 377.932,144.86 376.744,144.86 C376.04,144.86 375.336,145.3 374.94,146.07 L374.94,148.446 C375.292,149.15 375.996,149.568 376.722,149.568 Z M388.294,142.022 C390.868,142.022 392.518,143.254 392.518,145.674 L392.518,150.734 C392.518,151.592 391.836,152.296 390.978,152.296 C390.252,152.296 389.636,151.768 389.482,151.086 C388.602,151.878 387.546,152.406 386.38,152.406 C384.576,152.406 383.41,151.13 383.41,149.59 C383.41,148.16 384.268,147.346 385.478,146.862 C386.644,146.4 388.162,146.29 389.438,146.202 L389.438,145.916 C389.438,145.08 388.954,144.794 387.832,144.794 C387.15,144.794 386.688,144.926 386.424,144.992 C386.028,145.102 385.742,145.146 385.588,145.146 C384.818,145.146 384.246,144.596 384.246,143.892 C384.246,143.43 384.444,142.924 385.082,142.638 C385.874,142.286 387.172,142.022 388.294,142.022 Z M386.512,149.194 C386.512,149.656 386.864,149.92 387.458,149.92 C388.118,149.92 388.822,149.612 389.438,149.216 L389.438,148.028 C388.91,148.094 388.404,148.16 387.898,148.27 C386.908,148.468 386.512,148.732 386.512,149.194 Z M404.442,144.53 C404.046,144.53 403.606,144.464 402.814,144.2 L402.792,144.244 C403.54,144.86 403.848,145.366 403.848,146.29 C403.848,148.138 402.242,149.546 399.294,149.546 C399.14,149.546 398.986,149.546 398.854,149.524 C398.656,149.678 398.568,149.832 398.568,150.03 C398.568,150.404 398.876,150.47 400.614,150.8 C403.606,151.372 405.234,152.01 405.234,154.012 C405.234,156.278 403.122,157.73 399.448,157.73 C395.818,157.73 393.97,156.3 393.97,154.474 C393.97,153.506 394.498,152.604 396.082,151.856 C395.62,151.504 395.4,151.108 395.4,150.58 C395.4,149.854 395.796,149.37 396.566,148.996 C395.202,148.336 394.52,147.17 394.52,145.828 C394.52,143.518 396.742,142.22 399.294,142.22 L404.332,142.22 C405.08,142.22 405.674,142.616 405.674,143.386 C405.674,144.134 405.102,144.53 404.442,144.53 Z M399.184,147.258 C400.174,147.258 400.834,146.664 400.834,145.894 C400.834,145.146 400.218,144.53 399.184,144.53 C398.15,144.53 397.512,145.146 397.512,145.894 C397.512,146.664 398.172,147.258 399.184,147.258 Z M402.176,154.188 C402.176,153.528 401.362,153.418 399.756,153.088 C399.184,152.978 398.678,152.868 398.238,152.736 C397.27,153.22 397.05,153.748 397.05,154.1 C397.05,154.892 398.04,155.53 399.69,155.53 C401.472,155.53 402.176,154.804 402.176,154.188 Z M411.416,142.022 C414.408,142.022 416.014,144.222 416.014,146.444 C416.014,146.928 415.904,147.28 415.662,147.544 C415.376,147.874 414.914,147.962 414.276,147.962 L409.392,147.962 C409.7,149.018 410.602,149.612 412.054,149.612 C412.472,149.612 412.868,149.568 413.264,149.48 C413.704,149.392 413.902,149.348 414.166,149.348 C414.936,149.348 415.42,149.964 415.42,150.624 C415.42,151.196 415.09,151.702 414.496,151.944 C413.748,152.23 412.78,152.406 411.724,152.406 C408.578,152.406 406.158,150.382 406.158,147.236 C406.158,144.178 408.336,142.022 411.416,142.022 Z M409.348,146.092 L413.22,146.092 C413.154,145.146 412.538,144.42 411.35,144.42 C410.316,144.42 409.59,144.992 409.348,146.092 Z M430.886,142.132 C431.678,142.132 432.404,142.858 432.404,143.716 C432.404,143.958 432.36,144.222 432.228,144.486 L426.266,156.652 C425.892,157.444 425.276,157.73 424.682,157.73 C423.89,157.73 423.164,157.004 423.164,156.146 C423.164,155.904 423.208,155.64 423.34,155.376 L425.276,151.746 L421.976,144.486 C421.844,144.222 421.8,143.958 421.8,143.716 C421.8,142.858 422.526,142.132 423.428,142.132 C424,142.132 424.616,142.418 424.99,143.21 C425.584,144.574 426.508,146.95 427.08,148.556 C427.63,146.862 428.62,144.706 429.302,143.21 C429.676,142.418 430.292,142.132 430.886,142.132 Z M438.652,152.406 C435.704,152.406 433.284,150.25 433.284,147.17 C433.284,144.112 435.704,142.022 438.652,142.022 C441.622,142.022 444.02,144.112 444.02,147.17 C444.02,150.25 441.622,152.406 438.652,152.406 Z M438.652,149.634 C439.708,149.634 440.72,148.776 440.72,147.17 C440.72,145.586 439.708,144.794 438.652,144.794 C437.596,144.794 436.584,145.586 436.584,147.17 C436.584,148.776 437.596,149.634 438.652,149.634 Z M453.788,142.11 C454.69,142.11 455.416,142.858 455.416,143.76 L455.416,150.646 C455.416,151.548 454.69,152.274 453.788,152.274 C452.996,152.274 452.314,151.68 452.182,150.91 C451.434,151.812 450.444,152.384 449.212,152.384 C447.452,152.384 445.868,151.218 445.868,148.776 L445.868,143.76 C445.868,142.858 446.616,142.11 447.496,142.11 C448.376,142.11 449.124,142.858 449.124,143.76 L449.124,148.028 C449.124,148.93 449.476,149.612 450.466,149.612 C451.17,149.612 451.764,149.194 452.16,148.402 L452.16,143.76 C452.16,142.858 452.908,142.11 453.788,142.11 Z M459.684,137.028 C460.872,137.028 461.708,137.996 461.708,139.536 C461.708,141.89 460.278,143.584 459.134,144.442 C458.848,144.662 458.694,144.75 458.386,144.75 C457.99,144.75 457.616,144.442 457.616,144.002 C457.616,143.848 457.66,143.628 457.88,143.386 C458.562,142.638 459.222,141.846 459.398,140.68 C458.364,140.504 457.77,139.778 457.77,138.898 C457.77,137.93 458.452,137.028 459.684,137.028 Z M469.122,142.022 C470.024,142.022 470.684,142.704 470.684,143.562 C470.684,144.53 469.936,145.19 469.1,145.19 C468.198,145.19 467.208,145.454 466.548,146.488 L466.548,150.646 C466.548,151.548 465.8,152.296 464.92,152.296 C464.018,152.296 463.292,151.548 463.292,150.646 L463.292,143.76 C463.292,142.858 464.018,142.132 464.92,142.132 C465.8,142.132 466.548,142.858 466.548,143.76 L466.548,143.87 C467.274,142.506 468.132,142.022 469.122,142.022 Z M476.536,142.022 C479.528,142.022 481.134,144.222 481.134,146.444 C481.134,146.928 481.024,147.28 480.782,147.544 C480.496,147.874 480.034,147.962 479.396,147.962 L474.512,147.962 C474.82,149.018 475.722,149.612 477.174,149.612 C477.592,149.612 477.988,149.568 478.384,149.48 C478.824,149.392 479.022,149.348 479.286,149.348 C480.056,149.348 480.54,149.964 480.54,150.624 C480.54,151.196 480.21,151.702 479.616,151.944 C478.868,152.23 477.9,152.406 476.844,152.406 C473.698,152.406 471.278,150.382 471.278,147.236 C471.278,144.178 473.456,142.022 476.536,142.022 Z M474.468,146.092 L478.34,146.092 C478.274,145.146 477.658,144.42 476.47,144.42 C475.436,144.42 474.71,144.992 474.468,146.092 Z M272.882,181.296 C271.98,181.296 271.254,180.548 271.254,179.646 L271.254,167.15 C271.254,166.248 271.98,165.5 272.86,165.5 C273.762,165.5 274.51,166.248 274.51,167.15 L274.51,179.646 C274.51,180.548 273.762,181.296 272.882,181.296 Z M281.836,181.406 C278.888,181.406 276.468,179.25 276.468,176.17 C276.468,173.112 278.888,171.022 281.836,171.022 C284.806,171.022 287.204,173.112 287.204,176.17 C287.204,179.25 284.806,181.406 281.836,181.406 Z M281.836,178.634 C282.892,178.634 283.904,177.776 283.904,176.17 C283.904,174.586 282.892,173.794 281.836,173.794 C280.78,173.794 279.768,174.586 279.768,176.17 C279.768,177.776 280.78,178.634 281.836,178.634 Z M293.98,181.406 C291.032,181.406 288.612,179.25 288.612,176.17 C288.612,173.112 291.032,171.022 293.98,171.022 C296.95,171.022 299.348,173.112 299.348,176.17 C299.348,179.25 296.95,181.406 293.98,181.406 Z M293.98,178.634 C295.036,178.634 296.048,177.776 296.048,176.17 C296.048,174.586 295.036,173.794 293.98,173.794 C292.924,173.794 291.912,174.586 291.912,176.17 C291.912,177.776 292.924,178.634 293.98,178.634 Z M310.678,178.524 C311.118,179.052 311.25,179.404 311.25,179.756 C311.25,180.68 310.524,181.296 309.644,181.296 C309.138,181.296 308.676,181.032 308.324,180.592 L305.86,177.424 L304.562,178.216 L304.562,179.646 C304.562,180.548 303.814,181.296 302.934,181.296 C302.032,181.296 301.306,180.548 301.306,179.646 L301.306,167.15 C301.306,166.248 302.032,165.5 302.934,165.5 C303.814,165.5 304.562,166.248 304.562,167.15 L304.562,175.026 L308.5,171.572 C308.83,171.264 309.226,171.132 309.6,171.132 C310.37,171.132 311.052,171.814 311.052,172.606 C311.052,173.024 310.876,173.464 310.414,173.86 L308.324,175.664 L310.678,178.524 Z M314.572,169.548 C313.604,169.548 312.856,168.822 312.856,167.854 C312.856,166.908 313.604,166.16 314.572,166.16 C315.54,166.16 316.288,166.908 316.288,167.854 C316.288,168.822 315.54,169.548 314.572,169.548 Z M314.572,181.296 C313.692,181.296 312.944,180.548 312.944,179.646 L312.944,172.76 C312.944,171.88 313.692,171.132 314.572,171.132 C315.474,171.132 316.2,171.88 316.2,172.76 L316.2,179.646 C316.2,180.548 315.474,181.296 314.572,181.296 Z M324.824,171.022 C326.584,171.022 328.168,172.188 328.168,174.63 L328.168,179.646 C328.168,180.548 327.42,181.296 326.54,181.296 C325.66,181.296 324.912,180.548 324.912,179.646 L324.912,175.378 C324.912,174.476 324.56,173.794 323.57,173.794 C322.866,173.794 322.272,174.212 321.876,175.004 L321.876,179.646 C321.876,180.548 321.128,181.296 320.248,181.296 C319.346,181.296 318.62,180.548 318.62,179.646 L318.62,172.76 C318.62,171.858 319.346,171.132 320.248,171.132 C321.04,171.132 321.722,171.726 321.854,172.496 C322.602,171.594 323.592,171.022 324.824,171.022 Z M340.092,173.53 C339.696,173.53 339.256,173.464 338.464,173.2 L338.442,173.244 C339.19,173.86 339.498,174.366 339.498,175.29 C339.498,177.138 337.892,178.546 334.944,178.546 C334.79,178.546 334.636,178.546 334.504,178.524 C334.306,178.678 334.218,178.832 334.218,179.03 C334.218,179.404 334.526,179.47 336.264,179.8 C339.256,180.372 340.884,181.01 340.884,183.012 C340.884,185.278 338.772,186.73 335.098,186.73 C331.468,186.73 329.62,185.3 329.62,183.474 C329.62,182.506 330.148,181.604 331.732,180.856 C331.27,180.504 331.05,180.108 331.05,179.58 C331.05,178.854 331.446,178.37 332.216,177.996 C330.852,177.336 330.17,176.17 330.17,174.828 C330.17,172.518 332.392,171.22 334.944,171.22 L339.982,171.22 C340.73,171.22 341.324,171.616 341.324,172.386 C341.324,173.134 340.752,173.53 340.092,173.53 Z M334.834,176.258 C335.824,176.258 336.484,175.664 336.484,174.894 C336.484,174.146 335.868,173.53 334.834,173.53 C333.8,173.53 333.162,174.146 333.162,174.894 C333.162,175.664 333.822,176.258 334.834,176.258 Z M337.826,183.188 C337.826,182.528 337.012,182.418 335.406,182.088 C334.834,181.978 334.328,181.868 333.888,181.736 C332.92,182.22 332.7,182.748 332.7,183.1 C332.7,183.892 333.69,184.53 335.34,184.53 C337.122,184.53 337.826,183.804 337.826,183.188 Z M352.104,168.338 C351.554,168.338 351.268,168.668 351.268,169.262 L351.268,171.22 L352.61,171.22 C353.336,171.22 353.952,171.814 353.952,172.562 C353.952,173.354 353.336,173.948 352.61,173.948 L351.268,173.948 L351.268,179.646 C351.268,180.548 350.52,181.296 349.64,181.296 C348.738,181.296 348.012,180.548 348.012,179.646 L348.012,173.948 L347.836,173.948 C347.088,173.948 346.472,173.354 346.472,172.562 C346.472,171.814 347.088,171.22 347.836,171.22 L348.012,171.22 L348.012,169.284 C348.012,167.194 349.31,165.412 351.994,165.412 C352.456,165.412 353.094,165.478 353.622,165.676 C354.37,165.962 354.942,166.424 354.942,167.238 C354.942,168.096 354.238,168.646 353.578,168.646 C353.248,168.646 353.028,168.558 352.764,168.47 C352.588,168.404 352.324,168.338 352.104,168.338 Z M359.936,181.406 C356.988,181.406 354.568,179.25 354.568,176.17 C354.568,173.112 356.988,171.022 359.936,171.022 C362.906,171.022 365.304,173.112 365.304,176.17 C365.304,179.25 362.906,181.406 359.936,181.406 Z M359.936,178.634 C360.992,178.634 362.004,177.776 362.004,176.17 C362.004,174.586 360.992,173.794 359.936,173.794 C358.88,173.794 357.868,174.586 357.868,176.17 C357.868,177.776 358.88,178.634 359.936,178.634 Z M373.048,171.022 C373.95,171.022 374.61,171.704 374.61,172.562 C374.61,173.53 373.862,174.19 373.026,174.19 C372.124,174.19 371.134,174.454 370.474,175.488 L370.474,179.646 C370.474,180.548 369.726,181.296 368.846,181.296 C367.944,181.296 367.218,180.548 367.218,179.646 L367.218,172.76 C367.218,171.858 367.944,171.132 368.846,171.132 C369.726,171.132 370.474,171.858 370.474,172.76 L370.474,172.87 C371.2,171.506 372.058,171.022 373.048,171.022 Z M381.76,169.548 C380.792,169.548 380.044,168.822 380.044,167.854 C380.044,166.908 380.792,166.16 381.76,166.16 C382.728,166.16 383.476,166.908 383.476,167.854 C383.476,168.822 382.728,169.548 381.76,169.548 Z M381.76,181.296 C380.88,181.296 380.132,180.548 380.132,179.646 L380.132,172.76 C380.132,171.88 380.88,171.132 381.76,171.132 C382.662,171.132 383.388,171.88 383.388,172.76 L383.388,179.646 C383.388,180.548 382.662,181.296 381.76,181.296 Z M389.68,181.406 C388.272,181.406 386.996,181.054 386.27,180.702 C385.72,180.438 385.302,180.02 385.302,179.382 C385.302,178.568 385.918,178.15 386.49,178.15 C386.952,178.15 387.37,178.348 387.876,178.524 C388.426,178.722 389.086,178.832 389.636,178.832 C390.538,178.832 390.89,178.634 390.89,178.304 C390.89,177.842 390.12,177.688 388.844,177.314 C386.842,176.72 385.5,176.06 385.5,174.212 C385.5,172.386 386.908,171.022 389.636,171.022 C390.846,171.022 392.012,171.308 392.584,171.528 C393.112,171.726 393.618,172.1 393.618,172.826 C393.618,173.662 393.068,174.124 392.452,174.124 C392.078,174.124 391.682,173.97 391.264,173.86 C390.714,173.706 390.142,173.618 389.636,173.618 C388.866,173.618 388.514,173.794 388.514,174.124 C388.514,174.542 389.042,174.674 390.692,175.158 C392.452,175.664 393.904,176.28 393.904,178.172 C393.904,180.086 392.408,181.406 389.68,181.406 Z M406.752,171.022 C408.512,171.022 410.096,172.188 410.096,174.63 L410.096,179.646 C410.096,180.548 409.348,181.296 408.468,181.296 C407.588,181.296 406.84,180.548 406.84,179.646 L406.84,175.378 C406.84,174.476 406.488,173.794 405.498,173.794 C404.794,173.794 404.2,174.212 403.804,175.004 L403.804,179.646 C403.804,180.548 403.056,181.296 402.176,181.296 C401.274,181.296 400.548,180.548 400.548,179.646 L400.548,172.76 C400.548,171.858 401.274,171.132 402.176,171.132 C402.968,171.132 403.65,171.726 403.782,172.496 C404.53,171.594 405.52,171.022 406.752,171.022 Z M417.334,181.406 C414.386,181.406 411.966,179.25 411.966,176.17 C411.966,173.112 414.386,171.022 417.334,171.022 C420.304,171.022 422.702,173.112 422.702,176.17 C422.702,179.25 420.304,181.406 417.334,181.406 Z M417.334,178.634 C418.39,178.634 419.402,177.776 419.402,176.17 C419.402,174.586 418.39,173.794 417.334,173.794 C416.278,173.794 415.266,174.586 415.266,176.17 C415.266,177.776 416.278,178.634 417.334,178.634 Z M431.172,178.172 C431.92,178.15 432.47,178.788 432.47,179.536 C432.47,180.152 432.096,180.526 431.436,180.856 C431.128,180.988 430.292,181.362 429.06,181.362 C426.486,181.362 425.232,180.152 425.232,177.996 L425.232,173.948 L424.484,173.948 C423.934,173.948 423.494,173.552 423.494,173.002 C423.494,172.672 423.626,172.43 423.978,172.122 L426.75,169.79 C426.992,169.592 427.212,169.438 427.542,169.438 C428.026,169.438 428.488,169.768 428.488,170.582 L428.488,171.22 L430.974,171.22 C431.722,171.22 432.338,171.836 432.338,172.584 C432.338,173.354 431.722,173.948 430.974,173.948 L428.488,173.948 L428.488,177.358 C428.488,178.128 428.95,178.48 429.588,178.48 C429.874,178.48 430.138,178.436 430.358,178.37 C430.622,178.282 430.886,178.194 431.172,178.172 Z M445.406,178.172 C446.154,178.15 446.704,178.788 446.704,179.536 C446.704,180.152 446.33,180.526 445.67,180.856 C445.362,180.988 444.526,181.362 443.294,181.362 C440.72,181.362 439.466,180.152 439.466,177.996 L439.466,173.948 L438.718,173.948 C438.168,173.948 437.728,173.552 437.728,173.002 C437.728,172.672 437.86,172.43 438.212,172.122 L440.984,169.79 C441.226,169.592 441.446,169.438 441.776,169.438 C442.26,169.438 442.722,169.768 442.722,170.582 L442.722,171.22 L445.208,171.22 C445.956,171.22 446.572,171.836 446.572,172.584 C446.572,173.354 445.956,173.948 445.208,173.948 L442.722,173.948 L442.722,177.358 C442.722,178.128 443.184,178.48 443.822,178.48 C444.108,178.48 444.372,178.436 444.592,178.37 C444.856,178.282 445.12,178.194 445.406,178.172 Z M454.492,171.022 C456.252,171.022 457.836,172.188 457.836,174.63 L457.836,179.646 C457.836,180.548 457.088,181.296 456.208,181.296 C455.328,181.296 454.58,180.548 454.58,179.646 L454.58,175.378 C454.58,174.476 454.228,173.794 453.238,173.794 C452.534,173.794 451.94,174.212 451.544,175.004 L451.544,179.646 C451.544,180.548 450.796,181.296 449.916,181.296 C449.014,181.296 448.288,180.548 448.288,179.646 L448.288,167.15 C448.288,166.248 449.014,165.5 449.916,165.5 C450.796,165.5 451.544,166.248 451.544,167.15 L451.544,172.474 C452.292,171.594 453.282,171.022 454.492,171.022 Z M464.986,171.022 C467.978,171.022 469.584,173.222 469.584,175.444 C469.584,175.928 469.474,176.28 469.232,176.544 C468.946,176.874 468.484,176.962 467.846,176.962 L462.962,176.962 C463.27,178.018 464.172,178.612 465.624,178.612 C466.042,178.612 466.438,178.568 466.834,178.48 C467.274,178.392 467.472,178.348 467.736,178.348 C468.506,178.348 468.99,178.964 468.99,179.624 C468.99,180.196 468.66,180.702 468.066,180.944 C467.318,181.23 466.35,181.406 465.294,181.406 C462.148,181.406 459.728,179.382 459.728,176.236 C459.728,173.178 461.906,171.022 464.986,171.022 Z M462.918,175.092 L466.79,175.092 C466.724,174.146 466.108,173.42 464.92,173.42 C463.886,173.42 463.16,173.992 462.918,175.092 Z M477.306,171.022 C478.208,171.022 478.868,171.704 478.868,172.562 C478.868,173.53 478.12,174.19 477.284,174.19 C476.382,174.19 475.392,174.454 474.732,175.488 L474.732,179.646 C474.732,180.548 473.984,181.296 473.104,181.296 C472.202,181.296 471.476,180.548 471.476,179.646 L471.476,172.76 C471.476,171.858 472.202,171.132 473.104,171.132 C473.984,171.132 474.732,171.858 474.732,172.76 L474.732,172.87 C475.458,171.506 476.316,171.022 477.306,171.022 Z M484.72,171.022 C487.712,171.022 489.318,173.222 489.318,175.444 C489.318,175.928 489.208,176.28 488.966,176.544 C488.68,176.874 488.218,176.962 487.58,176.962 L482.696,176.962 C483.004,178.018 483.906,178.612 485.358,178.612 C485.776,178.612 486.172,178.568 486.568,178.48 C487.008,178.392 487.206,178.348 487.47,178.348 C488.24,178.348 488.724,178.964 488.724,179.624 C488.724,180.196 488.394,180.702 487.8,180.944 C487.052,181.23 486.084,181.406 485.028,181.406 C481.882,181.406 479.462,179.382 479.462,176.236 C479.462,173.178 481.64,171.022 484.72,171.022 Z M482.652,175.092 L486.524,175.092 C486.458,174.146 485.842,173.42 484.654,173.42 C483.62,173.42 482.894,173.992 482.652,175.092 Z M492.75,181.362 C491.716,181.362 490.858,180.482 490.858,179.47 C490.858,178.414 491.716,177.534 492.75,177.534 C493.806,177.534 494.664,178.414 494.664,179.47 C494.664,180.482 493.806,181.362 492.75,181.362 Z M275.874,210.362 C274.488,210.362 272.904,209.944 271.694,209.174 C271.056,208.756 270.638,208.272 270.638,207.524 C270.638,206.666 271.32,206.05 272.156,206.05 C272.662,206.05 273.058,206.292 273.454,206.556 C274.092,206.952 274.818,207.37 276.006,207.37 C277.194,207.37 277.964,206.776 277.964,205.962 C277.964,204.928 276.644,204.62 275.258,204.092 C272.662,203.102 271.188,201.914 271.188,199.516 C271.188,196.898 273.036,195.006 276.314,195.006 C277.964,195.006 278.932,195.292 279.592,195.644 C280.252,195.974 280.758,196.502 280.758,197.184 C280.758,197.954 280.23,198.68 279.438,198.68 C278.976,198.68 278.58,198.504 278.294,198.394 C277.744,198.196 277.128,197.976 276.336,197.976 C275.17,197.976 274.51,198.548 274.51,199.274 C274.51,200.352 275.786,200.704 277.326,201.276 C279.35,202.024 281.264,203.058 281.264,205.764 C281.264,208.756 278.91,210.362 275.874,210.362 Z M288.084,210.406 C285.136,210.406 282.716,208.25 282.716,205.17 C282.716,202.112 285.136,200.022 288.084,200.022 C291.054,200.022 293.452,202.112 293.452,205.17 C293.452,208.25 291.054,210.406 288.084,210.406 Z M288.084,207.634 C289.14,207.634 290.152,206.776 290.152,205.17 C290.152,203.586 289.14,202.794 288.084,202.794 C287.028,202.794 286.016,203.586 286.016,205.17 C286.016,206.776 287.028,207.634 288.084,207.634 Z M296.972,206.556 C298.16,206.556 298.996,207.524 298.996,209.064 C298.996,211.418 297.566,213.112 296.422,213.97 C296.136,214.19 295.982,214.278 295.674,214.278 C295.278,214.278 294.904,213.97 294.904,213.53 C294.904,213.376 294.948,213.156 295.168,212.914 C295.85,212.166 296.51,211.374 296.686,210.208 C295.652,210.032 295.058,209.306 295.058,208.426 C295.058,207.458 295.74,206.556 296.972,206.556 Z M310.304,197.338 C309.754,197.338 309.468,197.668 309.468,198.262 L309.468,200.22 L310.81,200.22 C311.536,200.22 312.152,200.814 312.152,201.562 C312.152,202.354 311.536,202.948 310.81,202.948 L309.468,202.948 L309.468,208.646 C309.468,209.548 308.72,210.296 307.84,210.296 C306.938,210.296 306.212,209.548 306.212,208.646 L306.212,202.948 L306.036,202.948 C305.288,202.948 304.672,202.354 304.672,201.562 C304.672,200.814 305.288,200.22 306.036,200.22 L306.212,200.22 L306.212,198.284 C306.212,196.194 307.51,194.412 310.194,194.412 C310.656,194.412 311.294,194.478 311.822,194.676 C312.57,194.962 313.142,195.424 313.142,196.238 C313.142,197.096 312.438,197.646 311.778,197.646 C311.448,197.646 311.228,197.558 310.964,197.47 C310.788,197.404 310.524,197.338 310.304,197.338 Z M321.37,200.11 C322.272,200.11 322.998,200.858 322.998,201.76 L322.998,208.646 C322.998,209.548 322.272,210.274 321.37,210.274 C320.578,210.274 319.896,209.68 319.764,208.91 C319.016,209.812 318.026,210.384 316.794,210.384 C315.034,210.384 313.45,209.218 313.45,206.776 L313.45,201.76 C313.45,200.858 314.198,200.11 315.078,200.11 C315.958,200.11 316.706,200.858 316.706,201.76 L316.706,206.028 C316.706,206.93 317.058,207.612 318.048,207.612 C318.752,207.612 319.346,207.194 319.742,206.402 L319.742,201.76 C319.742,200.858 320.49,200.11 321.37,200.11 Z M330.324,210.406 C327.288,210.406 324.934,208.338 324.934,205.214 C324.934,202.09 327.266,200 330.324,200 C331.446,200 332.546,200.308 333.14,200.726 C333.58,201.034 333.888,201.474 333.888,202.024 C333.888,202.816 333.338,203.432 332.524,203.432 C332.128,203.432 331.732,203.3 331.512,203.212 C331.292,203.124 330.896,203.014 330.434,203.014 C329.378,203.014 328.234,203.696 328.234,205.192 C328.234,206.6 329.29,207.436 330.61,207.436 C331.05,207.436 331.292,207.37 331.578,207.26 C331.864,207.15 332.172,207.084 332.436,207.084 C333.228,207.084 333.822,207.59 333.822,208.426 C333.822,209.108 333.404,209.592 332.744,209.922 C332.172,210.208 331.314,210.406 330.324,210.406 Z M345.13,207.524 C345.57,208.052 345.702,208.404 345.702,208.756 C345.702,209.68 344.976,210.296 344.096,210.296 C343.59,210.296 343.128,210.032 342.776,209.592 L340.312,206.424 L339.014,207.216 L339.014,208.646 C339.014,209.548 338.266,210.296 337.386,210.296 C336.484,210.296 335.758,209.548 335.758,208.646 L335.758,196.15 C335.758,195.248 336.484,194.5 337.386,194.5 C338.266,194.5 339.014,195.248 339.014,196.15 L339.014,204.026 L342.952,200.572 C343.282,200.264 343.678,200.132 344.052,200.132 C344.822,200.132 345.504,200.814 345.504,201.606 C345.504,202.024 345.328,202.464 344.866,202.86 L342.776,204.664 L345.13,207.524 Z M357.054,210.406 C354.106,210.406 351.686,208.25 351.686,205.17 C351.686,202.112 354.106,200.022 357.054,200.022 C360.024,200.022 362.422,202.112 362.422,205.17 C362.422,208.25 360.024,210.406 357.054,210.406 Z M357.054,207.634 C358.11,207.634 359.122,206.776 359.122,205.17 C359.122,203.586 358.11,202.794 357.054,202.794 C355.998,202.794 354.986,203.586 354.986,205.17 C354.986,206.776 355.998,207.634 357.054,207.634 Z M370.54,194.676 C371.288,194.962 371.86,195.424 371.86,196.238 C371.86,197.096 371.156,197.646 370.496,197.646 C370.166,197.646 369.946,197.558 369.682,197.47 C369.506,197.404 369.242,197.338 369.022,197.338 C368.472,197.338 368.186,197.668 368.186,198.262 L368.186,200.22 L369.528,200.22 C370.254,200.22 370.87,200.814 370.87,201.562 C370.87,202.354 370.254,202.948 369.528,202.948 L368.186,202.948 L368.186,208.646 C368.186,209.548 367.438,210.296 366.558,210.296 C365.656,210.296 364.93,209.548 364.93,208.646 L364.93,202.948 L364.754,202.948 C364.006,202.948 363.39,202.354 363.39,201.562 C363.39,200.814 364.006,200.22 364.754,200.22 L364.93,200.22 L364.93,198.284 C364.93,196.194 366.228,194.412 368.912,194.412 C369.374,194.412 370.012,194.478 370.54,194.676 Z M376.15,197.338 C375.6,197.338 375.314,197.668 375.314,198.262 L375.314,200.22 L376.634,200.22 C377.36,200.22 377.976,200.814 377.976,201.562 C377.976,202.354 377.36,202.948 376.634,202.948 L375.314,202.948 L375.314,208.646 C375.314,209.548 374.566,210.296 373.686,210.296 C372.784,210.296 372.058,209.548 372.058,208.646 L372.058,198.284 C372.058,196.194 373.356,194.412 376.04,194.412 C376.502,194.412 377.14,194.478 377.668,194.676 C378.416,194.962 378.988,195.424 378.988,196.238 C378.988,197.096 378.284,197.646 377.624,197.646 C377.294,197.646 377.074,197.558 376.81,197.47 C376.634,197.404 376.37,197.338 376.15,197.338 Z M380.132,210.362 C379.098,210.362 378.24,209.482 378.24,208.47 C378.24,207.414 379.098,206.534 380.132,206.534 C381.188,206.534 382.046,207.414 382.046,208.47 C382.046,209.482 381.188,210.362 380.132,210.362 Z" id="Ops-The-page-youre" fill="#2A1052"></path>
            </g>
        </g>
    </g>
</svg>