<svg xmlns="http://www.w3.org/2000/svg" xmlns:xlink="http://www.w3.org/1999/xlink" width="549" height="331"><style><![CDATA[.B{stroke:#333}.C{fill:#000}.D{stroke:#000}.E{stroke-linejoin:round}.F{fill:#35353d}.G{opacity:.15}.H{stroke-width:.6}.I{fill:#b32645}.J{fill:#231f20}.K{stroke:#231f20}]]></style><defs><path d="M243 192h-43l43-29.655V127c0-8.284 6.716-15 15-15h245c8.284 0 15 6.716 15 15v97c0 8.284-6.716 15-15 15H258c-8.284 0-15-6.716-15-15v-32z" id="A"/><filter x="-25.2%" y="-39.4%" width="144.0%" height="210.2%" id="B"><feOffset dx="-10" dy="20" in="SourceAlpha"/><feGaussianBlur stdDeviation="20"/><feColorMatrix values="0 0 0 0 0.164705882 0 0 0 0 0.062745098 0 0 0 0 0.321568627 0 0 0 1 0"/></filter><path id="C" d="M83.953 241.8l-3.435 4.117-.622-.52 3.435-4.117z"/><path id="D" d="M194.716 238.686l3.435 4.117-.622.52-3.435-4.117z"/></defs><g transform="translate(1 1)" fill="none" fill-rule="evenodd"><path d="M116.54 270.496l-3.09 3.705a1.16 1.16 0 0 1-1.634.148L76.817 245.15a1.16 1.16 0 0 1-.148-1.634l3.09-3.705a1.16 1.16 0 0 1 1.634-.148l34.997 29.198a1.16 1.16 0 0 1 .148 1.634z" fill="#1a1924"/><g fill="#2b2b3a"><path d="M82.254 240.383L78.82 244.5l-.622-.52 3.435-4.117z"/><use xlink:href="#C"/><use xlink:href="#C" x="1.697" y="1.417"/><use xlink:href="#C" x="3.397" y="2.833"/><use xlink:href="#C" x="5.095" y="4.248"/><use xlink:href="#C" x="6.793" y="5.666"/><path d="M92.443 248.882L89.008 253l-.622-.52 3.435-4.117z"/><use xlink:href="#C" x="10.19" y="8.5"/><use xlink:href="#C" x="11.887" y="9.916"/><use xlink:href="#C" x="13.587" y="11.334"/><use xlink:href="#C" x="15.285" y="12.75"/><use xlink:href="#C" x="16.984" y="14.167"/><path d="M102.634 257.383L99.2 261.5l-.622-.52 3.435-4.117z"/><use xlink:href="#C" x="20.379" y="17"/><use xlink:href="#C" x="22.077" y="18.416"/><use xlink:href="#C" x="23.775" y="19.833"/><use xlink:href="#C" x="25.474" y="21.25"/><use xlink:href="#C" x="27.172" y="22.666"/><path d="M112.825 265.883L109.39 270l-.622-.52 3.435-4.117z"/><use xlink:href="#C" x="30.569" y="25.5"/><use xlink:href="#C" x="32.267" y="26.917"/></g><path d="M196.587 238.635l3.09 3.705a1.16 1.16 0 0 1-.148 1.634l-34.997 29.198a1.16 1.16 0 0 1-1.634-.148l-3.09-3.705a1.16 1.16 0 0 1 .148-1.634l34.997-29.198a1.16 1.16 0 0 1 1.634.148z" fill="#1a1924"/><g fill="#2b2b3a"><use xlink:href="#D"/><use xlink:href="#D" x="-1.698" y="1.417"/><use xlink:href="#D" x="-3.396" y="2.834"/><use xlink:href="#D" x="-5.094" y="4.251"/><use xlink:href="#D" x="-6.794" y="5.668"/><use xlink:href="#D" x="-8.491" y="7.084"/><use xlink:href="#D" x="-10.19" y="8.504"/><use xlink:href="#D" x="-11.888" y="9.918"/><use xlink:href="#D" x="-13.586" y="11.336"/><use xlink:href="#D" x="-15.286" y="12.752"/><use xlink:href="#D" x="-16.983" y="14.169"/><use xlink:href="#D" x="-18.681" y="15.586"/><use xlink:href="#D" x="-20.38" y="17.014"/><use xlink:href="#D" x="-22.079" y="18.421"/><use xlink:href="#D" x="-23.776" y="19.837"/><use xlink:href="#D" x="-25.476" y="21.254"/><use xlink:href="#D" x="-27.174" y="22.67"/><use xlink:href="#D" x="-28.873" y="24.088"/><use xlink:href="#D" x="-30.57" y="25.504"/><use xlink:href="#D" x="-32.269" y="26.922"/><use xlink:href="#D" x="-33.966" y="28.338"/></g><path d="M173.538 297.28c-1.19-.005-2.375-.097-3.55-.274-6.1-.89-13.833-3.876-23.647-9.13-.946-.506-1.55-1.48-1.585-2.55s.505-2.082 1.417-2.648 2.056-.603 3.002-.097c9.063 4.85 16.358 7.702 21.682 8.48 3.475.508 5.976.12 7.433-1.158 1.635-1.432 1.488-3.964 1.06-8.695-.5-5.54-1.124-12.436 2.376-20.36 2.65-6.006 7.306-11.72 12.77-15.694 2.965-2.155 6.064-3.736 9.212-4.7 3.502-1.07 6.98-1.35 10.34-.83 4.15.643 8.314 2.508 11.724 5.253 3.916 3.152 6.496 7.175 7.463 11.635.792 3.653.58 8-.566 11.603-1.473 4.643-4.41 7.963-8.267 9.35-1.35.482-2.772.726-4.204.72-5.934 0-10.86-4.018-11.513-4.574-.832-.69-1.228-1.776-1.037-2.84s.94-1.944 1.96-2.302 2.155-.14 2.97.572c.052.043 5.245 4.402 9.79 2.77 2.633-.945 3.94-3.52 4.572-5.512.83-2.617.99-5.886.42-8.515-.85-3.92-3.383-6.638-5.36-8.228-2.563-2.064-5.798-3.52-8.877-3.996-3.377-.52-8.737-.173-15.102 4.453-4.634 3.37-8.574 8.203-10.81 13.263-2.872 6.506-2.35 12.3-1.888 17.394.48 5.266.926 10.24-3.084 13.753-2.166 1.9-5.086 2.86-8.704 2.86z" class="B H I"/><path d="M170.855 291.064c-5.324-.778-12.62-3.63-21.682-8.48a3 3 0 0 0-2.67-.082c-.854.392-1.475 1.16-1.68 2.078a3 3 0 0 1 3.148-.193c9.063 4.848 16.417 6.887 21.682 8 3.003.634 8.152.8 10.947-1.87.486-.465-2.673.2-2.464-.48-1.475 1.172-3.924 1.52-7.282 1.028zm51.52-19.254c-4.544 1.632-9.737-2.727-9.8-2.77a3 3 0 0 0-2.9-.56c-.998.335-1.75 1.167-1.978 2.195a2.99 2.99 0 0 1 3.677.168c.052.043 5.245 4.402 9.8 2.77 1.84-.66 3.032-2.115 3.798-3.612a6.18 6.18 0 0 1-2.597 1.8zm10.86-15.297c-.967-4.46-3.547-8.484-7.462-11.636-3.4-2.745-7.575-4.6-11.725-5.253-3.363-.52-6.84-.24-10.34.83-3.148.96-6.246 2.545-9.2 4.7-4.106 3.018-7.607 6.782-10.32 11.096a40.48 40.48 0 0 1 9.119-9.295c2.963-2.154 6.063-3.736 9.2-4.7 3.502-1.07 6.98-1.35 10.34-.83 4.15.643 8.315 2.508 11.725 5.253 3.915 3.152 6.495 7.176 7.462 11.636.792 3.653.58 8-.566 11.602-.373 1.193-.872 2.343-1.488 3.43a16.64 16.64 0 0 0 2.69-5.232c1.146-3.618 1.357-7.95.566-11.602z" class="C D G H"/><g class="H"><path d="M139.623 283.453l-2.317 6.92c-2.147 6.006-4.565 12.764-5.165 22.37l-.083 1.605c-.244 6.117-5.272 10.952-11.395 10.956-.154 0-.308 0-.462-.01a11.41 11.41 0 0 1-10.948-11.857c.06-1.502.152-2.956.276-4.36 1.017-11.65 4.025-20.06 6.287-26.388.756-2.115 1.41-3.942 1.88-5.57 1.75-6.055 8.076-9.545 14.13-7.796s9.545 8.076 7.796 14.13z" class="B I"/><path d="M132.12 313.1l-.06 1.25c-.244 6.117-5.272 10.952-11.395 10.956-.154 0-.308 0-.462-.01a11.41 11.41 0 0 1-10.948-11.857c.06-1.503.084-2.142.207-3.547 5.723-1.258 20.42.443 22.66 3.208z" class="C D E G"/><g class="B"><path d="M126.13 328.953c-.868 0-1.73-.14-2.554-.414-3.33-1.105-11.27-1.86-17.743.028a8.11 8.11 0 0 1-10.145-9.711 8.11 8.11 0 0 1 5.607-5.857c5.55-1.618 11.085-1.86 14.75-1.78 4.71.103 9.2.79 12.637 1.93a8.11 8.11 0 0 1-2.551 15.806z" class="F"/><path d="M153.2 325.525c-6.045-.005-11.037-4.723-11.383-10.758-.6-10.46-3.29-17.59-5.666-23.88-.89-2.355-1.73-4.58-2.436-6.88-1.855-6.023 1.525-12.41 7.55-14.264s12.4 1.525 14.265 7.548c.5 1.62 1.183 3.435 1.977 5.537 2.657 7.04 6.297 16.685 7.098 30.63a11.41 11.41 0 0 1-10.739 12.047c-.222.01-.444.02-.664.02z" class="I"/></g><path d="M141.717 313.1l.06 1.25c.244 6.117 5.272 10.952 11.395 10.956.154 0 .308 0 .462-.01a11.41 11.41 0 0 0 10.948-11.857c-.06-1.503-.13-2.142-.253-3.547-5.723-1.258-20.373.443-22.613 3.208z" class="C D E G"/><g class="B"><path d="M147.75 328.953a8.11 8.11 0 0 1-2.553-15.809c3.438-1.14 7.928-1.826 12.637-1.93 3.665-.08 9.2.162 14.75 1.78a8.11 8.11 0 0 1 3.343 13.641 8.11 8.11 0 0 1-7.876 1.93c-6.472-1.887-14.415-1.133-17.743-.028a8.1 8.1 0 0 1-2.557.414z" class="F"/><path d="M193.822 271.845a7.51 7.51 0 0 1-8.226 6.713 7.51 7.51 0 0 1-6.714-8.226c.58-5.715-1.642-12.87-6.137-19.975 1.004 4.87 1.596 8.957 1.934 12.612.148 1.598.24 3.115.3 4.58.074 1.69.1 3.315.1 4.916 0 8.384-3.484 16.714-9.316 23.325-6.998 7.942-17.37 13.405-29.12 13.506-7.448.064-14.415-2.2-20.313-5.993-1.417-.91-2.776-1.906-4.07-2.985-1.532-1.278-2.97-2.667-4.298-4.155-5.994-6.7-9.642-15.2-9.642-23.7 0-1.682.055-3.35.19-5.086.156-2.05.418-4.184.82-6.51.545-3.157 1.35-6.663 2.497-10.78l.145-.52c-3.88 5.702-8.015 14.016-7.98 23.537.008 1.99-.776 3.904-2.18 5.317s-3.3 2.21-5.3 2.218h-.028a7.51 7.51 0 0 1-7.508-7.48c-.02-5.205.822-10.467 2.483-15.67 1.992-6.246 5.165-12.4 9.446-18.28 2.59-3.545 5.492-6.854 8.668-9.887 4.418-4.226 9.272-7.83 14.197-10.5 2.657-4.655 5.08-7.547 7.142-9.713 4.508-4.73 10.81-11.347 19.084-10.84 6.645.4 11.22 5.24 15.276 9.647 2.643 2.868 5.336 6.45 8.015 12.006 2.853 1.803 5.56 3.825 8.1 6.05 1.24 1.083 2.455 2.22 3.647 3.413a76.86 76.86 0 0 1 8.131 9.579c4.353 6.1 7.455 12.372 9.19 18.486 1.41 4.976 1.917 9.836 1.456 14.39z" class="I"/></g><path d="M182.514 277.54v-14.92c.001-3.98-3.112-7.268-7.087-7.483 2.673 5.47 3.9 10.765 3.46 15.197-.295 2.904 1.12 5.715 3.628 7.208zm-91.862 1.852a7.5 7.5 0 0 0 3.351-6.279c-.025-6.777 2.063-12.94 4.668-18h-.525a7.54 7.54 0 0 0-5.3 2.195c-1.406 1.395-2.195 3.312-2.195 5.3v16.773z" class="B G J"/><path d="M151.012 261.003c-1.697 3.034-16.41 28.762-34.672 42.306-1.417-.91-2.776-1.906-4.07-2.985 7.06-4.952 14.45-12.538 21.996-22.575 6.967-9.267 11.677-17.53 12.552-19.093l4.193 2.346z" class="B F"/><path d="M151.012 261.003c-1.697 3.034-16.41 28.762-34.672 42.306a35.57 35.57 0 0 1-1.321-.89c16.605-12.732 31.404-36.322 34.8-42.082l1.183.665z" class="C D E G"/><g class="B F"><path d="M175.1 272.47c0 8.384-3.484 16.714-9.316 23.325l-7.3-17.057a3.8 3.8 0 0 1 1.999-4.993l14.502-6.196a107.63 107.63 0 0 1 .103 4.92zm-59.678 6.268l-7.448 17.43c-5.994-6.7-9.642-15.2-9.642-23.7 0-1.682.055-3.35.2-5.086l14.895 6.366c1.93.824 2.83 3.056 2.006 4.987z"/><path d="M120.4 264.377l-1.102 2.58a2.25 2.25 0 0 1-2.95 1.184l-17.006-7.265c.545-3.157 1.35-6.663 2.497-10.78l17.378 11.334c1.14.488 1.67 1.807 1.182 2.948zm54.28-1.403l-15.33 6.246c-.548.234-1.167.24-1.72.02s-.995-.654-1.23-1.203l-1.103-2.58a2.25 2.25 0 0 1 1.184-2.949l16.265-12.153c1.004 4.873 1.596 8.96 1.934 12.62z" class="E"/></g><path d="M175.1 272.47c0 8.385-3.484 16.714-9.316 23.325-.762.865-1.563 1.7-2.402 2.504a40.48 40.48 0 0 1-5.703 4.543c-6.006 3.958-13.204 6.39-21.013 6.46-7.448.064-14.415-2.2-20.313-5.993-.24-.153-.476-.308-.708-.466-1.165-.78-2.287-1.623-3.363-2.522a41.26 41.26 0 0 1-2.763-2.522c-.53-.53-1.04-1.073-1.536-1.626-5.994-6.7-9.642-15.212-9.642-23.7 0-1.674.055-3.35.19-5.086.156-2.05.418-4.184.82-6.51a91.61 91.61 0 0 1 1.169-5.645c.527-2.138.84-3.787 1.473-5.645-.092.5-5.1 33.818 13.382 48.216 2.784 2.172 6.102 3.912 10.05 5.045 3.288.944 7.013 1.468 11.23 1.468 4.437 0 8.353-.524 11.808-1.468 4.15-1.134 7.635-2.876 10.554-5.045 18.244-13.56 14.475-43.867 13.738-47.44.58 1.978.6 3.067 1 5.324a102.42 102.42 0 0 1 .944 7.293 101.79 101.79 0 0 1 .31 4.58c.076 1.686.102 3.306.102 4.912z" opacity=".2" class="J K"/><path d="M158.723 238.46l4.22 2.436c1.758 1.015 2.36 3.263 1.346 5.02l-8.03 13.9c-1.015 1.758-3.263 2.36-5.02 1.345l-4.22-2.436c-1.758-1.015-2.36-3.263-1.346-5.02l8.03-13.9c1.015-1.758 3.263-2.36 5.02-1.345zM97.56 250.823c-4.04 6.606-11.78 6.98-16.096 6.675 1.992-6.246 5.165-12.4 9.446-18.28 2.6-3.545 5.492-6.854 8.668-9.887.912 0 1.456.12 1.514.408.473 2.312 2.476 11.262-3.532 21.084z" class="B F"/><path d="M164.287 245.92l-8.028 13.904a3.68 3.68 0 0 1-5.026 1.347l-4.213-2.437a3.68 3.68 0 0 1-1.772-3.897c.32.52.763.95 1.29 1.254l4.213 2.432a3.68 3.68 0 0 0 5.026-1.347l8.028-13.904a3.66 3.66 0 0 0 .425-1.129c.713 1.152.734 2.604.055 3.776z" class="C D E G"/><g class="B"><path d="M192.366 257.458c-4.485.345-13.38-1.395-16.863-7.836-4.925-9.108-3.765-17.57-3.297-19.883.082-.402 1.142-.48 2.84-.346a76.86 76.86 0 0 1 8.131 9.579c4.353 6.1 7.458 12.372 9.19 18.486z" class="F"/><path d="M7.664 122.373c-13.13 12.483-7.317 37.284 1.988 51.283 13.258 19.948 43.027 32.135 57.97 21.14 15.61-11.487 12.93-46.707-5.838-64.69-14.012-13.43-40.54-20.643-54.12-7.734z" class="I"/></g><path d="M56.584 198.793c-15.64 1.562-36.448-9.36-46.932-25.136C.348 159.66-5.466 134.86 7.664 122.375c5.714-5.434 13.718-7.303 22.127-6.644-6.048.508-11.606 2.578-15.88 6.64-13.13 12.483-7.315 37.284 1.988 51.283 9.14 13.75 26.122 23.817 40.687 25.138z" opacity=".1" class="C D"/><path d="M265.854 121.813c13.346 12.252 7.967 37.15-1.092 51.31-12.908 20.18-42.46 32.882-57.594 22.146-15.806-11.213-13.742-46.476 4.71-64.78 13.776-13.667 40.175-21.344 53.977-8.674z" class="B I"/><path d="M264.763 173.122c-10.182 15.914-30.718 27.18-46.367 25.962 14.83-1.07 32.394-11.632 41.562-25.962 9.058-14.158 14.438-39.058 1.092-51.31-4.352-3.995-9.956-5.967-16.023-6.366 7.876-.49 15.346 1.333 20.828 6.366 13.346 12.25 7.967 37.15-1.092 51.31z" opacity=".1" class="C D"/><path d="M193.822 271.845a7.51 7.51 0 0 1-12.057 5.188 7.2 7.2 0 0 0 1.33.263c1.88.194 3.76-.37 5.225-1.563s2.394-2.922 2.583-4.803c.437-4.324-.042-8.935-1.38-13.654-1.647-5.803-4.6-11.764-8.722-17.544-2.32-3.236-4.9-6.277-7.717-9.092a72.5 72.5 0 0 0-3.461-3.243 61.65 61.65 0 0 0-7.688-5.742c-2.542-5.272-5.1-8.67-7.606-11.394-3.844-4.18-8.19-8.77-14.498-9.155-7.848-.48-13.833 5.8-18.112 10.288-1.96 2.055-4.257 4.805-6.78 9.218-4.674 2.534-9.282 5.954-13.474 9.97a70.48 70.48 0 0 0-8.227 9.382c-4.063 5.572-7.075 11.42-8.965 17.35-1.577 4.94-2.375 9.932-2.357 14.873a7.13 7.13 0 0 0 7.126 7.099h.026a7.09 7.09 0 0 0 2.223-.36c-1.34 1.115-3.026 1.727-4.77 1.73h-.028a7.51 7.51 0 0 1-7.508-7.48c-.02-5.205.822-10.467 2.483-15.67 1.992-6.246 5.165-12.4 9.446-18.28 2.59-3.545 5.492-6.854 8.668-9.887 4.418-4.226 9.272-7.83 14.197-10.5 2.657-4.655 5.08-7.547 7.142-9.713 4.508-4.73 10.81-11.347 19.084-10.84 6.645.4 11.22 5.24 15.276 9.647 2.643 2.868 5.336 6.45 8.015 12.006 2.853 1.803 5.56 3.825 8.1 6.05 1.24 1.083 2.455 2.22 3.647 3.413a76.86 76.86 0 0 1 8.131 9.579c4.353 6.1 7.455 12.372 9.19 18.486 1.41 4.964 1.917 9.824 1.456 14.38z" opacity=".2" class="J K"/><path d="M252.798 123.607C252.97 62.7 216.928.06 137.028.06S21.142 64.938 20.978 123.607c-.043 15.948 4.845 34.56 14.006 52.29-1.993 3.924-3.255 8.714-3.255 14.594 0 21.38 53.935 61.39 109.35 59.787 50.5-1.46 101.006-37.826 101.006-62.96 0-5.165-.975-9.376-2.565-12.83 8.7-17.424 13.235-35.534 13.278-50.88z" class="B I"/></g><path d="M65.113 23.783C70.758 29.938 75.924 33.2 76.67 38.7c.748 7.9 15.736 128.233 15.736 141.462-3.854 19.233-9.23 33.913-22.846 51.153M209.446 23.783c-5.646 6.155-10.8 9.416-11.558 14.927-.748 7.9-15.736 128.233-15.736 141.462 3.854 19.233 10.32 33.5 22.537 51.117" stroke="#871a37" stroke-width="3.72"/><path d="M92.408 184.38c-1.853 0-6.53-.586-12.296-2.78-7.454-2.834-14.038-7.262-19.57-13.162-6.202-6.614-10.887-14.944-13.92-24.757-3.582-11.58-4.89-25.357-3.886-40.948.668-10.378 10.498-31.666 13.493-37.944 3.35-7.014 6.87-13.7 9.913-18.858 4.763-8.048 6.942-10.012 8.445-10.87.953-.544 2.063-.8 3.393-.8 5.306 0 15.587 4.72 19.76 6.75 4.133 2 14.082 7.11 17.2 11.058.48.6 1.938 2.453 5.367 11.2 2.162 5.497 4.482 12.2 6.55 18.874 3.108 10.026 8.255 28.468 7.82 39.336-.204 5.087-2.063 11.457-5.526 18.933-2.92 6.3-6.897 13.204-11.5 19.94-4.3 6.292-8.908 12.07-12.973 16.27-2.162 2.232-4.15 3.997-5.905 5.248-2.416 1.718-4.437 2.52-6.364 2.52z" fill="#871a37"/><path d="M76.67 38.7c3.9-2.234 30.9 10.81 34.968 15.952s19.534 49.22 18.836 66.638c-.772 19.285-29.985 58.872-38.067 58.872-4.476 0-50.043-6.206-45.477-77.174.94-14.6 24.062-61.042 29.74-64.288z" fill="#212126"/><path d="M92.247 175.963c-1.01-.046-4.565-.48-9.146-2.225a43.64 43.64 0 0 1-16.426-11.051c-5.32-5.676-9.37-12.907-12.022-21.5-3.277-10.598-4.464-23.358-3.527-37.924.36-5.68 5.198-19.052 12.313-34.066 3.158-6.664 6.507-13.1 9.43-18.123 3.163-5.434 4.876-7.595 5.6-8.388 2.37.27 8.2 2.276 15.594 5.87 8.288 4.03 13.334 7.516 14.275 8.705 1.187 1.503 5.705 11.93 10.486 27.354 5.015 16.185 7.73 29.492 7.448 36.516-.297 7.4-5.992 20.22-14.864 33.432-3.878 5.776-8.076 11.17-11.82 15.19-4.734 5.076-6.925 6.048-7.342 6.198z" class="F"/><path d="M68.888 88.496c-4.792.283-9.01 24.87-7.752 30.163s17.485 17.64 29.742 17.64 31.364-7.937 31.364-18.874-47.406-29.28-53.355-28.928z" fill="#24242b"/><path d="M71.06 114.73c-2.693 5.8 13.677 11.476 18.176 12.252 7.327 1.258 28.367-1.542 28.904-7.528.383-4.262-35.977-28.582-47.08-4.724z" fill="#f1eff0"/><path d="M182.2 184.38c-1.922 0-3.95-.8-6.367-2.522-1.756-1.25-3.743-3.016-5.905-5.248-4.07-4.204-8.678-9.978-12.973-16.27-4.6-6.734-8.577-13.628-11.498-19.94-3.46-7.476-5.32-13.846-5.526-18.933-.435-10.866 4.712-29.31 7.82-39.336 2.07-6.674 4.394-13.377 6.55-18.874 3.43-8.748 4.888-10.594 5.367-11.2 3.123-3.95 13.066-9.048 17.2-11.058 4.173-2.03 14.454-6.75 19.76-6.75 1.33 0 2.44.265 3.393.8 1.503.86 3.682 2.822 8.443 10.87 3.045 5.145 6.565 11.84 9.914 18.858 2.996 6.277 12.826 27.566 13.493 37.944 1.003 15.59-.305 29.37-3.886 40.948-3.034 9.814-7.72 18.138-13.92 24.757-5.533 5.9-12.118 10.33-19.57 13.162-5.766 2.19-10.44 2.78-12.295 2.78z" fill="#871a37"/><path d="M197.936 38.7c-3.91-2.234-30.91 10.81-34.967 15.952s-19.534 49.22-18.836 66.638c.772 19.285 29.985 58.872 38.067 58.872 4.476 0 50.042-6.206 45.477-77.174-.94-14.6-24.06-61.042-29.74-64.288z" fill="#212126"/><path d="M182.36 175.963c1.01-.046 4.565-.48 9.146-2.225 6.25-2.376 11.87-6.157 16.424-11.05 5.323-5.676 9.37-12.907 12.023-21.5 3.277-10.598 4.464-23.358 3.527-37.924-.36-5.68-5.198-19.052-12.313-34.066-3.158-6.664-6.507-13.1-9.43-18.123-3.163-5.434-4.876-7.595-5.6-8.388-2.37.27-8.2 2.276-15.594 5.87-8.288 4.03-13.334 7.516-14.275 8.705-1.187 1.503-5.705 11.93-10.486 27.354-5.015 16.185-7.73 29.492-7.448 36.516.298 7.4 5.993 20.22 14.864 33.432 3.88 5.776 8.077 11.17 11.82 15.19 4.733 5.076 6.924 6.048 7.34 6.198z" class="F"/><path d="M205.72 88.496c4.8.283 9.01 24.87 7.752 30.163s-17.485 17.64-29.742 17.64-31.364-7.937-31.364-18.874 47.406-29.28 53.355-28.928z" fill="#24242b"/><path d="M203.547 114.73c2.693 5.8-13.677 11.476-18.176 12.252-7.327 1.258-28.367-1.542-28.905-7.528-.382-4.262 35.98-28.582 47.08-4.724z" fill="#f1eff0"/><path d="M115.97 152.308c0 7.51 9.832 16.623 21.514 16.52 10.767-.094 21.262-9.1 21.262-16.5 0-5.953-12.386-11.188-21.262-11.1-8.243.07-21.514 4.046-21.514 11.088z" class="I"/><g class="C"><path d="M158.747 152.33c0 7.398-10.5 16.406-21.262 16.5-11.682.1-21.514-9.01-21.514-16.52 0-.31.026-.622.078-.93 4.204 5.203 12.304 9.54 21.382 9.47 8.488-.066 16.827-4.518 21.142-9.762.115.404.174.822.174 1.242z" opacity=".2"/><path d="M178.1 323.05a8.1 8.1 0 0 1-10.053 5.516c-6.473-1.887-14.415-1.133-17.745-.028A8.11 8.11 0 0 1 139.686 320a8.04 8.04 0 0 0 .37 1.714c1.128 3.403 4.294 4.597 7.688 4.597.868 0 1.73-.14 2.554-.414 3.33-1.105 11.27-1.86 17.745.028.738.216 1.504.326 2.273.326 3.5 0 6.747-1.34 7.78-4.88a8.17 8.17 0 0 0 .281-1.423 8.06 8.06 0 0 1-.275 3.105zm-44.275.345a8.1 8.1 0 0 1-10.249 5.143c-3.33-1.105-11.27-1.86-17.743.028-2.593.752-5.4.165-7.462-1.566a8.14 8.14 0 0 1-2.868-7.064 8.06 8.06 0 0 0 .282 1.433c1.253 4.3 5.754 5.688 10.053 4.435 6.472-1.887 14.415-1.133 17.743-.028a8.1 8.1 0 0 0 2.554.414c3.4 0 6.566-1.074 7.695-4.477.185-.556.3-1.13.37-1.714.12 1.146-.01 2.304-.375 3.396z" opacity=".3" class="D E H"/><path d="M242.085 187.317c0 25.136-50.496 61.5-101.006 62.96-55.414 1.602-109.35-38.406-109.35-59.787 0-.572.012-1.132.036-1.682C36.4 210.767 88.03 247.186 141 245.656c48.793-1.41 97.572-35.325 101.023-60.33.034.65.052 1.313.052 2z" class="G"/><path d="M187.114 245.122l-8.848 3.326c-12.558 4.25-25.067 6.584-37.18 6.934l-3.218.047c-11.695 0-23.896-1.816-36.037-5.334l-.17-.05a148.69 148.69 0 0 1-14.542-5.07c.76-1.3 1.573-2.57 2.436-3.838 16.096 6.234 32.652 9.49 48.306 9.49a109.84 109.84 0 0 0 3.218-.047c12.112-.35 24.625-2.683 37.18-6.934 2.173-.736 4.335-1.527 6.487-2.375a65.02 65.02 0 0 1 2.368 3.851z" opacity=".1"/></g><g class="H"><path d="M138.484 291.354c-.5 0-1.023-.003-1.538-.008-11.98-.136-23.74-1.897-32.267-4.832l1.562-4.544c8.06 2.776 19.27 4.444 30.75 4.572 11.816.133 22.53-1.31 30.172-4.062l1.63 4.52c-7.82 2.82-18.537 4.355-30.31 4.355z" fill="#3d3d44" class="B"/><path d="M168.8 287c-7.827 2.82-18.545 4.355-30.318 4.355-.5 0-1.023-.003-1.538-.008-11.98-.136-23.74-1.897-32.267-4.832l.556-1.614c8.477 2.824 20 4.512 31.712 4.645l1.538.008c11.487 0 21.97-1.462 29.74-4.152l.575 1.6z" class="C D E G"/><g class="B"><path d="M101.27 280.822l3.044-1.38c1.477-.67 3.217-.016 3.887 1.46l3.42 7.536c.67 1.477.016 3.217-1.46 3.887l-3.044 1.38c-1.477.67-3.217.016-3.887-1.46l-3.42-7.536c-.67-1.477-.016-3.217 1.46-3.887zm65.082 13.098l-3.044-1.38c-1.477-.67-2.13-2.4-1.46-3.887l3.42-7.536c.67-1.477 2.4-2.13 3.887-1.46l3.044 1.38c1.477.67 2.13 2.4 1.46 3.887l-3.42 7.536c-.67 1.477-2.4 2.13-3.887 1.46z" fill="#814739"/><rect fill="#34343a" x="129.395" y="284.558" width="15.09" height="8.754" rx="2.168"/></g><path d="M144.485 286.727v4.414a2.17 2.17 0 0 1-2.169 2.171h-10.75a2.17 2.17 0 0 1-2.095-1.601c.136.027.275.04.413.04h10.75a2.17 2.17 0 0 0 2.169-2.171v-4.414a2.16 2.16 0 0 0-.076-.568 2.17 2.17 0 0 1 1.757 2.13zm29.14-1.794l-3.4 7.53a2.94 2.94 0 0 1-3.892 1.462l-3.04-1.38a2.94 2.94 0 0 1-1.724-2.71 2.85 2.85 0 0 0 .523.306l3.04 1.38a2.94 2.94 0 0 0 3.892-1.462l3.416-7.53a2.9 2.9 0 0 0 .263-1.183 2.94 2.94 0 0 1 .933 3.585zm-61.76 4.707a2.94 2.94 0 0 1-1.725 2.71l-3.038 1.38a2.94 2.94 0 0 1-3.892-1.462l-3.417-7.53a2.94 2.94 0 0 1 .939-3.585c.003.408.092.812.262 1.183l3.417 7.53a2.94 2.94 0 0 0 3.892 1.462l3.038-1.38c.185-.084.36-.186.524-.306z" class="G C D E"/></g><rect stroke-width=".633" fill="#643ba2" x="94.049" y="255.038" width="85.069" height="45.97" rx="6.934" class="B"/><g class="H"><path d="M172.28 255.038h-71.397c-3.775 0-6.835 3.154-6.835 7.046v31.877c0 3.892 3.06 7.046 6.835 7.046h71.397c3.775 0 6.835-3.154 6.835-7.046v-31.877c0-3.892-3.06-7.046-6.835-7.046zm4.715 38.93c0 2.687-2.113 4.866-4.72 4.866H100.9c-2.607 0-4.72-2.18-4.72-4.866v-31.89c0-2.687 2.114-4.866 4.72-4.866h71.385c2.608 0 4.72 2.18 4.72 4.866v31.89z" fill-rule="nonzero" opacity=".2" class="J K"/><path d="M89.64 291.67c-5.2-.834-8.65-5.81-10.027-9.82a13.87 13.87 0 0 1-.783-5.207c.137-2.724 1.16-5.182 2.96-7.106a8.71 8.71 0 0 1 15.006 7.017 8.71 8.71 0 0 1-7.156 15.117z" class="B F"/><path d="M79.614 281.85c1.374 4 4.824 8.986 10.028 9.82a8.7 8.7 0 0 0 9.887-6.751c-2.2 3.113-9.07 2.773-13.24-.757-3.918-3.32-6.544-11.17-6.367-11.892-.65 1.37-1.02 2.858-1.09 4.373-.073 1.77.193 3.536.783 5.206z" opacity=".3" class="C D E"/><path d="M181.084 291.686c-3.223-.603-5.835-2.965-6.758-6.11a8.71 8.71 0 0 1 2.385-8.793 8.71 8.71 0 0 1 14.79-7.465c1.855 1.87 2.95 4.295 3.17 7.015a13.87 13.87 0 0 1-.627 5.229c-1.253 4.048-4.553 9.13-9.73 10.116-1.067.205-2.163.208-3.23.01z" class="B F"/><path d="M194.672 276.33a11.41 11.41 0 0 0-1.22-4.339c.198.715-1.256 10.7-6.595 14s-11.368 1.52-12.626-.757a8.7 8.7 0 0 0 10.09 6.45c5.175-.99 8.475-6.067 9.73-10.116a13.87 13.87 0 0 0 .621-5.229z" opacity=".3" class="C D E"/></g><text font-family="BetmRounded-Bold, Betm Rounded" font-size="36.4" font-weight="bold" letter-spacing="-.018" fill="#3df291"><tspan x="108" y="288">404</tspan></text><use filter="url(#B)" xlink:href="#A" class="C"/><use fill="#3df291" xlink:href="#A"/><path d="M278.602 152.406c-4.312 0-7.788-3.146-7.788-7.7 0-4.532 3.476-7.7 7.788-7.7 4.3 0 7.766 3.168 7.766 7.7 0 4.554-3.476 7.7-7.766 7.7zm0-3.036c2.288 0 4.246-1.738 4.246-4.664s-1.958-4.664-4.246-4.664-4.268 1.738-4.268 4.664 1.98 4.664 4.268 4.664zm15.774-7.348c2.684 0 4.5 2.354 4.5 5.192 0 2.618-1.76 5.192-4.664 5.192-1.254 0-2.046-.484-2.508-1.012v4.686c0 .88-.726 1.65-1.628 1.65s-1.628-.748-1.628-1.65v-12.342c0-.924.682-1.606 1.562-1.606a1.54 1.54 0 0 1 1.562 1.408c.638-.902 1.518-1.518 2.794-1.518zm-.88 7.546c1.2 0 2.1-1.056 2.1-2.354 0-1.32-.88-2.354-2.068-2.354-.704 0-1.408.44-1.804 1.2v2.376c.352.704 1.056 1.122 1.782 1.122zm11.198 2.838c-1.408 0-2.684-.352-3.4-.704-.55-.264-.968-.682-.968-1.32 0-.814.616-1.232 1.188-1.232.462 0 .88.198 1.386.374a5.49 5.49 0 0 0 1.76.308c.902 0 1.254-.198 1.254-.528 0-.462-.77-.616-2.046-1-2.002-.594-3.344-1.254-3.344-3.102 0-1.826 1.408-3.2 4.136-3.2 1.2 0 2.376.286 2.948.506.528.198 1.034.572 1.034 1.298 0 .836-.55 1.298-1.166 1.298-.374 0-.77-.154-1.188-.264-.55-.154-1.122-.242-1.628-.242-.77 0-1.122.176-1.122.506 0 .418.528.55 2.178 1.034 1.76.506 3.212 1.122 3.212 3.014 0 1.914-1.496 3.234-4.224 3.234zm7.7-.044c-1.034 0-1.892-.88-1.892-1.892 0-1.056.858-1.936 1.892-1.936 1.056 0 1.914.88 1.914 1.936 0 1.012-.858 1.892-1.914 1.892zm5.126 0c-1.034 0-1.892-.88-1.892-1.892 0-1.056.858-1.936 1.892-1.936 1.056 0 1.914.88 1.914 1.936 0 1.012-.858 1.892-1.914 1.892zm5.126 0c-1.034 0-1.892-.88-1.892-1.892 0-1.056.858-1.936 1.892-1.936 1.056 0 1.914.88 1.914 1.936 0 1.012-.858 1.892-1.914 1.892zm18.15-15.136c.814 0 1.452.638 1.452 1.496s-.638 1.496-1.452 1.496h-3.3v10.384a1.68 1.68 0 0 1-1.694 1.694c-.968 0-1.694-.748-1.694-1.694v-10.384h-3.278a1.45 1.45 0 0 1-1.474-1.496 1.45 1.45 0 0 1 1.474-1.496h9.966zm9.13 4.796c1.76 0 3.344 1.166 3.344 3.608v5.016a1.66 1.66 0 0 1-1.628 1.65 1.66 1.66 0 0 1-1.628-1.65v-4.268c0-.902-.352-1.584-1.342-1.584-.704 0-1.298.418-1.694 1.2v4.642a1.66 1.66 0 0 1-1.628 1.65c-.902 0-1.628-.748-1.628-1.65V138.15c0-.902.726-1.65 1.628-1.65a1.66 1.66 0 0 1 1.628 1.65v5.324c.748-.88 1.738-1.452 2.948-1.452zm10.494 0c2.992 0 4.598 2.2 4.598 4.422 0 .484-.1.836-.352 1.1-.286.33-.748.418-1.386.418h-4.884c.308 1.056 1.2 1.65 2.662 1.65a5.51 5.51 0 0 0 1.21-.132c.44-.088.638-.132.902-.132.77 0 1.254.616 1.254 1.276 0 .572-.33 1.078-.924 1.32-.748.286-1.716.462-2.772.462-3.146 0-5.566-2.024-5.566-5.17 0-3.058 2.178-5.214 5.258-5.214zm-2.068 4.07h3.872c-.066-.946-.682-1.672-1.87-1.672-1.034 0-1.76.572-2.002 1.672zm19.25-4.07c2.684 0 4.5 2.354 4.5 5.192 0 2.618-1.76 5.192-4.664 5.192-1.254 0-2.046-.484-2.508-1.012v4.686c0 .88-.726 1.65-1.628 1.65s-1.628-.748-1.628-1.65v-12.342c0-.924.682-1.606 1.562-1.606a1.54 1.54 0 0 1 1.562 1.408c.638-.902 1.518-1.518 2.794-1.518zm-.88 7.546c1.2 0 2.1-1.056 2.1-2.354 0-1.32-.88-2.354-2.068-2.354-.704 0-1.408.44-1.804 1.2v2.376c.352.704 1.056 1.122 1.782 1.122zm11.572-7.546c2.574 0 4.224 1.232 4.224 3.652v5.06a1.55 1.55 0 0 1-1.54 1.562c-.726 0-1.342-.528-1.496-1.2-.88.792-1.936 1.32-3.102 1.32-1.804 0-2.97-1.276-2.97-2.816 0-1.43.858-2.244 2.068-2.728 1.166-.462 2.684-.572 3.96-.66v-.286c0-.836-.484-1.122-1.606-1.122-.682 0-1.144.132-1.408.198-.396.1-.682.154-.836.154-.77 0-1.342-.55-1.342-1.254 0-.462.198-.968.836-1.254.792-.352 2.1-.616 3.212-.616zm-1.782 7.172c0 .462.352.726.946.726.66 0 1.364-.308 1.98-.704v-1.188c-.528.066-1.034.132-1.54.242-1 .198-1.386.462-1.386.924zm17.93-4.664c-.396 0-.836-.066-1.628-.33l-.022.044c.748.616 1.056 1.122 1.056 2.046 0 1.848-1.606 3.256-4.554 3.256-.154 0-.308 0-.44-.022-.198.154-.286.308-.286.506 0 .374.308.44 2.046.77 2.992.572 4.62 1.2 4.62 3.212 0 2.266-2.112 3.718-5.786 3.718-3.63 0-5.478-1.43-5.478-3.256 0-.968.528-1.87 2.112-2.618-.462-.352-.682-.748-.682-1.276 0-.726.396-1.2 1.166-1.584-1.364-.66-2.046-1.826-2.046-3.168 0-2.3 2.222-3.608 4.774-3.608h5.038c.748 0 1.342.396 1.342 1.166 0 .748-.572 1.144-1.232 1.144zm-5.258 2.728c1 0 1.65-.594 1.65-1.364 0-.748-.616-1.364-1.65-1.364s-1.672.616-1.672 1.364c0 .77.66 1.364 1.672 1.364zm2.992 6.93c0-.66-.814-.77-2.42-1.1-.572-.1-1.078-.22-1.518-.352-.968.484-1.188 1.012-1.188 1.364 0 .792 1 1.43 2.64 1.43 1.782 0 2.486-.726 2.486-1.342zm9.24-12.166c2.992 0 4.598 2.2 4.598 4.422 0 .484-.1.836-.352 1.1-.286.33-.748.418-1.386.418h-4.884c.308 1.056 1.2 1.65 2.662 1.65a5.51 5.51 0 0 0 1.21-.132c.44-.088.638-.132.902-.132.77 0 1.254.616 1.254 1.276 0 .572-.33 1.078-.924 1.32-.748.286-1.716.462-2.772.462-3.146 0-5.566-2.024-5.566-5.17 0-3.058 2.178-5.214 5.258-5.214zm-2.068 4.07h3.872c-.066-.946-.682-1.672-1.87-1.672-1.034 0-1.76.572-2.002 1.672zm21.538-3.96c.792 0 1.518.726 1.518 1.584a1.7 1.7 0 0 1-.176.77l-5.962 12.166c-.374.792-1 1.078-1.584 1.078-.792 0-1.518-.726-1.518-1.584a1.7 1.7 0 0 1 .176-.77l1.936-3.63-3.3-7.26a1.7 1.7 0 0 1-.176-.77c0-.858.726-1.584 1.628-1.584.572 0 1.188.286 1.562 1.078.594 1.364 1.518 3.74 2.1 5.346.55-1.694 1.54-3.85 2.222-5.346.374-.792 1-1.078 1.584-1.078zm7.766 10.274c-2.948 0-5.368-2.156-5.368-5.236 0-3.058 2.42-5.148 5.368-5.148 2.97 0 5.368 2.1 5.368 5.148 0 3.08-2.398 5.236-5.368 5.236zm0-2.772c1.056 0 2.068-.858 2.068-2.464 0-1.584-1.012-2.376-2.068-2.376s-2.068.792-2.068 2.376c0 1.606 1.012 2.464 2.068 2.464zm15.136-7.524c.902 0 1.628.748 1.628 1.65v6.886c0 .902-.726 1.628-1.628 1.628a1.65 1.65 0 0 1-1.606-1.364c-.748.902-1.738 1.474-2.97 1.474-1.76 0-3.344-1.166-3.344-3.608v-5.016a1.66 1.66 0 0 1 1.628-1.65 1.66 1.66 0 0 1 1.628 1.65v4.268c0 .902.352 1.584 1.342 1.584.704 0 1.298-.418 1.694-1.2v-4.642a1.66 1.66 0 0 1 1.628-1.65zm5.896-5.082c1.188 0 2.024.968 2.024 2.508 0 2.354-1.43 4.048-2.574 4.906-.286.22-.44.308-.748.308-.396 0-.77-.308-.77-.748 0-.154.044-.374.264-.616.682-.748 1.342-1.54 1.518-2.706-1.034-.176-1.628-.902-1.628-1.782a1.82 1.82 0 0 1 1.914-1.87zm9.438 4.994a1.52 1.52 0 0 1 1.562 1.54c0 .968-.748 1.628-1.584 1.628-.902 0-1.892.264-2.552 1.298v4.158a1.66 1.66 0 0 1-1.628 1.65c-.902 0-1.628-.748-1.628-1.65v-6.886c0-.902.726-1.628 1.628-1.628a1.64 1.64 0 0 1 1.628 1.628v.1c.726-1.364 1.584-1.848 2.574-1.848zm7.414 0c2.992 0 4.598 2.2 4.598 4.422 0 .484-.1.836-.352 1.1-.286.33-.748.418-1.386.418h-4.884c.308 1.056 1.2 1.65 2.662 1.65a5.51 5.51 0 0 0 1.21-.132c.44-.088.638-.132.902-.132.77 0 1.254.616 1.254 1.276 0 .572-.33 1.078-.924 1.32-.748.286-1.716.462-2.772.462-3.146 0-5.566-2.024-5.566-5.17 0-3.058 2.178-5.214 5.258-5.214zm-2.068 4.07h3.872c-.066-.946-.682-1.672-1.87-1.672-1.034 0-1.76.572-2.002 1.672zm-201.586 35.204c-.902 0-1.628-.748-1.628-1.65V167.15c0-.902.726-1.65 1.606-1.65.902 0 1.65.748 1.65 1.65v12.496a1.66 1.66 0 0 1-1.628 1.65zm8.954.1c-2.948 0-5.368-2.156-5.368-5.236 0-3.058 2.42-5.148 5.368-5.148 2.97 0 5.368 2.1 5.368 5.148 0 3.08-2.398 5.236-5.368 5.236zm0-2.772c1.056 0 2.068-.858 2.068-2.464 0-1.584-1.012-2.376-2.068-2.376s-2.068.792-2.068 2.376c0 1.606 1.012 2.464 2.068 2.464zm12.144 2.772c-2.948 0-5.368-2.156-5.368-5.236 0-3.058 2.42-5.148 5.368-5.148 2.97 0 5.368 2.1 5.368 5.148 0 3.08-2.398 5.236-5.368 5.236zm0-2.772c1.056 0 2.068-.858 2.068-2.464 0-1.584-1.012-2.376-2.068-2.376s-2.068.792-2.068 2.376c0 1.606 1.012 2.464 2.068 2.464zm16.698-.1c.44.528.572.88.572 1.232 0 .924-.726 1.54-1.606 1.54-.506 0-.968-.264-1.32-.704l-2.464-3.168-1.298.792v1.43a1.66 1.66 0 0 1-1.628 1.65c-.902 0-1.628-.748-1.628-1.65V167.15c0-.902.726-1.65 1.628-1.65a1.66 1.66 0 0 1 1.628 1.65v7.876l3.938-3.454a1.6 1.6 0 0 1 1.1-.44c.77 0 1.452.682 1.452 1.474 0 .418-.176.858-.638 1.254l-2.1 1.804 2.354 2.86zm3.894-8.976a1.67 1.67 0 0 1-1.716-1.694c0-.946.748-1.694 1.716-1.694s1.716.748 1.716 1.694a1.67 1.67 0 0 1-1.716 1.694zm0 11.748a1.66 1.66 0 0 1-1.628-1.65v-6.886c0-.88.748-1.628 1.628-1.628a1.64 1.64 0 0 1 1.628 1.628v6.886c0 .902-.726 1.65-1.628 1.65zm10.252-10.274c1.76 0 3.344 1.166 3.344 3.608v5.016a1.66 1.66 0 0 1-1.628 1.65 1.66 1.66 0 0 1-1.628-1.65v-4.268c0-.902-.352-1.584-1.342-1.584-.704 0-1.298.418-1.694 1.2v4.642a1.66 1.66 0 0 1-1.628 1.65c-.902 0-1.628-.748-1.628-1.65v-6.886c0-.902.726-1.628 1.628-1.628a1.65 1.65 0 0 1 1.606 1.364c.748-.902 1.738-1.474 2.97-1.474zm15.268 2.508c-.396 0-.836-.066-1.628-.33l-.022.044c.748.616 1.056 1.122 1.056 2.046 0 1.848-1.606 3.256-4.554 3.256-.154 0-.308 0-.44-.022-.198.154-.286.308-.286.506 0 .374.308.44 2.046.77 2.992.572 4.62 1.2 4.62 3.212 0 2.266-2.112 3.718-5.786 3.718-3.63 0-5.478-1.43-5.478-3.256 0-.968.528-1.87 2.112-2.618-.462-.352-.682-.748-.682-1.276 0-.726.396-1.2 1.166-1.584-1.364-.66-2.046-1.826-2.046-3.168 0-2.3 2.222-3.608 4.774-3.608h5.038c.748 0 1.342.396 1.342 1.166 0 .748-.572 1.144-1.232 1.144zm-5.258 2.728c1 0 1.65-.594 1.65-1.364 0-.748-.616-1.364-1.65-1.364s-1.672.616-1.672 1.364c0 .77.66 1.364 1.672 1.364zm2.992 6.93c0-.66-.814-.77-2.42-1.1-.572-.1-1.078-.22-1.518-.352-.968.484-1.188 1.012-1.188 1.364 0 .792 1 1.43 2.64 1.43 1.782 0 2.486-.726 2.486-1.342zm14.278-14.85c-.55 0-.836.33-.836.924v1.958h1.342a1.35 1.35 0 0 1 1.342 1.342c0 .792-.616 1.386-1.342 1.386h-1.342v5.698a1.66 1.66 0 0 1-1.628 1.65c-.902 0-1.628-.748-1.628-1.65v-5.698h-.176a1.36 1.36 0 0 1-1.364-1.386c0-.748.616-1.342 1.364-1.342h.176v-1.936c0-2.1 1.298-3.872 3.982-3.872.462 0 1.1.066 1.628.264.748.286 1.32.748 1.32 1.562 0 .858-.704 1.408-1.364 1.408-.33 0-.55-.088-.814-.176a2.07 2.07 0 0 0-.66-.132zm7.832 13.068c-2.948 0-5.368-2.156-5.368-5.236 0-3.058 2.42-5.148 5.368-5.148 2.97 0 5.368 2.1 5.368 5.148 0 3.08-2.398 5.236-5.368 5.236zm0-2.772c1.056 0 2.068-.858 2.068-2.464 0-1.584-1.012-2.376-2.068-2.376s-2.068.792-2.068 2.376c0 1.606 1.012 2.464 2.068 2.464zm13.112-7.612a1.52 1.52 0 0 1 1.562 1.54c0 .968-.748 1.628-1.584 1.628-.902 0-1.892.264-2.552 1.298v4.158a1.66 1.66 0 0 1-1.628 1.65c-.902 0-1.628-.748-1.628-1.65v-6.886c0-.902.726-1.628 1.628-1.628a1.64 1.64 0 0 1 1.628 1.628v.1c.726-1.364 1.584-1.848 2.574-1.848zm8.712-1.474a1.67 1.67 0 0 1-1.716-1.694c0-.946.748-1.694 1.716-1.694s1.716.748 1.716 1.694a1.67 1.67 0 0 1-1.716 1.694zm0 11.748a1.66 1.66 0 0 1-1.628-1.65v-6.886c0-.88.748-1.628 1.628-1.628a1.64 1.64 0 0 1 1.628 1.628v6.886c0 .902-.726 1.65-1.628 1.65zm7.92.1c-1.408 0-2.684-.352-3.4-.704-.55-.264-.968-.682-.968-1.32 0-.814.616-1.232 1.188-1.232.462 0 .88.198 1.386.374a5.49 5.49 0 0 0 1.76.308c.902 0 1.254-.198 1.254-.528 0-.462-.77-.616-2.046-1-2.002-.594-3.344-1.254-3.344-3.102 0-1.826 1.408-3.2 4.136-3.2 1.2 0 2.376.286 2.948.506.528.198 1.034.572 1.034 1.298 0 .836-.55 1.298-1.166 1.298-.374 0-.77-.154-1.188-.264-.55-.154-1.122-.242-1.628-.242-.77 0-1.122.176-1.122.506 0 .418.528.55 2.178 1.034 1.76.506 3.212 1.122 3.212 3.014 0 1.914-1.496 3.234-4.224 3.234zm17.072-10.384c1.76 0 3.344 1.166 3.344 3.608v5.016a1.66 1.66 0 0 1-1.628 1.65 1.66 1.66 0 0 1-1.628-1.65v-4.268c0-.902-.352-1.584-1.342-1.584-.704 0-1.298.418-1.694 1.2v4.642a1.66 1.66 0 0 1-1.628 1.65c-.902 0-1.628-.748-1.628-1.65v-6.886c0-.902.726-1.628 1.628-1.628a1.65 1.65 0 0 1 1.606 1.364c.748-.902 1.738-1.474 2.97-1.474zm10.582 10.384c-2.948 0-5.368-2.156-5.368-5.236 0-3.058 2.42-5.148 5.368-5.148 2.97 0 5.368 2.1 5.368 5.148 0 3.08-2.398 5.236-5.368 5.236zm0-2.772c1.056 0 2.068-.858 2.068-2.464 0-1.584-1.012-2.376-2.068-2.376s-2.068.792-2.068 2.376c0 1.606 1.012 2.464 2.068 2.464zm13.838-.462c.748-.022 1.298.616 1.298 1.364 0 .616-.374 1-1.034 1.32-.308.132-1.144.506-2.376.506-2.574 0-3.828-1.2-3.828-3.366v-4.048h-.748c-.55 0-1-.396-1-.946 0-.33.132-.572.484-.88l2.772-2.332c.242-.198.462-.352.792-.352.484 0 .946.33.946 1.144v.638h2.486a1.37 1.37 0 0 1 1.364 1.364c0 .77-.616 1.364-1.364 1.364h-2.486v3.4c0 .77.462 1.122 1.1 1.122.286 0 .55-.044.77-.1.264-.088.528-.176.814-.198zm14.234 0c.748-.022 1.298.616 1.298 1.364 0 .616-.374 1-1.034 1.32-.308.132-1.144.506-2.376.506-2.574 0-3.828-1.2-3.828-3.366v-4.048h-.748c-.55 0-1-.396-1-.946 0-.33.132-.572.484-.88l2.772-2.332c.242-.198.462-.352.792-.352.484 0 .946.33.946 1.144v.638h2.486a1.37 1.37 0 0 1 1.364 1.364c0 .77-.616 1.364-1.364 1.364h-2.486v3.4c0 .77.462 1.122 1.1 1.122.286 0 .55-.044.77-.1.264-.088.528-.176.814-.198zm9.086-7.15c1.76 0 3.344 1.166 3.344 3.608v5.016a1.66 1.66 0 0 1-1.628 1.65 1.66 1.66 0 0 1-1.628-1.65v-4.268c0-.902-.352-1.584-1.342-1.584-.704 0-1.298.418-1.694 1.2v4.642a1.66 1.66 0 0 1-1.628 1.65c-.902 0-1.628-.748-1.628-1.65V167.15c0-.902.726-1.65 1.628-1.65a1.66 1.66 0 0 1 1.628 1.65v5.324c.748-.88 1.738-1.452 2.948-1.452zm10.494 0c2.992 0 4.598 2.2 4.598 4.422 0 .484-.1.836-.352 1.1-.286.33-.748.418-1.386.418h-4.884c.308 1.056 1.2 1.65 2.662 1.65a5.51 5.51 0 0 0 1.21-.132c.44-.088.638-.132.902-.132.77 0 1.254.616 1.254 1.276 0 .572-.33 1.078-.924 1.32-.748.286-1.716.462-2.772.462-3.146 0-5.566-2.024-5.566-5.17 0-3.058 2.178-5.214 5.258-5.214zm-2.068 4.07h3.872c-.066-.946-.682-1.672-1.87-1.672-1.034 0-1.76.572-2.002 1.672zm14.388-4.07a1.52 1.52 0 0 1 1.562 1.54c0 .968-.748 1.628-1.584 1.628-.902 0-1.892.264-2.552 1.298v4.158a1.66 1.66 0 0 1-1.628 1.65c-.902 0-1.628-.748-1.628-1.65v-6.886c0-.902.726-1.628 1.628-1.628a1.64 1.64 0 0 1 1.628 1.628v.1c.726-1.364 1.584-1.848 2.574-1.848zm7.414 0c2.992 0 4.598 2.2 4.598 4.422 0 .484-.1.836-.352 1.1-.286.33-.748.418-1.386.418h-4.884c.308 1.056 1.2 1.65 2.662 1.65a5.51 5.51 0 0 0 1.21-.132c.44-.088.638-.132.902-.132.77 0 1.254.616 1.254 1.276 0 .572-.33 1.078-.924 1.32-.748.286-1.716.462-2.772.462-3.146 0-5.566-2.024-5.566-5.17 0-3.058 2.178-5.214 5.258-5.214zm-2.068 4.07h3.872c-.066-.946-.682-1.672-1.87-1.672-1.034 0-1.76.572-2.002 1.672zm10.098 6.27c-1.034 0-1.892-.88-1.892-1.892 0-1.056.858-1.936 1.892-1.936 1.056 0 1.914.88 1.914 1.936 0 1.012-.858 1.892-1.914 1.892zm-216.876 29c-1.386 0-2.97-.418-4.18-1.188-.638-.418-1.056-.902-1.056-1.65 0-.858.682-1.474 1.518-1.474.506 0 .902.242 1.298.506.638.396 1.364.814 2.552.814s1.958-.594 1.958-1.408c0-1.034-1.32-1.342-2.706-1.87-2.596-1-4.07-2.178-4.07-4.576 0-2.618 1.848-4.5 5.126-4.5 1.65 0 2.618.286 3.278.638.66.33 1.166.858 1.166 1.54 0 .77-.528 1.496-1.32 1.496-.462 0-.858-.176-1.144-.286-.55-.198-1.166-.418-1.958-.418-1.166 0-1.826.572-1.826 1.298 0 1.078 1.276 1.43 2.816 2.002 2.024.748 3.938 1.782 3.938 4.488 0 2.992-2.354 4.598-5.4 4.598zm12.2.044c-2.948 0-5.368-2.156-5.368-5.236 0-3.058 2.42-5.148 5.368-5.148 2.97 0 5.368 2.1 5.368 5.148 0 3.08-2.398 5.236-5.368 5.236zm0-2.772c1.056 0 2.068-.858 2.068-2.464 0-1.584-1.012-2.376-2.068-2.376s-2.068.792-2.068 2.376c0 1.606 1.012 2.464 2.068 2.464zm8.888-1.078c1.188 0 2.024.968 2.024 2.508 0 2.354-1.43 4.048-2.574 4.906-.286.22-.44.308-.748.308-.396 0-.77-.308-.77-.748 0-.154.044-.374.264-.616.682-.748 1.342-1.54 1.518-2.706-1.034-.176-1.628-.902-1.628-1.782a1.82 1.82 0 0 1 1.914-1.87zm13.332-9.218c-.55 0-.836.33-.836.924v1.958h1.342a1.35 1.35 0 0 1 1.342 1.342c0 .792-.616 1.386-1.342 1.386h-1.342v5.698a1.66 1.66 0 0 1-1.628 1.65c-.902 0-1.628-.748-1.628-1.65v-5.698h-.176a1.36 1.36 0 0 1-1.364-1.386c0-.748.616-1.342 1.364-1.342h.176v-1.936c0-2.1 1.298-3.872 3.982-3.872.462 0 1.1.066 1.628.264.748.286 1.32.748 1.32 1.562 0 .858-.704 1.408-1.364 1.408-.33 0-.55-.088-.814-.176a2.07 2.07 0 0 0-.66-.132zm11.066 2.772c.902 0 1.628.748 1.628 1.65v6.886c0 .902-.726 1.628-1.628 1.628a1.65 1.65 0 0 1-1.606-1.364c-.748.902-1.738 1.474-2.97 1.474-1.76 0-3.344-1.166-3.344-3.608v-5.016a1.66 1.66 0 0 1 1.628-1.65 1.66 1.66 0 0 1 1.628 1.65v4.268c0 .902.352 1.584 1.342 1.584.704 0 1.298-.418 1.694-1.2v-4.642a1.66 1.66 0 0 1 1.628-1.65zm8.954 10.296c-3.036 0-5.4-2.068-5.4-5.192s2.332-5.214 5.4-5.214c1.122 0 2.222.308 2.816.726.44.308.748.748.748 1.298 0 .792-.55 1.408-1.364 1.408-.396 0-.792-.132-1.012-.22a3.03 3.03 0 0 0-1.078-.198c-1.056 0-2.2.682-2.2 2.178 0 1.408 1.056 2.244 2.376 2.244.44 0 .682-.066.968-.176a2.49 2.49 0 0 1 .858-.176c.792 0 1.386.506 1.386 1.342 0 .682-.418 1.166-1.078 1.496-.572.286-1.43.484-2.42.484zm14.806-2.882c.44.528.572.88.572 1.232 0 .924-.726 1.54-1.606 1.54-.506 0-.968-.264-1.32-.704l-2.464-3.168-1.298.792v1.43a1.66 1.66 0 0 1-1.628 1.65c-.902 0-1.628-.748-1.628-1.65V196.15c0-.902.726-1.65 1.628-1.65a1.66 1.66 0 0 1 1.628 1.65v7.876l3.938-3.454a1.6 1.6 0 0 1 1.1-.44c.77 0 1.452.682 1.452 1.474 0 .418-.176.858-.638 1.254l-2.1 1.804 2.354 2.86zm11.924 2.882c-2.948 0-5.368-2.156-5.368-5.236 0-3.058 2.42-5.148 5.368-5.148 2.97 0 5.368 2.1 5.368 5.148 0 3.08-2.398 5.236-5.368 5.236zm0-2.772c1.056 0 2.068-.858 2.068-2.464 0-1.584-1.012-2.376-2.068-2.376s-2.068.792-2.068 2.376c0 1.606 1.012 2.464 2.068 2.464zm13.486-12.958c.748.286 1.32.748 1.32 1.562 0 .858-.704 1.408-1.364 1.408-.33 0-.55-.088-.814-.176a2.07 2.07 0 0 0-.66-.132c-.55 0-.836.33-.836.924v1.958h1.342a1.35 1.35 0 0 1 1.342 1.342c0 .792-.616 1.386-1.342 1.386h-1.342v5.698a1.66 1.66 0 0 1-1.628 1.65c-.902 0-1.628-.748-1.628-1.65v-5.698h-.176a1.36 1.36 0 0 1-1.364-1.386c0-.748.616-1.342 1.364-1.342h.176v-1.936c0-2.1 1.298-3.872 3.982-3.872.462 0 1.1.066 1.628.264zm5.6 2.662c-.55 0-.836.33-.836.924v1.958h1.32a1.35 1.35 0 0 1 1.342 1.342c0 .792-.616 1.386-1.342 1.386h-1.32v5.698a1.66 1.66 0 0 1-1.628 1.65c-.902 0-1.628-.748-1.628-1.65v-10.362c0-2.1 1.298-3.872 3.982-3.872.462 0 1.1.066 1.628.264.748.286 1.32.748 1.32 1.562 0 .858-.704 1.408-1.364 1.408-.33 0-.55-.088-.814-.176a2.07 2.07 0 0 0-.66-.132zm3.982 13.024c-1.034 0-1.892-.88-1.892-1.892 0-1.056.858-1.936 1.892-1.936 1.056 0 1.914.88 1.914 1.936 0 1.012-.858 1.892-1.914 1.892z" fill="#2a1052"/></g></svg>