<svg xmlns="http://www.w3.org/2000/svg" viewBox="0 0 305.19 256"><defs><style>.cls-1{fill:#fbdd11;}.cls-2{fill:#fff;opacity:0.3;}</style></defs><title>hng</title><g id="Layer_1" data-name="Layer 1"><path class="cls-1" d="M6,0H173.28s53.81,180.14,106.4,256H57.3C8.59,153,6,0,6,0Z"/><path d="M175.87,38.18c-17,2.84-34.32,3.66-50.82,9.16-1.36.45-2.23,1.28-4.19-.23-4.15-3.19-4.73-2.81-6,1.92-1,3.63-5.63,1.37-7.17,6.46-1.06-8.64-4.51-14.74-3.59-22.43.54-4.45,2.56-5.84,5-4.81,14.53,6.23,28.15.25,42-2.39,15.32-2.92,16.46-2.4,24.75,12.42C175.82,38.33,175.87,38.18,175.87,38.18Z"/><path d="M97.86,110.76c1.35,3.4,2.11,6.25,3.53,8.72,4.35,7.57,9.29,8.07,13.08.43,2.6-5.25,9-.12,10.48-5.43a16.47,16.47,0,0,1,6,12.1c.34,6.06-4.71,5.27-8.44,5.77-1.69.22-3.5.23-4.36,1.8-3.12,5.7-6.08,10.06-10.73,1-1.37-2.65-3.31-.86-4.83.42-5.32,4.48-7.91,1.09-9.13-3.67C91.62,124.61,90.49,117.14,97.86,110.76Z"/><path d="M136.14,151.7c7.42-1.36,11.44,6,18.18,7,2.37.35.89,4-.69,5.83-2.23,2.55-5.4,2.32-8.36,2.43-14.51.56-28.29,3.73-41,11.05-2.11,1.22-4.87,3.82-6.86.39a7.83,7.83,0,0,1,.32-8.48C107,156.37,121.57,154,136.14,151.7Zm-30.89,21c13.68-6.16,26.85-9.08,42.59-11.24-13.38-10.72-24-.29-34.64-.32C108.29,161.09,106.09,165.88,105.25,172.67Z"/><path d="M115.6,196.31c13.57-.69,25.54-2.62,36.85-8.68-2.92,7.79-6.32,14.69-14.53,18.17C127.94,210,121.75,205.44,115.6,196.31Z"/><path d="M33.64,80C46.5,75.59,59.19,74.27,70.2,68c2.22-1.27,5.62-1,6.61,2.32.88,3-1.84,3.87-3.94,4.8C65,78.57,57,81.9,49.17,85.52,42.59,88.56,39,84.09,33.64,80Z"/><path d="M83,75.8c3-1.57,6.35-3.47,8,1.35C94,86.32,96.78,95.6,100,106c-5.85-2.66-4.82-7.64-7.68-10.72-2.48,2.46-.46,7.4-5,9.33C84.61,95,79,86.05,83.21,75.48Z"/><path d="M146.38,55.26c4.66,0,9.33-.09,14,0,1.95.06,4.41.28,4.48,2.87s-2.39,2.77-4.24,3.39c-10.82,3.65-21.82.23-32.72.78-1.65.08-3.49-.67-3.55-2.72-.06-1.9,1.56-2.86,3.16-3.34C133.69,54.45,140.06,55.2,146.38,55.26Z"/><path d="M79.06,62.14l1.66,1.73c1.37,3.87,3.73,7.55,2.24,11.94,0,0,.24-.32.25-.33-2.8,2.18-3.73,6.32-8.71,7.72-.43-6.68,15.77-18.16-6-17.79C72.25,60.32,75.82,61.91,79.06,62.14Z"/></g><g id="Layer_2" data-name="Layer 2"><path d="M79.06,62.14c-3.56-5.9-6.77-6.92-14-3.38C52.16,65,37.86,67.55,25.29,75.82c-5.31,3.49-3.45,6.08-3.2,8.31,6.29,57.16,19.08,112.67,42.85,165.31A54.29,54.29,0,0,1,67,256H49.63a51,51,0,0,0-2.27-6.6c-18-42.47-29.88-86.64-37.28-132.12C3.75,78.42,1.22,39.23,0,0H17C18,21.58,19,43.17,20.07,68,27.15,52.82,39,50.57,51,48.79c11.4-1.69,20.95-7.85,30.87-13.08,1.77,3,.73,5.33-.47,7.82-2.93,6.08-5.45,12,1.54,17.56,2.19,1.75.79,3.56-2.21,2.78Z"/><path d="M182,0c14.2,47.21,33.48,128,108.66,256H267.37C207.75,156.59,168.61,20,165,0Z"/><path class="cls-2" d="M290.67,256h-77C131,126.58,118,47.54,105,0h77C196.2,47.21,215.48,128,290.67,256Z"/></g></svg>