<svg xmlns="http://www.w3.org/2000/svg" viewBox="0 0 400 400">
  <title>placeholder-monkey</title>
  <g id="expanded">
    <rect width="400" height="400" style="fill: none"/>
    <path d="M313.319,183.212c-4.494-4.125-10.592-5.66-17.037-5.318-2.456-46.37-31.511-71.885-69.506-84.212,36.218,11.778,41.259,3.428,41.761,2.377,6.4-13.4-35.834-33.757-33.156-26.108C237.6,76.3,254.264,80.315,250.032,83.9c-3.5,2.964-18.018-4.291-49.959-2.046-50.975,3.583-92.56,49.565-96.33,96.231-6.607-.316-12.846,1.3-17.363,5.6-10.93,10.392-6.091,31.039,1.655,42.694a50.764,50.764,0,0,0,25.418,19.1c4.5,11.873,23.236,27.565,47.263,36.857-5.9,8.575-8.993,17.837-8.96,26.885a6.259,6.259,0,0,0,.034.632,9.866,9.866,0,0,0-.588,1.677,11.54,11.54,0,0,0-.211,4.378,15.03,15.03,0,0,0,1.512,4.805,9.479,9.479,0,0,0,5.07,4.849,7.251,7.251,0,0,0,8.309-11.172,7.237,7.237,0,0,0-.988-6.51,7.12,7.12,0,0,0-.573-.7c.488-7.092,3.623-13.254,6.58-17.6-2.349,8.331-3.042,13.692-3.042,19.058,0,8.178,4.067,16.38,10.518,22.241a73.569,73.569,0,0,0-1.342,10.23,37.368,37.368,0,0,0-6.709,1.269,6.75,6.75,0,1,0,3.778,12.961,29.209,29.209,0,0,1,14.771-.023,6.75,6.75,0,0,0,7-11.074q.043-.364.059-.74c.061-1.544.182-3,.344-4.382a29.484,29.484,0,0,0,3.481.181,31.762,31.762,0,0,0,3.817-.271c.218,1.512.385,3.111.483,4.821.008.141.02.281.034.42a6.749,6.749,0,0,0,7.03,11.045,29.209,29.209,0,0,1,14.771.023,6.75,6.75,0,0,0,3.778-12.961,37.438,37.438,0,0,0-6.759-1.274,73.577,73.577,0,0,0-1.557-10.363,33.972,33.972,0,0,0,2.449-2.471,32.234,32.234,0,0,0,3.7.794,20.473,20.473,0,0,0,2.956.228,10.637,10.637,0,0,0,7.25-2.378,8.129,8.129,0,0,0,.956-1,7.106,7.106,0,0,0,3.651-.426c4.084-1.6,6.007-6.262,6.413-9.768a11.561,11.561,0,0,0-.287-4.374,9.68,9.68,0,0,0-1.178-2.677c.034-.181.062-.365.081-.551a32.9,32.9,0,0,0-1.622-13.326,28.31,28.31,0,0,1,5.124-4.85c5.3-3.851,9.761-4.141,12.572-3.707a16.113,16.113,0,0,1,7.39,3.327,12.3,12.3,0,0,1,4.461,6.851,14.625,14.625,0,0,1-.35,7.088,7.183,7.183,0,0,1-3.166,4.306l-.01,0c-.038.021-.077.041-.117.059s-.085.043-.129.062-.12.054-.182.079-.134.053-.2.078c-3.783,1.359-8.106-2.269-8.149-2.306a2.5,2.5,0,0,0-3.524.282c-.025.029-.049.059-.073.089s-.03.039-.044.059c-.035.047-.067.095-.1.144a.533.533,0,0,0-.031.051c-.016.025-.03.05-.044.076a2.5,2.5,0,0,0,.571,3.105c.544.463,4.644,3.808,9.584,3.808a10.294,10.294,0,0,0,3.5-.6,9.847,9.847,0,0,0,2.071-1.034h0l.145-.1.106-.073c.044-.03.087-.061.13-.093l.065-.047q.078-.057.156-.117l.194-.152q.2-.163.4-.337c.054-.048.107-.1.16-.146.124-.115.247-.233.366-.356.056-.057.112-.115.167-.173l.022-.024.144-.156.1-.112c.043-.048.084-.1.125-.145s.073-.087.11-.132c.113-.137.224-.278.331-.423.034-.044.067-.089.1-.134s.054-.073.079-.109.068-.1.1-.145c.081-.116.159-.234.235-.354s.136-.215.2-.324l.026-.042c.028-.047.056-.094.082-.142.038-.063.073-.126.108-.19.013-.023.026-.046.038-.069.04-.072.08-.145.117-.219.061-.115.12-.232.178-.351.022-.045.045-.091.066-.138s.041-.086.061-.129l.075-.164c.028-.062.055-.124.082-.187l.038-.087c.041-.1.081-.195.12-.293l.012-.031c.041-.1.081-.206.119-.31.014-.034.026-.069.038-.1.023-.059.044-.118.064-.178s.039-.11.058-.166c.033-.1.066-.2.1-.3a19.632,19.632,0,0,0,.471-9.659,17.118,17.118,0,0,0-6.213-9.687,20.966,20.966,0,0,0-9.76-4.373,19.211,19.211,0,0,0-8.608.692,26.127,26.127,0,0,0-7.669,3.912l-.239.176-.238.178c-.053.04-.106.08-.158.121s-.108.082-.161.124l-.153.12c-.077.06-.153.12-.228.181l-.084.068c-.069.055-.138.112-.206.168-.137.112-.274.227-.41.342-.817.695-1.6,1.443-2.351,2.22a54.3,54.3,0,0,0-4.027-7.15c22.175-8.7,40.2-23.3,45.946-36.4a50.693,50.693,0,0,0,26.8-20.112C319.951,214.14,324.429,193.411,313.319,183.212ZM228.234,324.117c-.356-.052-.74-.134-1.117-.208a28.7,28.7,0,0,0,4.642-15.271,85.509,85.509,0,0,0-1.956-18.412c3.743,5.916,5.595,11.873,5.113,16.633a6.317,6.317,0,0,0-.027.811c-.066.087-.131.174-.194.265a7.243,7.243,0,0,0-.874,6.527,7.231,7.231,0,0,0,.294,8.917C232.871,324.254,230.9,324.507,228.234,324.117Z" style="fill: #643ba2"/>
  </g>
</svg>
