<?xml version="1.0" encoding="UTF-8"?>
<svg width="142px" height="48px" viewBox="0 0 142 48" version="1.1" xmlns="http://www.w3.org/2000/svg" xmlns:xlink="http://www.w3.org/1999/xlink">
    <!-- Generator: Sketch 52.1 (67048) - http://www.bohemiancoding.com/sketch -->
    <title>monkeytalks-logo-narrow</title>
    <desc>Created with Sketch.</desc>
    <g id="Page-1" stroke="none" stroke-width="1" fill="none" fill-rule="evenodd">
        <g id="Desktop-HD-Copy-2" transform="translate(-97.000000, -130.000000)" fill="#3DF291">
            <path d="M132.852661,137.617192 L132.852661,148.222694 C132.852661,149.057386 133.158248,149.863197 133.711728,150.487993 C134.962818,151.900287 137.121917,152.030968 138.534211,150.779878 L140.514482,149.025641 L140.765995,149.025641 C141.472415,150.940792 141.896467,152.842681 141.990593,154.625375 C143.323755,154.554612 144.592695,154.874892 145.526281,155.732601 C147.836957,157.855478 146.915599,162.169913 145.339097,164.644522 C144.008568,166.631222 142.043309,168.106918 139.765189,168.82992 C137.957828,172.95288 130.318661,177.791792 122.675334,178.012404 C113.940104,178.266317 105.412856,172.53663 103.956984,168.71337 C101.931242,168.039044 99.8951018,166.580087 98.6700897,164.736097 C97.0603116,162.303114 96.0536803,158.013653 98.32692,155.851232 C99.2669971,154.956294 100.564803,154.621212 101.937482,154.685731 C102.721573,144.974609 110.335886,136.924001 118.407584,135.518289 C126.479283,134.112578 112.898611,132.084005 118.999997,132 C124.182426,131.928648 128.988,134.219834 132.852661,137.617192 Z M139.423845,145.983961 L136.544925,148.534272 C136.372846,148.68671 136.109772,148.670788 135.957334,148.498708 C135.889895,148.42258 135.852661,148.324397 135.852661,148.222694 L135.852661,134.162504 C135.852661,131.863617 137.716278,130 140.015166,130 L160.183647,130 C162.482534,130 164.346151,131.863617 164.346151,134.162504 L164.346151,141.863137 C164.346151,144.162024 162.482534,146.025641 160.183647,146.025641 L140.015166,146.025641 C139.814423,146.025641 139.616999,146.011431 139.423845,145.983961 Z M179.8202,148.0214 C179.048,148.0214 178.3928,147.6002 177.995,146.9684 L176.4506,144.488 L176.4506,149.2382 C176.4506,150.104 175.7486,150.806 174.8828,150.806 C174.017,150.806 173.315,150.104 173.315,149.2382 L173.315,138.17 C173.315,137.5148 173.8298,137 174.485,137 C174.9062,137 175.2806,137.234 175.4912,137.5616 L179.8202,144.605 L184.1492,137.5616 C184.3598,137.234 184.7342,137 185.1554,137 C185.8106,137 186.3254,137.5148 186.3254,138.17 L186.3254,149.2382 C186.3254,150.104 185.6234,150.806 184.7576,150.806 C183.8918,150.806 183.1898,150.104 183.1898,149.2382 L183.1898,144.488 L181.6454,146.9684 C181.2476,147.6002 180.5924,148.0214 179.8202,148.0214 Z M192.982838,150.9464 L192.795638,150.9464 C191.134238,150.9464 188.185838,149.9402 188.185838,145.9622 C188.185838,142.5926 190.876838,141.1886 192.912638,141.1886 C194.901638,141.1886 197.569238,142.5926 197.569238,145.9622 C197.569238,149.9402 194.644238,150.9464 192.982838,150.9464 Z M192.889238,147.9044 C193.544438,147.9044 194.410238,147.6704 194.410238,146.009 C194.410238,144.6284 193.591238,144.1838 192.889238,144.1838 C192.187238,144.1838 191.344838,144.6284 191.344838,146.009 C191.344838,147.6704 192.234038,147.9044 192.889238,147.9044 Z M199.312675,149.2148 L199.312675,142.9904 C199.312675,142.0778 200.061475,141.329 200.974075,141.329 C201.559075,141.329 202.190875,141.563 202.424875,142.4054 C203.103475,141.1886 204.390475,141.1886 205.092475,141.1886 C206.847475,141.1886 208.087675,142.5692 208.087675,144.3008 L208.087675,149.2148 C208.087675,150.104 207.385675,150.806 206.496475,150.806 C205.607275,150.806 204.928675,150.104 204.928675,149.2148 L204.928675,145.073 C204.928675,144.3944 204.413875,144.1838 203.992675,144.1838 C202.846075,144.1838 202.471675,145.1198 202.471675,145.1198 L202.471675,149.2148 C202.471675,150.104 201.769675,150.806 200.880475,150.806 C199.991275,150.806 199.312675,150.104 199.312675,149.2148 Z M213.224113,144.5114 L215.704513,141.914 C215.985313,141.563 216.383113,141.329 216.874513,141.329 C217.716913,141.329 218.395513,142.0544 218.395513,142.8968 C218.395513,143.2244 218.278513,143.552 218.114713,143.786 L216.453313,145.2836 L218.723113,148.1384 C218.886913,148.3958 219.027313,148.7468 219.027313,149.0978 C219.027313,150.0338 218.301913,150.806 217.365913,150.806 C216.827713,150.806 216.383113,150.572 216.102313,150.1742 L213.224113,146.2898 L213.224113,149.2148 C213.224113,150.104 212.522113,150.806 211.632913,150.806 C210.743713,150.806 210.065113,150.104 210.065113,149.2148 L210.065113,138.5912 C210.065113,137.702 210.743713,137 211.632913,137 C212.522113,137 213.224113,137.702 213.224113,138.5912 L213.224113,144.5114 Z M223.110751,145.307 L225.848551,145.307 C225.708151,144.371 225.286951,143.903 224.444551,143.903 C223.672351,143.903 223.134151,144.371 223.110751,145.307 Z M227.556751,150.5954 C226.901551,150.806 225.871951,150.9464 224.608351,150.9464 C221.636551,150.9464 220.021951,148.7702 220.021951,146.0558 C220.021951,143.3882 221.870551,141.1886 224.584951,141.1886 C227.205751,141.1886 228.843751,143.0372 228.843751,145.541 C228.843751,146.3834 228.188551,147.0854 227.346151,147.0854 L223.110751,147.0854 C223.227751,147.7172 223.485151,148.232 225.357151,148.232 C225.661351,148.232 226.456951,148.115 227.158951,148.0214 C227.884351,148.0214 228.258751,148.6064 228.258751,149.3084 C228.258751,149.9168 228.024751,150.4316 227.556751,150.5954 Z M238.753788,143.435 L234.775788,152.6546 C233.792988,154.901 232.599588,155.4392 231.382788,155.4392 L230.984988,155.4392 C230.189388,155.4392 229.534188,154.784 229.534188,153.9884 C229.534188,153.2864 230.025588,152.7014 230.680788,152.561 C231.101988,152.4674 231.757188,152.21 232.084788,151.508 L232.576188,150.1976 L229.978788,143.435 C229.908588,143.2712 229.885188,143.084 229.885188,142.8968 C229.885188,142.031 230.587188,141.329 231.429588,141.329 C232.131588,141.329 232.716588,141.7736 232.927188,142.4054 L234.284388,146.5706 L235.805388,142.4054 C236.039388,141.7736 236.600988,141.329 237.302988,141.329 C238.145388,141.329 238.847388,142.031 238.847388,142.8968 C238.847388,143.084 238.823988,143.2712 238.753788,143.435 Z M183.1574,159.0056 L183.1574,172.4804 C183.1574,173.78 182.1314,174.806 180.8318,174.806 C179.5322,174.806 178.5404,173.78 178.5404,172.4804 L178.5404,159.0056 L175.1888,159.0056 C173.9576,159.0056 173,158.048 173,156.8168 C173,155.5856 173.9576,154.628 175.1888,154.628 L186.509,154.628 C187.7402,154.628 188.6978,155.5856 188.6978,156.8168 C188.6978,158.048 187.7402,159.0056 186.509,159.0056 L183.1574,159.0056 Z M190.396238,164.8538 C189.336038,164.8538 188.446838,163.9988 188.446838,162.9386 C188.446838,161.9468 189.130838,161.1602 190.259438,160.9892 C191.046038,160.8866 192.174638,160.7498 193.440038,160.7498 C197.646638,160.7498 200.143238,163.0754 200.143238,166.8716 L200.143238,172.3436 C200.143238,173.7116 199.048838,174.806 197.680838,174.806 C196.825838,174.806 195.936638,174.4982 195.628838,173.3696 C194.602838,174.8744 192.790238,175.0112 192.106238,175.0112 C191.422238,175.0112 187.318238,174.806 187.318238,170.2574 C187.318238,167.795 188.959838,166.1534 191.866838,166.1534 C192.892838,166.1534 194.466038,166.3586 195.628838,167.4188 L195.628838,166.4954 C195.628838,165.572 195.081638,164.717 192.345638,164.717 C191.798438,164.717 191.080238,164.7854 190.396238,164.8538 Z M195.526238,170.3258 L195.526238,169.847 C195.526238,169.847 195.081638,169.2656 193.474238,169.2656 C192.072038,169.2656 191.935238,169.6076 191.935238,170.0864 C191.935238,170.531 192.243038,170.9414 193.474238,170.9414 C195.321038,170.9414 195.526238,170.3258 195.526238,170.3258 Z M207.997675,156.9536 L207.997675,172.4804 C207.997675,173.78 206.971675,174.806 205.672075,174.806 C204.372475,174.806 203.380675,173.78 203.380675,172.4804 L203.380675,156.9536 C203.380675,155.654 204.372475,154.628 205.672075,154.628 C206.971675,154.628 207.997675,155.654 207.997675,156.9536 Z M215.852113,165.6062 L219.477313,161.81 C219.887713,161.297 220.469113,160.955 221.187313,160.955 C222.418513,160.955 223.410313,162.0152 223.410313,163.2464 C223.410313,163.7252 223.239313,164.204 222.999913,164.546 L220.571713,166.7348 L223.889113,170.9072 C224.128513,171.2834 224.333713,171.7964 224.333713,172.3094 C224.333713,173.6774 223.273513,174.806 221.905513,174.806 C221.118913,174.806 220.469113,174.464 220.058713,173.8826 L215.852113,168.2054 L215.852113,172.4804 C215.852113,173.78 214.826113,174.806 213.526513,174.806 C212.226913,174.806 211.235113,173.78 211.235113,172.4804 L211.235113,156.9536 C211.235113,155.654 212.226913,154.628 213.526513,154.628 C214.826113,154.628 215.852113,155.654 215.852113,156.9536 L215.852113,165.6062 Z M234.924151,161.126 C235.847551,161.3996 236.531551,162.1862 236.531551,163.2122 C236.531551,164.6828 235.915951,164.9222 235.026751,164.9222 C234.205951,164.7854 233.179951,164.5802 232.393351,164.5802 C231.367351,164.5802 230.409751,164.6144 230.409751,165.1274 C230.409751,166.0166 237.831151,166.2218 237.831151,170.4284 C237.831151,173.5064 235.334551,175.0112 231.435751,175.0112 C229.862551,175.0112 228.733951,174.6008 227.673751,174.1562 C226.887151,173.8484 226.408351,173.1302 226.408351,172.241 C226.408351,171.2492 227.023951,170.36 227.947351,170.36 C228.939151,170.5994 230.238751,171.044 231.196351,171.044 C231.846151,171.044 233.214151,171.0098 233.214151,170.5652 C233.214151,169.3682 225.792751,169.4024 225.792751,165.1958 C225.792751,162.0494 228.939151,160.7498 231.846151,160.7498 C233.179951,160.7498 234.171751,160.955 234.924151,161.126 Z" id="monkeytalks-logo-narrow"></path>
        </g>
    </g>
</svg>