<?xml version="1.0" encoding="UTF-8"?>
<svg width="263px" height="48px" viewBox="0 0 263 48" version="1.1" xmlns="http://www.w3.org/2000/svg" xmlns:xlink="http://www.w3.org/1999/xlink">
    <!-- Generator: Sketch 52.1 (67048) - http://www.bohemiancoding.com/sketch -->
    <title>Combined Shape</title>
    <desc>Created with Sketch.</desc>
    <g id="Page-1" stroke="none" stroke-width="1" fill="none" fill-rule="evenodd">
        <g id="Desktop-HD-Copy" transform="translate(-250.000000, -20.000000)" fill="#3DF291">
            <path d="M285.852661,27.6171924 L285.852661,38.2226943 C285.852661,39.0573857 286.158248,39.863197 286.711728,40.487993 C287.962818,41.9002865 290.121917,42.0309679 291.534211,40.779878 L293.514482,39.025641 L293.765995,39.025641 C294.472415,40.9407925 294.896467,42.8426808 294.990593,44.6253746 C296.323755,44.5546121 297.592695,44.8748917 298.526281,45.7326007 C300.836957,47.8554779 299.915599,52.1699134 298.339097,54.6445221 C297.008568,56.6312223 295.043309,58.1069179 292.765189,58.8299201 C290.957828,62.9528805 283.318661,67.7917915 275.675334,68.0124043 C266.940104,68.266317 258.412856,62.53663 256.956984,58.71337 C254.931242,58.0390443 252.895102,56.5800866 251.67009,54.7360972 C250.060312,52.3031136 249.05368,48.013653 251.32692,45.8512321 C252.266997,44.9562937 253.564803,44.6212121 254.937482,44.6857309 C255.721573,34.9746087 263.335886,26.9240011 271.407584,25.5182895 C279.479283,24.1125778 265.898611,22.0840047 271.999997,22 C277.182426,21.9286476 281.988,24.2198336 285.852661,27.6171924 Z M292.423845,35.9839614 L289.544925,38.5342723 C289.372846,38.6867104 289.109772,38.6707877 288.957334,38.4987078 C288.889895,38.4225801 288.852661,38.3243966 288.852661,38.2226943 L288.852661,24.1625042 C288.852661,21.8636166 290.716278,20 293.015166,20 L313.183647,20 C315.482534,20 317.346151,21.8636166 317.346151,24.1625042 L317.346151,31.8631369 C317.346151,34.1620244 315.482534,36.025641 313.183647,36.025641 L293.015166,36.025641 C292.814423,36.025641 292.616999,36.0114308 292.423845,35.9839614 Z M337.12,51.84 C335.8,51.84 334.68,51.12 334,50.04 L331.36,45.8 L331.36,53.92 C331.36,55.4 330.16,56.6 328.68,56.6 C327.2,56.6 326,55.4 326,53.92 L326,35 C326,33.88 326.88,33 328,33 C328.72,33 329.36,33.4 329.72,33.96 L337.12,46 L344.52,33.96 C344.88,33.4 345.52,33 346.24,33 C347.36,33 348.24,33.88 348.24,35 L348.24,53.92 C348.24,55.4 347.04,56.6 345.56,56.6 C344.08,56.6 342.88,55.4 342.88,53.92 L342.88,45.8 L340.24,50.04 C339.56,51.12 338.44,51.84 337.12,51.84 Z M359.620235,56.84 L359.300235,56.84 C356.460235,56.84 351.420235,55.12 351.420235,48.32 C351.420235,42.56 356.020235,40.16 359.500235,40.16 C362.900235,40.16 367.460235,42.56 367.460235,48.32 C367.460235,55.12 362.460235,56.84 359.620235,56.84 Z M359.460235,51.64 C360.580235,51.64 362.060235,51.24 362.060235,48.4 C362.060235,46.04 360.660235,45.28 359.460235,45.28 C358.260235,45.28 356.820235,46.04 356.820235,48.4 C356.820235,51.24 358.340235,51.64 359.460235,51.64 Z M370.440471,53.88 L370.440471,43.24 C370.440471,41.68 371.720471,40.4 373.280471,40.4 C374.280471,40.4 375.360471,40.8 375.760471,42.24 C376.920471,40.16 379.120471,40.16 380.320471,40.16 C383.320471,40.16 385.440471,42.52 385.440471,45.48 L385.440471,53.88 C385.440471,55.4 384.240471,56.6 382.720471,56.6 C381.200471,56.6 380.040471,55.4 380.040471,53.88 L380.040471,46.8 C380.040471,45.64 379.160471,45.28 378.440471,45.28 C376.480471,45.28 375.840471,46.88 375.840471,46.88 L375.840471,53.88 C375.840471,55.4 374.640471,56.6 373.120471,56.6 C371.600471,56.6 370.440471,55.4 370.440471,53.88 Z M394.220706,45.84 L398.460706,41.4 C398.940706,40.8 399.620706,40.4 400.460706,40.4 C401.900706,40.4 403.060706,41.64 403.060706,43.08 C403.060706,43.64 402.860706,44.2 402.580706,44.6 L399.740706,47.16 L403.620706,52.04 C403.900706,52.48 404.140706,53.08 404.140706,53.68 C404.140706,55.28 402.900706,56.6 401.300706,56.6 C400.380706,56.6 399.620706,56.2 399.140706,55.52 L394.220706,48.88 L394.220706,53.88 C394.220706,55.4 393.020706,56.6 391.500706,56.6 C389.980706,56.6 388.820706,55.4 388.820706,53.88 L388.820706,35.72 C388.820706,34.2 389.980706,33 391.500706,33 C393.020706,33 394.220706,34.2 394.220706,35.72 L394.220706,45.84 Z M411.120941,47.2 L415.800941,47.2 C415.560941,45.6 414.840941,44.8 413.400941,44.8 C412.080941,44.8 411.160941,45.6 411.120941,47.2 Z M418.720941,56.24 C417.600941,56.6 415.840941,56.84 413.680941,56.84 C408.600941,56.84 405.840941,53.12 405.840941,48.48 C405.840941,43.92 409.000941,40.16 413.640941,40.16 C418.120941,40.16 420.920941,43.32 420.920941,47.6 C420.920941,49.04 419.800941,50.24 418.360941,50.24 L411.120941,50.24 C411.320941,51.32 411.760941,52.2 414.960941,52.2 C415.480941,52.2 416.840941,52 418.040941,51.84 C419.280941,51.84 419.920941,52.84 419.920941,54.04 C419.920941,55.08 419.520941,55.96 418.720941,56.24 Z M437.861176,44 L431.061176,59.76 C429.381176,63.6 427.341176,64.52 425.261176,64.52 L424.581176,64.52 C423.221176,64.52 422.101176,63.4 422.101176,62.04 C422.101176,60.84 422.941176,59.84 424.061176,59.6 C424.781176,59.44 425.901176,59 426.461176,57.8 L427.301176,55.56 L422.861176,44 C422.741176,43.72 422.701176,43.4 422.701176,43.08 C422.701176,41.6 423.901176,40.4 425.341176,40.4 C426.541176,40.4 427.541176,41.16 427.901176,42.24 L430.221176,49.36 L432.821176,42.24 C433.221176,41.16 434.181176,40.4 435.381176,40.4 C436.821176,40.4 438.021176,41.6 438.021176,43.08 C438.021176,43.4 437.981176,43.72 437.861176,44 Z M448.881412,38.12 L448.881412,53.88 C448.881412,55.4 447.681412,56.6 446.161412,56.6 C444.641412,56.6 443.481412,55.4 443.481412,53.88 L443.481412,38.12 L439.561412,38.12 C438.121412,38.12 437.001412,37 437.001412,35.56 C437.001412,34.12 438.121412,33 439.561412,33 L452.801412,33 C454.241412,33 455.361412,34.12 455.361412,35.56 C455.361412,37 454.241412,38.12 452.801412,38.12 L448.881412,38.12 Z M457.341647,44.96 C456.101647,44.96 455.061647,43.96 455.061647,42.72 C455.061647,41.56 455.861647,40.64 457.181647,40.44 C458.101647,40.32 459.421647,40.16 460.901647,40.16 C465.821647,40.16 468.741647,42.88 468.741647,47.32 L468.741647,53.72 C468.741647,55.32 467.461647,56.6 465.861647,56.6 C464.861647,56.6 463.821647,56.24 463.461647,54.92 C462.261647,56.68 460.141647,56.84 459.341647,56.84 C458.541647,56.84 453.741647,56.6 453.741647,51.28 C453.741647,48.4 455.661647,46.48 459.061647,46.48 C460.261647,46.48 462.101647,46.72 463.461647,47.96 L463.461647,46.88 C463.461647,45.8 462.821647,44.8 459.621647,44.8 C458.981647,44.8 458.141647,44.88 457.341647,44.96 Z M463.341647,51.36 L463.341647,50.8 C463.341647,50.8 462.821647,50.12 460.941647,50.12 C459.301647,50.12 459.141647,50.52 459.141647,51.08 C459.141647,51.6 459.501647,52.08 460.941647,52.08 C463.101647,52.08 463.341647,51.36 463.341647,51.36 Z M477.921882,35.72 L477.921882,53.88 C477.921882,55.4 476.721882,56.6 475.201882,56.6 C473.681882,56.6 472.521882,55.4 472.521882,53.88 L472.521882,35.72 C472.521882,34.2 473.681882,33 475.201882,33 C476.721882,33 477.921882,34.2 477.921882,35.72 Z M487.102118,45.84 L491.342118,41.4 C491.822118,40.8 492.502118,40.4 493.342118,40.4 C494.782118,40.4 495.942118,41.64 495.942118,43.08 C495.942118,43.64 495.742118,44.2 495.462118,44.6 L492.622118,47.16 L496.502118,52.04 C496.782118,52.48 497.022118,53.08 497.022118,53.68 C497.022118,55.28 495.782118,56.6 494.182118,56.6 C493.262118,56.6 492.502118,56.2 492.022118,55.52 L487.102118,48.88 L487.102118,53.88 C487.102118,55.4 485.902118,56.6 484.382118,56.6 C482.862118,56.6 481.702118,55.4 481.702118,53.88 L481.702118,35.72 C481.702118,34.2 482.862118,33 484.382118,33 C485.902118,33 487.102118,34.2 487.102118,35.72 L487.102118,45.84 Z M509.402353,40.6 C510.482353,40.92 511.282353,41.84 511.282353,43.04 C511.282353,44.76 510.562353,45.04 509.522353,45.04 C508.562353,44.88 507.362353,44.64 506.442353,44.64 C505.242353,44.64 504.122353,44.68 504.122353,45.28 C504.122353,46.32 512.802353,46.56 512.802353,51.48 C512.802353,55.08 509.882353,56.84 505.322353,56.84 C503.482353,56.84 502.162353,56.36 500.922353,55.84 C500.002353,55.48 499.442353,54.64 499.442353,53.6 C499.442353,52.44 500.162353,51.4 501.242353,51.4 C502.402353,51.68 503.922353,52.2 505.042353,52.2 C505.802353,52.2 507.402353,52.16 507.402353,51.64 C507.402353,50.24 498.722353,50.28 498.722353,45.36 C498.722353,41.68 502.402353,40.16 505.802353,40.16 C507.362353,40.16 508.522353,40.4 509.402353,40.6 Z" id="Combined-Shape"></path>
        </g>
    </g>
</svg>