<?xml version="1.0" encoding="utf-8"?>
<!-- Generator: Adobe Illustrator 22.1.0, SVG Export Plug-In . SVG Version: 6.00 Build 0)  -->
<svg version="1.1" id="Layer_3" xmlns="http://www.w3.org/2000/svg" xmlns:xlink="http://www.w3.org/1999/xlink" x="0px" y="0px"
	 viewBox="0 0 500 475" style="enable-background:new 0 0 500 475;" xml:space="preserve">
<style type="text/css">
	.st0{fill:#FFFFFF;}
	.st1{fill:#010101;}
</style>
<title>monkeyQR_v2</title>
<g>
	<path id="Fill-1" class="st0" d="M251.3,475c-38,0-78.8-10.9-115.4-31.1c-32.6-17.9-57.1-40.5-66.4-60.6
		c-20.9-7.7-40.3-22.7-52-40.4c-9.3-14.3-15.1-30.5-17-47.4c-2.7-25.8,6.5-40.4,14.7-48.2c8.5-8.1,20.1-12.7,33.6-13.3
		c2.8-22.6,9.2-44.5,19.2-65c11.1-23.1,25.9-44.3,43.8-62.6c38.3-39.5,87.3-63.3,137.9-67c11.1-0.8,21.9-1.2,32-1.2
		c18.9-0.1,37.8,1.6,56.4,4.8c5.8,1,10,1.6,12.8,1.6c0.3,0,0.6,0,0.8,0c-2.7-2.9-5.6-5.7-8.7-8.3c-9-8-18.2-16.3-18.3-25.9
		c-0.1-4.3,2.2-8.1,6.3-9.6c1.4-0.5,3.4-0.7,4.9-0.7c13.7,0,41.9,17.7,58,36.6c16.4,19.3,14.5,32.8,10,40.7c-1.6,3.1-3.9,5.8-6.7,8
		c-4.2,3.2-9.6,5.2-16.6,6.1c-2.8,0.3-5.7,0.5-8.5,0.5c-1.5,0-3,0-4.5-0.1c14.5,9.2,27.7,20.3,39.3,33.1
		c26.2,29.1,41.2,65.6,44.7,108.6c13,0.6,24.2,5,32.6,12.7c8.4,7.7,17.7,22.1,15.5,47.9c-1.6,16.9-7.2,33.3-16.2,47.7
		c-12.1,18.9-33.1,35.1-55.1,42.7c-10.2,20.4-33.7,42.4-63.5,59.2c-33.9,19.2-71.3,30.1-106.9,31.1C256,475,251.3,475,251.3,475z"/>
	<path class="st1" d="M148.6,166.5v11.7h-5.8v-5.8h-6.9v5.8H130v-0.1c1.3-1.9,2.6-3.8,4-5.7c0.6-0.8,1.2-1.7,1.9-2.5l1-1.4
		c0.5-0.7,1.1-1.3,1.6-2H148.6z"/>
	<path class="st1" d="M154.4,154.9v11.6h-5.8v-5.8h-5.1c1.7-1.8,3.4-3.6,5.1-5.2l0.6-0.6H154.4z"/>
	<rect x="154.4" y="166.5" class="st1" width="11.7" height="11.7"/>
	<path class="st1" d="M177.8,135.6c-1.4,0.5-2.7,1.1-4.1,1.8h4.1V135.6z"/>
	<path class="st1" d="M201.1,132.1v5.2h-5.8v5.9h-5.8v-5.8h-5.8v-3.7c1.9-0.5,3.9-1,5.8-1.2c1.9-0.3,3.9-0.5,5.8-0.5h0.4
		C197.6,131.9,199.4,132,201.1,132.1z"/>
	<path class="st1" d="M259.4,166.5v-11.6h-5.8v2.7h-5.8V153H242v1.8h-5.8V149h-5.8v17.4h-17.5v-5.8h5.8v-5.8H207v-17.3h5.8v5.8h5.8
		v-5.8h-5.8v-3.4c-1.9-0.5-3.8-0.9-5.8-1.2v4.6h-5.8V155h-11.7v5.8h11.7v5.7h5.8v5.8h-5.8v-5.8h-5.8v5.8h-5.8v-5.8h-5.8v5.8h5.8v5.8
		h5.8v-5.8h5.8v5.8h23.3v-5.8h5.8v5.8h5.8v-5.8h5.8v5.8h17.5v-5.8h-5.8v-5.8H259.4z M247.7,172.3h-5.8v-13.5h5.8V172.3z"/>
	<path class="st1" d="M230.3,141.5v7.5h-5.8v5.8h-5.8v-11.6h5.8v-4.9C226.5,139.3,228.5,140.4,230.3,141.5z"/>
	<path class="st1" d="M183.6,143.2v-5.8h-5.8v5.8H172v-5c-1.9,1-3.9,2.1-5.8,3.3v1.7h-2.6c-1.1,0.7-2.2,1.5-3.2,2.3v3.6h5.8v5.8
		h-5.8v5.8H172v11.7h5.8v5.8h5.8v-5.8h-5.8v-5.9h5.8v-11.6h5.8v-11.7L183.6,143.2L183.6,143.2z M177.8,154.9H172V149h5.8V154.9z"/>
	<path class="st1" d="M218.6,135.8v1.6h3.9C221.2,136.8,220,136.3,218.6,135.8z"/>
	<path class="st1" d="M239.8,148.3c-1.1-0.9-2.4-1.8-3.7-2.8v3.6h4.7L239.8,148.3z"/>
	<path class="st1" d="M267.8,172.4h17.5v-5.9h-11.7v-5.8h11.7v5.8h5.8v-5.8l0,0v-5.8h-5.8V149h-5.8v5.8h-5.8V149l0,0v-5.8l0,0v-3.1
		c-1.9,1-3.6,2.1-5.1,3.1h-0.7v5.8H262v5.8h5.8v5.8H262v5.8h5.8V172.4z"/>
	<path class="st1" d="M297,132.3v10.9h-5.8v-5.8l0,0v-4C293.1,132.9,295,132.6,297,132.3z"/>
	<path class="st1" d="M285.3,137.4v5.8h-5.8v-6c1.8-0.8,3.8-1.6,5.8-2.2V137.4L285.3,137.4z"/>
	<rect x="285.3" y="143.2" class="st1" width="5.8" height="5.8"/>
	<polygon class="st1" points="291.2,172.4 291.2,178.2 297,178.2 297,178.2 302.8,178.2 302.8,172.4 302.8,172.4 302.8,166.5 
		297,166.5 297,166.5 291.2,166.5 	"/>
	<path class="st1" d="M320.3,135v2.4h5.8C324.2,136.5,322.3,135.7,320.3,135z"/>
	<path class="st1" d="M332,140.5c-1.9-1.1-3.9-2.2-5.8-3.1v5.8h5.8V140.5z"/>
	<path class="st1" d="M363.9,169.9c-0.9-1.1-1.7-2.2-2.6-3.3h-11.8v-5.8h5.8v-1c-1.6-1.7-3.1-3.3-4.7-4.8h-6.9v-6.2
		c-1.9-1.6-3.9-3.1-5.8-4.4v4.8l0,0v5.8h-11.7v5.8h11.6v5.8h5.8v5.8h-5.8v-5.8H332v5.8h-5.8v-5.8h-5.8v5.8h-5.8v-5.8h5.8V155h5.8
		v-11.7h-5.8v-5.8h-5.8v5.8h-5.8v-5.8h5.8v-4.2c-1.9-0.5-3.9-0.8-5.8-1c-1.5-0.2-3-0.3-4.5-0.3H303v11.3h-6v5.8h5.8v11.7h5.8v11.7
		h5.8v5.8h5.8v-5.8h5.8v5.8h5.8v-5.8h5.8v5.8h23.3v-5.8h4.6C365.1,171.5,364.5,170.7,363.9,169.9z M308.7,154.9V149h5.8v5.8h-5.8
		V154.9z"/>
	<path class="st1" d="M367,178.2h2.8c-0.9-1.4-1.9-2.8-2.8-4.1V178.2z"/>
	<path class="st1" d="M160.3,149h-4.5l-1.3,1.1v4.8h5.8V149z"/>
	<rect x="371.8" y="260.2" class="st1" width="5.8" height="5.8"/>
	<rect x="371.8" y="271.9" class="st1" width="5.8" height="5.8"/>
	<path class="st1" d="M377.6,191.3v4.6h-5.8v-14.7c0.6,1,1.3,2.1,1.9,3.1c1.2,1.9,2.3,3.9,3.3,5.8L377.6,191.3z"/>
	<polygon class="st1" points="383.5,219.3 383.5,225.1 371.8,225.1 371.8,213.5 377.6,213.5 377.6,219.3 	"/>
	<path class="st1" d="M383.5,213.5h-5.8v-5.8h-5.8v-5.8h5.8V196h2.4c0.9,1.9,1.8,3.9,2.7,5.8c0.3,0.6,0.5,1.3,0.8,1.9v3.9h1.5
		c0.8,1.9,1.4,3.9,2.1,5.8s1.3,3.9,1.8,5.8h-5.5V213.5z"/>
	<rect x="383.5" y="225.1" class="st1" width="5.8" height="5.8"/>
	<path class="st1" d="M388.1,289.4c-0.5,1.1-1,2-1.5,2.9c0,0.1-0.1,0.1-0.1,0.2c-0.2,0.3-0.3,0.6-0.5,0.9c-0.2,0.3-0.2,0.4-0.4,0.6
		c-0.3,0.4-0.5,0.8-0.8,1.2c0,0,0,0.1-0.1,0.1c-0.4,0.6-0.8,1.1-1.2,1.6c-0.4,0.5-0.6,0.8-0.9,1.1l0,0c-0.8,1-1.5,2-2.2,3.1h-2.7
		v5.8h0.9v0.2c0,2.1,0.8,4.1,2.2,5.6h-8.9v-17.5h5.8v-5.8h-5.8v-5.8h11.7v5.8L388.1,289.4z"/>
	<rect x="383.5" y="277.7" class="st1" width="5.8" height="5.8"/>
	<path class="st1" d="M389.4,220.5v4.7h1.2C390.2,223.6,389.8,222,389.4,220.5z"/>
	<path class="st1" d="M389.4,254.4h4.9c0-1.9,0-3.9-0.2-5.8c-0.2-1.9-0.3-3.9-0.5-5.8c-0.2-1.9-0.4-3.9-0.7-5.8h-15.2V231h-5.8v23.3
		h5.8v5.8h5.8v17.5h5.8v-5.8h3.7c0.3-1.8,0.5-3.7,0.7-5.8c0.2-1.8,0.3-3.8,0.4-5.8h-4.8L389.4,254.4z M383.5,248.6h-5.8v-5.8h5.8
		V248.6z"/>
	<path class="st1" d="M389.4,286.5c0.4-0.9,0.7-1.9,1.1-3h-1.1V286.5z"/>
	<path class="st1" d="M383.5,411.8v1.9c-1,0.8-2,1.6-3,2.3l-2.1,1.6l-0.7,0.5c-0.4,0.3-0.7,0.5-1.1,0.8l-1.9,1.4
		c-0.9,0.6-1.9,1.3-2.8,1.9v-10.4L383.5,411.8z"/>
	<path class="st1" d="M383.5,406v5.8h2.4c1.2-1,2.3-1.9,3.4-2.9c1.1-1,2.3-2,3.4-3L383.5,406L383.5,406z"/>
	<path class="st1" d="M395.2,321.2v9h-5.8v-5.8h-5.8V315c1.5,0.9,3.1,1.8,4.8,2.6l1.1,0.5l0.9,0.4l0,0c0.7,0.3,1.4,0.7,2.1,1.1
		c0.1,0.1,0.3,0.1,0.4,0.2l0.2,0.1C393.7,320.3,394.4,320.8,395.2,321.2z"/>
	<polygon class="st1" points="383.5,359.3 383.5,365.2 377.6,365.2 377.6,371 371.8,371 371.8,353.5 377.6,353.5 377.6,359.3 	"/>
	<rect x="371.8" y="400.2" class="st1" width="11.7" height="5.8"/>
	<rect x="383.5" y="365.2" class="st1" width="5.8" height="5.8"/>
	<path class="st1" d="M412.7,347.7v-5.8H401v-5.8h5.8v-5.8l0,0c1.8,1.8,3.4,3.8,4.8,5.8c0.3,0.5,0.6,0.9,1,1.4
		c0.9,1.4,1.8,2.9,2.5,4.4c0.2,0.5,0.5,1,0.8,1.6c0.6,1.4,1.2,2.8,1.6,4.3L412.7,347.7z"/>
	<path class="st1" d="M406.9,330.2L406.9,330.2h-5.8v-5.1C403.1,326.6,405.1,328.3,406.9,330.2z"/>
	<path class="st1" d="M412.7,353.5v5.8h-5.8v5.8h-5.8v29.2h3.1c-1,1.1-2,2.3-3.1,3.5c-0.7,0.8-1.5,1.6-2.2,2.4
		c-1.1,1.2-2.4,2.4-3.6,3.5v-9.4h-5.8v5.8h-5.8v-5.8h-5.8v-5.8h5.8v-5.8h-5.8v5.8H372v-11.7h23.3v-11.7h-5.8v-5.8h-5.8v-5.8H378
		v-5.8h-5.8v-5.8h5.8v-5.8h-5.8v-17.5h5.8v17.5h5.8v-5.8h5.8v5.8h5.8v5.8h5.8v5.8h-11.6v-5.8h-5.8v5.8h5.8v5.8H412.7z"/>
	<path class="st1" d="M418.1,371c-0.5,1.6-1.1,3.1-1.8,4.6c-0.2,0.4-0.4,0.8-0.5,1.2c-0.9,2-2,3.9-3.1,5.8l0,0l0,0
		c-1.2,1.9-2.5,3.9-3.9,5.8h-1.9v-23.3h5.8v5.8L418.1,371z"/>
	<path class="st1" d="M418.5,369.6v-4.4h-5.8v-5.8h5.8v5.8h0.8C419.2,366.7,418.9,368.1,418.5,369.6z"/>
	<path class="st1" d="M127,182.8v14.8h-5.8v-4.5c0.2-0.5,0.5-0.9,0.7-1.4c0.8-1.6,1.7-3.1,2.5-4.6l0.1-0.1c0.2-0.4,0.4-0.7,0.6-1.1
		l0.3-0.5l0,0C126,184.5,126.5,183.6,127,182.8z"/>
	<path class="st1" d="M121.2,232.6v5.8h-14.5c-0.3,2-0.5,3.9-0.7,5.8c-0.2,2-0.3,3.9-0.4,5.8c-0.1,1.5-0.1,3-0.1,4.4v0.6
		c0,0.2,0,0.5,0,0.8h3.9v5.8h-3.7c0.1,2.1,0.3,4,0.5,5.8c0.2,2.1,0.5,4,0.8,5.8h2.4v9.8c0.2,0.6,0.4,1.2,0.6,1.9h5.2v-23.3h5.8v-5.8
		h5.8v-23.3h-5.6V232.6z M121.2,250.2h-5.8v-5.8h5.8V250.2z"/>
	<rect x="121.2" y="261.8" class="st1" width="5.8" height="5.8"/>
	<rect x="121.2" y="273.5" class="st1" width="5.8" height="5.8"/>
	<path class="st1" d="M109.5,226.7v5.8h5.8v-5.8H109.5z"/>
	<path class="st1" d="M121.2,209.3v5.8h5.8v11.7h-11.6V221h5.8v-5.8h-5.8v5.8h-5c0.5-1.9,1.1-3.9,1.7-5.8c0.6-1.9,1.3-3.9,2-5.8h1.3
		v-3.3c0.3-0.9,0.7-1.7,1-2.5c0.8-2,1.7-3.9,2.6-5.8h2.2v5.8h5.8v5.8h-5.8V209.3z"/>
	<path class="st1" d="M121.2,291v5.8h5.8v17.5h-5.8v-0.7c0.8-1.3,1.2-2.8,1.1-4.4c0-0.3,0-0.5,0-0.8c-0.1-1.3-0.5-2.6-1.1-3.7
		c-0.4-0.7-0.8-1.4-1.2-2.1c-0.4-0.6-0.8-1.2-1.2-1.8c-0.1-0.1-0.2-0.3-0.3-0.4c-0.1-0.1,0,0,0,0c-0.8-1-1.6-2.2-2.5-3.6
		c-0.2-0.3-0.4-0.6-0.5-0.9c-1-1.6-1.9-3.3-2.8-5h2.8v-5.8H127v5.8h-5.8V291z"/>
	<path class="st1" d="M109.4,223.9c-0.2,1-0.3,1.9-0.5,2.9h0.5V223.9z"/>
	<polygon class="st1" points="121.2,326 121.2,331.8 121.2,331.8 121.2,337.6 127,337.6 127,331.8 127,331.8 127,326 127,320.1 
		121.2,320.1 	"/>
	<path class="st1" d="M121.2,413.4h-5.3c1.7,1.3,3.5,2.6,5.3,3.9l0,0c0.9,0.6,1.8,1.3,2.8,1.9h3.1v-5.8H121.2z"/>
	<path class="st1" d="M109.5,366.8v5.8h5.8v-5.8H109.5z M121.2,355.1v5.8h-5.8v5.8h5.8v5.8h5.8v-17.4H121.2z M115.4,401.8v5.8H127
		v-5.8H115.4z"/>
	<path class="st1" d="M103.7,378.5H127v11.6h-5.8v-5.8h-5.8v5.8h5.8v5.8h-5.8v5.8h-5.8v-5.8h-5.8v7.3c-0.5-0.5-1.1-1-1.6-1.5
		c-1.5-1.4-2.9-2.8-4.2-4.2c-0.6-0.5-1.1-1.1-1.6-1.7H98v-29.1h-5.8v-5.8h-5.8v-5.8h23.3v-5.8h5.8v-5.8h-5.8v5.8H97.9v-5.8h5.8v-5.9
		h5.8v-5.8h5.8v5.8h5.8v5.8h5.8v5.8h-5.8v5.8h-5.8v5.8h-5.8v5.8h-5.8L103.7,378.5z"/>
	<path class="st1" d="M115.4,318.6v7.4h-5.8v5.8h-5.8v-6.5c2-1.4,4-2.5,5.8-3.6c1-0.6,2-1.1,3-1.6l0.4-0.2
		C113.8,319.5,114.6,319,115.4,318.6z"/>
	<path class="st1" d="M115.4,407.6v5.4c-2-1.5-6.6-5.2-6.9-5.4H115.4z"/>
	<path class="st1" d="M97.9,329.8c-0.8,0.6-1.5,1.3-2.3,2h2.3V329.8z"/>
	<path class="st1" d="M97.9,337.6v5.8H86.4c1.2-2,2.5-4,3.9-5.8c0.6-0.7,1.1-1.4,1.7-2.1v2.1H97.9z"/>
	<path class="st1" d="M86.2,349.3L86.2,349.3v-5.5c-0.4,0.7-0.8,1.5-1.2,2.2c-0.5,1-1,2.1-1.5,3.2l0,0c-0.8,1.9-1.4,3.8-1.8,5.8h4.5
		V349.3z"/>
	<path class="st1" d="M92.1,366.8v23.3h-0.8c-1.6-2-3-3.9-4.3-5.8c-0.2-0.4-0.5-0.7-0.7-1.1c-1-1.5-1.9-3.1-2.7-4.7
		c-0.6-1.2-1.1-2.4-1.6-3.6c-0.3-0.8-0.5-1.5-0.8-2.2h5v-5.8h5.9V366.8z"/>
	<path class="st1" d="M86.2,361h-5.5c-0.2,1.3-0.3,2.7-0.3,4.1v1.7h5.8V361z"/>
	<path class="st1" d="M130.5,423.6c1.9,1.2,3.9,2.4,5.8,3.6v-4.7h-5.8V423.6z"/>
	<path class="st1" d="M177.1,428.3h5.8v-5.8h-40.8v5.8h5.9v5.4l0.9,0.5h4.9v2.5c1.9,0.9,3.9,1.9,5.8,2.8c0.4,0.2,0.9,0.4,1.4,0.6
		h10.3v4.4l3.8,1.5c0.7,0.2,1.4,0.4,2.1,0.6V446h5.8v-5.8h-5.8L177.1,428.3z M171.3,434.1h-11.7v-5.8h11.7V434.1z"/>
	<polygon class="st1" points="182.9,434.1 182.9,440 188.8,440 188.8,434.1 188.8,428.3 182.9,428.3 	"/>
	<path class="st1" d="M212.1,422.5v11.6h-5.8v11.7h-5.8v5.8l0,0v2.2c-2-0.5-3.9-1-5.8-1.6V452c-0.7-0.1-1.4-0.3-2.1-0.4
		c-1.2-0.4-2.5-0.7-3.7-1.1v-4.7h5.8v-23.3h5.8v5.8h5.8v-5.8H212.1z"/>
	<rect x="212.1" y="434.1" class="st1" width="5.8" height="5.8"/>
	<path class="st1" d="M247.1,457.5v3c-1.9,0-3.9-0.1-5.8-0.2c-1.9-0.1-3.9-0.2-5.8-0.4c-1.9-0.2-3.9-0.4-5.8-0.6s-3.9-0.5-5.8-0.8
		v-6.9h-5.8v5.9l-0.4-0.1c-1.8-0.3-3.6-0.6-5.4-1c-1.8-0.4-3.9-0.8-5.8-1.2v-3.6l0,0v-5.8h29.2v5.8h-5.8v5.8h5.8v-5.8h5.8v5.8
		L247.1,457.5z"/>
	<polygon class="st1" points="258.7,428.3 258.7,434.1 252.9,434.1 252.9,440 247.1,440 247.1,445.8 235.4,445.8 235.4,440 
		241.2,440 241.2,434.1 229.6,434.1 229.6,440 223.8,440 223.8,428.3 229.6,428.3 229.6,422.5 235.4,422.5 235.4,428.3 241.2,428.3 
		241.2,422.5 247.1,422.5 247.1,428.3 	"/>
	<rect x="258.7" y="422.5" class="st1" width="5.8" height="5.8"/>
	<polygon class="st1" points="270.4,434.1 276.2,434.1 276.2,428.3 276.2,422.5 270.4,422.5 270.4,428.3 264.6,428.3 264.6,434.1 	
		"/>
	<rect x="258.7" y="434.1" class="st1" width="5.8" height="5.8"/>
	<path class="st1" d="M276.2,445.8v5.8h-5.8v5.8h-5.8v-5.8h-5.8v8.7l-2,0.1c-1.3,0-2.6,0.1-3.9,0.1v-3h-5.8v-5.8h5.8v-11.6h5.8v5.8
		h5.8v-5.8h5.8v5.8h5.9V445.8z"/>
	<rect x="276.2" y="434.1" class="st1" width="5.8" height="11.7"/>
	<path class="st1" d="M282.1,451.6v6.3c-1.9,0.3-3.9,0.6-5.8,0.9c-1.9,0.3-3.9,0.5-5.8,0.7v-2h5.8v-5.9H282.1z"/>
	<rect x="282.1" y="445.8" class="st1" width="5.8" height="5.8"/>
	<path class="st1" d="M334.5,434.1v-5.8h-5.8v5.8h-5.8v-5.8h-5.8v5.8h-5.8v-5.8h5.8v-5.8h-17.5v5.8h5.8V440h-11.7v-5.9h5.8v-5.8
		h-5.8v-5.8H282v5.8h5.8v17.5h5.8v5.8h-5.8v5.3c2-0.4,3.9-0.8,5.8-1.2c1.9-0.4,3.9-0.9,5.8-1.4c1.9-0.5,3.9-1,5.8-1.5
		c1.3-0.4,2.6-0.7,3.9-1.1l2-0.6c2-0.6,3.9-1.2,5.8-1.9c1.9-0.7,3.9-1.4,5.8-2.1c1.1-0.4,2.3-0.8,3.4-1.3c0.8-0.3,1.6-0.6,2.5-1
		c2-0.8,3.9-1.6,5.8-2.4v-2.5h5.8v-5.8H334.5z M317.1,445.8h-5.8V440h5.8V445.8z"/>
	<rect x="322.9" y="422.5" class="st1" width="5.8" height="5.8"/>
	<rect x="334.5" y="422.5" class="st1" width="5.8" height="5.8"/>
	<path class="st1" d="M369.5,422.5v1.2c-1.9,1.3-3.8,2.5-5.8,3.7c-0.5,0.3-1,0.6-1.5,0.9c-1.4,0.9-2.9,1.7-4.3,2.5l-0.2,0.1
		c-1.9,1-3.7,2.1-5.6,3.1v0.1h-5.8v-11.7h5.8v5.8h5.8v-5.8L369.5,422.5L369.5,422.5z"/>
	<g id="Group-11">
		<path id="Fill-3" class="st1" d="M52.1,243.5c-12.4,0-22.8,3.7-30.2,10.7c-12,11.3-13,28.1-11.8,40.2c1.7,15.4,7,30.1,15.5,43.1
			c10.4,15.6,27.2,28.8,45.7,36c-0.5-2.1-0.8-4.2-0.8-6.4c-0.1-8.5,1.7-16.9,5.2-24.5c-15.1-29.6-23.4-60.8-23.3-88.1
			c0-3.7,0.1-7.4,0.4-11.1L52.1,243.5z M74.9,379.9c-0.3,0-0.5,0-0.8-0.1c-21.2-7-40.8-21.8-52.7-39.6C12.7,326.6,7.1,311.1,5.3,295
			c-2.4-23.8,5.8-37.2,13.2-44.2c9-8.6,21.8-12.7,36.9-12c1.3,0.1,2.4,1.2,2.3,2.5c0,0,0,0,0,0.1c-0.4,4.4-0.5,8.8-0.6,13.2
			c-0.1,26.8,8.2,57.7,23.3,86.9c0.4,0.7,0.4,1.5,0,2.2c-3.6,7.3-5.4,15.4-5.2,23.5c0.1,3.2,0.7,6.4,1.9,9.4
			c0.5,1.2-0.1,2.6-1.4,3.1C75.5,379.9,75.2,379.9,74.9,379.9L74.9,379.9z"/>
		<path id="Fill-5" class="st1" d="M425.5,340.3c2.8,6.8,4.2,14.2,4.1,21.5c0,4.4-0.8,8.7-2.2,12.8c19.3-7.1,37.4-21.4,48.1-38
			c8.2-13.1,13.2-27.9,14.6-43.3c1-12.1-0.3-28.9-12.5-40c-7.5-6.9-17.9-10.4-30.3-10.2c0.2,3.8,0.2,7.6,0.2,11.5
			C447.5,281.2,439.7,311.6,425.5,340.3L425.5,340.3z M423.3,381.1c-1.3,0-2.4-1.1-2.4-2.5c0-0.3,0.1-0.6,0.2-0.9
			c2.3-5,3.6-10.3,3.7-15.8c0.1-7.1-1.3-14.1-4.1-20.6c-0.3-0.7-0.3-1.4,0-2.1c14.2-28.4,22-58.5,22.1-84.6c0-4.6-0.1-9.2-0.3-13.6
			c0-0.6,0.2-1.3,0.6-1.7c0.4-0.5,1-0.8,1.7-0.8c14.7-0.8,27.3,3.2,36.2,11.4c7.5,6.9,16,20.1,14,44c-1.6,16.2-6.8,31.7-15.4,45.5
			c-12.1,19-33.4,35-55.6,41.7C423.7,381.1,423.5,381.1,423.3,381.1L423.3,381.1z"/>
		<path id="Fill-7" class="st1" d="M281.5,47.7c-9.2,0-19.6,0.3-31.2,1.2c-48.3,3.6-95,26.3-131.7,64.1
			c-17.2,17.6-31.4,37.9-42,60.1c-10.7,22.4-17.1,45.4-19,68.3c-0.4,4.4-0.5,8.8-0.6,13.2c-0.1,25.6,7.5,54.9,21.3,82.9
			c9.2-15.2,22.4-22.3,29.8-26.3c1.5-0.8,3.2-1.7,4-2.3c-0.4-0.7-1.1-1.7-1.8-2.6c-4.7-6.5-14.5-20.1-14.7-50.9v-0.7
			c0-30.8,11.8-63.8,32.3-90.7c20.1-26.2,45.4-41.8,67.7-41.8c26.4,0,41.9,12,50.2,18.5c1.4,1.2,3,2.3,4.6,3.3c1.6-0.9,3-2,4.5-3.1
			c8.7-6.5,25-18.6,49.1-18.6c22.3,0,47.6,15.6,67.6,41.9C392.2,191,404,224.1,404,255v1c-0.2,31.2-9.3,42.9-13.7,48.5
			c-0.6,0.8-1.2,1.6-1.8,2.5c0.8,0.5,2.5,1.4,4,2.1c7.6,3.8,21.2,10.6,30,26.2c12.9-27.1,19.9-55.5,20-80.3l0,0
			c0-4.6-0.1-9.2-0.3-13.6c-2.3-43.7-16.7-80.5-42.7-109.5c-23.1-25.7-55.5-45.4-96.2-58.7c-1.3-0.5-1.9-1.9-1.4-3.1
			c0.4-1.2,1.7-1.8,2.9-1.5C339,79.2,364,83.8,379.4,81.9c11.6-1.5,14.4-6.3,16-9.2c5.4-9.4-1.9-21.3-9-29.6
			c-17.6-20.6-46.2-35.4-51.8-33.3c-0.2,0.1-0.3,0.1-0.3,0.6c0,5.3,8.4,12.8,15.1,18.7c7.1,6.3,13.2,11.8,13.4,16.9
			c0.1,1.7-0.6,3.4-1.8,4.6c-5.1,5.2-12,4-24.6,2C318.3,49.2,299.9,47.6,281.5,47.7z M78.3,345.1c-0.9,0-1.7-0.5-2.2-1.3
			c-15.5-29.9-23.9-61.6-23.8-89.2c0-4.5,0.2-9.1,0.6-13.6c1.9-23.6,8.4-47.1,19.4-70c10.9-22.6,25.4-43.4,42.9-61.3
			C152.7,70.9,200.5,47.7,250,44c45.4-3.3,71.7,1,87.3,3.6c12.1,2,17.1,2.7,20.3-0.6c0.3-0.3,0.5-0.6,0.5-1
			c-0.1-3-6.6-8.8-11.8-13.4c-8.2-7.3-16.6-14.8-16.7-22.3c-0.1-2.3,1.3-4.4,3.4-5.2c9.6-3.6,40.6,15.2,57.2,34.7
			c11.5,13.6,14.8,25.7,9.5,35.1c-1.3,2.5-3.2,4.8-5.4,6.5c-3.5,2.7-8.2,4.4-14.2,5.1c-9.1,1.2-21.5,0.1-36.8-3.1
			c24.1,12,44.2,26.9,60.1,44.6c26.8,29.8,41.6,67.7,44,112.5c0.2,4.6,0.4,9.3,0.4,13.9c-0.1,26.9-8.1,57.7-22.6,86.8
			c-0.4,0.8-1.3,1.4-2.2,1.3c-0.9,0-1.8-0.6-2.2-1.4c-7.9-17.3-22.3-24.5-30-28.3c-4.4-2.2-6.9-3.4-6.9-6c0-2.1,1.2-3.7,3-6
			c4.4-5.6,12.4-16,12.6-45.6c0-0.3,0-0.6,0-0.9c0-29.8-11.5-61.8-31.3-87.7c-19.1-25-43-39.9-63.8-39.9c-22.5,0-38,11.5-46.2,17.7
			c-3.7,2.7-5.5,4.1-7.3,4.1l0,0c-2.1,0-4.1-1.5-7.6-4.3c-7.9-6.1-22.5-17.5-47.2-17.5c-20.8,0-44.6,14.9-63.8,39.9
			c-19.9,26-31.4,58-31.3,87.7c0,0.2,0,0.5,0,0.7c0.2,29.3,9.4,42.1,13.8,48.2c1.8,2.4,2.9,4.1,2.9,5.8c0,2.5-2.4,3.8-6.8,6.1
			c-7.5,4.1-21.6,11.7-30,28.3C80.1,344.5,79.3,345,78.3,345.1L78.3,345.1z"/>
		<path id="Fill-9" class="st1" d="M195.7,126.8c-20.8,0-44.6,14.9-63.8,39.9c-19.9,26-31.4,58-31.3,87.7c0,0.2,0,0.5,0,0.7
			c0.2,29.3,9.4,42.1,13.8,48.2c1.8,2.4,2.9,4.1,2.9,5.8c0,2.5-2.4,3.8-6.8,6.1c-7.5,4.1-21.5,11.7-30,28.3
			c-3.6,7.3-5.4,15.4-5.2,23.5c0.1,3.2,0.7,6.4,1.9,9.4c7,18.3,31.8,41.4,63.3,58.8c37.1,20.5,78.5,31.1,116.4,30
			c72.8-2.1,146.6-48.1,164.1-87.8c2.3-5,3.6-10.3,3.7-15.8c0.1-7.1-1.3-14.1-4.1-20.6c-7.9-17.3-22.3-24.5-30-28.3
			c-4.4-2.2-6.9-3.4-6.9-6c0-2.1,1.2-3.7,3-6c4.4-5.6,12.4-16,12.6-45.6c0-0.3,0-0.6,0-0.9c0-29.8-11.5-61.8-31.3-87.7
			c-19.1-25-43-39.9-63.8-39.9c-22.5,0-38,11.5-46.2,17.7c-3.7,2.7-5.5,4.1-7.3,4.1l0,0c-2.1,0-4.1-1.5-7.6-4.3
			C235.1,138.1,220.5,126.8,195.7,126.8L195.7,126.8z M251.6,470.4c-37.2,0-77.3-10.8-113.4-30.7c-33-18.2-58.1-41.7-65.5-61.3
			c-1.4-3.5-2.2-7.3-2.3-11.1c-0.1-8.9,1.8-17.7,5.8-25.6c9.1-18,24-26,32-30.4c1.5-0.8,3.2-1.7,4-2.3c-0.4-0.7-1.1-1.7-1.8-2.6
			c-4.7-6.5-14.5-20.1-14.7-50.9v-0.8c0-30.8,11.8-63.8,32.3-90.7c20.1-26.2,45.4-41.9,67.7-41.9c26.4,0,41.9,12,50.2,18.5
			c1.4,1.2,3,2.3,4.6,3.3c1.6-0.9,3-2,4.5-3.1c8.7-6.5,25-18.6,49.1-18.6c22.3,0,47.6,15.6,67.6,41.9c20.5,26.8,32.3,59.9,32.3,90.7
			v1c-0.2,31.2-9.3,42.9-13.7,48.5c-0.6,0.8-1.2,1.6-1.8,2.5c0.8,0.5,2.5,1.4,4,2.1c8.3,4.1,23.6,11.8,32.3,30.6
			c3.1,7.1,4.7,14.8,4.5,22.6c-0.1,6.1-1.5,12.2-4.1,17.8c-8.9,20.3-32.4,42.7-62.8,60c-33.2,18.8-69.5,29.5-104.4,30.5
			C254.8,470.5,251.6,470.4,251.6,470.4z"/>
	</g>
	<rect x="126.5" y="177" class="st0" width="247" height="247"/>
</g>
</svg>
