<svg viewBox="0 0 4000 4000" xmlns="http://www.w3.org/2000/svg"><path d="m0 0h4000v4000h-4000z" fill="none"/><g stroke="#333" stroke-miterlimit="10" stroke-width="5"><path d="m2304.67 3292.92a204.73 204.73 0 0 1 -29.56-2.28c-50.77-7.42-115.16-32.27-196.86-76a25 25 0 0 1 23.59-44.09c75.45 40.37 136.18 64.12 180.5 70.6 28.93 4.23 49.75 1 61.88-9.64 13.61-11.92 12.39-33 8.83-72.39-4.17-46.12-9.36-103.53 19.78-169.51 22.06-50 60.82-97.58 106.32-130.66 24.68-17.94 50.48-31.1 76.69-39.12 29.15-8.92 58.11-11.24 86.08-6.92 34.55 5.35 69.21 20.88 97.6 43.73 32.6 26.24 54.08 59.73 62.13 96.86 6.59 30.41 4.83 66.52-4.71 96.6-12.26 38.65-36.7 66.29-68.82 77.83a102.94 102.94 0 0 1 -35 6c-49.4 0-90.4-33.45-95.84-38.08a25 25 0 1 1 32.42-38.06c.43.36 43.66 36.65 81.49 23.06 21.92-7.87 32.8-29.3 38.06-45.89 6.91-21.79 8.25-49 3.5-70.89-7.07-32.63-28.16-55.26-44.61-68.5-21.34-17.18-48.27-29.3-73.9-33.27-28.11-4.34-72.73-1.44-125.72 37.07-38.58 28.05-71.38 68.29-90 110.42-23.91 54.16-19.56 102.32-15.72 144.81 4 43.84 7.71 85.25-25.67 114.5-18.03 15.9-42.34 23.82-72.46 23.82z" fill="#f6e380"/><path d="m1580.05 3154.46a62.49 62.49 0 0 1 -62.49-62.27c-.35-95.35 34-193.09 99.3-282.65 56-76.83 132.08-142.11 208.64-179.11a62.5 62.5 0 1 1 54.39 112.57c-58.66 28.35-117.72 79.46-162 140.22-34.53 47.35-75.62 122-75.3 208.54a62.5 62.5 0 0 1 -62.27 62.73z" fill="#f6e380"/><path d="m1601 3260.17a72.37 72.37 0 0 1 -25.27-4.57c-21.18-7.88-38.24-24.19-50.7-48.49a150.3 150.3 0 0 1 -15.12-48.05 115.4 115.4 0 0 1 2.11-43.78c5.57-22 17.94-40.42 35.76-53.19a72.5 72.5 0 0 1 111 81.79 72.53 72.53 0 0 1 -57.78 116.29z" fill="#f7c394"/><path d="m1864.5 3526.24c-1.28 0-2.56 0-3.86-.08a95 95 0 0 1 -91.13-98.71c4.64-116.19 33.54-197 54.63-256 6.3-17.61 11.74-32.82 15.66-46.38a95 95 0 1 1 182.53 52.74c-5.55 19.23-12.22 37.88-19.28 57.62-18.85 52.7-40.21 112.44-43.69 199.59a95 95 0 0 1 -94.86 91.22z" fill="#f6e380"/><path d="m1910 3556.61a67.37 67.37 0 0 1 -21.26-3.45c-27.72-9.2-93.83-15.48-147.71.23a67.5 67.5 0 1 1 -37.78-129.61c46.2-13.47 92.28-15.49 122.79-14.82 39.22.86 76.58 6.57 105.2 16.06a67.51 67.51 0 0 1 -21.24 131.59z" fill="#f7c394"/><path d="m2135.37 3528.07a95 95 0 0 1 -94.76-89.56c-5-87.08-27.4-146.43-47.17-198.81-7.4-19.61-14.39-38.14-20.28-57.27a95 95 0 0 1 181.59-55.91c4.15 13.49 9.85 28.6 16.46 46.1 22.12 58.62 52.42 138.91 59.09 255a95 95 0 0 1 -89.4 100.29c-1.85.09-3.7.16-5.53.16z" fill="#f6e380"/><path d="m2090 3556.61a67.51 67.51 0 0 1 -21.25-131.61c28.62-9.49 66-15.2 105.2-16.06 30.51-.67 76.59 1.35 122.79 14.82a67.5 67.5 0 1 1 -37.74 129.63c-53.88-15.71-120-9.43-147.71-.23a67.41 67.41 0 0 1 -21.29 3.45z" fill="#f7c394"/><path d="m2411.42 3137.38a62.52 62.52 0 0 1 -62.26-68.8c5.42-53.52-18.62-122.19-65.95-188.39-44.74-62.6-107-117.39-162.44-143a62.5 62.5 0 1 1 52.42-113.47c37.53 17.33 76.84 43.49 113.66 75.63a638.57 638.57 0 0 1 98.05 108.15c65.71 91.92 97.19 189.11 88.63 273.68a62.51 62.51 0 0 1 -62.11 56.2z" fill="#f6e380"/><path d="m2396.8 3259.89a72.53 72.53 0 0 1 -58.59-115.27 72.5 72.5 0 0 1 109.6-83.72c18 12.46 30.73 30.63 36.68 52.55a115.44 115.44 0 0 1 2.88 43.75c-4.06 35.05-23.3 81.66-64.13 97.67a72.45 72.45 0 0 1 -26.44 5.02z" fill="#f7c394"/><path d="m2025.55 2468.72c55.31 3.41 93.41 43.63 127.17 80.31 39.32 42.72 80.12 104.46 119 245.31 39.4 142.77 45.88 220.06 45.88 292 0 153.62-140.68 305.09-320 306.63-175.53 1.51-319-153-319-306.63 0-72.8 12.64-145.29 62.27-292.31 48.16-142.67 92.57-200.23 125.82-235.11 37.52-39.33 90.03-94.43 158.86-90.2z" fill="#f6e380"/><path d="m1997.29 2512.77c41-.36 82.22 51.85 113.58 106.22 48.06 83.32 65.36 157.62 70.56 181.37 32.46 148.28 54.24 271.27-6 346.6-59.91 74.89-132.36 85.58-175.41 85.58-47.55 0-118.32-8.27-177.41-81.89-58.83-73.29-34.76-194.73 3.51-350.46 3.93-16 38.3-103.8 95.44-210.33 18.21-33.99 42.82-76.8 75.73-77.09z" fill="#f7c394"/><path d="m863.8 1836.78c-109.3 103.92-60.91 310.4 16.55 426.94 110.37 166.07 358.19 267.53 482.59 176 129.94-95.63 107.64-388.85-48.6-538.55-116.65-111.8-337.5-171.86-450.54-64.39z" fill="#f7c394"/></g><path d="m995.57 1954.6c-64.75 69.33-26.65 197.17 26.33 267.46 75.51 100.15 234.9 154.61 309.6 92.47 78-64.9 53.06-248.18-50.63-336.34-77.41-65.83-218.33-95.29-285.3-23.59z" fill="#ffc9a1"/><path d="m3133.19 1832.12c111.1 102 66.32 309.29-9.09 427.16-107.46 168-353.47 273.75-479.46 184.37-131.58-93.35-114.4-386.92 39.2-539.32 114.68-113.78 334.45-177.69 449.35-72.21z" fill="#f7c394" stroke="#333" stroke-miterlimit="10" stroke-width="5"/><path d="m3003.49 1952.22c66 68.19 30.1 196.68-21.65 267.88-73.75 101.45-232.17 158.69-307.94 97.86-79.14-63.53-57.39-247.22 44.75-337.18 76.26-67.16 216.64-99.08 284.84-28.56z" fill="#ffc9a1"/><path d="m2500.32 839c42.32-35.85-124.32-76-146.52-139.49-26.8-76.51 395.59 127.1 331.57 261.08-5 10.51-55.43 94-417.61-23.77 398.16 129.18 698.16 403.18 696.74 910.24-1.09 388.75-348.57 990.75-964.93 996.12-594.62 5.19-966-596.16-964.93-996.12 1.32-488.44 432.22-991 966.09-1028.56 319.41-22.45 464.56 50.1 499.59 20.5z" fill="#f6e380" stroke="#333" stroke-linecap="round" stroke-linejoin="round" stroke-width="5"/><path d="m1999.57 1320.55c19.15-.16 112.39-116.75 268-116.74 223.53 0 482 324.76 482.28 643.25.16 205.85-111.65 252-111.45 275.69.19 21.13 236.88 22.58 236.88 254.71 0 209.25-420.37 512-840.86 524.16-461.31 13.34-910.31-319.74-910.31-497.74 0-232.44 237-260.58 236.85-281.27s-111.76-76.15-111.93-275.55c-.26-318.49 259.27-643.25 482.47-643.25 172.43-.01 245.34 116.94 268.07 116.74z" fill="#ffcd98" stroke="#333" stroke-miterlimit="10" stroke-width="5"/><path d="m2598.46 2330.77c32.4-4.6 56 22.77 47.08 55.45-11.75 43.09-35 85.68-67.74 125.82q-11.18 13.73-23.87 27c-115.49 121.69-320.37 213.48-554.36 213.08-234 .4-438.88-91.39-554.37-213.08q-12.67-13.29-23.87-27c-32.77-40.14-56-82.73-67.74-125.83-8.9-32.67 14.68-60 47.08-55.44a4258.57 4258.57 0 0 0 1197.79 0z" fill="#3d0c0c"/><path d="m2001 2770.57h-3c-112.73 0-225.78-21.46-327-62.09-95.65-38.4-178.38-92.6-239.24-156.73-8.78-9.21-17.13-18.66-24.79-28.07-34.94-42.79-58.91-87.41-71.24-132.62-6-21.92-1.43-43.51 12.46-59.24 13.5-15.31 33.55-22.34 55-19.29a4240.21 4240.21 0 0 0 596.31 42.15 4238.47 4238.47 0 0 0 596.3-42.15c21.45-3.05 41.49 4 55 19.29 13.88 15.73 18.42 37.32 12.45 59.24-12.32 45.19-36.29 89.82-71.25 132.63-7.71 9.47-16.06 18.92-24.81 28.09-60.83 64.1-143.56 118.3-239.21 156.7-101.11 40.63-214.15 62.09-326.98 62.09zm-1.5-36.85c108.65.21 217.49-20.37 314.78-59.43 90.77-36.45 169-87.6 226.25-147.91 8.11-8.51 15.82-17.24 22.95-26 31.68-38.81 53.29-78.85 64.25-119 2.65-9.73 1-18.9-4.53-25.17-5.23-5.92-13.1-8.47-22.18-7.18a4275.86 4275.86 0 0 1 -1203 0c-9.08-1.29-17 1.26-22.18 7.18-5.53 6.27-7.18 15.44-4.53 25.17 11 40.19 32.57 80.24 64.24 119 7.07 8.68 14.78 17.41 22.93 26 57.27 60.34 135.5 111.49 226.27 147.93 96.85 38.89 205.16 59.44 313.29 59.44z" fill="#3d0c0c"/><path d="m2645.54 2386.21c-11.75 43.09-35 85.69-67.74 125.83q-36.18 5-72.45 9.29-6.66.81-13.33 1.58a4258.42 4258.42 0 0 1 -968 1.93q-8.94-1-17.87-2.06-42.43-4.94-84.78-10.74c-32.77-40.14-56-82.73-67.74-125.83-8.9-32.67 14.68-60 47.08-55.44q7.83 1.11 15.65 2.19 7.37 1 14.74 2a4258.54 4258.54 0 0 0 1153.33-2.23l10.13-1.41 3.94-.56c32.35-4.59 55.94 22.78 47.04 55.45z" fill="#fff"/><path d="m2553.93 2539.06c-48.1 50.68-111.69 96.17-186.44 132a795 795 0 0 1 -90.22 36.51c-84.24 28.31-178.35 44.76-277.7 44.59a874.36 874.36 0 0 1 -243.1-33.8s0 0 0 0a814.34 814.34 0 0 1 -94.37-33.52c-88-37.57-162.38-88.32-216.88-145.75q40.58 5.33 81.21 9.87c5.18.57 10.36 1.15 15.55 1.7a4257.87 4257.87 0 0 0 932.16-1.87q5.52-.62 11-1.25 34.43-3.96 68.79-8.48z" fill="#fff"/><path d="m1758.29 1403.06c154.89 18 266.48 208.75 250 376.77-16.38 167.34-162.69 342-329.88 323-151.8-17.3-250.26-186.22-253.5-328.16-4.31-190.16 160.84-391.67 333.38-371.61z" fill="#fff"/><ellipse cx="1768.83" cy="1790.92" fill="#ba70b1" rx="210.18" ry="180.94" stroke="#333" stroke-miterlimit="10" stroke-width="5" transform="matrix(.19046633 -.98169373 .98169373 .19046633 -326.31 3186.1)"/><ellipse cx="1779.83" cy="1823.1" rx="105.94" ry="118.46"/><ellipse cx="1833.61" cy="1726.3" fill="#fff" rx="40.43" ry="42.42" stroke="#333" stroke-miterlimit="10" stroke-width="5" transform="matrix(.33364233 -.94269974 .94269974 .33364233 -405.62 2878.73)"/><path d="m2234 1398.91c-154.54 20.68-262.79 213.36-243.4 381.08 19.3 167 168.63 339.1 335.47 317.13 151.47-19.94 247-190.55 247.73-332.52.98-190.16-167.66-388.73-339.8-365.69z" fill="#fff"/><ellipse cx="2230.21" cy="1786.89" fill="#ba70b1" rx="180.94" ry="210.18" stroke="#333" stroke-miterlimit="10" stroke-width="5" transform="matrix(.97822012 -.20757024 .20757024 .97822012 -322.43 502.04)"/><ellipse cx="2219.77" cy="1819.26" rx="105.94" ry="118.46" transform="matrix(.9998477 -.01745241 .01745241 .9998477 -31.41 39.02)"/><ellipse cx="2274.24" cy="1726.33" fill="#fff" rx="42.42" ry="40.43" stroke="#333" stroke-miterlimit="10" stroke-width="5" transform="matrix(.9367333 -.3500439 .3500439 .9367333 -460.46 905.49)"/><path d="m1784.05 2081.38c0 75.28 98.57 166.65 215.68 165.63 107.93-.94 213.18-91.24 213.18-165.41 0-59.68-124.17-112.16-213.18-111.39-82.63.72-215.68 40.57-215.68 111.17z" fill="#775a42"/><path d="m1134.51 2454.76c-97.43-32.35-195.32-102.51-254.16-191-77.46-116.54-125.85-323-16.55-426.94 45.17-42.94 107.55-59.13 173.62-56-.29 3.54-.55 7.07-.79 10.61-50.59 4.15-97.1 21.38-132.83 55.35-109.3 103.92-60.91 310.4 16.55 426.94 50.31 75.69 129.16 138 211.87 174.64.71 2.12 1.48 4.25 2.29 6.4z" opacity=".08"/><path d="m3124.1 2259.28c-60.69 94.85-165.55 169.87-268 201.12.78-1.77 1.53-3.53 2.26-5.3 88.21-36.93 173.43-104 225.78-185.82 75.41-117.87 120.19-325.17 9.09-427.16-35.38-32.48-80.71-48.9-129.86-52.74q-.23-5.24-.5-10.44c64.45-3.41 125.42 11.93 170.36 53.18 111.06 101.99 66.28 309.29-9.13 427.16z" opacity=".08"/><path d="m2212.91 2101.6c0 74.17-105.25 164.47-213.18 165.41-117.11 1-215.68-90.35-215.68-165.63a54.18 54.18 0 0 1 .71-8.78c9 72.83 103.62 155.38 215 154.41 102.38-.89 202.34-82.18 212.35-153.85a43.67 43.67 0 0 1 .8 8.44z" opacity=".1"/><path d="m1510.91 2523.35-4.79-.56q-42.43-5-84.78-10.75c-32.77-40.14-56-82.73-67.74-125.82-8.9-32.68 14.68-60 47.08-55.45 5.22.74 10.43 1.48 15.65 2.19l2.47.34c19.59 65.9 49.4 130.34 92.11 190.05z" opacity=".05"/><path d="m1735.54 2712q-38.07-12-73.46-27.2c-88-37.57-162.38-88.32-216.88-145.75q40.58 5.33 81.21 9.87l2.48.27c52.43 61.81 120.22 117.44 206.65 162.81z" opacity=".05"/><path d="m2645.54 2386.22c-11.75 43.08-35 85.68-67.74 125.82q-36.18 5-72.45 9.29-6.66.81-13.33 1.58l-3.14.36c42.55-59.77 72.34-124.18 92-190.06l3.48-.47 10.12-1.41 3.94-.56c32.43-4.6 56.02 22.77 47.12 55.45z" opacity=".05"/><path d="m2553.93 2539.06c-48.1 50.68-111.69 96.17-186.44 132a795 795 0 0 1 -90.22 36.52q-5.62 1.89-11.32 3.71c85.48-45.39 152.78-100.72 205.06-162.16l3.11-.34 11-1.26q34.45-3.95 68.81-8.47z" opacity=".05"/><g opacity=".1"><path d="m2333.57 957.05 1.81.51q-5.76-1.83-11.62-3.74 4.92 1.59 9.81 3.23z"/><path d="m2565.16 861.34c-53.4 62.41-211.81-40-531.22-17.54-533.87 37.53-942 531.82-943.3 1020.27-.3 106.94 28.59 233.52 78.72 353.81 58.8-73.84 151.53-99.67 178.59-114.16 7.94 8.57 13 14.51 13 18.89v.36a2 2 0 0 1 0 .26 3.42 3.42 0 0 1 -.44 1.09l-.17.28a9 9 0 0 1 -1.66 1.78l-.32.26a37.91 37.91 0 0 1 -6.52 4l-1.61.79c-3.74 1.83-8.36 3.82-13.67 6l-1.23.51c-5.39 2.24-11.47 4.71-18.08 7.49l-3.09 1.3c-4.16 1.77-8.51 3.65-13 5.67l-3.4 1.54-1.72.79c-1.73.79-3.48 1.61-5.24 2.44-2.35 1.12-4.74 2.27-7.15 3.46l-1.81.9-1.82.91c-1.21.6-2.44 1.23-3.67 1.87q-4.61 2.37-9.3 4.94c-.63.34-1.25.68-1.88 1q-3.77 2.08-7.56 4.31-1.9 1.1-3.81 2.25l-.11.06q-4.71 2.85-9.44 5.89l-1.91 1.24c-1.91 1.26-3.83 2.54-5.74 3.84-.64.43-1.27.87-1.91 1.32q-4.77 3.33-9.51 6.88-3.8 2.87-7.54 5.87-2.8 2.27-5.6 4.62c-.62.51-1.24 1-1.85 1.58l-1.84 1.6q-1.85 1.59-3.66 3.27l-1.82 1.67-1.81 1.69c-1.15 1.08-2.29 2.18-3.42 3.28l-1.95 1.93c-1.19 1.18-2.36 2.37-3.52 3.59l-1.74 1.83q-3.48 3.67-6.85 7.55-1.68 1.93-3.33 3.92l-1.65 2q-1.95 2.37-3.82 4.8-1.74 2.23-3.41 4.53l-.3.39-.54.75-.41.57c-.31.44-.62.89-.94 1.33-.57.8-1.14 1.59-1.7 2.39-.87 1.25-1.73 2.51-2.56 3.79-.13.18-.25.35-.36.53l-.57.85-.32.5-1 1.61-1 1.59c-.35.54-.69 1.09-1 1.64-1 1.69-2.07 3.4-3.08 5.13-.15.25-.29.5-.43.75q-1.49 2.58-2.92 5.22a.2.2 0 0 0 0 .08q-.74 1.35-1.44 2.7c-.46.86-.9 1.73-1.35 2.6l-.08.15c-76.27-147.6-117-302.56-116.59-435.33 1.32-488.45 432.22-991 966.09-1028.57 319.41-22.45 464.56 50.1 499.59 20.46 42.18-35.75-124.46-75.9-146.65-139.39-8.57-24.46 28.82-20.27 81.55 1.13-20-2.88-31 1.83-25.55 15.87 19.38 50.39 194.51 99.08 155.35 144.83z"/></g><path d="m1390.82 2108.61c0 3.67-23.81 15.25-36.41 20.62 4.23-2.41 6.58-4.54 6.58-6.6-.18-20.61-111.76-76.15-111.93-275.54v-.48c0-1.83 0-3.66 0-5.48v-.52q0-3 .1-5.95c10.27 177.4 141.49 254.34 141.66 273.95z" opacity=".05"/><path d="m1637.84 3250.1a72.31 72.31 0 0 1 -62.11 5.5c-21.18-7.88-38.24-24.19-50.7-48.49a150.3 150.3 0 0 1 -15.12-48.05 115.4 115.4 0 0 1 2.11-43.78 98.25 98.25 0 0 1 5.88-16.76 63 63 0 0 1 -.34-6.33c-.33-90.45 30.55-183 89.47-268.77l.85.32q15.11 5.84 30.49 11.32c-49.47 78.73-85.32 140.89-85 223.4-17 21.83-12.63 82.94.49 114.5 27.14 65.18 76.61 76.82 83.98 77.14z" opacity=".08"/><path d="m2644.33 2128.38c-12.95-5.65-34.48-16.28-34.45-19.77.16-18.89 121.63-90.8 139.95-254.23-2.45 199.63-111.6 244.95-111.4 268.37.02 1.98 2.12 3.79 5.9 5.63z" opacity=".05"/><path d="m1974.07 3510.34a67.43 67.43 0 0 1 -85.32 42.82c-27.72-9.2-93.83-15.48-147.71.23a67.52 67.52 0 0 1 -85.66-74.81 69.07 69.07 0 0 0 2 8.89 67.52 67.52 0 0 0 83.7 45.92c53.88-15.71 120-9.43 147.71-.23a67.51 67.51 0 0 0 88-54.08 67.09 67.09 0 0 1 -2.72 31.26z" opacity=".1"/><path d="m2342.66 3507.47a67.45 67.45 0 0 1 -83.7 45.92c-53.88-15.71-120-9.43-147.71-.23a67.51 67.51 0 0 1 -88-74.08 67.45 67.45 0 0 0 88 54.08c27.72-9.2 93.83-15.48 147.71.23a67.45 67.45 0 0 0 83.7-45.92 69.07 69.07 0 0 0 2-8.89 67 67 0 0 1 -2 28.89z" opacity=".1"/><path d="m2487.37 3157.2c-4.06 35.05-23.3 81.66-64.13 97.67a72.32 72.32 0 0 1 -61.24-3.87c10.47-1.34 56.85-14.72 82.77-77 13.12-31.56 17.35-93 .34-114.84.29-78.53-32-149-77.79-223.56q14.76-5.32 29.3-11c57.7 86.8 84.94 177.3 76.9 256.66-.19 1.87-.47 3.7-.81 5.51a96.49 96.49 0 0 1 11.77 26.77 115.44 115.44 0 0 1 2.89 43.66z" opacity=".08"/><g opacity=".08"><path d="m1959.44 3433.13c0 .63 0 1.27-.08 1.9q-.15 3.73-.58 7.39a67.23 67.23 0 0 0 -27.53-17.4c-28.62-9.49-66-15.2-105.2-16.06a459.31 459.31 0 0 0 -55.71 2.13c.2-3.39.43-6.74.68-10.07a462.82 462.82 0 0 1 55-2.06c39.22.86 76.58 6.57 105.2 16.06a67.16 67.16 0 0 1 28.22 18.11z"/><path d="m2229.17 3411a462.3 462.3 0 0 0 -55.17-2c-39.22.86-76.58 6.57-105.2 16.06a67.16 67.16 0 0 0 -27.8 17.69c-.15-1.39-.26-2.79-.34-4.2-.1-1.71-.2-3.4-.32-5.09a67.14 67.14 0 0 1 28.46-18.4c28.62-9.49 66-15.2 105.2-16.06a462.57 462.57 0 0 1 54.36 2q.4 4.95.81 10z"/></g><g opacity=".08"><path d="m1783.72 3308.76c48.55 44.14 110.63 75 179.06 82.49q-.87 7.27-1.54 14.83c-69-7.92-131.44-39.58-180-84.59q1.2-6.49 2.48-12.73z"/><path d="m2216.32 3319.91c-47.76 44.29-109.47 75.84-178.59 85.21q-.87-7.51-1.91-14.74c68.6-8.88 130-39.6 177.8-83q1.38 6.18 2.7 12.53z"/></g><path d="m2317.59 3086.38c0 153.62-140.68 305.09-320 306.63-175.53 1.51-319-153-319-306.63 0-10 .24-20.06.79-30.27 11.56 146.84 150.22 288.35 318.23 286.9 172.85-1.48 309.81-142.31 319.43-290.07.4 11.41.55 22.49.55 33.44z" opacity=".1"/><path d="m2175.41 3147c-59.91 74.88-132.36 85.57-175.41 85.57-47.55 0-118.32-8.27-177.41-81.89-27.71-34.52-37-79.73-35.13-134.17 1.64 43 12 79.3 35.13 108.17 59.09 73.62 129.86 81.89 177.41 81.89 43 0 115.5-10.69 175.41-85.57 25.37-31.72 36.2-71.88 37.82-118.83 1.77 58.18-7.88 107.37-37.82 144.83z" opacity=".08"/><path d="m2396.63 2824.52c-35 13.72-71 26-107.74 36.45q-8.25 2.36-16.56 4.59c-77.34 20.83-157.6 33.74-237.88 36.06-102.94 3-205.27-11.3-302.13-37.25q-6.52-1.76-13-3.57c-38.43-10.76-76-23.34-112.26-37.39q-10.86 15.81-20.44 31.9a1242.57 1242.57 0 0 0 121.21 42.21l1.17-1.73c-.18.64-.36 1.28-.53 1.92 103.84 30.14 214.56 47.13 326 43.91 88.47-2.56 176.94-18 261.49-42.69l1.36-.4a1195 1195 0 0 0 119.15-42q-9.23-16.05-19.84-32.01z" opacity=".1"/><g opacity=".2"><path d="m2352.6 3244.86c-21.27 18.38-65.08 13.14-91.57 9.31q5.26-7.34 10.07-14.94 5.79 1.14 11.24 1.94c26.64 3.89 46.4 1.46 58.83-7.25a71.17 71.17 0 0 0 11.43 10.94z"/><path d="m2711.22 3080.89a48.07 48.07 0 0 0 6.4-2.83 51.65 51.65 0 0 1 -21.4 14.83c-37.83 13.59-81.06-22.69-81.49-23.06a25 25 0 0 0 -23.13-5 24.27 24.27 0 0 1 2.89-4.19 25 25 0 0 1 35.24-2.82c.43.38 43.66 36.66 81.49 23.07z"/><path d="m2796.94 3050.12c-9.47 29.84-26.19 53.12-48.11 67.49 14.6-14.05 25.94-32.88 33.11-55.49 9.54-30.08 11.3-66.18 4.71-96.59-8.05-37.13-29.53-70.63-62.13-96.87-28.39-22.85-63.05-38.38-97.6-43.73-28-4.32-56.93-2-86.08 6.92-26.21 8-52 21.19-76.69 39.12-1.26.92-2.52 1.84-3.77 2.78q9.16-7.78 18.77-14.78c24.68-17.93 50.48-31.09 76.69-39.12 29.15-8.92 58.11-11.24 86.08-6.92 34.55 5.35 69.21 20.88 97.6 43.73 32.6 26.24 54.08 59.74 62.13 96.87 6.59 30.41 4.83 66.47-4.71 96.59z"/></g><path d="m2212.91 2081.6c0 74.17-105.25 164.47-213.18 165.41-117.11 1-215.68-90.35-215.68-165.63a55.09 55.09 0 0 1 .79-9.31c42.18 52.17 123.35 95.66 214.39 94.95 85.09-.67 168.69-45.29 211.9-97.87a45.3 45.3 0 0 1 1.78 12.45z" opacity=".2"/><path d="m1834.52 1427a214.27 214.27 0 0 0 -31.9-6.17c-175.15-20.17-342.8 182.73-338.41 374.18 2.47 107.25 59.36 229.79 152.7 291.65-116.4-48.78-189.2-190.33-192-312-4.33-190.11 160.82-391.59 333.36-371.55a217.6 217.6 0 0 1 76.25 23.89z" opacity=".05"/><path d="m2573.77 1764.6c-.66 123.27-72.75 268.13-190.88 317.21 95.29-61.62 152.08-188.08 152.66-297.55 1-190.6-168-389.61-340.57-366.52a211.81 211.81 0 0 0 -45.38 11.34c26-15.6 54.29-26.14 84.37-30.17 172.17-23.04 340.81 175.53 339.8 365.69z" opacity=".05"/><path d="m1862.25 1605.54q-6.51-1.85-13.25-3.16c-99.1-19.24-197.56 58.49-219.9 173.6-16.75 86.35 14.07 169.22 72.35 213.35-81.88-32-130.23-129.93-110.25-232.89 22.12-114 119.58-190.89 217.68-171.85a158.12 158.12 0 0 1 53.37 20.95z" opacity=".1"/><path d="m2295.09 1986.4c60.86-43.65 92.6-129.07 73.87-217.3-24.16-113.85-123.21-189.28-221.22-168.48a157.39 157.39 0 0 0 -17.52 4.78 158.17 158.17 0 0 1 56.34-24.11c97.76-20.75 196.54 54.48 220.65 168 22.3 105.1-27.16 206.17-112.12 237.11z" opacity=".1"/><path d="m2749.41 1798.06q0 9.7-.31 18.94c-15.7-308.54-265-613.19-481.5-613.19-155.64 0-248.88 116.58-268 116.74-22.73.2-95.64-116.74-268-116.74-215.85 0-465.69 303.73-481.65 611.81l-.18 3.62c0 1.22-.11 2.43-.16 3.65s-.1 2.42-.14 3.63q-.78-13.71-.81-28.46c-.26-318.49 259.27-643.25 482.47-643.26 172.41 0 245.31 117 268 116.75 19.15-.17 112.39-116.75 268-116.75 223.53.01 482.04 324.77 482.28 643.26z" opacity=".1"/><path d="m2875.31 2377.46c0 209.26-420.37 512-840.86 524.16-461.31 13.34-910.31-319.74-910.31-497.74q0-7.14.3-14c38.59 182.8 468.4 486 909.44 473.26 406.19-11.75 812.27-294.09 841-502.25q.43 8.11.43 16.57z" opacity=".08"/><path d="m2964.5 1847.07c-.36 127.74-38.12 278.51-110.54 423.57-58.2-126.52-215.38-130.67-215.53-147.89 0-3.44 2.3-7.34 6.3-12.14 29.88 12.38 135.89 21.8 193.55 102.09 59.3-132.15 86.52-259.16 86.84-374.86 1.43-510.11-312.88-784.54-713.42-914.5 35.09 11.39 34.68 6.38 56.06 13.48 398.16 129.18 698.16 403.18 696.74 910.25z" opacity=".1"/><g stroke="#333" stroke-linecap="round" stroke-linejoin="round" stroke-width="5" viewBox="0 0 4000 4000"><path d="m2598.2 2842.8a40.71 40.71 0 0 1 -4.61 19 168.28 168.28 0 0 0 -37.95 10.64 69.15 69.15 0 0 0 .92-12c-.13-14.19-4.44-27.11-11.46-36.94a209.39 209.39 0 0 1 40.32-10.41 46 46 0 0 1 3.56 4.13 41.88 41.88 0 0 1 9.22 25.58z" fill="#9400d3"/><path d="m2805.41 2992v3.41 1.28a201.41 201.41 0 0 1 -2.8 29c-.58 3.41-1.25 6.81-2 10.13-.2.9-.41 1.79-.63 2.68-.1.46-.22.91-.34 1.35-.15.65-.32 1.29-.49 1.93-.4 1.52-.82 3-1.26 4.51-.34 1.14-.69 2.28-1 3.41s-.79 2.45-1.21 3.66a142.18 142.18 0 0 1 -14 29.6 116.61 116.61 0 0 1 -10.19 13.94c-.19.25-.4.51-.62.75l-.34.38c-.59.68-1.17 1.34-1.78 2-1.06 1.16-2.13 2.28-3.23 3.38l-2 1.94c-.39.36-.77.73-1.16 1.08-.65.61-1.31 1.22-2 1.81h-.06c-.69.62-1.38 1.2-2.08 1.78s-1.3 1.08-2 1.6l-.78.62c-.48.37-1 .75-1.46 1.11q-1.79 1.35-3.62 2.59a97.14 97.14 0 0 1 -22.16 11.32 101.38 101.38 0 0 1 -15.35 4.18 71.06 71.06 0 0 1 -7.93-2.47c-17.93-6.8-30.86-20.48-33-37.57a39.61 39.61 0 0 1 .09-10.77c9.67 2.89 20.19 4.33 30.59 2.61 1.13-.18 2.26-.4 3.39-.67l.92-.22.39-.11c.47-.11.95-.24 1.42-.39s1-.31 1.58-.49.85-.29 1.3-.44q1.77-.64 3.45-1.41c.95-.41 1.87-.87 2.78-1.34.29-.15.59-.31.86-.48a.44.44 0 0 0 .18-.09c.25-.13.49-.26.72-.4a48.74 48.74 0 0 0 4.3-2.79c8-5.74 13.93-13.47 18.35-21.51l.66-1.22c.75-1.44 1.47-2.89 2.13-4.32s1.34-3 1.94-4.48c.45-1.11.87-2.21 1.27-3.3q.9-2.46 1.64-4.8c.1-.34.21-.67.31-1 .3-.94.57-1.89.83-2.86a139.23 139.23 0 0 0 4.5-24.64c.21-2.22.38-4.46.48-6.69 0-.64.07-1.29.09-1.94a3.93 3.93 0 0 0 0-.48c0-.77.06-1.56.06-2.34.05-2.11 0-4.21 0-6.29 0-1.08 0-2.16-.1-3.24 0-.81-.07-1.61-.13-2.4 0-.21 0-.41 0-.62a125.38 125.38 0 0 0 -2.52-18.57q-.84-3.87-1.94-7.54a2.58 2.58 0 0 0 -.08-.26c-.2-.73-.42-1.46-.66-2.16 0-.12-.08-.23-.11-.35-.21-.69-.45-1.35-.69-2-.07-.22-.15-.43-.23-.65-.23-.68-.48-1.34-.72-2-.3-.81-.61-1.6-.94-2.39s-.55-1.34-.83-2-.52-1.24-.79-1.84c-.19-.43-.38-.85-.59-1.27-.64-1.36-1.3-2.72-2-4s-1.44-2.75-2.19-4.07a124.4 124.4 0 0 0 -14.48-20.36c-.76-.87-1.51-1.72-2.25-2.54s-1.25-1.35-1.88-2c-2.08-2.18-4.16-4.24-6.21-6.15-.69-.65-1.38-1.27-2.05-1.87s-1.36-1.21-2-1.78-1.34-1.17-2-1.7-1.41-1.17-2.1-1.73a160.11 160.11 0 0 0 -21.17-14.38c-1.3-.75-2.62-1.47-3.94-2.18-1-.55-2-1.08-3.06-1.59l-.92-.47-2-1c-2.32-1.13-4.67-2.2-7-3.21-.95-.41-1.9-.81-2.85-1.19l-.84-.34c-1-.41-2-.78-3-1.16l-.17-.07c-.92-.35-1.85-.68-2.77-1l-.48-.18c-1.09-.39-2.21-.77-3.3-1.12a144.18 144.18 0 0 0 -22.53-5.46c-3.09-.48-6.2-.84-9.31-1.07-.87-.07-1.74-.14-2.62-.19-3.1-.19-6.19-.27-9.3-.22h-1.44l-2.19.07c-1.45 0-2.91.13-4.36.23l-2.19.17-2.39.22-2.38.26c-1.6.2-3.2.42-4.78.65a40.71 40.71 0 0 0 4.61-19 41.88 41.88 0 0 0 -9.22-25.52 46 46 0 0 0 -3.56-4.13c1.3-.21 2.6-.39 3.9-.58 1.12-.14 2.23-.28 3.33-.4l2.38-.25c1.3-.14 2.58-.26 3.88-.36l1.56-.13 1.68-.12c1.13-.07 2.25-.14 3.37-.18h.38c1.33-.06 2.67-.1 4-.13s2.77-.05 4.16-.05h.09 3.46l2.21.05 2.08.08 2.61.13q8.77.49 17.48 1.83a191.49 191.49 0 0 1 24.92 5.62q5.28 1.55 10.51 3.41c1 .36 2 .72 3.05 1.11s2.11.8 3.15 1.21l1.57.63c.52.21 1 .41 1.56.64q1.43.57 2.82 1.17 2.05.87 4.08 1.8l2.59 1.2c.59.26 1.17.54 1.74.82l2.24 1.09a212.57 212.57 0 0 1 29 17.32c.87.61 1.73 1.23 2.58 1.85q1.77 1.29 3.49 2.62c.24.17.47.35.7.54 1.14.86 2.25 1.73 3.36 2.63.56.44 1.1.9 1.65 1.35.7.57 1.4 1.16 2.09 1.74 1 .81 1.9 1.63 2.84 2.45l.13.1 2.51 2.25c1.11 1 2.21 2 3.28 3.07.84.78 1.66 1.57 2.46 2.36s1.68 1.68 2.51 2.53a178.69 178.69 0 0 1 19.08 23c.64.91 1.27 1.82 1.88 2.73.41.6.8 1.21 1.19 1.84 1 1.52 2 3 2.89 4.58.27.46.56.93.83 1.4.55.92 1.09 1.84 1.61 2.78q1.3 2.3 2.54 4.64c.53 1 1.05 2 1.56 3.07s1.15 2.34 1.7 3.52c.31.66.61 1.33.91 2q1.29 2.82 2.44 5.71a155.81 155.81 0 0 1 7.9 25.53c.55 2.6 1.06 5.24 1.49 7.92.22 1.28.42 2.57.61 3.87l.24 1.74c0 .16 0 .32.05.47.09.69.18 1.39.26 2.08s.19 1.65.27 2.5.16 1.47.21 2.21q.59 6.33.73 12.82v1.93c.12 1.01.12 2.09.12 3.09z" fill="#9400d3"/><g fill="#fff"><path d="m2633.23 2836a41.92 41.92 0 0 1 -8 24.65 129.43 129.43 0 0 0 -13.36-.4c-2.91.07-5.83.23-8.74.47l-2.39.22-2.38.26c-1.6.2-3.2.42-4.78.65a40.71 40.71 0 0 0 4.61-19 41.88 41.88 0 0 0 -9.22-25.52 46 46 0 0 0 -3.56-4.13c1.3-.21 2.6-.39 3.9-.58 1.12-.14 2.23-.28 3.33-.4l2.38-.25c1.3-.14 2.58-.26 3.88-.36l1.56-.13 1.68-.12c1.13-.07 2.25-.14 3.37-.18h.38c1.33-.06 2.67-.1 4-.13s2.77-.05 4.16-.05h.09 3.46l2.21.05 2.08.08 2.61.13a44.54 44.54 0 0 1 5.11 8.67 40.45 40.45 0 0 1 3.62 16.07z"/><path d="m2703.5 2847a40.64 40.64 0 0 1 -5.07 19.91 50.34 50.34 0 0 1 -11 13.69c-1.3-.75-2.62-1.47-3.94-2.18a164.06 164.06 0 0 0 -26.43-11.33 48.88 48.88 0 0 0 9.53-13 40.72 40.72 0 0 0 4.33-18.5 39.84 39.84 0 0 0 -1.78-11.41 41.51 41.51 0 0 0 -2.16-5.58q5.28 1.55 10.51 3.41a209.1 209.1 0 0 1 22.8 9.67 40 40 0 0 1 3.21 15.33z"/><path d="m2757 2872.53a39.73 39.73 0 0 1 -1.83 9.95c-4 12.69-14.25 23.51-28 30.32a142.34 142.34 0 0 0 -16.42-16 57.12 57.12 0 0 0 8.55-7.72c7.45-8.27 11.78-18.36 11.69-29.23 0-.62 0-1.25-.07-1.87a40 40 0 0 0 -1.52-8.9q5.19 3.66 10.13 7.64c.56.44 1.1.9 1.65 1.35a196.13 196.13 0 0 1 15.82 14.46z"/><path d="m2793.6 2927.8a48.36 48.36 0 0 1 -5.07 7.32c-8.52 10.22-21.65 17.86-37.1 21.1a107.42 107.42 0 0 0 -7.62-19c-.7-1.38-1.44-2.75-2.19-4.07 13.75-5.5 24.65-14.77 30.44-26a41.48 41.48 0 0 0 4-11.59q4.55 6.49 8.4 13.33a157.62 157.62 0 0 1 9.14 18.91z"/><path d="m2805.35 2996.73-.28.17a76 76 0 0 1 -38 10.15 79.26 79.26 0 0 1 -11.62-.73 153.46 153.46 0 0 0 .55-21c0-1-.09-2-.16-3 18.06-1.15 34-8.17 44.7-18.59.83-.82 1.63-1.63 2.4-2.49.22 1.28.42 2.57.61 3.87a193.1 193.1 0 0 1 1.8 31.62z"/><path d="m2802.55 3025.71a177.09 177.09 0 0 1 -5.77 24c-.39 1.23-.79 2.45-1.21 3.66-1.79.63-3.63 1.18-5.5 1.69a79.94 79.94 0 0 1 -19.91 2.65 79 79 0 0 1 -22.81-3.08c-1.75-.49-3.47-1.06-5.14-1.69l.66-1.22a102.7 102.7 0 0 0 7-16.9c.1-.34.21-.67.31-1 .3-.94.57-1.89.83-2.86a80.28 80.28 0 0 0 19 2.06 77.06 77.06 0 0 0 32.54-7.31z"/><path d="m2781.6 3083a115.81 115.81 0 0 1 -18.13 22.39 100.5 100.5 0 0 1 -13.09 10.62 70.6 70.6 0 0 1 -21.66-6.11c-12.38-5.82-21.83-15.13-26.13-26.59a51.57 51.57 0 0 0 9-2.32 49.31 49.31 0 0 0 12.29-6.51 69 69 0 0 0 14 6.52 78.61 78.61 0 0 0 26.05 4.11l2.41-.05a80.29 80.29 0 0 0 15.26-2.06z"/><path d="m2556.6 2860.5a69.15 69.15 0 0 1 -.92 12c-10.54 7.1-20.05 14.51-30 20.62 8.56-24.24-2-52.37-18.15-57 11.23-6.15 23.6-10.88 37.65-12.54 6.98 9.81 11.29 22.73 11.42 36.92z"/><path d="m2712.85 3131.49c-1.6.31-3.18.57-4.77.79l-1.95.26-1.09.12c-1.52.18-3 .31-4.54.4-.62.05-1.23.08-1.86.12-1.56.06-3.1.1-4.65.11-.21 0-.4 0-.61 0-4.13 0-21.9-.29-27.83-2.31-13.44-3.5-24.8-20.37-26.05-30.17-1.39-10.89 1.75-24.17 8.31-33.32 1.87 1.07 16.4 11.88 24.2 13.17a39.61 39.61 0 0 0 -.09 10.77c2.17 17.09 15.1 30.77 33 37.57a71.06 71.06 0 0 0 7.93 2.49z"/></g></g><g viewBox="0 0 4000 4000"/><g viewBox="0 0 4000 4000"><path d="m2243.6 3343.3a15.86 15.86 0 0 1 -15.74-14.62l-1.85-24.77a14.09 14.09 0 0 1 8.87-14.15l-18.86-252.74a9.45 9.45 0 0 1 -9.42-8.61l-1.8-24a9.22 9.22 0 0 1 4.7-8.74 9.53 9.53 0 0 1 4.14-1.28l4.15-.31c17.32-4.86 32-16.13 40.38-31-2.23-1.53-3.43-3.35-3.58-5.42-.2-2.66 1.37-5.16 4.66-7.43a139.63 139.63 0 0 1 -5.2-70.61s0-.06 0-.08a97.4 97.4 0 0 1 2.97-13.52c1.95-7.06 3.64-13.18 1.51-17.74a5 5 0 0 1 -2.26-3.93l-4-53.51a7.87 7.87 0 0 1 5.36-7.61 114.85 114.85 0 0 1 55.76-4.17 7.85 7.85 0 0 1 6.42 6.72l4 53.51a5.07 5.07 0 0 1 -1.65 4.24c-1.43 4.82 1.15 10.62 4.14 17.31a97.85 97.85 0 0 1 5 13 15 15 0 0 1 .41 1.93 140 140 0 0 1 4.6 69.31c3 1.68 4.64 3.76 4.82 6.19a7.1 7.1 0 0 1 -2.41 5.57c10.51 13.61 26.77 22.68 44.75 24.92l5.73-.43h.74a9.66 9.66 0 0 1 4.36 1 9.16 9.16 0 0 1 5.14 7.58l1.8 24a9.43 9.43 0 0 1 -7.66 9.85l19 253.39a14.08 14.08 0 0 1 9.12 12.16l1.85 24.77a15.8 15.8 0 0 1 -14.53 16.94l-164.2 12.28c-.43-.02-.8 0-1.22 0z" fill="#e8aa2d"/><path d="m2293.88 2779.81a112.18 112.18 0 0 1 19.09 1.64 5.38 5.38 0 0 1 4.36 4.45q2 26.76 4 53.51a2.55 2.55 0 0 1 -.94 2.27 1.87 1.87 0 0 0 -.56.87c-2.81 8.91 5.45 19.12 9.1 31.87a10.83 10.83 0 0 1 .35 1.67 1.28 1.28 0 0 0 .07.28 133.38 133.38 0 0 1 6.49 32.73 131.54 131.54 0 0 1 -2.06 36 1.67 1.67 0 0 0 .89 1.83c2.45 1.27 3.88 2.76 4 4.44.1 1.35-.65 2.7-2.1 4a1.69 1.69 0 0 0 -.27 2.27c10.73 14.27 27.65 24.12 47 26.51h.36l5.8-.43h.55a7.15 7.15 0 0 1 3.23.77 6.74 6.74 0 0 1 3.76 5.51l1.8 24a7 7 0 0 1 -6.54 7.34l-1.3.1 19.17 256.34a1.66 1.66 0 0 0 1.12 1.46 11.61 11.61 0 0 1 8 10.17l1.86 24.76a13.31 13.31 0 0 1 -12.27 14.26l-164.2 12.28c-.34 0-.67 0-1 0a13.29 13.29 0 0 1 -13.24-12.31l-1.86-24.77a11.6 11.6 0 0 1 7.79-11.82 1.69 1.69 0 0 0 1.13-1.71l-19-254.1a1.69 1.69 0 0 0 -1.69-1.56h-.12a5.24 5.24 0 0 1 -.56 0 6.92 6.92 0 0 1 -7-6.3l-1.8-24a6.77 6.77 0 0 1 3.46-6.38 6.92 6.92 0 0 1 3.08-.95l4.21-.32a2 2 0 0 0 .35-.06c18.63-5.21 33.82-17.33 42.34-32.89a1.7 1.7 0 0 0 -.65-2.26c-1.83-1.14-2.89-2.44-3-3.88-.14-1.86 1.34-3.74 4.07-5.5a1.68 1.68 0 0 0 .67-2 137.14 137.14 0 0 1 -5.29-70 .41.41 0 0 1 0-.11c1.71-13.15 8.36-24.48 4.26-32.87a1.72 1.72 0 0 0 -.69-.77 2.57 2.57 0 0 1 -1.26-2.11q-2-26.76-4-53.51a5.37 5.37 0 0 1 3.64-5 112.55 112.55 0 0 1 35.46-5.72m0-5a117.24 117.24 0 0 0 -37 6 10.33 10.33 0 0 0 -7.06 10.17l2 26.76 2 26.75a7.56 7.56 0 0 0 2.72 5.35c1.37 3.73-.15 9.2-1.88 15.48a99.56 99.56 0 0 0 -3.12 13.9 142.42 142.42 0 0 0 4.72 70.1c-3.71 3.13-4.37 6.28-4.21 8.5a9 9 0 0 0 2.84 5.81c-8.17 13.33-21.7 23.43-37.58 27.95l-3.89.29a12.22 12.22 0 0 0 -5.22 1.61 11.75 11.75 0 0 0 -5.94 11.09l1.8 24a11.93 11.93 0 0 0 9.58 10.69l18.62 248.91a16.6 16.6 0 0 0 -8.73 15.88l1.85 24.76a18.37 18.37 0 0 0 18.23 16.94c.46 0 .92 0 1.38-.05l164.2-12.29a18.31 18.31 0 0 0 16.88-19.61l-1.85-24.77a16.57 16.57 0 0 0 -9.23-13.66l-18.7-249.88a11.87 11.87 0 0 0 7.51-11.86l-1.8-24a11.67 11.67 0 0 0 -6.54-9.64 12.18 12.18 0 0 0 -5.45-1.29c-.3 0-.62 0-.92 0l-5.49.41c-16.53-2.13-31.52-10.22-41.58-22.39a8.9 8.9 0 0 0 1.67-5.78c-.15-2-1.11-4.78-4.54-7.21a142.79 142.79 0 0 0 -4.93-68.69 17.5 17.5 0 0 0 -.45-2 102.13 102.13 0 0 0 -5.15-13.29c-2.65-5.95-5-11.13-4.17-15a7.57 7.57 0 0 0 1.9-5.69l-2-26.76-2-26.75a10.3 10.3 0 0 0 -8.49-9 117.64 117.64 0 0 0 -19.94-1.71z" fill="#333"/><path d="m2387.55 3021.72 19.18 256.34a5 5 0 0 0 3.45 4.45 8.19 8.19 0 0 1 5.62 7.19l1.85 24.76a9.89 9.89 0 0 1 -9.12 10.6l-33.79 2.53a9.91 9.91 0 0 0 9.13-10.6l-1.85-24.77a8.22 8.22 0 0 0 -5.62-7.19 5 5 0 0 1 -3.46-4.44l-19.17-256.34a3.41 3.41 0 0 1 3.14-3.66l1.3-.1a3.54 3.54 0 0 0 3.39-3.67l-1.79-24a3.38 3.38 0 0 0 -1.93-2.76 3.82 3.82 0 0 0 -2-.37l-5.81.43a4.36 4.36 0 0 1 -1 0c-19.85-2.45-37.82-12.61-49.27-27.83a5.11 5.11 0 0 1 .71-6.87 4 4 0 0 0 1-1.21c-.06-.17-.57-.86-2.16-1.67a5.12 5.12 0 0 1 -2.68-5.56 134.14 134.14 0 0 0 -4.32-66.92 5.16 5.16 0 0 1 -.21-.92 7.88 7.88 0 0 0 -.26-1.19 95 95 0 0 0 -4.73-12.18c-3.37-7.53-6.55-14.66-4.34-21.65a5.37 5.37 0 0 1 1.33-2.19l-4-53.17a2.08 2.08 0 0 0 -1.55-1.35c-3.2-.56-6.44-1-9.69-1.23a109.27 109.27 0 0 1 43.47-1.3 2.12 2.12 0 0 1 1.55 1.35l4 53.17a5.34 5.34 0 0 0 -1.34 2.19c-2.21 7 1 14.13 4.34 21.65a94.52 94.52 0 0 1 4.73 12.19 7.75 7.75 0 0 1 .26 1.18 5.16 5.16 0 0 0 .21.92 134.14 134.14 0 0 1 4.32 66.92 5.12 5.12 0 0 0 2.68 5.56 4.94 4.94 0 0 1 2.16 1.67 3.45 3.45 0 0 1 -1 1.21 5.11 5.11 0 0 0 -.71 6.87c11.45 15.23 29.42 25.38 49.27 27.84a5 5 0 0 0 1 0l5.81-.43a3.84 3.84 0 0 1 2 .38 3.38 3.38 0 0 1 1.92 2.76l1.8 24a3.54 3.54 0 0 1 -3.4 3.67l-1.3.1a3.42 3.42 0 0 0 -3.12 3.64z" fill="#b58024" opacity=".8"/><path d="m2244.33 3337.34a9.91 9.91 0 0 1 -10.59-9.12l-1.85-24.77a8.17 8.17 0 0 1 5.49-8.34 5.1 5.1 0 0 0 3.42-5.2l-19-254.09a5.11 5.11 0 0 0 -5.47-4.71 3.55 3.55 0 0 1 -3.9-3.13l-1.79-24a3.36 3.36 0 0 1 1.74-3.17 3.8 3.8 0 0 1 1.64-.51l4.22-.31a5.78 5.78 0 0 0 1-.18c19.14-5.35 35.32-17.94 44.42-34.54a5.14 5.14 0 0 0 -1.85-6.81c-1-.63-1.36-1.12-1.4-1.25s.57-1.09 2.52-2.36a5.06 5.06 0 0 0 2-6 133.6 133.6 0 0 1 -5.15-68.19 2.34 2.34 0 0 0 0-.26s0-.09 0-.13a93.4 93.4 0 0 1 2.88-12.69c2.2-8 4.28-15.47 1.06-22.06a5.45 5.45 0 0 0 -1.64-2l-4-53.18a2.06 2.06 0 0 1 1.32-1.55 109.19 109.19 0 0 1 52.89-4 2.11 2.11 0 0 1 1.53 1.34l4 53.19a5.22 5.22 0 0 0 -1.33 2.18c-2.2 7 1 14.12 4.33 21.66a90.57 90.57 0 0 1 4.75 12.18 9 9 0 0 1 .25 1.19 4.47 4.47 0 0 0 .21.91 133.84 133.84 0 0 1 4.32 66.92 5.13 5.13 0 0 0 2.68 5.56c1.59.82 2.11 1.5 2.16 1.68a3.56 3.56 0 0 1 -1 1.21 5.08 5.08 0 0 0 -.71 6.85c11.46 15.24 29.42 25.39 49.27 27.85a5.07 5.07 0 0 0 1 0l5.81-.43a3.79 3.79 0 0 1 2 .38 3.34 3.34 0 0 1 1.92 2.75l1.8 24a3.55 3.55 0 0 1 -3.28 3.79l-1.3.09a3.42 3.42 0 0 0 -3.15 3.66l19.18 256.34a5.05 5.05 0 0 0 3.46 4.46 8.17 8.17 0 0 1 5.62 7.17l1.85 24.77a9.89 9.89 0 0 1 -9.12 10.59z" fill="#fff" opacity=".1"/><path d="m2335.84 2909.1q.3 3.89.36 7.7a236.87 236.87 0 0 0 -80.81 6.58q-.54-4-.85-8.2a132.16 132.16 0 0 1 1.92-35.23s0-.07 0-.11c1.71-13.15 8.36-24.47 4.25-32.87a1.64 1.64 0 0 0 -.68-.77 2.61 2.61 0 0 1 -1.27-2.11l-4-53.51a5.38 5.38 0 0 1 3.65-5 112.71 112.71 0 0 1 54.55-4.08 5.38 5.38 0 0 1 4.36 4.45l4 53.51a2.56 2.56 0 0 1 -.94 2.27 1.77 1.77 0 0 0 -.56.86c-2.81 8.92 5.45 19.13 9.11 31.88a16 16 0 0 1 .34 1.67 2.3 2.3 0 0 0 .06.28 133 133 0 0 1 6.51 32.68z" fill="#141414"/><path d="m2392.2 3037.6 17.38 232.31q-86 10-172.68 13l-17.38-232.31q86.52-2.97 172.68-13z" fill="#00bfbf"/><path d="m2392.2 3037.6 17.38 232.31q-86 10-172.68 13l-17.38-232.31q86.52-2.97 172.68-13z" fill="#141414"/><path d="m2283.1 2840.9c4.15 9-2.44 21.14-4.08 35.23v.11a151.12 151.12 0 0 0 -1.73 37.77c.12 1.59.26 3.16.42 4.73q-11.23 1.76-22.31 4.63-.54-4-.85-8.2a132.16 132.16 0 0 1 1.92-35.23s0-.07 0-.11c1.71-13.15 8.36-24.47 4.25-32.87a1.64 1.64 0 0 0 -.68-.77 2.61 2.61 0 0 1 -1.27-2.11l-4-53.51a5.38 5.38 0 0 1 3.65-5 110.83 110.83 0 0 1 18.47-4.42l4.24 56.69a2.84 2.84 0 0 0 1.28 2.28 1.81 1.81 0 0 1 .69.78z" fill="#3d3d3d"/><path d="m2253.6 3049.2 17.39 232.31q-17.05.88-34.13 1.47l-17.38-232.31q17.07-.58 34.12-1.47z" fill="#3d3d3d"/><path d="m2492.28 3153.76c0-.46.09-.93.12-1.38.07-.65.12-1.3.14-1.94q.09-1.47.15-2.91c0-.63 0-1.24.07-1.85s0-1.51 0-2.27c0-1.36 0-2.72 0-4.07s-.11-2.67-.18-4a.29.29 0 0 1 0-.13c-.08-1.3-.18-2.6-.33-3.89-.06-.57-.11-1.13-.17-1.7-.1-.76-.19-1.5-.28-2.26-.08-.51-.15-1-.23-1.53 0-.24-.07-.45-.11-.69-.09-.56-.17-1.11-.27-1.67-.13-.73-.26-1.45-.4-2.17-.08-.44-.18-.87-.26-1.31-.29-1.4-.61-2.79-1-4.15-.15-.64-.32-1.27-.49-1.89s-.34-1.24-.52-1.86-.36-1.22-.56-1.84-.38-1.23-.58-1.84c-.62-1.82-1.28-3.63-2-5.4l-.47-1.18c-.57-1.38-1.18-2.74-1.8-4.09a97.66 97.66 0 0 0 -22.44-30.55 77.73 77.73 0 0 0 -128.67 73.11 77.76 77.76 0 0 0 2.6 111.77c.72.67 1.44 1.32 2.18 1.94s1.5 1.25 2.26 1.86l1.07.84c1.46 1.11 3 2.17 4.5 3.18.53.36 1.07.69 1.61 1 1.09.68 2.21 1.34 3.34 2 .53.3 1.07.6 1.62.87l.11.06c.38.21.78.41 1.17.61l2.12 1c.67.33 1.33.62 2 .9.27.12.55.25.85.36.5.22 1 .42 1.52.62l.34.13 1 .39 1.76.62c.39.14.79.26 1.19.39s1.06.35 1.6.51l.83.25c.66.19 1.34.39 2 .55l.26.07c.64.17 1.26.32 1.9.47s1.31.3 2 .42l1.63.32 1.22.2.49.08c.43.09.88.15 1.31.21a77.43 77.43 0 0 0 28.83-1.37 83.35 83.35 0 0 0 10.42-3.2s0 0 0 0a83.86 83.86 0 0 0 9.74-4.39c1.25-.65 2.49-1.34 3.71-2 1.22-.71 2.41-1.45 3.59-2.22 1.18-.75 2.35-1.54 3.5-2.37a103.31 103.31 0 0 0 11.4-9.36q2.28-2.16 4.5-4.47c1-1 1.93-2.05 2.85-3.09q3.49-3.94 6.68-8.15c.86-1.12 1.69-2.25 2.5-3.38s1.6-2.31 2.37-3.47c1.18-1.74 2.3-3.5 3.38-5.28.36-.59.71-1.18 1.07-1.79.71-1.19 1.39-2.38 2.06-3.58s1.33-2.42 2-3.63l.94-1.82q2.33-4.56 4.3-9.14c.8-1.84 1.54-3.66 2.25-5.48.25-.61.48-1.22.7-1.82.48-1.22.92-2.43 1.33-3.63.64-1.79 1.24-3.6 1.79-5.36.75-2.39 1.42-4.72 2-7a137.06 137.06 0 0 0 3.45-17.89c.16-1.47.33-2.88.44-4.27z" fill="#f7c394" stroke="#333" stroke-miterlimit="10" stroke-width="5"/><path d="m2491.58 3153.28a139.12 139.12 0 0 1 -2.52 18c-.47 2.33-1 4.7-1.63 7.12-.47 1.8-1 3.63-1.51 5.46-.36 1.22-.74 2.45-1.13 3.69-.2.61-.39 1.24-.6 1.86q-.93 2.78-2 5.58c-1.17 3.13-2.44 6.24-3.81 9.36-.28.62-.56 1.25-.85 1.86-.57 1.24-1.15 2.49-1.76 3.73s-1.23 2.46-1.87 3.69l-1 1.84c-1 1.84-2 3.65-3.09 5.45-.72 1.2-1.46 2.4-2.19 3.59s-1.53 2.34-2.31 3.5q-3 4.38-6.25 8.5c-.88 1.09-1.78 2.17-2.69 3.23q-2.09 2.41-4.25 4.7a110.26 110.26 0 0 1 -10.89 9.95s0 0 0 0c-1.1.87-2.22 1.71-3.36 2.55-1.14.83-2.29 1.62-3.47 2.42-1.18.77-2.38 1.52-3.59 2.25a91.39 91.39 0 0 1 -9.5 4.89 85.57 85.57 0 0 1 -10.25 3.73 77.52 77.52 0 0 1 -28.72 2.89l-1.34-.12-.49-.06-1.23-.14-1.64-.23-2-.31c-.65-.12-1.28-.23-1.92-.37l-.26-.05c-.68-.13-1.36-.29-2-.45-.27-.07-.55-.14-.85-.2l-1.62-.43c-.4-.11-.81-.21-1.21-.33l-1.79-.53-1-.33-.34-.12c-.52-.17-1-.34-1.55-.53-.3-.1-.59-.21-.87-.32-.69-.24-1.36-.5-2-.79s-1.45-.6-2.16-.9l-1.21-.55h-.11c-.56-.25-1.12-.51-1.66-.79-1.16-.57-2.32-1.17-3.44-1.79-.56-.31-1.11-.61-1.67-.94q-2.39-1.4-4.66-2.94l-1.11-.78c-.79-.57-1.58-1.15-2.35-1.74s-1.53-1.19-2.28-1.83c.53.08 1.07.13 1.6.17a77.76 77.76 0 0 0 28.72-2.88c45.31-13.33 70.35-61.63 78-98.94 5.91-28.71 5.89-76.62-5.91-98.76a77.61 77.61 0 0 1 13.82 9.17 97.78 97.78 0 0 1 24 29.33c.7 1.32 1.37 2.64 2 4l.54 1.16c.8 1.73 1.55 3.5 2.26 5.29.23.6.47 1.2.68 1.8s.45 1.21.66 1.81l.62 1.83c.2.62.4 1.23.59 1.86.42 1.34.81 2.71 1.17 4.1.11.43.23.86.33 1.29.18.71.34 1.42.51 2.15.13.55.24 1.1.36 1.65.05.23.09.45.14.68.11.51.21 1 .31 1.52.13.75.27 1.49.4 2.24.09.56.17 1.12.27 1.69.2 1.28.37 2.57.52 3.87a.69.69 0 0 0 0 .13c.14 1.32.28 2.65.39 4s.19 2.71.25 4.06c0 .76.06 1.51.09 2.27v1.85 2.92 1.94c0 .45 0 .92-.05 1.39-.09 1.31-.17 2.72-.27 4.14z" opacity=".08"/></g><g viewBox="0 0 4000 4000"><path d="m1781.82 3416.32c-34 0-52.36-3.71-56-11.34-1-2.07-1.42-5.44 2.09-9.78a80.87 80.87 0 0 1 26.31-20.84c8.5-4.26 17.27-6.81 23.45-6.81a16.91 16.91 0 0 1 2.78.21 4.42 4.42 0 0 1 3.64 5.08c-1.2 7.16 9.65 23.24 15.47 31.88 1.14 1.69 2.15 3.2 3 4.46a4.41 4.41 0 0 1 -3.56 6.82c-3.87.15-10 .33-17.2.33z" fill="#4cc17b"/><path d="m1777.68 3370.05a14.11 14.11 0 0 1 2.37.18 1.9 1.9 0 0 1 1.58 2.2c-1.59 9.53 13.23 29.49 18.81 38.11a1.91 1.91 0 0 1 -1.52 2.95c-3.56.14-9.77.33-17.1.33-25.32 0-63.92-2.3-52-17 14.77-18.19 37.28-26.73 47.82-26.73m0-5c-11.84 0-35.7 8.87-51.7 28.58-4.34 5.34-3.7 9.7-2.41 12.42 2.66 5.58 10.22 8.95 24.51 10.92a255.59 255.59 0 0 0 33.74 1.85c7.24 0 13.4-.18 17.3-.34a6.91 6.91 0 0 0 5.52-10.66c-.84-1.29-1.84-2.77-3-4.49-4.82-7.16-16.11-23.9-15.08-30.07a6.92 6.92 0 0 0 -5.69-8 18.6 18.6 0 0 0 -3.19-.25z" fill="#333"/><path d="m1883.65 3524.72c-71.73 0-161.63-7.5-208.84-12-30.76-2.91-60.32-6.14-83.23-9.07-34.66-4.45-35.84-5.74-36.7-6.68-1.37-1.5-3.14-3.81-2.7-6.48.49-3 3.35-4.62 6.65-6.46 1-.53 1.93-1.07 2.92-1.68 3.9-2.4 16.12-5.65 33-10 7.38-1.9 14.36-3.69 17.64-4.8 3.06-1 7.57-2.45 12.8-4.08 14.27-4.45 38.16-11.91 42.14-15.34 2.16-1.86 9.23-5.69 22.6-12.85 20.52-11 51.35-27.51 73.53-43.18a8 8 0 0 1 1.79-4.15c1.73-2.23 5.08-4.63 8.35-4.63a6 6 0 0 1 2.18.4c13.51 5.45 45.34 13.26 94.17 18.86a297.11 297.11 0 0 0 33.82 1.87c21.58 0 42.58-2.21 53.51-5.63a12.27 12.27 0 0 1 3.58-.66 4.13 4.13 0 0 1 3.93 2.09c.91 1.69.35 3.75-.38 5.32 19.87 20.16 21.27 64.82 18.87 99.15-.6 8.56-11.57 19.95-99.55 19.95z" fill="#57ea93"/><path d="m1773.55 3385.87a3.33 3.33 0 0 1 1.24.22c13.93 5.62 46.55 13.49 94.82 19a301.77 301.77 0 0 0 34.11 1.88c23.5 0 44.09-2.57 54.26-5.75a9.86 9.86 0 0 1 2.83-.54c4 0 .43 5.37.43 5.37 18.53 17 22.4 56.94 19.49 98.52-.9 13-41.42 17.62-97 17.62-124 0-323.32-22.93-327-26.91-5.26-5.76.19-7 6.33-10.8s40.92-11.44 50.08-14.54c12.44-4.22 50-14.91 55.77-19.9s62.32-31.86 97.06-56.68c-.81-3.17 4.12-7.52 7.58-7.52m0-5c-4.13 0-8.17 2.81-10.33 5.59a11.22 11.22 0 0 0 -2.1 4.24c-22 15.41-52.22 31.6-72.42 42.42-13.9 7.46-20.69 11.13-23.06 13.17-3.58 3.09-29 11-41.25 14.85-5.24 1.63-9.77 3-12.85 4.09s-10.13 2.86-17.46 4.75c-17.59 4.52-29.43 7.68-33.64 10.27-1 .58-1.9 1.11-2.82 1.62-3.55 2-7.22 4-7.91 8.24s2.33 7.48 3.32 8.57c1.49 1.63 2.66 2.91 38.23 7.48 22.94 2.94 52.52 6.16 83.32 9.08 47.25 4.47 137.26 12 209.1 12 29.93 0 53.43-1.35 69.84-4 9.41-1.52 16.48-3.44 21.62-5.86 6.67-3.14 10.23-7.32 10.58-12.41 2.39-34.21 1-78.58-18.46-99.91a7.66 7.66 0 0 0 -.31-5.92 6.62 6.62 0 0 0 -6.14-3.41 14.57 14.57 0 0 0 -4.33.77c-8.77 2.75-28.49 5.52-52.76 5.52a294.51 294.51 0 0 1 -33.54-1.85c-48.58-5.57-80.16-13.31-93.52-18.69a8.24 8.24 0 0 0 -3.11-.59z" fill="#333"/><path d="m1685.3 3463.5a61.69 61.69 0 0 1 -20.58-3.15c-4.28-1.52-8.91-3.47-9.69-7.37-.53-2.69-2-9.83 48-37.54 25.2-14 54-27.66 65.51-31.17a18.2 18.2 0 0 1 5.28-.78c6.74 0 12.75 3.74 18 7 1.2.74 2.37 1.47 3.53 2.15l2.35 1.35c10.67 6.08 18.69 11.15 16.91 16.33-3.18 9.41-79.28 53.18-129.31 53.18z" fill="#4cc17b"/><path d="m1773.79 3386c7.44 0 14.09 5.23 20.31 8.86s19.56 10.61 18.15 14.7c-2.59 7.53-77.21 51.45-127 51.45a59 59 0 0 1 -19.74-3c-4.23-1.5-7.6-3.11-8.07-5.49-2.36-11.89 89.79-59.16 111.77-65.83a15.62 15.62 0 0 1 4.56-.68m0-5a20.83 20.83 0 0 0 -6 .89c-11.67 3.55-40.66 17.33-66 31.38a365.34 365.34 0 0 0 -33.87 20.81c-12 8.58-16.4 14.2-15.37 19.4 1.12 5.62 7.74 8 11.3 9.24a64.31 64.31 0 0 0 21.42 3.29c29.49 0 64.86-14.65 83.32-23.38a309.33 309.33 0 0 0 32.43-17.64c14.38-9.15 15.46-12.3 16-13.81 2.6-7.55-7.89-13.53-18-19.31-.85-.48-1.64-.93-2.33-1.34-1.12-.65-2.26-1.36-3.46-2.11-5.58-3.48-11.91-7.43-19.37-7.43z" fill="#333"/><path d="m1791.43 3519.63c-132.41 0-228.19-24.88-235.82-33.12l-1.09-1.18.62-1.48c.1-.25.2-.55.31-.87.6-1.83 1.87-5.63 5.72-5.63a6.31 6.31 0 0 1 1.57.22c51.87 14.09 131.17 21.23 235.7 21.23 95.21 0 178.11-6.21 182.14-6.72a5.49 5.49 0 0 1 1.26-.15 4.55 4.55 0 0 1 3.7 1.83c1.24 1.69 1.38 4.13.41 7.26l-.45 1.45-1.5.27a1110.08 1110.08 0 0 1 -192.57 16.89z" fill="#999"/><path d="m1561.17 3479.85a3.48 3.48 0 0 1 .91.14c61.61 16.73 154 21.31 236.36 21.31 97.82 0 181.5-6.47 182.63-6.76a3 3 0 0 1 .77-.11c1.74 0 3 1.72 1.72 5.85a1106.87 1106.87 0 0 1 -192.13 16.85c-135.93 0-227.67-25.5-234-32.32.66-1.59 1.2-5 3.72-5m0-5c-5.66 0-7.43 5.33-8.1 7.34-.08.25-.19.57-.24.7l-1.23 3 2.18 2.35c.89 1 3.63 3.93 22.39 9.34a480.32 480.32 0 0 0 48.79 10.91c35.15 6.24 92.57 13.68 166.47 13.68a1112.09 1112.09 0 0 0 193-16.93l3-.53.91-2.91c1.22-3.93 1-7.12-.79-9.48a7 7 0 0 0 -5.71-2.85 8.07 8.07 0 0 0 -1.68.18c-5.58.63-87.51 6.69-181.72 6.69-104.31 0-183.39-7.11-235-21.14a8.61 8.61 0 0 0 -2.22-.31z" fill="#333"/><path d="m1788.51 3563c-79.51 0-216.85-4.19-243.35-32.25l-.41-.43-.17-.57c-4.27-14.35.48-39.14 11-43.9l1-.46 1 .45c49.38 21.75 190.22 24.1 248.49 24.1 70.85 0 140.39-3.18 177.16-8.1l2.46-.33.35 2.45c.74 5.08 1.11 28.46-.79 41.55a10.89 10.89 0 0 1 -9.18 9.25c-25.77 4-107.3 8.24-187.58 8.24z" fill="#e6e6e6"/><path d="m1556.61 3488.09c40.73 17.94 149.09 24.31 249.49 24.31 73.14 0 142.05-3.38 177.5-8.12.71 4.95 1.08 27.94-.79 40.83a8.48 8.48 0 0 1 -7.09 7.14c-24.09 3.72-103.13 8.21-187.21 8.21-105.28 0-218.47-7-241.53-31.47-4.23-14.22 1.22-37.1 9.63-40.9m0-5.47-2 .92c-11.73 5.3-17 31.32-12.37 46.88l.34 1.14.82.87c11.57 12.24 42 20.89 93 26.43 39.8 4.32 92.4 6.6 152.14 6.6 80.4 0 162.11-4.27 188-8.27a13.41 13.41 0 0 0 11.27-11.36c2-13.54 1.56-36.94.78-42.27l-.71-4.89-4.9.65c-36.67 4.91-106.08 8.08-176.83 8.08-54.7 0-105.42-1.87-146.7-5.41-48.47-4.15-82.38-10.37-100.78-18.48l-2-.89z" fill="#333"/><path d="m1982.8 3545.1a8.47 8.47 0 0 1 -7.09 7.14c-54.26 8.39-387.25 20.68-428.74-23.25a46 46 0 0 1 -1.08-17.8c47.28 42.61 376.17 30.4 430.24 22.05a8.52 8.52 0 0 0 7.13-7.19c.5-3.43.58-11.25.69-17.06.41 8.78.36 25.72-1.15 36.11z" fill="#e6e6e6"/><path d="m1982.8 3545.1a8.47 8.47 0 0 1 -7.09 7.14c-54.26 8.39-387.25 20.68-428.74-23.25a46 46 0 0 1 -1.08-17.8c47.28 42.61 376.17 30.4 430.24 22.05a8.52 8.52 0 0 0 7.13-7.19c.5-3.43.58-11.25.69-17.06.41 8.78.36 25.72-1.15 36.11z" opacity=".1"/><path d="m2216.8 3416.3c-7.2 0-13.33-.18-17.2-.33a4.42 4.42 0 0 1 -3.53-6.81c.82-1.27 1.84-2.77 3-4.46 5.83-8.64 16.67-24.72 15.48-31.88a4.42 4.42 0 0 1 3.63-5.08 17 17 0 0 1 2.78-.21c6.18 0 15 2.55 23.45 6.81a80.66 80.66 0 0 1 26.31 20.84c3.52 4.34 3.08 7.71 2.1 9.78-3.67 7.63-21.98 11.34-56.02 11.34z" fill="#4cc17b"/><path d="m2220.89 3370.05c10.55 0 33.06 8.54 47.82 26.73 12 14.74-26.63 17-51.95 17-7.33 0-13.55-.19-17.1-.33a1.92 1.92 0 0 1 -1.53-2.95c5.58-8.62 20.4-28.58 18.81-38.11a1.91 1.91 0 0 1 1.59-2.2 14.07 14.07 0 0 1 2.36-.18m0-5a18.6 18.6 0 0 0 -3.19.25 6.92 6.92 0 0 0 -5.69 8c1 6.17-10.26 22.92-15.08 30.07-1.16 1.72-2.16 3.2-3 4.49a6.91 6.91 0 0 0 5.53 10.66c3.89.16 10.05.34 17.3.34a255.59 255.59 0 0 0 33.74-1.85c14.29-2 21.85-5.34 24.5-10.92 1.3-2.72 1.93-7.08-2.41-12.42-16-19.71-39.86-28.58-51.7-28.58z" fill="#333"/><path d="m2114.9 3524.72c-88 0-99-11.38-99.55-19.95-2.4-34.33-1-79 18.86-99.15-.73-1.57-1.28-3.63-.38-5.32a4.13 4.13 0 0 1 3.93-2.09 12.33 12.33 0 0 1 3.59.66c10.92 3.42 31.93 5.63 53.51 5.63a297.24 297.24 0 0 0 33.82-1.87c48.83-5.59 80.66-13.41 94.17-18.86a5.94 5.94 0 0 1 2.17-.4c3.28 0 6.63 2.4 8.36 4.63a8 8 0 0 1 1.78 4.15c22.19 15.67 53 32.19 73.53 43.18 13.37 7.16 20.45 11 22.61 12.85 5.17 4.47 41.15 16.43 51 19.08 3.74 1 9.83 2.41 16.28 3.89 18.68 4.29 33.31 7.78 37.55 10.39.85.52 1.7 1 2.51 1.48 3.66 2.11 7.11 4.1 7.64 7.51.32 2.1-.52 4.21-2.57 6.47-.86.94-2 2.23-36.71 6.68-22.9 2.93-52.46 6.15-83.23 9.07-47.22 4.47-137.14 11.97-208.87 11.97z" fill="#57ea93"/><path d="m2225 3385.87c3.47 0 8.39 4.35 7.58 7.52 34.74 24.82 91.29 51.7 97.07 56.68s42.62 17.09 52 19.6c12.19 3.28 47 10.22 53.17 14s12.29 5.88 7 11.64c-3.63 4-202.91 26.91-326.95 26.91-55.63 0-96.15-4.62-97.06-17.62-2.91-41.58 1-81.56 19.49-98.52 0 0-3.58-5.37.43-5.37a9.91 9.91 0 0 1 2.84.54c10.17 3.18 30.75 5.75 54.26 5.75a301.59 301.59 0 0 0 34.1-1.88c48.28-5.54 80.9-13.41 94.82-19a3.37 3.37 0 0 1 1.24-.22m0-5a8.27 8.27 0 0 0 -3.11.59c-13.35 5.38-44.93 13.12-93.52 18.69a294.46 294.46 0 0 1 -33.53 1.85c-24.28 0-44-2.77-52.77-5.52a14.52 14.52 0 0 0 -4.33-.77 6.6 6.6 0 0 0 -6.13 3.41 7.57 7.57 0 0 0 -.31 5.92c-19.46 21.33-20.86 65.7-18.47 99.91.83 11.85 18.77 16.1 32.2 18.27 16.41 2.65 39.91 4 69.85 4 71.83 0 161.84-7.51 209.1-12 30.79-2.92 60.38-6.14 83.31-9.08 35.58-4.57 36.75-5.85 38.23-7.48 2.57-2.81 3.64-5.68 3.2-8.53-.72-4.6-4.86-7-8.86-9.3-.81-.46-1.64-.94-2.45-1.44-4.58-2.82-18.76-6.21-38.3-10.7-6.43-1.48-12.5-2.87-16.19-3.86-11.28-3-45.6-14.75-50-18.56-2.36-2-9.15-5.71-23.06-13.17-20.2-10.82-50.42-27-72.41-42.42a11.1 11.1 0 0 0 -2.11-4.24c-2.16-2.78-6.19-5.59-10.33-5.59z" fill="#333"/><path d="m2313.3 3463.54c-50 0-126.12-43.77-129.34-53.13-1.78-5.18 6.24-10.25 16.91-16.33l2.35-1.35c1.16-.68 2.33-1.41 3.52-2.15 5.3-3.31 11.3-7 18.05-7a18.25 18.25 0 0 1 5.28.78c11.53 3.51 40.3 17.2 65.5 31.17 49.95 27.71 48.53 34.85 48 37.54-.77 3.9-5.4 5.85-9.69 7.37a61.62 61.62 0 0 1 -20.57 3.15z" fill="#4cc17b"/><path d="m2224.79 3386a15.6 15.6 0 0 1 4.55.68c22 6.67 114.13 53.94 111.78 65.83-.47 2.38-3.85 4-8.07 5.49a59 59 0 0 1 -19.75 3c-49.76 0-124.39-43.92-127-51.45-1.41-4.09 11.95-11.08 18.16-14.7s12.87-8.86 20.31-8.86m0-5c-7.47 0-13.79 3.95-19.37 7.43-1.21.75-2.35 1.46-3.46 2.11l-2.33 1.34c-10.15 5.78-20.63 11.76-18 19.31.52 1.51 1.61 4.66 16 13.81a309.33 309.33 0 0 0 32.41 17.63c18.46 8.73 53.83 23.38 83.32 23.38a64.31 64.31 0 0 0 21.42-3.29c3.56-1.27 10.19-3.62 11.3-9.24 1-5.2-3.42-10.82-15.37-19.4a364 364 0 0 0 -33.87-20.81c-25.33-14.05-54.31-27.83-66-31.38a20.71 20.71 0 0 0 -6-.89z" fill="#333"/><path d="m2204.72 3520a1101.14 1101.14 0 0 1 -191-16.74l-1.51-.27-.45-1.46c-1-3.12-.83-5.56.41-7.25a4.55 4.55 0 0 1 3.7-1.83 5.49 5.49 0 0 1 1.26.15c4 .51 86.92 6.72 182.14 6.72 104.52 0 183.81-7.14 235.68-21.23a6.83 6.83 0 0 1 1.76-.24c4.3 0 6.06 4.21 6.72 5.8l.62 1.48-1.09 1.18c-7.76 8.38-104.59 33.69-238.18 33.69z" fill="#999"/><path d="m2436.69 3480.38c2.55 0 3.76 2.7 4.41 4.26-6.34 6.85-99.25 32.89-236.34 32.89a1098.4 1098.4 0 0 1 -190.65-16.71c-1.28-4.12 0-5.84 1.72-5.84a3 3 0 0 1 .77.1c1.13.3 84.82 6.77 182.63 6.77 82.37 0 174.76-4.59 236.36-21.32a4.46 4.46 0 0 1 1.1-.15m0-5a9.2 9.2 0 0 0 -2.41.33c-51.66 14-130.74 21.14-235.05 21.14-94.21 0-176.14-6.06-181.72-6.69a8 8 0 0 0 -1.68-.18 7 7 0 0 0 -5.71 2.85c-1.74 2.36-2 5.55-.79 9.47l.91 2.92 3 .53a1104.53 1104.53 0 0 0 191.52 16.78c74.48 0 132.52-7.59 168.08-14 30.55-5.47 66.09-14.23 71.93-20.55l2.18-2.35-1.23-3c-2-4.87-5.07-7.34-9-7.34z" fill="#333"/><path d="m2210.07 3563c-80.29 0-161.83-4.26-187.6-8.24a10.91 10.91 0 0 1 -9.18-9.25c-1.89-13.09-1.52-36.47-.79-41.55l.36-2.45 2.45.33c36.77 4.92 106.31 8.1 177.16 8.1 58.27 0 199.12-2.35 248.49-24.1l1-.45 1 .46c10.51 4.76 15.26 29.55 11 43.9l-.17.57-.4.43c-26.48 28.02-163.82 32.25-243.32 32.25z" fill="#e6e6e6"/><path d="m2442 3488.09c8.41 3.8 13.86 26.68 9.63 40.9-23.07 24.43-136.25 31.47-241.53 31.47-84.08 0-163.12-4.49-187.22-8.21a8.45 8.45 0 0 1 -7.08-7.14c-1.87-12.89-1.51-35.88-.79-40.83 35.45 4.74 104.36 8.12 177.49 8.12 100.4 0 208.77-6.37 249.5-24.31m0-5.47-2.05.89c-18.4 8.11-52.3 14.33-100.78 18.48-41.27 3.54-92 5.41-146.7 5.41-70.74 0-140.16-3.17-176.83-8.08l-4.9-.65-.71 4.89c-.77 5.33-1.17 28.73.79 42.27a13.39 13.39 0 0 0 11.27 11.36c25.86 4 107.57 8.27 188 8.27 59.73 0 112.34-2.28 152.13-6.6 51-5.54 81.47-14.19 93-26.43l.82-.87.34-1.14c4.63-15.56-.64-41.58-12.36-46.88l-2-.92z" fill="#333"/><path d="m2451.6 3529c-41.49 43.93-374.48 31.64-428.75 23.25a8.44 8.44 0 0 1 -7.08-7.14c-1.49-10.29-1.56-27-1.16-35.87.11 5.79.2 13.44.7 16.82a8.51 8.51 0 0 0 7.12 7.19c54.07 8.35 383 20.56 430.24-22.06a45.86 45.86 0 0 1 -1.07 17.81z" fill="#e6e6e6"/><path d="m2451.6 3529c-41.49 43.93-374.48 31.64-428.75 23.25a8.44 8.44 0 0 1 -7.08-7.14c-1.49-10.29-1.56-27-1.16-35.87.11 5.79.2 13.44.7 16.82a8.51 8.51 0 0 0 7.12 7.19c54.07 8.35 383 20.56 430.24-22.06a45.86 45.86 0 0 1 -1.07 17.81z" opacity=".1"/></g></svg>
