<svg width="1445" height="326" xmlns="http://www.w3.org/2000/svg">
  <g fill="none" fill-rule="evenodd">
    <path d="M1293.67 107.85c10.97928-10.7024743 28.53359-10.5530708 39.32912.334727 10.79553 10.887799 10.79553 28.442747 0 39.330546-10.79553 10.887798-28.34984 11.037201-39.32912.334727v3.46c0 1.656854-1.34315 3-3 3h-9.61c-1.65685 0-3-1.343146-3-3V66.58c0-1.6568542 1.34315-3 3-3h9.61c1.65685 0 3 1.3431458 3 3v41.27zm31.22 20c-.00924-3.760065-1.43784-7.377998-4-10.13-2.50029-2.65102-5.98593-4.14952-9.63-4.14-3.68223-.010961-7.20867 1.484884-9.76 4.14-2.5554 2.756265-3.98291 6.371443-4 10.13-.00928 3.76062 1.42209 7.381985 4 10.12 2.55031 2.657816 6.07652 4.15718 9.76 4.15 3.64533.005729 7.13074-1.496292 9.63-4.15 2.57816-2.733833 4.00978-6.352254 4-10.11v-.01zM1392.9 148.73c-6.25676 5.600577-14.71434 8.064309-23 6.7-14.65041-2.380767-24.87985-15.804572-23.28914-30.561678 1.59072-14.757107 14.44591-25.692551 29.26714-24.896482 14.82123.796069 26.43113 13.045567 26.432 27.88816 0 .77 0 1.52-.09 2.27-.14011 1.550591-1.4431 2.736317-3 2.73h-36.68c.67406 1.888762 1.71007 3.627903 3.05 5.12 4.27615 4.955333 11.68068 5.701935 16.86 1.7 1.01802-.743909 2.39256-.771879 3.44-.07l6.6 4.42c.77054.5037 1.26716 1.333282 1.34716 2.250365.08.917083-.26548 1.820124-.93716 2.449635zm-5.32-25.14c-.60229-2.233833-1.73036-4.291116-3.29-6-2.37315-2.619553-5.73542-4.124777-9.27-4.15-3.57013.021042-6.9711 1.524134-9.39 4.15-1.47545 1.769286-2.5959 3.806472-3.3 6h25.25zM1444.59 104.76V113c0 1.656854-1.34315 3-3 3h-9.2v35.3c0 1.656854-1.34315 3-3 3h-9.49c-1.65685 0-3-1.343146-3-3V116h-8c-1.65685 0-3-1.343146-3-3v-8.26c0-1.656854 1.34315-3 3-3h8v-16.5c0-1.6568542 1.34315-3 3-3h9.49c1.65685 0 3 1.3431458 3 3v16.52h9.2c1.65685 0 3 1.343146 3 3zM466.82 162.12c24.305375-23.692566 63.166198-23.361808 87.06477.741038 23.898572 24.102847 23.898572 62.965077 0 87.067924-23.898572 24.102846-62.759395 24.433604-87.06477.741038V259c0 3.313708-2.686292 6-6 6h-22.56c-3.313708 0-6-2.686292-6-6V70.12c0-3.3137085 2.686292-6 6-6h22.56c3.313708 0 6 2.6862915 6 6v92zm69.11 44.28c-.053179-8.324107-3.241771-16.322366-8.93-22.4-5.535907-5.876132-13.256907-9.199094-21.33-9.18-8.141953-.014097-15.935368 3.302711-21.57 9.18-5.683277 6.083225-8.864763 14.085144-8.91 22.41-.004807 8.334502 3.183717 16.354124 8.91 22.41 5.642142 5.878392 13.442053 9.19489 21.59 9.18 8.066665.006195 15.777785-3.319248 21.31-9.19 5.733578-6.05276 8.929404-14.072745 8.93-22.41zM714.76 154.62V259c0 3.313708-2.686292 6-6 6h-16.61c-3.313708 0-6-2.686292-6-6v-5.34c-24.942936 21.142507-62.060801 19.104456-84.539004-4.641828-22.478203-23.746284-22.478203-60.92006 0-84.666344C624.089199 140.605544 661.207064 138.567493 686.15 159.71l1.58-6.49c.654834-2.688299 3.063095-4.58021 5.83-4.58h15.2c3.305914-.000018 5.98898 2.674105 6 5.98zm-34 52c.13026-8.358002-3.076377-16.423181-8.91-22.41-5.535907-5.876132-13.256907-9.199094-21.33-9.18-8.141568.030638-15.927547 3.339679-21.6 9.18-5.741828 6.066862-8.934911 14.106846-8.92 22.46.045237 8.324856 3.226723 16.326775 8.91 22.41 5.676079 5.833791 13.460589 9.138604 21.6 9.17 8.070855.018101 15.790264-3.300557 21.33-9.17 5.79076-6.014532 8.99007-14.061283 8.91-22.41l.01-.05zM759.55 158.88c9.18-8.1 21.33-13.5 33.21-13.5 31.31 0 57 27.54 57 61.83V259c0 3.313708-2.686292 6-6 6h-20.98c-3.313708 0-6-2.686292-6-6v-51.79c0-16.74-11.87-31.59-28.07-31.59-16.2 0-28.08 14.85-28.08 31.59V259c0 3.313708-2.686292 6-6 6h-22c-3.313708 0-6-2.686292-6-6V154.62c0-3.313708 2.686292-6 6-6h17.92c2.228824.000693 4.273597 1.236798 5.31 3.21l3.69 7.05zM991.27 154.62V259c0 3.313708-2.686292 6-6 6h-16.62c-3.313708 0-6-2.686292-6-6v-5.34c-24.942936 21.142507-62.060801 19.104456-84.539004-4.641828-22.478203-23.746284-22.478203-60.92006 0-84.666344C900.589199 140.605544 937.707064 138.567493 962.65 159.71l1.58-6.49c.654834-2.688299 3.063095-4.58021 5.83-4.58h15.21c3.305914-.000018 5.98898 2.674105 6 5.98zm-34 52c.13026-8.358002-3.076377-16.423181-8.91-22.41-5.551695-5.86532-13.284007-9.170376-21.36-9.13-8.141568.030638-15.927547 3.339679-21.6 9.18-5.726283 6.055876-8.914807 14.075498-8.91 22.41.045237 8.324856 3.226723 16.326775 8.91 22.41 5.676079 5.833791 13.460589 9.138604 21.6 9.17 8.067382.015339 15.782646-3.303093 21.32-9.17 5.798065-6.011333 9.00471-14.058467 8.93-22.41l.02-.05zM1036.05 158.88c9.18-8.1 21.33-13.5 33.21-13.5 31.32 0 57 27.54 57 61.83V259c0 3.313708-2.68629 6-6 6h-20.94c-3.31371 0-6-2.686292-6-6v-51.79c0-16.74-11.88-31.59-28.08-31.59-16.2 0-28.08 14.85-28.08 31.59V259c0 3.313708-2.68629 6-6 6h-22c-3.31371 0-6-2.686292-6-6V154.62c0-3.313708 2.68629-6 6-6H1027c2.22882.000693 4.2736 1.236798 5.31 3.21l3.74 7.05zM1267.15 206.67c0 34.28-28.61 61.55-64.52 61.55-35.64 0-64.25-27.27-64.25-61.55 0-34 28.61-61.56 64.25-61.56 35.91 0 64.52 27.54 64.52 61.56zm-34-.27c.10118-8.221388-2.99692-16.160271-8.64-22.14-5.54063-6.061469-13.38794-9.494665-21.6-9.45-8.05474-.036538-15.73253 3.408621-21.06 9.45-6.01453 5.887746-9.33548 13.994779-9.18 22.41-.15793 8.494994 3.15769 16.68653 9.18 22.68 5.4338 5.860153 13.0683 9.184387 21.06 9.17 8.15017.021403 15.95443-3.291795 21.6-9.17 5.65799-6.293988 8.739-14.487422 8.63-22.95h.01z" fill="#FBDD11" fill-rule="nonzero"/>
    <path d="M175.25 323.48c-7.469526-.092677-14.830831-1.798263-21.58-5-12.06-5.52-24.26-11.27-36.06-16.82-5.126667-2.406667-10.253333-4.816667-15.38-7.23l-8.1-3.79c-14.26-6.68-29-13.58-43.49-20.41-.86-.4-1.73-.78-2.57-1.15-2.5912722-.975562-5.0267907-2.323014-7.23-4-5.36-4.56-8.73-10.66-10.33-18.65-1.34-6.74-2.61-13.61-3.84-20.26-.6666667-3.46-1.31-6.916667-1.93-10.37-1.83-9.71-3.69-19.47-5.52-29-.36-1.87-.74-3.72-1.14-5.69-.21-1-.43-2.1-.65-3.2-.09-.46-9.21-46-14.7-80-1.54780559-9.4809121 2.89980113-18.9365478 11.19-23.79 14.65-8.48 33.2-17 40.49-20.26l.5-.22 10.64-5.13c23-11.11 46.87-22.58 70.29-33.9l2.59-1.26c9-4.39 17.54-8.54 27.18-10 3.474998-.56598276 6.989237-.85688555 10.51-.87 4.298274-.05478637 8.585071.45626703 12.75 1.52 10.82 2.86 22.44 5.92 34.19 8.91 10.79 2.75 21.78 5.49 32.4 8.14l11.08 2.77c2.22.55 4.47 1.14 6.65 1.71 5.19 1.35 10.57 2.75 15.94 3.83 5.383655.966083 10.239668 3.8378039 13.68 8.09C307.38 43 310.22 50 312 59.93c2.54 13.91 4.66 27.95 6.57 41 .94 6.52 1.94 13.15 2.89 19.55 1.12 7.46 2.27 15.17 3.37 22.75 1.22 8.45 2.43 17 3.6 25.37 1.3 9.2 2.64 18.72 4 28.08 1 6.67 2.51 20.5 2 23.14-1.6 8.53-6.57 15.29-15.21 20.66-4.76 3-9.62 6-14.32 8.86-8.6 5.3-17.49 10.78-26.16 16.31h-.05c-19 12.14-38.73 24.69-58.08 37.06-2.59 1.66-5.18 3.4-7.69 5.08-5 3.35-10.16 6.81-15.46 9.71-6.777488 3.841947-14.419722 5.899603-22.21 5.98z"/>
    <path d="M100.89 206.19c0 3.8-.51 7.23-2.35 10.48-2.46 4.32-7.22 5.33-11.92 2.46-3.426514-2.192036-6.2191694-5.243271-8.1-8.85-3.7124847-6.239106-5.5522753-13.414289-5.3-20.67-.0491294-3.349136.9203418-6.634179 2.78-9.42 2.66-3.69 6.77-4.43 11.07-1.92 3.6318725 2.239872 6.5843948 5.42749 8.54 9.22 3.3095108 5.688034 5.125886 12.12103 5.28 18.7zM131.53 179.53c-.06 3.8-.51 7.23-2.36 10.48-2.45 4.32-7.21 5.33-11.91 2.46-3.426876-2.19463-6.222186-5.244999-8.11-8.85-3.702777-6.239475-5.541899-13.40858-5.3-20.66-.031799-3.355695.951161-6.642683 2.82-9.43 2.66-3.69 6.76-4.43 11.06-1.92 3.631873 2.239872 6.584395 5.42749 8.54 9.22 3.295697 5.692787 5.104658 12.123884 5.26 18.7zM73.61 238.06c0 3.8-.5 7.24-2.35 10.48-2.46 4.32-7.26 5.33-11.92 2.46-3.4272157-2.195516-6.2198244-5.250147-8.1-8.86-3.7111481-6.235998-5.5509099-13.407598-5.3-20.66-.0404045-3.355436.9395313-6.643975 2.81-9.43 2.66-3.69 6.77-4.42 11.07-1.92 3.6345257 2.241024 6.5875523 5.432644 8.54 9.23 3.2990135 5.690843 5.1050202 12.123667 5.25 18.7zM168.46 39.39c-4-.14-7.6-.51-11-2.23-4.54-2.32-5.53-6.4-2.56-10.55 1.392515-1.9284994 3.174247-3.5433004 5.23-4.74 8.39-4.93 17.37-7 27.07-5.32 1.68167.2969874 3.303212.8679053 4.8 1.69 4.32 2.37 5.24 6.33 2.36 10.35-2.28 3.17-5.48 5.19-9 6.83-5.317739 2.4209692-11.060527 3.7700148-16.9 3.97zM65.67 85.79c-3.3990741-.0192384-6.7508388-.7982418-9.81-2.28-4.15-2.17-5.21-6.1-2.63-10 2.58-3.9 6.48-6.14 10.67-7.84 7-2.85 14.19-4.09 21.72-2.71 1.9683117.3348144 3.8530688 1.0479657 5.55 2.1 3.64 2.31 4.45 5.86 2.12 9.46-2.33 3.6-5.73 5.65-9.41 7.41-5.7221446 2.5801363-11.933162 3.8966946-18.21 3.86zM175.4 83.1c-4-.16-7.88-.53-11.37-2.62-3.49-2.09-4.53-5.64-2.38-9.26 2.15-3.62 5.38-5.64 9-7.34 7.92-3.75 16.16-5.24 24.85-3.35 1.459845.3285308 2.85758.8889755 4.14 1.66 3.86 2.27 4.74 5.91 2.33 9.66-1.49961 2.2309281-3.49058 4.0884823-5.82 5.43-6.282541 3.7355797-13.441168 5.7434451-20.75 5.82zM224.07 60.06c-3.477528.1380274-6.929095-.6523816-10-2.29-4.42-2.41-5.28-6.4-2.28-10.44 2.57-3.46 6.13-5.6 10-7.2 7.58-3.12 15.38-4.43 23.51-2.47 1.45594.3373486 2.840647.9298273 4.09 1.75 3.64 2.41 4.41 5.78 2.06 9.47-1.987163 2.8883964-4.721006 5.1833034-7.91 6.64-6.02039 3.0846389-12.706173 4.6436247-19.47 4.54zM123 106.48c-2.757701.07979-5.507502-.333357-8.12-1.22-1.178095-.403041-2.292659-.972109-3.31-1.69-3.08-2.17-3.77-5.36-1.92-8.67 1.294179-2.2185116 3.136333-4.067552 5.35-5.37 8.87-5.51 18.41-7.66 28.74-5.46 2.159453.3920819 4.155739 1.4110923 5.74 2.93 2.094537 1.853971 2.577144 4.934267 1.15 7.34-2.1 4.11-5.82 6.39-9.77 8.29-5.586092 2.615931-11.692281 3.932214-17.86 3.85zM131.62 39c3.9 0 7.72.43 11.17 2.47 3.85 2.27 4.73 6 2.28 9.71-2.45 3.71-6.07 5.9-10 7.58-7.05 3-14.39 4.37-22.07 3.07-2.475134-.3324931-4.819792-1.3082847-6.8-2.83-1.313108-.9392809-2.197928-2.362977-2.458779-3.9562306-.26085-1.5932535.123762-3.2247838 1.068779-4.5337694 2.73-4.31 7-6.7 11.51-8.54 4.854878-1.9871406 10.054252-2.9964309 15.3-2.97z" fill="#FBDD11" fill-rule="nonzero"/>
    <path d="M334.87 196.37c-2.58-17.81-5-35.63-7.6-53.44-2-14.11-4.21-28.2-6.26-42.31-2-13.74-4.09-27.47-6.58-41.12-1.55-8.53-4.1-16.7-9.75-23.57-3.787931-4.6898325-9.137264-7.8596762-15.07-8.93-7.56-1.52-15-3.65-22.48-5.52-14.49-3.62-29-7.21-43.47-10.9-11.406667-2.9-22.793333-5.86666667-34.16-8.9-8-2.13-16.12-2.06-24.27-.78-11 1.72-20.63 6.78-30.44 11.52-26.966667 13.0533333-53.9466667 26.0633333-80.94 39.03-.37.18-23.53 10.37-41.15 20.55C3.53939206 77.3301217-1.38150093 87.7606645.33 98.22c5.57 34.48 14.72 80.12 14.72 80.12.64 3.18 1.24 6 1.79 8.87 1.8533333 9.666667 3.69 19.333333 5.51 29 1.93 10.21 3.74 20.45 5.78 30.65 1.56 7.82 4.92 14.73 11.14 20 3 2.59 6.81 3.85 10.34 5.51 17.1866667 8.093333 34.3833333 16.16 51.59 24.2 17.15 8 34.24 16.18 51.46 24.06 15.43 7.06 31 7.26 46-1 8.07-4.41 15.53-9.91 23.3-14.88 19.333333-12.373333 38.706667-24.736667 58.12-37.09 13.4-8.53 27-16.75 40.47-25.14 8.31-5.18 14.44-12.31 16.3-22.28.67-3.38-1.28-19.08-1.98-23.87zm-165.5 119.09c-4.33 3-11.24 2.47-16 .23-9.946667-4.74-19.906667-9.47-29.88-14.19-24.29-11.43-79.24-36.74-82.09-39-5.56-4.5-7.08-10.07-8.6-16.11-2.52-10-4-20.14-6-30.23-1.64-8.566667-3.2733333-17.133333-4.9-25.7-2.5-13.206667-4.9933333-26.42-7.48-39.64-2.2333333-11.8-4.4833333-23.603333-6.75-35.41-1-5.44-2.3-10.85-3.09-16.33-.5-3.51.79-5.69 2.89-7.14 2.79-1.93 9.53-1.22 12.88.18 14.25 6 28.67 11.49 43.06 17.08 23.05 9 46.13 17.8 69.15 26.82 6.93 2.73 11.47 8.18 14.91 14.6 3.25 6.08 4.63 12.73 5.73 19.44 1.686667 10.26 3.353333 20.523333 5 30.79 1.74 10.946667 3.446667 21.896667 5.12 32.85 2.1 13.733333 4.176667 27.463333 6.23 41.19 1.5 10 3.1 20 4.4 29.93.88 5.96-1.79 8.69-4.58 10.64zm-8.43-192.54c-11.602766 5.977382-25.198547 6.744417-37.4 2.11-28.4-10.46-56.54-21.68-84.72-32.67-4.06-1.58-8.13-3.14-12.19-4.73C24.89 87 19.39 84 17.72 83c-6.91-4 .24-8.51 6.13-11.93 13-7.54 26.61-13.88 40.13-20.4 20.94-10.07 42-19.78 63.13-29.51 8.6-4 17.11-8.15 25.9-11.66 11.68-4.66 23.66-6.17 36.18-2.83C210.55 12.4 232 17.6 253.46 23c12.25 3.11 24.52 6.12 36.74 9.37 8.41 2.24 6.87 13.5-4.38 19.82-33.93 19.07-67.71 38.44-101.55 57.68-7.75 4.43-15.37 9.13-23.33 13.05zm46 76.81c-1.23284 3.218089-2.235367 6.519743-3 9.88-1.216018 5.521544-4.312541 10.449117-8.76 13.94-2.448262 1.968664-5.219294 3.497976-8.19 4.52-2.46.83-4.71.06-5.71-1.89l-.83-2c-.683238-2.262514-1.161829-4.581837-1.43-6.93-1.074238-9.753377.088539-19.623303 3.4-28.86 2.188608-6.424421 5.503682-12.407808 9.79-17.67 2.642746-3.242369 5.722028-6.102904 9.15-8.5 3.181735-2.092692 6.561286-3.867877 10.09-5.3a66.2698111 66.2698111 0 0 1 6.42-2.4c5.234639-1.755834 10.678504-2.811655 16.19-3.14 5.607898-.377211 11.239663.170087 16.67 1.62 5.475088 1.54471 10.706156 3.850554 15.54 6.85 2.180059 1.306096 4.238336 2.805459 6.15 4.48.762673.693654 1.401789 1.511993 1.89 2.42.658412 1.130787.59587 2.541896-.16 3.61-.837643 1.185325-1.909791 2.185996-3.15 2.94-2.80927 1.816102-5.798431 3.337491-8.92 4.54-2.038807.7712-4.200212 1.16757-6.38 1.17-7.05.29-14.09.47-21.09.24-2.84-.1-5.63-.49-8.42-.85-1.351094-.276856-2.742557-.293825-4.1-.05-1.468036.426871-2.776525 1.279476-3.76 2.45a50.18000964 50.18000964 0 0 0-5.2 7.13c-2.4256 3.722647-4.478835 7.67504-6.13 11.8h-.06zm97.89-17.48c-2.216805 4.956598-5.196241 9.535414-8.83 13.57-2.423625 2.635956-5.168393 4.957418-8.17 6.91-1.68 1.08-3.43 2-5.27 3-2.68 1-5.36 2.27-8.14 3.27-4.346247 1.617779-8.841283 2.803504-13.42 3.54-9.562131 1.555718-19.368076.445023-28.34-3.21-5.123523-2.085335-9.938059-4.861011-14.31-8.25-1.119232-.825848-2.066879-1.861807-2.79-3.05-.799024-1.28257-.747732-2.919955.13-4.15.8586-1.245856 1.964992-2.301184 3.25-3.1 1.27709-.863525 2.613772-1.635459 4-2.31 1.469715-.688045 2.995193-1.250063 4.56-1.68 4.60217-1.251294 9.362367-1.824 14.13-1.7 5.26-.05 10.53-.23 15.75.17a61.84010155 61.84010155 0 0 1 6.94.91c1.573884.336787 3.216056.11028 4.64-.64.948999-.52439 1.790414-1.223307 2.48-2.06 2.396911-2.902096 4.566665-5.984551 6.49-9.22 3.599306-5.948314 6.184557-12.453683 7.65-19.25 1.283729-5.923901 4.722983-11.159409 9.65-14.69 2.238179-1.726434 4.754191-3.058838 7.44-3.94 2.33-.72 4.16-.27 5.42 1.39.529373.771541.896778 1.642426 1.08 2.56.982323 3.830479 1.575332 7.750363 1.77 11.7.490354 10.423347-1.597998 20.806717-6.08 30.23h-.03z" fill="#FBDD11" fill-rule="nonzero"/>
  </g>
</svg>