<?xml version="1.0" encoding="UTF-8"?>
<svg width="264px" height="48px" viewBox="0 0 264 48" version="1.1" xmlns="http://www.w3.org/2000/svg" xmlns:xlink="http://www.w3.org/1999/xlink">
    <!-- Generator: Sketch 52.1 (67048) - http://www.bohemiancoding.com/sketch -->
    <title>Combined Shape@3x</title>
    <desc>Created with Sketch.</desc>
    <g id="Page-1" stroke="none" stroke-width="1" fill="none" fill-rule="evenodd">
        <g id="Desktop-HD-Copy-2" transform="translate(-250.000000, -20.000000)" fill="#3DF291">
            <g id="Group-10" transform="translate(250.000000, 20.000000)">
                <g id="Group-9">
                    <path d="M78.7740385,32.0884615 L78.7740385,21.6019231 C78.7740385,20.0644231 80.0355769,18.8028846 81.5730769,18.8028846 C82.5586538,18.8028846 83.6230769,19.2365385 84.0173077,20.6557692 C85.4759615,18.7634615 87.2105769,18.5663462 87.9990385,18.5663462 C89.8913462,18.5663462 91.5865385,19.5519231 92.2173077,21.05 C93.7942308,18.8028846 95.8048077,18.5663462 96.5538462,18.5663462 C99.5105769,18.5663462 101.284615,20.9317308 101.284615,23.8490385 L101.284615,32.0884615 C101.284615,33.5865385 100.101923,34.7692308 98.6038462,34.7692308 C97.1057692,34.7692308 95.9625,33.5865385 95.9625,32.0884615 L95.9625,25.1105769 C95.9625,23.8096154 94.8980769,23.6125 94.1884615,23.6125 C92.9269231,23.6125 92.4144231,24.5192308 92.4144231,25.2682692 L92.4144231,32.3644231 C92.4144231,33.7048077 91.35,34.7692308 90.0096154,34.7692308 C88.6298077,34.7692308 87.6048077,33.7048077 87.6048077,32.3644231 L87.6048077,25.1105769 C87.6048077,23.9673077 86.5403846,23.6125 85.8307692,23.6125 C84.0567308,23.6125 84.0961538,25.2288462 84.0961538,25.3076923 L84.0961538,32.0884615 C84.0961538,33.5865385 82.9134615,34.7692308 81.4153846,34.7692308 C79.9173077,34.7692308 78.7740385,33.5865385 78.7740385,32.0884615 Z M112.106482,35.0057692 L111.791097,35.0057692 C108.992059,35.0057692 104.024751,33.3105769 104.024751,26.6086538 C104.024751,20.9317308 108.558405,18.5663462 111.988213,18.5663462 C115.339174,18.5663462 119.833405,20.9317308 119.833405,26.6086538 C119.833405,33.3105769 114.90552,35.0057692 112.106482,35.0057692 Z M111.94879,29.8807692 C113.052636,29.8807692 114.51129,29.4865385 114.51129,26.6875 C114.51129,24.3615385 113.131482,23.6125 111.94879,23.6125 C110.766097,23.6125 109.346867,24.3615385 109.346867,26.6875 C109.346867,29.4865385 110.844943,29.8807692 111.94879,29.8807692 Z M122.770656,32.0884615 L122.770656,21.6019231 C122.770656,20.0644231 124.032195,18.8028846 125.569695,18.8028846 C126.555271,18.8028846 127.619695,19.1971154 128.013925,20.6163462 C129.157195,18.5663462 131.325464,18.5663462 132.508156,18.5663462 C135.464887,18.5663462 137.55431,20.8923077 137.55431,23.8096154 L137.55431,32.0884615 C137.55431,33.5865385 136.371618,34.7692308 134.873541,34.7692308 C133.375464,34.7692308 132.232195,33.5865385 132.232195,32.0884615 L132.232195,25.1105769 C132.232195,23.9673077 131.364887,23.6125 130.655271,23.6125 C128.723541,23.6125 128.092771,25.1894231 128.092771,25.1894231 L128.092771,32.0884615 C128.092771,33.5865385 126.910079,34.7692308 125.412002,34.7692308 C123.913925,34.7692308 122.770656,33.5865385 122.770656,32.0884615 Z M146.207907,24.1644231 L150.386753,19.7884615 C150.85983,19.1971154 151.530023,18.8028846 152.357907,18.8028846 C153.777138,18.8028846 154.920407,20.025 154.920407,21.4442308 C154.920407,21.9961538 154.723292,22.5480769 154.44733,22.9423077 L151.648292,25.4653846 L155.47233,30.275 C155.748292,30.7086538 155.98483,31.3 155.98483,31.8913462 C155.98483,33.4682692 154.762715,34.7692308 153.185792,34.7692308 C152.279061,34.7692308 151.530023,34.375 151.056946,33.7048077 L146.207907,27.1605769 L146.207907,32.0884615 C146.207907,33.5865385 145.025215,34.7692308 143.527138,34.7692308 C142.029061,34.7692308 140.885792,33.5865385 140.885792,32.0884615 L140.885792,14.1903846 C140.885792,12.6923077 142.029061,11.5096154 143.527138,11.5096154 C145.025215,11.5096154 146.207907,12.6923077 146.207907,14.1903846 L146.207907,24.1644231 Z M162.864389,25.5048077 L167.476889,25.5048077 C167.240351,23.9278846 166.530735,23.1394231 165.111505,23.1394231 C163.810543,23.1394231 162.903812,23.9278846 162.864389,25.5048077 Z M170.354774,34.4144231 C169.250928,34.7692308 167.516312,35.0057692 165.387466,35.0057692 C160.380735,35.0057692 157.660543,31.3394231 157.660543,26.7663462 C157.660543,22.2721154 160.774966,18.5663462 165.348043,18.5663462 C169.763428,18.5663462 172.523043,21.6807692 172.523043,25.8990385 C172.523043,27.3182692 171.419197,28.5009615 169.999966,28.5009615 L162.864389,28.5009615 C163.061505,29.5653846 163.495158,30.4326923 166.649005,30.4326923 C167.161505,30.4326923 168.501889,30.2355769 169.684581,30.0778846 C170.906697,30.0778846 171.537466,31.0634615 171.537466,32.2461538 C171.537466,33.2711538 171.143235,34.1384615 170.354774,34.4144231 Z M189.218948,22.3509615 L182.517025,37.8836538 C180.861256,41.6682692 178.850679,42.575 176.800679,42.575 L176.130486,42.575 C174.790102,42.575 173.686256,41.4711538 173.686256,40.1307692 C173.686256,38.9480769 174.51414,37.9625 175.617986,37.7259615 C176.327602,37.5682692 177.431448,37.1346154 177.983371,35.9519231 L178.811256,33.7442308 L174.435294,22.3509615 C174.317025,22.075 174.277602,21.7596154 174.277602,21.4442308 C174.277602,19.9855769 175.460294,18.8028846 176.879525,18.8028846 C178.062217,18.8028846 179.047794,19.5519231 179.402602,20.6163462 L181.68914,27.6336538 L184.25164,20.6163462 C184.645871,19.5519231 185.592025,18.8028846 186.774717,18.8028846 C188.193948,18.8028846 189.37664,19.9855769 189.37664,21.4442308 C189.37664,21.7596154 189.337217,22.075 189.218948,22.3509615 Z M201.26293,34.8480769 L198.818699,34.8480769 C193.614853,34.8480769 192.984084,31.3 192.984084,29.1711538 L192.984084,23.6125 L192.156199,23.6125 C191.052353,23.6125 190.539853,22.7451923 190.539853,21.6807692 C190.539853,20.9711538 190.855238,20.3403846 191.210045,19.9855769 L196.413891,14.7423077 C196.611007,14.5846154 197.044661,14.0326923 197.557161,14.0326923 C198.030238,14.0326923 198.306199,14.3875 198.306199,14.8211538 L198.306199,18.8028846 L200.908122,18.8028846 C202.28793,18.8028846 202.958122,19.8278846 202.958122,21.2076923 C202.958122,22.5480769 202.28793,23.6125 200.908122,23.6125 L198.306199,23.6125 L198.306199,28.0278846 C198.306199,29.8019231 198.976391,30.3538462 200.435045,30.3538462 L201.26293,30.3538462 C202.485045,30.3538462 203.115814,31.3 203.115814,32.6009615 C203.115814,33.7836538 202.485045,34.8480769 201.26293,34.8480769 Z M208.615566,23.2971154 C207.39345,23.2971154 206.36845,22.3115385 206.36845,21.0894231 C206.36845,19.9461538 207.156912,19.0394231 208.457873,18.8423077 C209.364604,18.7240385 210.665566,18.5663462 212.124219,18.5663462 C216.973258,18.5663462 219.851143,21.2471154 219.851143,25.6230769 L219.851143,31.9307692 C219.851143,33.5076923 218.589604,34.7692308 217.012681,34.7692308 C216.027104,34.7692308 215.002104,34.4144231 214.647296,33.1134615 C213.464604,34.8480769 211.375181,35.0057692 210.586719,35.0057692 C209.798258,35.0057692 205.067489,34.7692308 205.067489,29.5259615 C205.067489,26.6875 206.959796,24.7951923 210.310758,24.7951923 C211.49345,24.7951923 213.306912,25.0317308 214.647296,26.2538462 L214.647296,25.1894231 C214.647296,24.125 214.016527,23.1394231 210.862681,23.1394231 C210.231912,23.1394231 209.404027,23.2182692 208.615566,23.2971154 Z M214.529027,29.6048077 L214.529027,29.0528846 C214.529027,29.0528846 214.016527,28.3826923 212.163643,28.3826923 C210.547296,28.3826923 210.389604,28.7769231 210.389604,29.3288462 C210.389604,29.8413462 210.744412,30.3144231 212.163643,30.3144231 C214.292489,30.3144231 214.529027,29.6048077 214.529027,29.6048077 Z M228.898971,14.1903846 L228.898971,32.0884615 C228.898971,33.5865385 227.716278,34.7692308 226.218201,34.7692308 C224.720124,34.7692308 223.576855,33.5865385 223.576855,32.0884615 L223.576855,14.1903846 C223.576855,12.6923077 224.720124,11.5096154 226.218201,11.5096154 C227.716278,11.5096154 228.898971,12.6923077 228.898971,14.1903846 Z M237.946799,24.1644231 L242.125645,19.7884615 C242.598722,19.1971154 243.268914,18.8028846 244.096799,18.8028846 C245.516029,18.8028846 246.659299,20.025 246.659299,21.4442308 C246.659299,21.9961538 246.462183,22.5480769 246.186222,22.9423077 L243.387183,25.4653846 L247.211222,30.275 C247.487183,30.7086538 247.723722,31.3 247.723722,31.8913462 C247.723722,33.4682692 246.501606,34.7692308 244.924683,34.7692308 C244.017952,34.7692308 243.268914,34.375 242.795837,33.7048077 L237.946799,27.1605769 L237.946799,32.0884615 C237.946799,33.5865385 236.764106,34.7692308 235.266029,34.7692308 C233.767952,34.7692308 232.624683,33.5865385 232.624683,32.0884615 L232.624683,14.1903846 C232.624683,12.6923077 233.767952,11.5096154 235.266029,11.5096154 C236.764106,11.5096154 237.946799,12.6923077 237.946799,14.1903846 L237.946799,24.1644231 Z M259.925396,19 C260.989819,19.3153846 261.778281,20.2221154 261.778281,21.4048077 C261.778281,23.1 261.068665,23.3759615 260.043665,23.3759615 C259.097511,23.2182692 257.914819,22.9817308 257.008088,22.9817308 C255.825396,22.9817308 254.72155,23.0211538 254.72155,23.6125 C254.72155,24.6375 263.276357,24.8740385 263.276357,29.7230769 C263.276357,33.2711538 260.398473,35.0057692 255.904242,35.0057692 C254.090781,35.0057692 252.789819,34.5326923 251.567704,34.0201923 C250.660973,33.6653846 250.10905,32.8375 250.10905,31.8125 C250.10905,30.6692308 250.818665,29.6442308 251.883088,29.6442308 C253.026357,29.9201923 254.524434,30.4326923 255.628281,30.4326923 C256.377319,30.4326923 257.954242,30.3932692 257.954242,29.8807692 C257.954242,28.5009615 249.399434,28.5403846 249.399434,23.6913462 C249.399434,20.0644231 253.026357,18.5663462 256.377319,18.5663462 C257.914819,18.5663462 259.058088,18.8028846 259.925396,19 Z M34.8526646,5.22586624 L34.8526646,8.2091392 C33.7253243,8.02198582 32.3105324,7.67689067 30.5358693,7.09915085 C32.0518275,7.59150842 33.4994162,8.18484377 34.8526646,8.89044613 L34.8526646,18.2226943 C34.8526646,19.0573857 35.1582515,19.863197 35.7117313,20.487993 C36.9628212,21.9002865 39.1219201,22.0309679 40.5342137,20.779878 L42.5144851,19.025641 L43.9443879,19.025641 C44.5212398,20.704943 44.8818801,22.5663468 44.9905956,24.6253746 C46.3237581,24.5546121 47.5924463,24.8751249 48.5262841,25.7326007 C50.8369605,27.8554779 49.9156016,32.1699134 48.3391006,34.6445221 C47.0085714,36.6312223 45.0433119,38.1069179 42.7651917,38.8299201 C40.957831,42.9528805 33.3186641,47.7917915 25.6753376,48.0124043 C16.9401073,48.266317 8.41285869,42.53663 6.95698698,38.71337 C4.93124548,38.0390443 2.8951049,36.5800866 1.67009284,34.7360972 C0.0603146853,32.3031136 -0.946316614,28.013653 1.32692308,25.8512321 C2.26700024,24.9562937 3.56480588,24.6212121 4.93748493,24.6857309 C5.72157584,14.9746087 14.3652942,5.4029304 24.9723595,4.65784216 C30.5806054,4.25622509 33.6044073,5.27038285 34.8526646,5.22586624 Z M34.8527445,4.12829507 C34.0037909,3.59155826 32.6060065,2.96607188 32.3245117,2.16033966 C32.0957405,1.50686674 33.4407629,1.83541475 35.0142151,2.64277893 C34.9107069,3.1218681 34.8551271,3.61879645 34.8527445,4.12829507 Z M41.4238485,15.9839614 L38.5449286,18.5342723 C38.3728487,18.6867104 38.109775,18.6707877 37.9573369,18.4987078 C37.8898986,18.4225801 37.8526646,18.3243966 37.8526646,18.2226943 L37.8526646,4.16250416 C37.8526646,1.86361659 39.7162812,2.35367281e-14 42.0151687,2.30926389e-14 L62.1836497,2.30926389e-14 C64.4825373,2.48689958e-14 66.3461538,1.86361659 66.3461538,4.16250416 L66.3461538,11.8631369 C66.3461538,14.1620244 64.4825373,16.025641 62.1836497,16.025641 L42.0151687,16.025641 C41.814426,16.025641 41.6170023,16.0114308 41.4238485,15.9839614 Z" id="Combined-Shape"></path>
                </g>
            </g>
        </g>
    </g>
</svg>