<?xml version="1.0" encoding="UTF-8"?>
<svg width="261px" height="48px" viewBox="0 0 261 48" version="1.1" xmlns="http://www.w3.org/2000/svg" xmlns:xlink="http://www.w3.org/1999/xlink">
    <!-- Generator: Sketch 52.1 (67048) - http://www.bohemiancoding.com/sketch -->
    <title>Combined Shape@3x</title>
    <desc>Created with Sketch.</desc>
    <g id="Page-1" stroke="none" stroke-width="1" fill="none" fill-rule="evenodd">
        <g id="Desktop-HD-Copy-2" transform="translate(-250.000000, -20.000000)" fill="#3DF291">
            <path d="M326.000003,50.5788462 L326.000003,40.0923077 C326.000003,38.5548077 327.261542,37.2932692 328.799042,37.2932692 C329.784618,37.2932692 330.849042,37.7269231 331.243272,39.1461538 C332.701926,37.2538462 334.436542,37.0567308 335.225003,37.0567308 C337.117311,37.0567308 338.812503,38.0423077 339.443272,39.5403846 C341.020195,37.2932692 343.030772,37.0567308 343.779811,37.0567308 C346.736542,37.0567308 348.51058,39.4221154 348.51058,42.3394231 L348.51058,50.5788462 C348.51058,52.0769231 347.327888,53.2596154 345.829811,53.2596154 C344.331734,53.2596154 343.188465,52.0769231 343.188465,50.5788462 L343.188465,43.6009615 C343.188465,42.3 342.124042,42.1028846 341.414426,42.1028846 C340.152888,42.1028846 339.640388,43.0096154 339.640388,43.7586538 L339.640388,50.8548077 C339.640388,52.1951923 338.575965,53.2596154 337.23558,53.2596154 C335.855772,53.2596154 334.830772,52.1951923 334.830772,50.8548077 L334.830772,43.6009615 C334.830772,42.4576923 333.766349,42.1028846 333.056734,42.1028846 C331.282695,42.1028846 331.322118,43.7192308 331.322118,43.7980769 L331.322118,50.5788462 C331.322118,52.0769231 330.139426,53.2596154 328.641349,53.2596154 C327.143272,53.2596154 326.000003,52.0769231 326.000003,50.5788462 Z M359.332447,53.4961538 L359.017062,53.4961538 C356.218023,53.4961538 351.250716,51.8009615 351.250716,45.0990385 C351.250716,39.4221154 355.78437,37.0567308 359.214177,37.0567308 C362.565139,37.0567308 367.05937,39.4221154 367.05937,45.0990385 C367.05937,51.8009615 362.131485,53.4961538 359.332447,53.4961538 Z M359.174754,48.3711538 C360.2786,48.3711538 361.737254,47.9769231 361.737254,45.1778846 C361.737254,42.8519231 360.357447,42.1028846 359.174754,42.1028846 C357.992062,42.1028846 356.572831,42.8519231 356.572831,45.1778846 C356.572831,47.9769231 358.070908,48.3711538 359.174754,48.3711538 Z M369.996621,50.5788462 L369.996621,40.0923077 C369.996621,38.5548077 371.258159,37.2932692 372.795659,37.2932692 C373.781236,37.2932692 374.845659,37.6875 375.23989,39.1067308 C376.383159,37.0567308 378.551428,37.0567308 379.734121,37.0567308 C382.690852,37.0567308 384.780275,39.3826923 384.780275,42.3 L384.780275,50.5788462 C384.780275,52.0769231 383.597582,53.2596154 382.099505,53.2596154 C380.601428,53.2596154 379.458159,52.0769231 379.458159,50.5788462 L379.458159,43.6009615 C379.458159,42.4576923 378.590852,42.1028846 377.881236,42.1028846 C375.949505,42.1028846 375.318736,43.6798077 375.318736,43.6798077 L375.318736,50.5788462 C375.318736,52.0769231 374.136044,53.2596154 372.637967,53.2596154 C371.13989,53.2596154 369.996621,52.0769231 369.996621,50.5788462 Z M393.433872,42.6548077 L397.612718,38.2788462 C398.085795,37.6875 398.755987,37.2932692 399.583872,37.2932692 C401.003103,37.2932692 402.146372,38.5153846 402.146372,39.9346154 C402.146372,40.4865385 401.949256,41.0384615 401.673295,41.4326923 L398.874256,43.9557692 L402.698295,48.7653846 C402.974256,49.1990385 403.210795,49.7903846 403.210795,50.3817308 C403.210795,51.9586538 401.98868,53.2596154 400.411756,53.2596154 C399.505026,53.2596154 398.755987,52.8653846 398.28291,52.1951923 L393.433872,45.6509615 L393.433872,50.5788462 C393.433872,52.0769231 392.25118,53.2596154 390.753103,53.2596154 C389.255026,53.2596154 388.111756,52.0769231 388.111756,50.5788462 L388.111756,32.6807692 C388.111756,31.1826923 389.255026,30 390.753103,30 C392.25118,30 393.433872,31.1826923 393.433872,32.6807692 L393.433872,42.6548077 Z M410.090354,43.9951923 L414.702854,43.9951923 C414.466315,42.4182692 413.7567,41.6298077 412.337469,41.6298077 C411.036508,41.6298077 410.129777,42.4182692 410.090354,43.9951923 Z M417.580738,52.9048077 C416.476892,53.2596154 414.742277,53.4961538 412.613431,53.4961538 C407.6067,53.4961538 404.886508,49.8298077 404.886508,45.2567308 C404.886508,40.7625 408.000931,37.0567308 412.574008,37.0567308 C416.989392,37.0567308 419.749008,40.1711538 419.749008,44.3894231 C419.749008,45.8086538 418.645161,46.9913462 417.225931,46.9913462 L410.090354,46.9913462 C410.287469,48.0557692 410.721123,48.9230769 413.874969,48.9230769 C414.387469,48.9230769 415.727854,48.7259615 416.910546,48.5682692 C418.132661,48.5682692 418.763431,49.5538462 418.763431,50.7365385 C418.763431,51.7615385 418.3692,52.6288462 417.580738,52.9048077 Z M436.444913,40.8413462 L429.74299,56.3740385 C428.08722,60.1586538 426.076643,61.0653846 424.026643,61.0653846 L423.356451,61.0653846 C422.016066,61.0653846 420.91222,59.9615385 420.91222,58.6211538 C420.91222,57.4384615 421.740105,56.4528846 422.843951,56.2163462 C423.553566,56.0586538 424.657413,55.625 425.209336,54.4423077 L426.03722,52.2346154 L421.661259,40.8413462 C421.54299,40.5653846 421.503566,40.25 421.503566,39.9346154 C421.503566,38.4759615 422.686259,37.2932692 424.10549,37.2932692 C425.288182,37.2932692 426.273759,38.0423077 426.628566,39.1067308 L428.915105,46.1240385 L431.477605,39.1067308 C431.871836,38.0423077 432.81799,37.2932692 434.000682,37.2932692 C435.419913,37.2932692 436.602605,38.4759615 436.602605,39.9346154 C436.602605,40.25 436.563182,40.5653846 436.444913,40.8413462 Z M448.488894,53.3384615 L446.044664,53.3384615 C440.840818,53.3384615 440.210048,49.7903846 440.210048,47.6615385 L440.210048,42.1028846 L439.382164,42.1028846 C438.278318,42.1028846 437.765818,41.2355769 437.765818,40.1711538 C437.765818,39.4615385 438.081202,38.8307692 438.43601,38.4759615 L443.639856,33.2326923 C443.836971,33.075 444.270625,32.5230769 444.783125,32.5230769 C445.256202,32.5230769 445.532164,32.8778846 445.532164,33.3115385 L445.532164,37.2932692 L448.134087,37.2932692 C449.513894,37.2932692 450.184087,38.3182692 450.184087,39.6980769 C450.184087,41.0384615 449.513894,42.1028846 448.134087,42.1028846 L445.532164,42.1028846 L445.532164,46.5182692 C445.532164,48.2923077 446.202356,48.8442308 447.66101,48.8442308 L448.488894,48.8442308 C449.71101,48.8442308 450.341779,49.7903846 450.341779,51.0913462 C450.341779,52.2740385 449.71101,53.3384615 448.488894,53.3384615 Z M455.84153,41.7875 C454.619415,41.7875 453.594415,40.8019231 453.594415,39.5798077 C453.594415,38.4365385 454.382876,37.5298077 455.683838,37.3326923 C456.590569,37.2144231 457.89153,37.0567308 459.350184,37.0567308 C464.199223,37.0567308 467.077107,39.7375 467.077107,44.1134615 L467.077107,50.4211538 C467.077107,51.9980769 465.815569,53.2596154 464.238646,53.2596154 C463.253069,53.2596154 462.228069,52.9048077 461.873261,51.6038462 C460.690569,53.3384615 458.601146,53.4961538 457.812684,53.4961538 C457.024223,53.4961538 452.293453,53.2596154 452.293453,48.0163462 C452.293453,45.1778846 454.185761,43.2855769 457.536723,43.2855769 C458.719415,43.2855769 460.532876,43.5221154 461.873261,44.7442308 L461.873261,43.6798077 C461.873261,42.6153846 461.242492,41.6298077 458.088646,41.6298077 C457.457876,41.6298077 456.629992,41.7086538 455.84153,41.7875 Z M461.754992,48.0951923 L461.754992,47.5432692 C461.754992,47.5432692 461.242492,46.8730769 459.389607,46.8730769 C457.773261,46.8730769 457.615569,47.2673077 457.615569,47.8192308 C457.615569,48.3317308 457.970376,48.8048077 459.389607,48.8048077 C461.518453,48.8048077 461.754992,48.0951923 461.754992,48.0951923 Z M476.124935,32.6807692 L476.124935,50.5788462 C476.124935,52.0769231 474.942243,53.2596154 473.444166,53.2596154 C471.946089,53.2596154 470.80282,52.0769231 470.80282,50.5788462 L470.80282,32.6807692 C470.80282,31.1826923 471.946089,30 473.444166,30 C474.942243,30 476.124935,31.1826923 476.124935,32.6807692 Z M485.172763,42.6548077 L489.351609,38.2788462 C489.824686,37.6875 490.494879,37.2932692 491.322763,37.2932692 C492.741994,37.2932692 493.885263,38.5153846 493.885263,39.9346154 C493.885263,40.4865385 493.688148,41.0384615 493.412186,41.4326923 L490.613148,43.9557692 L494.437186,48.7653846 C494.713148,49.1990385 494.949686,49.7903846 494.949686,50.3817308 C494.949686,51.9586538 493.727571,53.2596154 492.150648,53.2596154 C491.243917,53.2596154 490.494879,52.8653846 490.021802,52.1951923 L485.172763,45.6509615 L485.172763,50.5788462 C485.172763,52.0769231 483.990071,53.2596154 482.491994,53.2596154 C480.993917,53.2596154 479.850648,52.0769231 479.850648,50.5788462 L479.850648,32.6807692 C479.850648,31.1826923 480.993917,30 482.491994,30 C483.990071,30 485.172763,31.1826923 485.172763,32.6807692 L485.172763,42.6548077 Z M507.151361,37.4903846 C508.215784,37.8057692 509.004245,38.7125 509.004245,39.8951923 C509.004245,41.5903846 508.29463,41.8663462 507.26963,41.8663462 C506.323476,41.7086538 505.140784,41.4721154 504.234053,41.4721154 C503.051361,41.4721154 501.947514,41.5115385 501.947514,42.1028846 C501.947514,43.1278846 510.502322,43.3644231 510.502322,48.2134615 C510.502322,51.7615385 507.624437,53.4961538 503.130207,53.4961538 C501.316745,53.4961538 500.015784,53.0230769 498.793668,52.5105769 C497.886937,52.1557692 497.335014,51.3278846 497.335014,50.3028846 C497.335014,49.1596154 498.04463,48.1346154 499.109053,48.1346154 C500.252322,48.4105769 501.750399,48.9230769 502.854245,48.9230769 C503.603284,48.9230769 505.180207,48.8836538 505.180207,48.3711538 C505.180207,46.9913462 496.625399,47.0307692 496.625399,42.1817308 C496.625399,38.5548077 500.252322,37.0567308 503.603284,37.0567308 C505.140784,37.0567308 506.284053,37.2932692 507.151361,37.4903846 Z M285.852665,27.6171924 L285.852665,38.2226943 C285.852665,39.0573857 286.158252,39.863197 286.711731,40.487993 C287.962821,41.9002865 290.12192,42.0309679 291.534214,40.779878 L293.514485,39.025641 L293.765998,39.025641 C294.472418,40.9407925 294.89647,42.8426808 294.990596,44.6253746 C296.323758,44.5546121 297.592698,44.8748917 298.526284,45.7326007 C300.83696,47.8554779 299.915602,52.1699134 298.339101,54.6445221 C297.008571,56.6312223 295.043312,58.1069179 292.765192,58.8299201 C290.957831,62.9528805 283.318664,67.7917915 275.675338,68.0124043 C266.940107,68.266317 258.412859,62.53663 256.956987,58.71337 C254.931245,58.0390443 252.895105,56.5800866 251.670093,54.7360972 C250.060315,52.3031136 249.053683,48.013653 251.326923,45.8512321 C252.267,44.9562937 253.564806,44.6212121 254.937485,44.6857309 C255.721576,34.9746087 263.335889,26.9240011 271.407587,25.5182895 C279.479286,24.1125778 265.898614,22.0840047 272,22 C277.182429,21.9286476 281.988003,24.2198336 285.852665,27.6171924 Z M292.423849,35.9839614 L289.544929,38.5342723 C289.372849,38.6867104 289.109775,38.6707877 288.957337,38.4987078 C288.889899,38.4225801 288.852665,38.3243966 288.852665,38.2226943 L288.852665,24.1625042 C288.852665,21.8636166 290.716281,20 293.015169,20 L313.18365,20 C315.482537,20 317.346154,21.8636166 317.346154,24.1625042 L317.346154,31.8631369 C317.346154,34.1620244 315.482537,36.025641 313.18365,36.025641 L293.015169,36.025641 C292.814426,36.025641 292.617002,36.0114308 292.423849,35.9839614 Z" id="Combined-Shape"></path>
        </g>
    </g>
</svg>