<?xml version="1.0" encoding="UTF-8"?>
<svg width="30px" height="30px" viewBox="0 0 30 30" version="1.1" xmlns="http://www.w3.org/2000/svg" xmlns:xlink="http://www.w3.org/1999/xlink">
    <!-- Generator: Sketch 52.1 (67048) - http://www.bohemiancoding.com/sketch -->
    <title>facebook-icon</title>
    <desc>Created with Sketch.</desc>
    <g id="Page-1" stroke="none" stroke-width="1" fill="none" fill-rule="evenodd">
        <path d="M20.691236,29.9880899 L20.691236,18.3751685 L24.5892135,18.3751685 L25.172809,13.8493258 L20.6911236,13.8493258 L20.6911236,10.9597753 C20.6911236,9.6494382 21.0549438,8.75651685 22.9340449,8.75651685 L25.3305618,8.75539326 L25.3305618,4.70752809 C24.9160674,4.65247191 23.4933708,4.52921348 21.838427,4.52921348 C18.3830337,4.52921348 16.0174157,6.63831461 16.0174157,10.5116854 L16.0174157,13.8493258 L12.1094382,13.8493258 L12.1094382,18.3751685 L16.0174157,18.3751685 L16.0174157,29.9880899 L1.65505618,29.9880899 C0.740786517,29.9880899 -9.9475983e-14,29.2470787 -9.9475983e-14,28.3330337 L-9.9475983e-14,1.65505618 C-9.9475983e-14,0.740898876 0.740786517,5.32907052e-14 1.65505618,5.32907052e-14 L28.3330337,5.32907052e-14 C29.2468539,5.32907052e-14 29.9879775,0.740786517 29.9879775,1.65505618 L29.9879775,28.3331461 C29.9879775,29.2470787 29.2469663,29.9882022 28.3330337,29.9882022 L28.3330337,29.9880899 L20.691236,29.9880899 Z" id="facebook-icon" fill="#3DF291"></path>
    </g>
</svg>