<?xml version="1.0" encoding="UTF-8"?>
<svg width="30px" height="30px" viewBox="0 0 30 30" version="1.1" xmlns="http://www.w3.org/2000/svg" xmlns:xlink="http://www.w3.org/1999/xlink">
    <!-- Generator: Sketch 52.1 (67048) - http://www.bohemiancoding.com/sketch -->
    <title>instagram-icon</title>
    <desc>Created with Sketch.</desc>
    <g id="Page-1" stroke="none" stroke-width="1" fill="none" fill-rule="evenodd">
        <path d="M15.0033463,7.30837889 C10.7467931,7.30837889 7.3134412,10.7424969 7.3134412,15 C7.3134412,19.2575031 10.7467931,22.6916211 15.0033463,22.6916211 C19.2598996,22.6916211 22.6932515,19.2575031 22.6932515,15 C22.6932515,10.7424969 19.2598996,7.30837889 15.0033463,7.30837889 Z M15.0033463,20.0005578 C12.2526492,20.0005578 10.0039041,17.7580051 10.0039041,15 C10.0039041,12.2419949 12.2459565,9.9994422 15.0033463,9.9994422 C17.7607362,9.9994422 20.0027886,12.2419949 20.0027886,15 C20.0027886,17.7580051 17.7540435,20.0005578 15.0033463,20.0005578 Z M24.8014501,6.99375209 C24.8014501,7.99118599 23.9983268,8.78779427 23.0078081,8.78779427 C22.0105968,8.78779427 21.2141662,7.9844918 21.2141662,6.99375209 C21.2141662,6.00301238 22.0172895,5.19970992 23.0078081,5.19970992 C23.9983268,5.19970992 24.8014501,6.00301238 24.8014501,6.99375209 Z M29.8945901,8.81457101 C29.7808143,6.4113578 29.2320134,4.28260627 27.4718349,2.52872922 C25.7183491,0.77485217 23.5900725,0.22592882 21.1873954,0.10543345 C18.7110987,-0.035144483 11.2889013,-0.035144483 8.8126046,0.10543345 C6.4166202,0.21923463 4.2883436,0.76815798 2.5281651,2.52203503 C0.7679866,4.27591208 0.2258784,6.40466362 0.1054099,8.80787683 C-0.0351366,11.2847261 -0.0351366,18.7085797 0.1054099,21.185429 C0.2191857,23.5886422 0.7679866,25.7173937 2.5281651,27.4712708 C4.2883436,29.2251478 6.4099275,29.7740712 8.8126046,29.8945666 C11.2889013,30.0351445 18.7110987,30.0351445 21.1873954,29.8945666 C23.5900725,29.7807654 25.7183491,29.231842 27.4718349,27.4712708 C29.2253207,25.7173937 29.7741216,23.5886422 29.8945901,21.185429 C30.0351366,18.7085797 30.0351366,11.2914203 29.8945901,8.81457101 Z M26.6954824,23.8430213 C26.1734523,25.155082 25.1628555,26.1659043 23.8443949,26.6947451 C21.8700502,27.477965 17.1851645,27.2972219 15.0033463,27.2972219 C12.8215282,27.2972219 8.1299498,27.4712708 6.1622978,26.6947451 C4.8505298,26.1725985 3.8399331,25.1617762 3.3112103,23.8430213 C2.5281651,21.8682361 2.7088678,17.182305 2.7088678,15 C2.7088678,12.817695 2.5348578,8.12506973 3.3112103,6.15697869 C3.8332404,4.844918 4.8438371,3.83409573 6.1622978,3.30525494 C8.1366425,2.52203503 12.8215282,2.70277809 15.0033463,2.70277809 C17.1851645,2.70277809 21.8767429,2.52872922 23.8443949,3.30525494 C25.1561629,3.82740154 26.1667596,4.83822381 26.6954824,6.15697869 C27.4785276,8.13176392 27.2978249,12.817695 27.2978249,15 C27.2978249,17.182305 27.4785276,21.8749303 26.6954824,23.8430213 Z" id="instagram-icon" fill="#3DF291" fill-rule="nonzero"></path>
    </g>
</svg>