<?xml version="1.0" encoding="UTF-8"?>
<svg width="30px" height="30px" viewBox="0 0 30 30" version="1.1" xmlns="http://www.w3.org/2000/svg" xmlns:xlink="http://www.w3.org/1999/xlink">
    <!-- Generator: Sketch 52.1 (67048) - http://www.bohemiancoding.com/sketch -->
    <title>medium-icon</title>
    <desc>Created with Sketch.</desc>
    <g id="Page-1" stroke="none" stroke-width="1" fill="none" fill-rule="evenodd">
        <path d="M0,0 L30,0 L30,30 L0,30 L0,0 Z M7.159089,10.0331931 L7.159089,18.9408945 C7.213905,19.2622285 7.11261,19.5904732 6.886231,19.8250803 L4.769231,22.3929815 L4.769231,22.7316058 L10.772104,22.7316058 L10.772104,22.3929815 L8.655103,19.8250803 C8.427065,19.5908615 8.319497,19.2647798 8.363427,18.9408945 L8.363427,11.2371908 L13.632407,22.7316058 L14.243985,22.7316058 L18.769662,11.2371908 L18.769662,20.3988605 C18.769662,20.6434225 18.769662,20.6904535 18.609711,20.8503595 L16.981972,22.4306065 L16.981972,22.7692308 L24.885441,22.7692308 L24.885441,22.4306065 L23.314156,20.8879845 C23.17545,20.7822542 23.106644,20.6084791 23.135388,20.4364854 L23.135388,9.10197622 C23.106644,8.92998249 23.17545,8.75620734 23.314156,8.65047709 L24.923077,7.10785511 L24.923077,6.76923077 L19.353013,6.76923077 L15.382461,16.6739926 L10.866193,6.76923077 L5.023271,6.76923077 L5.023271,7.10785511 L6.905049,9.37475692 C7.089785,9.54126631 7.184129,9.78579342 7.159089,10.0331931 Z" id="medium-icon" fill="#3DF291" fill-rule="nonzero"></path>
    </g>
</svg>