<?xml version="1.0" encoding="UTF-8"?>
<svg width="30px" height="30px" viewBox="0 0 30 30" version="1.1" xmlns="http://www.w3.org/2000/svg" xmlns:xlink="http://www.w3.org/1999/xlink">
    <!-- Generator: Sketch 52.1 (67048) - http://www.bohemiancoding.com/sketch -->
    <title>telegram-icon</title>
    <desc>Created with Sketch.</desc>
    <g id="Page-1" stroke="none" stroke-width="1" fill="none" fill-rule="evenodd">
        <path d="M30,15 C30,23.2875 23.2875,30 15,30 C6.7125,30 0,23.2875 0,15 C0,6.7125 6.7125,0 15,0 C23.2875,0 30,6.7125 30,15 Z M12.1391553,17.7695945 L11.8341999,21.4290592 L11.8341999,21.5540592 C12.2091999,21.5540592 12.3716999,21.3790592 12.5841999,21.1790592 C12.7181965,21.0502164 13.5066503,20.2839152 14.3871218,19.427702 L18.1341999,22.1915592 C18.8216999,22.5665592 19.3216999,22.3790592 19.4966999,21.5540592 L21.9591999,9.95405924 C22.2091999,8.94155924 21.5716999,8.49155924 20.9091999,8.79155924 L6.45919995,14.3665592 C5.47169995,14.7665592 5.48419995,15.3165592 6.28419995,15.5540592 L9.99669995,16.7165592 L18.5841999,11.3040592 C18.9841999,11.0540592 19.3591999,11.1915592 19.0591999,11.4665592 L12.0841999,17.7290592 L12.1391553,17.7695945 Z" id="telegram-icon" fill="#3DF291"></path>
    </g>
</svg>